%TF.GenerationSoftware,KiCad,Pcbnew,(6.0.9)*%
%TF.CreationDate,2023-03-02T15:05:35+09:00*%
%TF.ProjectId,mosaicBoard,6d6f7361-6963-4426-9f61-72642e6b6963,rev?*%
%TF.SameCoordinates,PX72eaf20PY14fb180*%
%TF.FileFunction,Soldermask,Top*%
%TF.FilePolarity,Negative*%
%FSLAX46Y46*%
G04 Gerber Fmt 4.6, Leading zero omitted, Abs format (unit mm)*
G04 Created by KiCad (PCBNEW (6.0.9)) date 2023-03-02 15:05:35*
%MOMM*%
%LPD*%
G01*
G04 APERTURE LIST*
G04 Aperture macros list*
%AMRoundRect*
0 Rectangle with rounded corners*
0 $1 Rounding radius*
0 $2 $3 $4 $5 $6 $7 $8 $9 X,Y pos of 4 corners*
0 Add a 4 corners polygon primitive as box body*
4,1,4,$2,$3,$4,$5,$6,$7,$8,$9,$2,$3,0*
0 Add four circle primitives for the rounded corners*
1,1,$1+$1,$2,$3*
1,1,$1+$1,$4,$5*
1,1,$1+$1,$6,$7*
1,1,$1+$1,$8,$9*
0 Add four rect primitives between the rounded corners*
20,1,$1+$1,$2,$3,$4,$5,0*
20,1,$1+$1,$4,$5,$6,$7,0*
20,1,$1+$1,$6,$7,$8,$9,0*
20,1,$1+$1,$8,$9,$2,$3,0*%
G04 Aperture macros list end*
%ADD10RoundRect,0.218750X-0.256250X0.218750X-0.256250X-0.218750X0.256250X-0.218750X0.256250X0.218750X0*%
%ADD11RoundRect,0.218750X-0.218750X-0.256250X0.218750X-0.256250X0.218750X0.256250X-0.218750X0.256250X0*%
%ADD12RoundRect,0.218750X0.256250X-0.218750X0.256250X0.218750X-0.256250X0.218750X-0.256250X-0.218750X0*%
%ADD13RoundRect,0.218750X0.218750X0.256250X-0.218750X0.256250X-0.218750X-0.256250X0.218750X-0.256250X0*%
%ADD14C,0.001000*%
%ADD15R,1.400000X1.400000*%
%ADD16C,1.400000*%
%ADD17C,1.530000*%
%ADD18C,2.400000*%
%ADD19RoundRect,0.147500X-0.147500X-0.172500X0.147500X-0.172500X0.147500X0.172500X-0.147500X0.172500X0*%
%ADD20R,1.700000X1.700000*%
%ADD21O,1.700000X1.700000*%
%ADD22R,0.600000X0.250000*%
%ADD23C,2.200000*%
%ADD24C,1.700000*%
%ADD25RoundRect,0.147500X0.147500X0.172500X-0.147500X0.172500X-0.147500X-0.172500X0.147500X-0.172500X0*%
%ADD26R,0.900000X1.200000*%
%ADD27C,0.600000*%
%ADD28R,1.350000X0.400000*%
%ADD29R,1.900000X1.500000*%
%ADD30C,1.450000*%
%ADD31R,1.900000X1.200000*%
%ADD32O,1.900000X1.200000*%
%ADD33R,2.000000X1.500000*%
%ADD34R,2.000000X3.800000*%
%ADD35RoundRect,0.100000X-0.637500X-0.100000X0.637500X-0.100000X0.637500X0.100000X-0.637500X0.100000X0*%
%ADD36R,0.850000X0.300000*%
%ADD37R,0.300000X0.850000*%
%ADD38R,3.200000X3.200000*%
%ADD39R,1.200000X0.700000*%
%ADD40R,0.800000X1.000000*%
%ADD41R,1.200000X1.000000*%
%ADD42R,1.900000X1.300000*%
%ADD43R,2.800000X1.000000*%
%ADD44R,1.200000X0.900000*%
%ADD45C,2.250000*%
%ADD46C,3.200000*%
%ADD47R,1.800000X1.800000*%
%ADD48C,1.800000*%
%ADD49RoundRect,0.200000X-0.200000X-0.275000X0.200000X-0.275000X0.200000X0.275000X-0.200000X0.275000X0*%
G04 APERTURE END LIST*
D10*
%TO.C,C1*%
X14437500Y-46237000D03*
X14437500Y-47812000D03*
%TD*%
D11*
%TO.C,R2*%
X61871900Y-25574200D03*
X63446900Y-25574200D03*
%TD*%
%TO.C,R4*%
X11554500Y-40865000D03*
X13129500Y-40865000D03*
%TD*%
%TO.C,C5*%
X33525000Y-42897000D03*
X35100000Y-42897000D03*
%TD*%
D12*
%TO.C,C2*%
X14437500Y-44637000D03*
X14437500Y-43062000D03*
%TD*%
D11*
%TO.C,C10*%
X61871900Y-22145200D03*
X63446900Y-22145200D03*
%TD*%
%TO.C,C12*%
X61871900Y-23872400D03*
X63446900Y-23872400D03*
%TD*%
%TO.C,C13*%
X58630000Y-27303200D03*
X60205000Y-27303200D03*
%TD*%
%TO.C,C14*%
X48740000Y-47469000D03*
X50315000Y-47469000D03*
%TD*%
%TO.C,C15*%
X58620700Y-25574200D03*
X60195700Y-25574200D03*
%TD*%
%TO.C,C16*%
X48740000Y-45818000D03*
X50315000Y-45818000D03*
%TD*%
D13*
%TO.C,FB1*%
X60195700Y-23872400D03*
X58620700Y-23872400D03*
%TD*%
D14*
%TO.C,J9*%
X63150000Y-34585000D03*
X63150000Y-46015000D03*
D15*
X56800000Y-44745000D03*
D16*
X54260000Y-43475000D03*
X56800000Y-42205000D03*
X54260000Y-40935000D03*
X56800000Y-39665000D03*
X54260000Y-38395000D03*
X56800000Y-37125000D03*
X54260000Y-35855000D03*
D17*
X68230000Y-46625000D03*
X66530000Y-44085000D03*
X68230000Y-36515000D03*
X66530000Y-33975000D03*
D18*
X60100000Y-48175000D03*
X60100000Y-32425000D03*
%TD*%
D11*
%TO.C,R10*%
X48740000Y-44167000D03*
X50315000Y-44167000D03*
%TD*%
%TO.C,R14*%
X61871900Y-29027400D03*
X63446900Y-29027400D03*
%TD*%
D19*
%TO.C,D13*%
X52884000Y-10793500D03*
X53854000Y-10793500D03*
%TD*%
%TO.C,D12*%
X52884000Y-13793500D03*
X53854000Y-13793500D03*
%TD*%
%TO.C,D11*%
X52899000Y-12293500D03*
X53869000Y-12293500D03*
%TD*%
%TO.C,D10*%
X52884000Y-9293500D03*
X53854000Y-9293500D03*
%TD*%
D20*
%TO.C,J5*%
X39545500Y-41817500D03*
D21*
X39545500Y-44357500D03*
X39545500Y-46897500D03*
X39545500Y-49437500D03*
%TD*%
D22*
%TO.C,FL1*%
X9950000Y-47000000D03*
X9950000Y-46500000D03*
X9950000Y-46000000D03*
X8650000Y-46000000D03*
X8650000Y-46500000D03*
X8650000Y-47000000D03*
%TD*%
D23*
%TO.C,SW1*%
X7300000Y-33150000D03*
X7300000Y-26150000D03*
D24*
X4800000Y-31900000D03*
X4800000Y-27400000D03*
%TD*%
D10*
%TO.C,L1*%
X13950000Y-4150000D03*
X13950000Y-5725000D03*
%TD*%
%TO.C,L2*%
X13970000Y-11305000D03*
X13970000Y-12880000D03*
%TD*%
D11*
%TO.C,C3*%
X13980000Y-9440000D03*
X15555000Y-9440000D03*
%TD*%
D25*
%TO.C,D9*%
X13370000Y-14750000D03*
X12400000Y-14750000D03*
%TD*%
D11*
%TO.C,C6*%
X22500000Y-36900000D03*
X24075000Y-36900000D03*
%TD*%
%TO.C,C7*%
X22462500Y-38500000D03*
X24037500Y-38500000D03*
%TD*%
D26*
%TO.C,D1*%
X10850000Y-43600000D03*
X7550000Y-43600000D03*
%TD*%
D27*
%TO.C,U1*%
X45300000Y-34470000D03*
X44030000Y-34470000D03*
X42760000Y-34470000D03*
X41490000Y-34470000D03*
X40220000Y-34470000D03*
X38950000Y-34470000D03*
X37680000Y-34470000D03*
X36410000Y-34470000D03*
X35140000Y-34470000D03*
X33870000Y-34470000D03*
X32600000Y-34470000D03*
X31330000Y-34470000D03*
X30060000Y-34470000D03*
X28790000Y-34470000D03*
X27520000Y-34470000D03*
X26250000Y-34470000D03*
X24980000Y-34470000D03*
X23710000Y-34470000D03*
X22440000Y-34470000D03*
X21170000Y-34470000D03*
X19900000Y-34470000D03*
X18630000Y-34470000D03*
X46570000Y-9070000D03*
X45300000Y-9070000D03*
X44030000Y-9070000D03*
X42760000Y-9070000D03*
X41490000Y-9070000D03*
X40220000Y-9070000D03*
X38950000Y-9070000D03*
X37680000Y-9070000D03*
X36410000Y-9070000D03*
X35140000Y-9070000D03*
X33870000Y-9070000D03*
X32600000Y-9070000D03*
X31330000Y-9070000D03*
X30060000Y-9070000D03*
X28790000Y-9070000D03*
X27520000Y-9070000D03*
X26250000Y-9070000D03*
X24980000Y-9070000D03*
X23710000Y-9070000D03*
X22440000Y-9070000D03*
X21170000Y-9070000D03*
X19900000Y-9070000D03*
X18630000Y-9070000D03*
X46570000Y-7800000D03*
X45270000Y-7800000D03*
X44030000Y-7800000D03*
X42730000Y-7800000D03*
X41490000Y-7800000D03*
X40190000Y-7800000D03*
X38950000Y-7800000D03*
X37650000Y-7800000D03*
X36410000Y-7800000D03*
X35110000Y-7800000D03*
X33870000Y-7800000D03*
X32570000Y-7800000D03*
X31330000Y-7800000D03*
X30030000Y-7800000D03*
X28790000Y-7800000D03*
X27490000Y-7800000D03*
X26250000Y-7800000D03*
X24950000Y-7800000D03*
X23710000Y-7800000D03*
X22410000Y-7800000D03*
X21170000Y-7800000D03*
X19870000Y-7800000D03*
X18630000Y-7800000D03*
X46570000Y-6530000D03*
X45270000Y-6530000D03*
X44030000Y-6530000D03*
X42730000Y-6530000D03*
X41490000Y-6530000D03*
X40190000Y-6530000D03*
X38950000Y-6530000D03*
X37650000Y-6530000D03*
X36410000Y-6530000D03*
X35110000Y-6530000D03*
X33870000Y-6530000D03*
X32570000Y-6530000D03*
X31330000Y-6530000D03*
X30030000Y-6530000D03*
X28790000Y-6530000D03*
X27490000Y-6530000D03*
X26250000Y-6530000D03*
X24950000Y-6530000D03*
X23710000Y-6530000D03*
X22410000Y-6530000D03*
X21170000Y-6530000D03*
X19870000Y-6530000D03*
X18630000Y-6530000D03*
X46570000Y-33200000D03*
X45270000Y-33200000D03*
X44030000Y-33200000D03*
X42730000Y-33200000D03*
X41490000Y-33200000D03*
X40190000Y-33200000D03*
X38950000Y-33200000D03*
X37650000Y-33200000D03*
X36410000Y-33200000D03*
X35110000Y-33200000D03*
X33870000Y-33200000D03*
X32570000Y-33200000D03*
X31330000Y-33200000D03*
X30030000Y-33200000D03*
X28790000Y-33200000D03*
X27490000Y-33200000D03*
X26250000Y-33200000D03*
X24950000Y-33200000D03*
X23710000Y-33200000D03*
X22410000Y-33200000D03*
X21170000Y-33200000D03*
X19870000Y-33200000D03*
X18630000Y-33200000D03*
X46570000Y-31930000D03*
X45270000Y-31930000D03*
X44030000Y-31930000D03*
X42730000Y-31930000D03*
X41490000Y-31930000D03*
X40190000Y-31930000D03*
X38950000Y-31930000D03*
X37650000Y-31930000D03*
X36410000Y-31930000D03*
X35110000Y-31930000D03*
X33870000Y-31930000D03*
X32570000Y-31930000D03*
X31330000Y-31930000D03*
X30030000Y-31930000D03*
X28790000Y-31930000D03*
X27490000Y-31930000D03*
X26250000Y-31930000D03*
X24950000Y-31930000D03*
X23710000Y-31930000D03*
X22410000Y-31930000D03*
X21170000Y-31930000D03*
X19870000Y-31930000D03*
X18630000Y-31930000D03*
X46570000Y-30660000D03*
X45300000Y-30660000D03*
X44030000Y-30660000D03*
X21170000Y-30660000D03*
X19900000Y-30660000D03*
X18630000Y-30660000D03*
X46570000Y-29390000D03*
X45300000Y-29390000D03*
X44030000Y-29390000D03*
X21170000Y-29390000D03*
X19900000Y-29390000D03*
X18630000Y-29390000D03*
X46570000Y-28120000D03*
X45300000Y-28120000D03*
X44030000Y-28120000D03*
X21170000Y-28120000D03*
X19900000Y-28120000D03*
X18630000Y-28120000D03*
X46570000Y-26850000D03*
X45300000Y-26850000D03*
X44030000Y-26850000D03*
X21170000Y-26850000D03*
X19900000Y-26850000D03*
X18630000Y-26850000D03*
X46570000Y-25580000D03*
X45300000Y-25580000D03*
X44030000Y-25580000D03*
X21170000Y-25580000D03*
X19900000Y-25580000D03*
X18630000Y-25580000D03*
X46570000Y-24310000D03*
X45300000Y-24310000D03*
X44030000Y-24310000D03*
X21170000Y-24310000D03*
X19900000Y-24310000D03*
X18630000Y-24310000D03*
X46570000Y-23040000D03*
X45300000Y-23040000D03*
X44030000Y-23040000D03*
X21170000Y-23040000D03*
X19900000Y-23040000D03*
X18630000Y-23040000D03*
X46570000Y-21770000D03*
X45300000Y-21770000D03*
X44030000Y-21770000D03*
X21170000Y-21770000D03*
X19900000Y-21770000D03*
X18630000Y-21770000D03*
X46570000Y-20500000D03*
X45300000Y-20500000D03*
X44030000Y-20500000D03*
X21170000Y-20500000D03*
X19900000Y-20500000D03*
X18630000Y-20500000D03*
X46570000Y-19230000D03*
X45300000Y-19230000D03*
X44030000Y-19230000D03*
X21170000Y-19230000D03*
X19900000Y-19230000D03*
X18630000Y-19230000D03*
X46570000Y-17960000D03*
X45300000Y-17960000D03*
X44030000Y-17960000D03*
X21170000Y-17960000D03*
X19900000Y-17960000D03*
X18630000Y-17960000D03*
X46570000Y-16690000D03*
X45300000Y-16690000D03*
X44030000Y-16690000D03*
X21170000Y-16690000D03*
X19900000Y-16690000D03*
X18630000Y-16690000D03*
X46570000Y-15420000D03*
X45300000Y-15420000D03*
X44030000Y-15420000D03*
X21170000Y-15420000D03*
X19900000Y-15420000D03*
X18630000Y-15420000D03*
X46570000Y-14150000D03*
X45300000Y-14150000D03*
X44030000Y-14150000D03*
X21170000Y-14150000D03*
X19900000Y-14150000D03*
X18630000Y-14150000D03*
X46570000Y-12880000D03*
X45300000Y-12880000D03*
X44030000Y-12880000D03*
X21170000Y-12880000D03*
X19900000Y-12880000D03*
X18630000Y-12880000D03*
X46570000Y-11610000D03*
X45300000Y-11610000D03*
X44030000Y-11610000D03*
X21170000Y-11610000D03*
X19900000Y-11610000D03*
X18630000Y-11610000D03*
X46570000Y-10340000D03*
X45300000Y-10340000D03*
X44030000Y-10340000D03*
X21170000Y-10340000D03*
X19900000Y-10340000D03*
X18630000Y-10340000D03*
%TD*%
D28*
%TO.C,J10*%
X68791500Y-27100000D03*
X68791500Y-26450000D03*
X68791500Y-25800000D03*
X68791500Y-25150000D03*
X68791500Y-24500000D03*
D29*
X71491500Y-24800000D03*
D30*
X68791500Y-28300000D03*
D31*
X71491500Y-28700000D03*
D29*
X71491500Y-26800000D03*
D31*
X71491500Y-22900000D03*
D32*
X71491500Y-29300000D03*
D30*
X68791500Y-23300000D03*
D32*
X71491500Y-22300000D03*
%TD*%
D33*
%TO.C,U2*%
X17599000Y-42438500D03*
X17599000Y-44738500D03*
X17599000Y-47038500D03*
D34*
X23899000Y-44738500D03*
%TD*%
D35*
%TO.C,U3*%
X29228000Y-44432000D03*
X29228000Y-45082000D03*
X29228000Y-45732000D03*
X29228000Y-46382000D03*
X29228000Y-47032000D03*
X29228000Y-47682000D03*
X29228000Y-48332000D03*
X29228000Y-48982000D03*
X34953000Y-48982000D03*
X34953000Y-48332000D03*
X34953000Y-47682000D03*
X34953000Y-47032000D03*
X34953000Y-46382000D03*
X34953000Y-45732000D03*
X34953000Y-45082000D03*
X34953000Y-44432000D03*
%TD*%
D11*
%TO.C,C4*%
X33525000Y-41200000D03*
X35100000Y-41200000D03*
%TD*%
D36*
%TO.C,IC1*%
X55749500Y-28481000D03*
X55749500Y-27981000D03*
X55749500Y-27481000D03*
X55749500Y-26981000D03*
X55749500Y-26481000D03*
X55749500Y-25981000D03*
X55749500Y-25481000D03*
X55749500Y-24981000D03*
D37*
X55049500Y-24281000D03*
X54549500Y-24281000D03*
X54049500Y-24281000D03*
X53549500Y-24281000D03*
X53049500Y-24281000D03*
X52549500Y-24281000D03*
X52049500Y-24281000D03*
X51549500Y-24281000D03*
D36*
X50849500Y-24981000D03*
X50849500Y-25481000D03*
X50849500Y-25981000D03*
X50849500Y-26481000D03*
X50849500Y-26981000D03*
X50849500Y-27481000D03*
X50849500Y-27981000D03*
X50849500Y-28481000D03*
D37*
X51549500Y-29181000D03*
X52049500Y-29181000D03*
X52549500Y-29181000D03*
X53049500Y-29181000D03*
X53549500Y-29181000D03*
X54049500Y-29181000D03*
X54549500Y-29181000D03*
X55049500Y-29181000D03*
D38*
X53299500Y-26731000D03*
%TD*%
D13*
%TO.C,C9*%
X50315000Y-49120000D03*
X48740000Y-49120000D03*
%TD*%
%TO.C,C11*%
X50315000Y-50771000D03*
X48740000Y-50771000D03*
%TD*%
D11*
%TO.C,R3*%
X48740000Y-39214000D03*
X50315000Y-39214000D03*
%TD*%
%TO.C,R8*%
X48765500Y-40865000D03*
X50340500Y-40865000D03*
%TD*%
%TO.C,R9*%
X48740000Y-42516000D03*
X50315000Y-42516000D03*
%TD*%
%TO.C,C19*%
X52444000Y-15428500D03*
X54019000Y-15428500D03*
%TD*%
D13*
%TO.C,C17*%
X54030500Y-20399700D03*
X52455500Y-20399700D03*
%TD*%
D11*
%TO.C,C18*%
X52444000Y-17079500D03*
X54019000Y-17079500D03*
%TD*%
%TO.C,R13*%
X52444000Y-18730500D03*
X54019000Y-18730500D03*
%TD*%
%TO.C,R12*%
X52458000Y-22069000D03*
X54033000Y-22069000D03*
%TD*%
D28*
%TO.C,J3*%
X4216000Y-42900000D03*
X4216000Y-43550000D03*
X4216000Y-44200000D03*
X4216000Y-44850000D03*
X4216000Y-45500000D03*
D32*
X1516000Y-40700000D03*
X1516000Y-47700000D03*
D30*
X4216000Y-46700000D03*
D29*
X1516000Y-45200000D03*
D31*
X1516000Y-41300000D03*
D30*
X4216000Y-41700000D03*
D29*
X1516000Y-43200000D03*
D31*
X1516000Y-47100000D03*
%TD*%
D13*
%TO.C,R7*%
X13129500Y-35912000D03*
X11554500Y-35912000D03*
%TD*%
D11*
%TO.C,R5*%
X11554500Y-39214000D03*
X13129500Y-39214000D03*
%TD*%
D39*
%TO.C,J8*%
X56775000Y-10425000D03*
X56775000Y-11525000D03*
X56775000Y-12625000D03*
X56775000Y-13725000D03*
X56775000Y-14825000D03*
X56775000Y-15925000D03*
X56775000Y-17025000D03*
X56775000Y-18125000D03*
X56775000Y-19075000D03*
D40*
X67275000Y-20025000D03*
D41*
X61075000Y-20025000D03*
D42*
X71875000Y-6525000D03*
D41*
X56775000Y-8875000D03*
D43*
X71425000Y-20025000D03*
%TD*%
D44*
%TO.C,D2*%
X65936000Y-25650000D03*
X65936000Y-28950000D03*
%TD*%
D13*
%TO.C,R11*%
X60212500Y-29027400D03*
X58637500Y-29027400D03*
%TD*%
D11*
%TO.C,R1*%
X61871900Y-27301400D03*
X63446900Y-27301400D03*
%TD*%
D13*
%TO.C,R6*%
X54006500Y-7293500D03*
X52431500Y-7293500D03*
%TD*%
D11*
%TO.C,C8*%
X52431500Y-5543500D03*
X54006500Y-5543500D03*
%TD*%
D45*
%TO.C,J1*%
X4269000Y-10814000D03*
D18*
X1729000Y-13354000D03*
X6809000Y-8274000D03*
X1729000Y-8274000D03*
X6809000Y-13354000D03*
%TD*%
D45*
%TO.C,J2*%
X4260000Y-20290000D03*
D18*
X6800000Y-22830000D03*
X1720000Y-17750000D03*
X6800000Y-17750000D03*
X1720000Y-22830000D03*
%TD*%
D46*
%TO.C,REF\u002A\u002A*%
X3000000Y-52000000D03*
%TD*%
D47*
%TO.C,D5*%
X8125000Y-35850000D03*
D48*
X8125000Y-38390000D03*
%TD*%
D46*
%TO.C,REF\u002A\u002A*%
X70000000Y-3000000D03*
%TD*%
%TO.C,REF\u002A\u002A*%
X70000000Y-52000000D03*
%TD*%
D47*
%TO.C,D4*%
X5550000Y-35850000D03*
D48*
X5550000Y-38390000D03*
%TD*%
D49*
%TO.C,R15*%
X11517000Y-37563000D03*
X13167000Y-37563000D03*
%TD*%
D20*
%TO.C,J4*%
X43793700Y-41881000D03*
D21*
X43793700Y-44421000D03*
X43793700Y-46961000D03*
X43793700Y-49501000D03*
%TD*%
D47*
%TO.C,D3*%
X3075000Y-35850000D03*
D48*
X3075000Y-38390000D03*
%TD*%
D46*
%TO.C,REF\u002A\u002A*%
X3000000Y-3000000D03*
%TD*%
M02*
