%TF.GenerationSoftware,KiCad,Pcbnew,(6.0.9)*%
%TF.CreationDate,2023-03-02T15:05:35+09:00*%
%TF.ProjectId,mosaicBoard,6d6f7361-6963-4426-9f61-72642e6b6963,rev?*%
%TF.SameCoordinates,PX72eaf20PY14fb180*%
%TF.FileFunction,Legend,Bot*%
%TF.FilePolarity,Positive*%
%FSLAX46Y46*%
G04 Gerber Fmt 4.6, Leading zero omitted, Abs format (unit mm)*
G04 Created by KiCad (PCBNEW (6.0.9)) date 2023-03-02 15:05:35*
%MOMM*%
%LPD*%
G01*
G04 APERTURE LIST*
%ADD10C,0.150000*%
G04 APERTURE END LIST*
D10*
X35210857Y-17871428D02*
X35210857Y-18100000D01*
X35268000Y-18214285D01*
X35382285Y-18328571D01*
X35610857Y-18385714D01*
X36010857Y-18385714D01*
X36239428Y-18328571D01*
X36353714Y-18214285D01*
X36410857Y-18100000D01*
X36410857Y-17871428D01*
X36353714Y-17757142D01*
X36239428Y-17642857D01*
X36010857Y-17585714D01*
X35610857Y-17585714D01*
X35382285Y-17642857D01*
X35268000Y-17757142D01*
X35210857Y-17871428D01*
X35610857Y-18900000D02*
X36810857Y-18900000D01*
X35668000Y-18900000D02*
X35610857Y-19014285D01*
X35610857Y-19242857D01*
X35668000Y-19357142D01*
X35725142Y-19414285D01*
X35839428Y-19471428D01*
X36182285Y-19471428D01*
X36296571Y-19414285D01*
X36353714Y-19357142D01*
X36410857Y-19242857D01*
X36410857Y-19014285D01*
X36353714Y-18900000D01*
X36353714Y-20442857D02*
X36410857Y-20328571D01*
X36410857Y-20100000D01*
X36353714Y-19985714D01*
X36239428Y-19928571D01*
X35782285Y-19928571D01*
X35668000Y-19985714D01*
X35610857Y-20100000D01*
X35610857Y-20328571D01*
X35668000Y-20442857D01*
X35782285Y-20500000D01*
X35896571Y-20500000D01*
X36010857Y-19928571D01*
X35610857Y-21014285D02*
X36410857Y-21014285D01*
X35725142Y-21014285D02*
X35668000Y-21071428D01*
X35610857Y-21185714D01*
X35610857Y-21357142D01*
X35668000Y-21471428D01*
X35782285Y-21528571D01*
X36410857Y-21528571D01*
X36353714Y-22957142D02*
X36410857Y-23128571D01*
X36410857Y-23414285D01*
X36353714Y-23528571D01*
X36296571Y-23585714D01*
X36182285Y-23642857D01*
X36068000Y-23642857D01*
X35953714Y-23585714D01*
X35896571Y-23528571D01*
X35839428Y-23414285D01*
X35782285Y-23185714D01*
X35725142Y-23071428D01*
X35668000Y-23014285D01*
X35553714Y-22957142D01*
X35439428Y-22957142D01*
X35325142Y-23014285D01*
X35268000Y-23071428D01*
X35210857Y-23185714D01*
X35210857Y-23471428D01*
X35268000Y-23642857D01*
X36410857Y-24328571D02*
X36353714Y-24214285D01*
X36296571Y-24157142D01*
X36182285Y-24100000D01*
X35839428Y-24100000D01*
X35725142Y-24157142D01*
X35668000Y-24214285D01*
X35610857Y-24328571D01*
X35610857Y-24500000D01*
X35668000Y-24614285D01*
X35725142Y-24671428D01*
X35839428Y-24728571D01*
X36182285Y-24728571D01*
X36296571Y-24671428D01*
X36353714Y-24614285D01*
X36410857Y-24500000D01*
X36410857Y-24328571D01*
X35610857Y-25757142D02*
X36410857Y-25757142D01*
X35610857Y-25242857D02*
X36239428Y-25242857D01*
X36353714Y-25300000D01*
X36410857Y-25414285D01*
X36410857Y-25585714D01*
X36353714Y-25700000D01*
X36296571Y-25757142D01*
X36410857Y-26328571D02*
X35610857Y-26328571D01*
X35839428Y-26328571D02*
X35725142Y-26385714D01*
X35668000Y-26442857D01*
X35610857Y-26557142D01*
X35610857Y-26671428D01*
X36353714Y-27585714D02*
X36410857Y-27471428D01*
X36410857Y-27242857D01*
X36353714Y-27128571D01*
X36296571Y-27071428D01*
X36182285Y-27014285D01*
X35839428Y-27014285D01*
X35725142Y-27071428D01*
X35668000Y-27128571D01*
X35610857Y-27242857D01*
X35610857Y-27471428D01*
X35668000Y-27585714D01*
X36353714Y-28557142D02*
X36410857Y-28442857D01*
X36410857Y-28214285D01*
X36353714Y-28100000D01*
X36239428Y-28042857D01*
X35782285Y-28042857D01*
X35668000Y-28100000D01*
X35610857Y-28214285D01*
X35610857Y-28442857D01*
X35668000Y-28557142D01*
X35782285Y-28614285D01*
X35896571Y-28614285D01*
X36010857Y-28042857D01*
X38342857Y-14642857D02*
X37142857Y-14642857D01*
X37142857Y-14928571D01*
X37200000Y-15100000D01*
X37314285Y-15214285D01*
X37428571Y-15271428D01*
X37657142Y-15328571D01*
X37828571Y-15328571D01*
X38057142Y-15271428D01*
X38171428Y-15214285D01*
X38285714Y-15100000D01*
X38342857Y-14928571D01*
X38342857Y-14642857D01*
X38285714Y-16300000D02*
X38342857Y-16185714D01*
X38342857Y-15957142D01*
X38285714Y-15842857D01*
X38171428Y-15785714D01*
X37714285Y-15785714D01*
X37600000Y-15842857D01*
X37542857Y-15957142D01*
X37542857Y-16185714D01*
X37600000Y-16300000D01*
X37714285Y-16357142D01*
X37828571Y-16357142D01*
X37942857Y-15785714D01*
X38285714Y-16814285D02*
X38342857Y-16928571D01*
X38342857Y-17157142D01*
X38285714Y-17271428D01*
X38171428Y-17328571D01*
X38114285Y-17328571D01*
X38000000Y-17271428D01*
X37942857Y-17157142D01*
X37942857Y-16985714D01*
X37885714Y-16871428D01*
X37771428Y-16814285D01*
X37714285Y-16814285D01*
X37600000Y-16871428D01*
X37542857Y-16985714D01*
X37542857Y-17157142D01*
X37600000Y-17271428D01*
X38342857Y-17842857D02*
X37542857Y-17842857D01*
X37142857Y-17842857D02*
X37200000Y-17785714D01*
X37257142Y-17842857D01*
X37200000Y-17900000D01*
X37142857Y-17842857D01*
X37257142Y-17842857D01*
X37542857Y-18928571D02*
X38514285Y-18928571D01*
X38628571Y-18871428D01*
X38685714Y-18814285D01*
X38742857Y-18700000D01*
X38742857Y-18528571D01*
X38685714Y-18414285D01*
X38285714Y-18928571D02*
X38342857Y-18814285D01*
X38342857Y-18585714D01*
X38285714Y-18471428D01*
X38228571Y-18414285D01*
X38114285Y-18357142D01*
X37771428Y-18357142D01*
X37657142Y-18414285D01*
X37600000Y-18471428D01*
X37542857Y-18585714D01*
X37542857Y-18814285D01*
X37600000Y-18928571D01*
X37542857Y-19500000D02*
X38342857Y-19500000D01*
X37657142Y-19500000D02*
X37600000Y-19557142D01*
X37542857Y-19671428D01*
X37542857Y-19842857D01*
X37600000Y-19957142D01*
X37714285Y-20014285D01*
X38342857Y-20014285D01*
X38285714Y-21042857D02*
X38342857Y-20928571D01*
X38342857Y-20700000D01*
X38285714Y-20585714D01*
X38171428Y-20528571D01*
X37714285Y-20528571D01*
X37600000Y-20585714D01*
X37542857Y-20700000D01*
X37542857Y-20928571D01*
X37600000Y-21042857D01*
X37714285Y-21100000D01*
X37828571Y-21100000D01*
X37942857Y-20528571D01*
X38342857Y-22128571D02*
X37142857Y-22128571D01*
X38285714Y-22128571D02*
X38342857Y-22014285D01*
X38342857Y-21785714D01*
X38285714Y-21671428D01*
X38228571Y-21614285D01*
X38114285Y-21557142D01*
X37771428Y-21557142D01*
X37657142Y-21614285D01*
X37600000Y-21671428D01*
X37542857Y-21785714D01*
X37542857Y-22014285D01*
X37600000Y-22128571D01*
X37542857Y-23500000D02*
X38342857Y-23728571D01*
X37771428Y-23957142D01*
X38342857Y-24185714D01*
X37542857Y-24414285D01*
X38342857Y-24871428D02*
X37542857Y-24871428D01*
X37142857Y-24871428D02*
X37200000Y-24814285D01*
X37257142Y-24871428D01*
X37200000Y-24928571D01*
X37142857Y-24871428D01*
X37257142Y-24871428D01*
X37542857Y-25271428D02*
X37542857Y-25728571D01*
X37142857Y-25442857D02*
X38171428Y-25442857D01*
X38285714Y-25500000D01*
X38342857Y-25614285D01*
X38342857Y-25728571D01*
X38342857Y-26128571D02*
X37142857Y-26128571D01*
X38342857Y-26642857D02*
X37714285Y-26642857D01*
X37600000Y-26585714D01*
X37542857Y-26471428D01*
X37542857Y-26300000D01*
X37600000Y-26185714D01*
X37657142Y-26128571D01*
X38342857Y-28700000D02*
X38342857Y-28128571D01*
X37142857Y-28128571D01*
X38342857Y-29271428D02*
X38285714Y-29157142D01*
X38228571Y-29100000D01*
X38114285Y-29042857D01*
X37771428Y-29042857D01*
X37657142Y-29100000D01*
X37600000Y-29157142D01*
X37542857Y-29271428D01*
X37542857Y-29442857D01*
X37600000Y-29557142D01*
X37657142Y-29614285D01*
X37771428Y-29671428D01*
X38114285Y-29671428D01*
X38228571Y-29614285D01*
X38285714Y-29557142D01*
X38342857Y-29442857D01*
X38342857Y-29271428D01*
X37542857Y-30071428D02*
X38342857Y-30357142D01*
X37542857Y-30642857D01*
X38285714Y-31557142D02*
X38342857Y-31442857D01*
X38342857Y-31214285D01*
X38285714Y-31100000D01*
X38171428Y-31042857D01*
X37714285Y-31042857D01*
X37600000Y-31100000D01*
X37542857Y-31214285D01*
X37542857Y-31442857D01*
X37600000Y-31557142D01*
X37714285Y-31614285D01*
X37828571Y-31614285D01*
X37942857Y-31042857D01*
X40274857Y-13871428D02*
X40274857Y-13814285D01*
X40217714Y-13700000D01*
X40046285Y-13528571D01*
X39703428Y-13242857D01*
X39532000Y-13128571D01*
X39360571Y-13071428D01*
X39246285Y-13071428D01*
X39132000Y-13128571D01*
X39074857Y-13242857D01*
X39074857Y-13300000D01*
X39132000Y-13414285D01*
X39246285Y-13471428D01*
X39303428Y-13471428D01*
X39417714Y-13414285D01*
X39474857Y-13357142D01*
X39703428Y-13014285D01*
X39760571Y-12957142D01*
X39874857Y-12900000D01*
X40046285Y-12900000D01*
X40160571Y-12957142D01*
X40217714Y-13014285D01*
X40274857Y-13128571D01*
X40274857Y-13300000D01*
X40217714Y-13414285D01*
X40160571Y-13471428D01*
X39932000Y-13642857D01*
X39760571Y-13700000D01*
X39646285Y-13700000D01*
X39646285Y-14785714D02*
X39703428Y-14957142D01*
X39760571Y-15014285D01*
X39874857Y-15071428D01*
X40046285Y-15071428D01*
X40160571Y-15014285D01*
X40217714Y-14957142D01*
X40274857Y-14842857D01*
X40274857Y-14385714D01*
X39074857Y-14385714D01*
X39074857Y-14785714D01*
X39132000Y-14900000D01*
X39189142Y-14957142D01*
X39303428Y-15014285D01*
X39417714Y-15014285D01*
X39532000Y-14957142D01*
X39589142Y-14900000D01*
X39646285Y-14785714D01*
X39646285Y-14385714D01*
X40274857Y-16100000D02*
X39646285Y-16100000D01*
X39532000Y-16042857D01*
X39474857Y-15928571D01*
X39474857Y-15700000D01*
X39532000Y-15585714D01*
X40217714Y-16100000D02*
X40274857Y-15985714D01*
X40274857Y-15700000D01*
X40217714Y-15585714D01*
X40103428Y-15528571D01*
X39989142Y-15528571D01*
X39874857Y-15585714D01*
X39817714Y-15700000D01*
X39817714Y-15985714D01*
X39760571Y-16100000D01*
X40217714Y-16614285D02*
X40274857Y-16728571D01*
X40274857Y-16957142D01*
X40217714Y-17071428D01*
X40103428Y-17128571D01*
X40046285Y-17128571D01*
X39932000Y-17071428D01*
X39874857Y-16957142D01*
X39874857Y-16785714D01*
X39817714Y-16671428D01*
X39703428Y-16614285D01*
X39646285Y-16614285D01*
X39532000Y-16671428D01*
X39474857Y-16785714D01*
X39474857Y-16957142D01*
X39532000Y-17071428D01*
X40217714Y-18100000D02*
X40274857Y-17985714D01*
X40274857Y-17757142D01*
X40217714Y-17642857D01*
X40103428Y-17585714D01*
X39646285Y-17585714D01*
X39532000Y-17642857D01*
X39474857Y-17757142D01*
X39474857Y-17985714D01*
X39532000Y-18100000D01*
X39646285Y-18157142D01*
X39760571Y-18157142D01*
X39874857Y-17585714D01*
X40274857Y-19185714D02*
X39074857Y-19185714D01*
X40217714Y-19185714D02*
X40274857Y-19071428D01*
X40274857Y-18842857D01*
X40217714Y-18728571D01*
X40160571Y-18671428D01*
X40046285Y-18614285D01*
X39703428Y-18614285D01*
X39589142Y-18671428D01*
X39532000Y-18728571D01*
X39474857Y-18842857D01*
X39474857Y-19071428D01*
X39532000Y-19185714D01*
X40274857Y-20842857D02*
X40217714Y-20728571D01*
X40160571Y-20671428D01*
X40046285Y-20614285D01*
X39703428Y-20614285D01*
X39589142Y-20671428D01*
X39532000Y-20728571D01*
X39474857Y-20842857D01*
X39474857Y-21014285D01*
X39532000Y-21128571D01*
X39589142Y-21185714D01*
X39703428Y-21242857D01*
X40046285Y-21242857D01*
X40160571Y-21185714D01*
X40217714Y-21128571D01*
X40274857Y-21014285D01*
X40274857Y-20842857D01*
X39474857Y-21757142D02*
X40274857Y-21757142D01*
X39589142Y-21757142D02*
X39532000Y-21814285D01*
X39474857Y-21928571D01*
X39474857Y-22100000D01*
X39532000Y-22214285D01*
X39646285Y-22271428D01*
X40274857Y-22271428D01*
X40274857Y-23757142D02*
X39474857Y-23757142D01*
X39589142Y-23757142D02*
X39532000Y-23814285D01*
X39474857Y-23928571D01*
X39474857Y-24100000D01*
X39532000Y-24214285D01*
X39646285Y-24271428D01*
X40274857Y-24271428D01*
X39646285Y-24271428D02*
X39532000Y-24328571D01*
X39474857Y-24442857D01*
X39474857Y-24614285D01*
X39532000Y-24728571D01*
X39646285Y-24785714D01*
X40274857Y-24785714D01*
X40274857Y-25528571D02*
X40217714Y-25414285D01*
X40160571Y-25357142D01*
X40046285Y-25300000D01*
X39703428Y-25300000D01*
X39589142Y-25357142D01*
X39532000Y-25414285D01*
X39474857Y-25528571D01*
X39474857Y-25700000D01*
X39532000Y-25814285D01*
X39589142Y-25871428D01*
X39703428Y-25928571D01*
X40046285Y-25928571D01*
X40160571Y-25871428D01*
X40217714Y-25814285D01*
X40274857Y-25700000D01*
X40274857Y-25528571D01*
X40217714Y-26385714D02*
X40274857Y-26500000D01*
X40274857Y-26728571D01*
X40217714Y-26842857D01*
X40103428Y-26900000D01*
X40046285Y-26900000D01*
X39932000Y-26842857D01*
X39874857Y-26728571D01*
X39874857Y-26557142D01*
X39817714Y-26442857D01*
X39703428Y-26385714D01*
X39646285Y-26385714D01*
X39532000Y-26442857D01*
X39474857Y-26557142D01*
X39474857Y-26728571D01*
X39532000Y-26842857D01*
X40274857Y-27928571D02*
X39646285Y-27928571D01*
X39532000Y-27871428D01*
X39474857Y-27757142D01*
X39474857Y-27528571D01*
X39532000Y-27414285D01*
X40217714Y-27928571D02*
X40274857Y-27814285D01*
X40274857Y-27528571D01*
X40217714Y-27414285D01*
X40103428Y-27357142D01*
X39989142Y-27357142D01*
X39874857Y-27414285D01*
X39817714Y-27528571D01*
X39817714Y-27814285D01*
X39760571Y-27928571D01*
X40274857Y-28500000D02*
X39474857Y-28500000D01*
X39074857Y-28500000D02*
X39132000Y-28442857D01*
X39189142Y-28500000D01*
X39132000Y-28557142D01*
X39074857Y-28500000D01*
X39189142Y-28500000D01*
X40217714Y-29585714D02*
X40274857Y-29471428D01*
X40274857Y-29242857D01*
X40217714Y-29128571D01*
X40160571Y-29071428D01*
X40046285Y-29014285D01*
X39703428Y-29014285D01*
X39589142Y-29071428D01*
X39532000Y-29128571D01*
X39474857Y-29242857D01*
X39474857Y-29471428D01*
X39532000Y-29585714D01*
X39817714Y-30100000D02*
X39817714Y-31014285D01*
X39074857Y-31471428D02*
X40274857Y-32271428D01*
X39074857Y-32271428D02*
X40274857Y-31471428D01*
X39074857Y-33300000D02*
X39074857Y-32728571D01*
X39646285Y-32671428D01*
X39589142Y-32728571D01*
X39532000Y-32842857D01*
X39532000Y-33128571D01*
X39589142Y-33242857D01*
X39646285Y-33300000D01*
X39760571Y-33357142D01*
X40046285Y-33357142D01*
X40160571Y-33300000D01*
X40217714Y-33242857D01*
X40274857Y-33128571D01*
X40274857Y-32842857D01*
X40217714Y-32728571D01*
X40160571Y-32671428D01*
M02*
