%TF.GenerationSoftware,KiCad,Pcbnew,(6.0.9)*%
%TF.CreationDate,2023-03-02T15:05:35+09:00*%
%TF.ProjectId,mosaicBoard,6d6f7361-6963-4426-9f61-72642e6b6963,rev?*%
%TF.SameCoordinates,PX72eaf20PY14fb180*%
%TF.FileFunction,Copper,L4,Bot*%
%TF.FilePolarity,Positive*%
%FSLAX46Y46*%
G04 Gerber Fmt 4.6, Leading zero omitted, Abs format (unit mm)*
G04 Created by KiCad (PCBNEW (6.0.9)) date 2023-03-02 15:05:35*
%MOMM*%
%LPD*%
G01*
G04 APERTURE LIST*
%TA.AperFunction,ComponentPad*%
%ADD10R,1.400000X1.400000*%
%TD*%
%TA.AperFunction,ComponentPad*%
%ADD11C,1.400000*%
%TD*%
%TA.AperFunction,ComponentPad*%
%ADD12C,1.530000*%
%TD*%
%TA.AperFunction,ComponentPad*%
%ADD13C,2.400000*%
%TD*%
%TA.AperFunction,ComponentPad*%
%ADD14R,1.700000X1.700000*%
%TD*%
%TA.AperFunction,ComponentPad*%
%ADD15O,1.700000X1.700000*%
%TD*%
%TA.AperFunction,ComponentPad*%
%ADD16C,2.200000*%
%TD*%
%TA.AperFunction,ComponentPad*%
%ADD17C,1.700000*%
%TD*%
%TA.AperFunction,ComponentPad*%
%ADD18C,1.450000*%
%TD*%
%TA.AperFunction,ComponentPad*%
%ADD19O,1.900000X1.200000*%
%TD*%
%TA.AperFunction,ComponentPad*%
%ADD20C,2.250000*%
%TD*%
%TA.AperFunction,ComponentPad*%
%ADD21R,1.800000X1.800000*%
%TD*%
%TA.AperFunction,ComponentPad*%
%ADD22C,1.800000*%
%TD*%
%TA.AperFunction,ViaPad*%
%ADD23C,0.800000*%
%TD*%
%TA.AperFunction,Conductor*%
%ADD24C,0.500000*%
%TD*%
%TA.AperFunction,Conductor*%
%ADD25C,0.250000*%
%TD*%
%TA.AperFunction,Conductor*%
%ADD26C,0.700000*%
%TD*%
G04 APERTURE END LIST*
D10*
%TO.P,J9,1,TD+*%
%TO.N,Net-(IC1-Pad7)*%
X56800000Y-44745000D03*
D11*
%TO.P,J9,2,CT*%
%TO.N,+3.3V*%
X54260000Y-43475000D03*
%TO.P,J9,3,TD-*%
%TO.N,Net-(IC1-Pad6)*%
X56800000Y-42205000D03*
%TO.P,J9,4,RD+*%
%TO.N,Net-(IC1-Pad5)*%
X54260000Y-40935000D03*
%TO.P,J9,5,CT*%
%TO.N,+3.3V*%
X56800000Y-39665000D03*
%TO.P,J9,6,RD-*%
%TO.N,Net-(IC1-Pad4)*%
X54260000Y-38395000D03*
%TO.P,J9,7,N/A*%
%TO.N,unconnected-(J9-Pad7)*%
X56800000Y-37125000D03*
%TO.P,J9,8,CGND*%
%TO.N,GND*%
X54260000Y-35855000D03*
D12*
%TO.P,J9,9,LEDGC*%
%TO.N,/LED0*%
X68230000Y-46625000D03*
%TO.P,J9,10,LEDGA*%
%TO.N,Net-(J9-Pad10)*%
X66530000Y-44085000D03*
%TO.P,J9,11,LEDYC*%
%TO.N,/LED1*%
X68230000Y-36515000D03*
%TO.P,J9,12,LEDYA*%
%TO.N,Net-(J9-Pad12)*%
X66530000Y-33975000D03*
D13*
%TO.P,J9,13,MNT1*%
%TO.N,GND*%
X60100000Y-48175000D03*
%TO.P,J9,14,MNT2*%
X60100000Y-32425000D03*
%TD*%
D14*
%TO.P,J5,1,Pin_1*%
%TO.N,/EVENTA_3V3*%
X39545500Y-41817500D03*
D15*
%TO.P,J5,2,Pin_2*%
%TO.N,/EVENTB_3V3*%
X39545500Y-44357500D03*
%TO.P,J5,3,Pin_3*%
%TO.N,/PPSO_3V3*%
X39545500Y-46897500D03*
%TO.P,J5,4,Pin_4*%
%TO.N,GND*%
X39545500Y-49437500D03*
%TD*%
D16*
%TO.P,SW1,*%
%TO.N,*%
X7300000Y-33150000D03*
X7300000Y-26150000D03*
D17*
%TO.P,SW1,1,1*%
%TO.N,/LOGBUTTON*%
X4800000Y-31900000D03*
%TO.P,SW1,2,2*%
%TO.N,GND*%
X4800000Y-27400000D03*
%TD*%
D18*
%TO.P,J10,6,Shield*%
%TO.N,GND*%
X68791500Y-28300000D03*
D19*
X71491500Y-29300000D03*
D18*
X68791500Y-23300000D03*
D19*
X71491500Y-22300000D03*
%TD*%
%TO.P,J3,6,Shield*%
%TO.N,GND*%
X1516000Y-40700000D03*
X1516000Y-47700000D03*
D18*
X4216000Y-46700000D03*
X4216000Y-41700000D03*
%TD*%
D20*
%TO.P,J1,1,In*%
%TO.N,/ANT1*%
X4269000Y-10814000D03*
D13*
%TO.P,J1,2,Ext*%
%TO.N,GND*%
X1729000Y-13354000D03*
X6809000Y-8274000D03*
X1729000Y-8274000D03*
X6809000Y-13354000D03*
%TD*%
D20*
%TO.P,J2,1,In*%
%TO.N,/ANT2*%
X4260000Y-20290000D03*
D13*
%TO.P,J2,2,Ext*%
%TO.N,GND*%
X6800000Y-22830000D03*
X1720000Y-17750000D03*
X6800000Y-17750000D03*
X1720000Y-22830000D03*
%TD*%
D21*
%TO.P,D5,1,K*%
%TO.N,GND*%
X8125000Y-35850000D03*
D22*
%TO.P,D5,2,A*%
%TO.N,Net-(D5-Pad2)*%
X8125000Y-38390000D03*
%TD*%
D21*
%TO.P,D4,1,K*%
%TO.N,GND*%
X5550000Y-35850000D03*
D22*
%TO.P,D4,2,A*%
%TO.N,Net-(D4-Pad2)*%
X5550000Y-38390000D03*
%TD*%
D14*
%TO.P,J4,1,Pin_1*%
%TO.N,GND*%
X43793700Y-41881000D03*
D15*
%TO.P,J4,2,Pin_2*%
%TO.N,/MosaicRX1*%
X43793700Y-44421000D03*
%TO.P,J4,3,Pin_3*%
%TO.N,/MosaicTX1*%
X43793700Y-46961000D03*
%TO.P,J4,4,Pin_4*%
%TO.N,+5V*%
X43793700Y-49501000D03*
%TD*%
D21*
%TO.P,D3,1,K*%
%TO.N,GND*%
X3075000Y-35850000D03*
D22*
%TO.P,D3,2,A*%
%TO.N,Net-(D3-Pad2)*%
X3075000Y-38390000D03*
%TD*%
D23*
%TO.N,GND*%
X69425000Y-21025000D03*
X59600000Y-21025000D03*
X56950000Y-5325000D03*
X67500000Y-5300000D03*
X61250000Y-5300000D03*
X55250000Y-17525000D03*
X10945000Y-48358000D03*
X7800000Y-48000000D03*
X6200000Y-49500000D03*
X27500000Y-10300000D03*
X33225000Y-10500000D03*
X13600000Y-17200000D03*
X42758660Y-20941340D03*
X42700000Y-24950000D03*
X17500000Y-7800000D03*
X42750000Y-28800000D03*
X26900000Y-35550000D03*
X20525000Y-5375000D03*
X17600000Y-30650000D03*
X17500000Y-10350000D03*
X44050000Y-5450000D03*
X45300000Y-5400000D03*
X12900000Y-3200000D03*
X18600000Y-35600000D03*
X17450000Y-28100000D03*
X28200000Y-35550000D03*
X17500000Y-15450000D03*
X27100000Y-14400000D03*
X17500000Y-11600000D03*
X42695000Y-16608000D03*
X27000000Y-26200000D03*
X42700000Y-26200000D03*
X17500000Y-9050000D03*
X37400000Y-11550000D03*
X42700000Y-30650000D03*
X21150000Y-35600000D03*
X15644000Y-7552000D03*
X17500000Y-25600000D03*
X17550000Y-29300000D03*
X17500000Y-6500000D03*
X17450000Y-14150000D03*
X17550000Y-26850000D03*
X32900000Y-20550000D03*
X25225000Y-37175000D03*
X36400000Y-10350000D03*
X17550000Y-21800000D03*
X17500000Y-23050000D03*
X31400000Y-30750000D03*
X39000000Y-30650000D03*
X31300000Y-5350000D03*
X16406000Y-10854000D03*
X19950000Y-35600000D03*
X17550000Y-24300000D03*
X17450000Y-31900000D03*
X13600000Y-18600000D03*
X22500000Y-20500000D03*
X22500000Y-30600000D03*
X22500000Y-28100000D03*
X22500000Y-29400000D03*
X26500000Y-11000000D03*
X22500000Y-24300000D03*
X14500000Y-15600000D03*
X15300000Y-14100000D03*
X23800000Y-10300000D03*
X22600000Y-12900000D03*
X15400000Y-11800000D03*
X22600000Y-11600000D03*
X22600000Y-15400000D03*
X28800000Y-30800000D03*
X22500000Y-26800000D03*
X27500000Y-30800000D03*
X25800000Y-13600000D03*
X22500000Y-10300000D03*
X22500000Y-23000000D03*
X25900000Y-27300000D03*
X42800000Y-10300000D03*
X25100000Y-10300000D03*
X22600000Y-14200000D03*
X22500000Y-21700000D03*
X26200000Y-30800000D03*
X22600000Y-16700000D03*
X22600000Y-18000000D03*
X22500000Y-19300000D03*
X22500000Y-25600000D03*
X12950000Y-6900000D03*
X22700000Y-3900000D03*
X23600000Y-5150000D03*
X16950000Y-5350000D03*
X20800000Y-2950000D03*
X18650000Y-2950000D03*
X41400000Y-3490000D03*
X18650000Y-5325000D03*
X16250000Y-2950000D03*
X53363000Y-26641000D03*
X38885000Y-35658000D03*
X37615000Y-37055000D03*
X42187000Y-35658000D03*
X44600000Y-35658000D03*
X25550000Y-41500000D03*
X25550000Y-44167000D03*
X25550000Y-46580000D03*
X23518000Y-48739000D03*
X20216000Y-48739000D03*
X17295000Y-48739000D03*
X15200000Y-48739000D03*
X23264000Y-41500000D03*
X15009000Y-41055500D03*
X29233000Y-38325000D03*
X33043000Y-38325000D03*
X36345000Y-38325000D03*
X27836000Y-42897000D03*
X30122000Y-40611000D03*
X32400000Y-40500000D03*
X25423000Y-49882000D03*
X64500000Y-5325000D03*
X27836000Y-45056000D03*
X27836000Y-47469000D03*
X27836000Y-49755000D03*
X36400000Y-48993000D03*
X36400000Y-45056000D03*
X51712000Y-47469000D03*
X33297000Y-47215000D03*
X51966000Y-10829500D03*
X42650000Y-17878000D03*
X42695000Y-13433000D03*
X50442000Y-30100000D03*
X56538000Y-29562000D03*
X51610400Y-45538600D03*
X11788000Y-20934000D03*
X12804000Y-19664000D03*
X15500000Y-6000000D03*
X13300000Y-50700000D03*
X16100000Y-50900000D03*
X19000000Y-50900000D03*
X22500000Y-50900000D03*
X41900000Y-37700000D03*
X40200000Y-39400000D03*
X50100000Y-7500000D03*
X47700000Y-7000000D03*
X48800000Y-8600000D03*
X48800000Y-10700000D03*
X47700000Y-15800000D03*
X49100000Y-23200000D03*
X48000000Y-26600000D03*
X59550000Y-41350000D03*
X51635800Y-43278000D03*
X51150000Y-37850000D03*
X51150000Y-35400000D03*
X51150000Y-32900000D03*
X59550000Y-39050000D03*
X59500000Y-43800000D03*
X58290600Y-45919600D03*
X59586000Y-36166000D03*
X60195600Y-30120800D03*
X45300000Y-37700000D03*
X45300000Y-39600000D03*
X48250000Y-31900000D03*
X47600000Y-35200000D03*
X47300000Y-37700000D03*
X8900000Y-8300000D03*
X11707000Y-8480000D03*
X3600000Y-5900000D03*
X1194000Y-11225000D03*
X4819000Y-8100000D03*
X3769000Y-13500000D03*
X6200000Y-5900000D03*
X4869000Y-13500000D03*
X9100000Y-13900000D03*
X8848000Y-6027000D03*
X3719000Y-8150000D03*
X1790000Y-15600000D03*
X1000000Y-5900000D03*
X1169000Y-10275000D03*
X4119000Y-15546000D03*
X6669000Y-15500000D03*
X8569000Y-15550000D03*
X12596000Y-12417000D03*
X11326000Y-15973000D03*
X11326000Y-13814000D03*
X11580000Y-4543000D03*
X9100000Y-12400000D03*
X11000000Y-45600000D03*
X5900000Y-47600000D03*
X7000000Y-42200000D03*
X7998600Y-45030600D03*
X3819000Y-17800000D03*
X9100000Y-25100000D03*
X5600000Y-25100000D03*
X1719000Y-21050000D03*
X4969000Y-23150000D03*
X4919000Y-17750000D03*
X3819000Y-25100000D03*
X1169000Y-25100000D03*
X1719000Y-19800000D03*
X9100000Y-23400000D03*
X3869000Y-23150000D03*
X10200000Y-18700000D03*
X10400000Y-5700000D03*
X11100000Y-10000000D03*
X10400000Y-22300000D03*
X9000000Y-18300000D03*
X57503200Y-38426600D03*
X57147600Y-33803800D03*
X59128800Y-34083200D03*
X51432600Y-20392600D03*
X51737400Y-13839400D03*
X55600000Y-21600000D03*
X64818400Y-39087000D03*
X65936000Y-36242200D03*
X51610400Y-41677800D03*
X51610400Y-40077600D03*
X54582200Y-45538600D03*
X7400000Y-40200000D03*
X45400000Y-48900000D03*
X67100000Y-21400000D03*
X63000000Y-31700000D03*
X67700000Y-31500000D03*
X71700000Y-34200000D03*
X71900000Y-46600000D03*
X11350000Y-17800000D03*
X10000000Y-38900000D03*
X10000000Y-34300000D03*
X51800000Y-9300000D03*
X51839000Y-12349990D03*
X31300000Y-36008979D03*
X9700000Y-36300000D03*
X5300000Y-33800000D03*
%TO.N,+3.3V*%
X19327000Y-44675000D03*
X13231000Y-44675000D03*
X49934000Y-24101000D03*
X51125000Y-15415500D03*
X51125000Y-17115500D03*
X14310500Y-36000000D03*
X32281000Y-42897000D03*
X58125000Y-13725000D03*
X52447000Y-4098500D03*
X63446800Y-30273200D03*
X60195600Y-22424600D03*
X35837000Y-35404000D03*
X54549990Y-10800000D03*
X55852188Y-38452000D03*
X51762800Y-49120000D03*
X20736000Y-38464000D03*
%TO.N,+1V8*%
X41933000Y-5305000D03*
X33555660Y-45314660D03*
%TO.N,+5V*%
X12100000Y-43700000D03*
X65900000Y-27500000D03*
X16025000Y-19021000D03*
X20150000Y-47000000D03*
%TO.N,/PPSO_1V8*%
X31102472Y-47832000D03*
X37742000Y-5305000D03*
%TO.N,/EVENTB_1V8*%
X31934098Y-47107000D03*
X39012000Y-5305000D03*
%TO.N,/EVENTA_1V8*%
X40282000Y-5305000D03*
X32662000Y-45945000D03*
%TO.N,/LOGBUTTON*%
X17676000Y-37944000D03*
X39139000Y-22958000D03*
%TO.N,Net-(IC1-Pad4)*%
X57126396Y-26976324D03*
%TO.N,Net-(IC1-Pad5)*%
X57575000Y-25904400D03*
%TO.N,Net-(IC1-Pad6)*%
X57300000Y-24575000D03*
%TO.N,Net-(IC1-Pad7)*%
X56512600Y-23770800D03*
%TO.N,Net-(IC1-Pad28)*%
X57858800Y-30603400D03*
X53617000Y-31771800D03*
%TO.N,/nRST_LAN*%
X54699978Y-32991000D03*
X56766600Y-32533800D03*
%TD*%
D24*
%TO.N,+3.3V*%
X55410001Y-41484999D02*
X56800000Y-40095000D01*
X56800000Y-40095000D02*
X56800000Y-39665000D01*
X53560001Y-47322799D02*
X51762800Y-49120000D01*
X53560001Y-44174999D02*
X53560001Y-47322799D01*
X54260000Y-43475000D02*
X55410001Y-42324999D01*
X54260000Y-43475000D02*
X53560001Y-44174999D01*
X55410001Y-42324999D02*
X55410001Y-41484999D01*
D25*
%TO.N,+1V8*%
X41425000Y-5813000D02*
X41425000Y-37055000D01*
X41425000Y-37055000D02*
X33555660Y-44924340D01*
X41933000Y-5305000D02*
X41425000Y-5813000D01*
X33555660Y-44924340D02*
X33555660Y-45314660D01*
D26*
%TO.N,+5V*%
X70442001Y-42282999D02*
X70442001Y-32042001D01*
X61750000Y-50975000D02*
X70442001Y-42282999D01*
X70442001Y-32042001D02*
X65900000Y-27500000D01*
X16025000Y-38613000D02*
X12100000Y-42538000D01*
X20150000Y-47000000D02*
X24125000Y-50975000D01*
X43793700Y-50943700D02*
X43825000Y-50975000D01*
X12100000Y-42538000D02*
X12100000Y-43700000D01*
X16025000Y-19021000D02*
X16025000Y-38613000D01*
X43825000Y-50975000D02*
X61750000Y-50975000D01*
X43793700Y-49501000D02*
X43793700Y-50943700D01*
X24125000Y-50975000D02*
X43825000Y-50975000D01*
D25*
%TO.N,/PPSO_1V8*%
X40028000Y-36542770D02*
X31209097Y-45361673D01*
X40028000Y-7591000D02*
X40028000Y-36542770D01*
X31209097Y-47725375D02*
X31102472Y-47832000D01*
X39647000Y-7210000D02*
X40028000Y-7591000D01*
X37742000Y-5305000D02*
X39647000Y-7210000D01*
X31209097Y-45361673D02*
X31209097Y-47725375D01*
%TO.N,/EVENTB_1V8*%
X40524978Y-36682202D02*
X31934098Y-45273082D01*
X39012000Y-5305000D02*
X40524978Y-6817978D01*
X40524978Y-6817978D02*
X40524978Y-36682202D01*
X31934098Y-45273082D02*
X31934098Y-47107000D01*
%TO.N,/EVENTA_1V8*%
X32662000Y-45181590D02*
X32662000Y-45945000D01*
X40282000Y-5305000D02*
X40974989Y-5997989D01*
X40974989Y-36868601D02*
X32662000Y-45181590D01*
X40974989Y-5997989D02*
X40974989Y-36868601D01*
%TO.N,/LOGBUTTON*%
X21875001Y-35948001D02*
X21875001Y-33744999D01*
X21875001Y-33744999D02*
X32662000Y-22958000D01*
X17676000Y-37944000D02*
X19879002Y-37944000D01*
X19879002Y-37944000D02*
X21875001Y-35948001D01*
X32662000Y-22958000D02*
X39139000Y-22958000D01*
%TO.N,Net-(IC1-Pad4)*%
X56761476Y-26976324D02*
X57126396Y-26976324D01*
X52375000Y-31362800D02*
X56761476Y-26976324D01*
X54260000Y-38395000D02*
X52375000Y-36510000D01*
X52375000Y-36510000D02*
X52375000Y-31362800D01*
%TO.N,Net-(IC1-Pad5)*%
X51924989Y-31152411D02*
X57173000Y-25904400D01*
X51924989Y-38599989D02*
X51924989Y-31152411D01*
X54260000Y-40935000D02*
X51924989Y-38599989D01*
X57173000Y-25904400D02*
X57575000Y-25904400D01*
%TO.N,Net-(IC1-Pad6)*%
X58697000Y-25922000D02*
X58697000Y-30939802D01*
X58300001Y-35616601D02*
X58300001Y-40704999D01*
X58300001Y-40704999D02*
X56800000Y-42205000D01*
X57935000Y-31701802D02*
X57935000Y-35251600D01*
X58697000Y-30939802D02*
X57935000Y-31701802D01*
X57935000Y-35251600D02*
X58300001Y-35616601D01*
X57350000Y-24575000D02*
X58697000Y-25922000D01*
%TO.N,Net-(IC1-Pad7)*%
X59147011Y-25297010D02*
X59147011Y-31126202D01*
X58385011Y-35065201D02*
X58750012Y-35430201D01*
X58750012Y-35430201D02*
X58750011Y-42794989D01*
X58750011Y-42794989D02*
X56800000Y-44745000D01*
X58385011Y-31888202D02*
X58385011Y-35065201D01*
X57620800Y-23770800D02*
X59147011Y-25297010D01*
X59147011Y-31126202D02*
X58385011Y-31888202D01*
X56512600Y-23770800D02*
X57620800Y-23770800D01*
%TO.N,Net-(IC1-Pad28)*%
X53617000Y-31771800D02*
X54785400Y-30603400D01*
X54785400Y-30603400D02*
X57858800Y-30603400D01*
%TO.N,/nRST_LAN*%
X54699978Y-32991000D02*
X55157178Y-32533800D01*
X55157178Y-32533800D02*
X56766600Y-32533800D01*
%TD*%
%TA.AperFunction,Conductor*%
%TO.N,GND*%
G36*
X72445788Y-419454D02*
G01*
X72526570Y-473430D01*
X72580546Y-554212D01*
X72599500Y-649500D01*
X72599500Y-21042067D01*
X72580546Y-21137355D01*
X72526570Y-21218137D01*
X72445788Y-21272113D01*
X72350500Y-21291067D01*
X72257425Y-21273017D01*
X72168620Y-21237228D01*
X72145987Y-21230523D01*
X71958914Y-21193991D01*
X71942781Y-21192031D01*
X71941503Y-21192000D01*
X71771027Y-21192000D01*
X71750569Y-21196069D01*
X71746500Y-21216527D01*
X71746500Y-23383473D01*
X71750569Y-23403931D01*
X71771027Y-23408000D01*
X71888406Y-23408000D01*
X71900221Y-23407437D01*
X72040177Y-23394084D01*
X72063336Y-23389625D01*
X72243472Y-23336779D01*
X72258028Y-23330957D01*
X72353541Y-23313169D01*
X72448591Y-23333285D01*
X72528707Y-23388244D01*
X72581693Y-23469678D01*
X72599500Y-23562150D01*
X72599500Y-28042067D01*
X72580546Y-28137355D01*
X72526570Y-28218137D01*
X72445788Y-28272113D01*
X72350500Y-28291067D01*
X72257425Y-28273017D01*
X72168620Y-28237228D01*
X72145987Y-28230523D01*
X71958914Y-28193991D01*
X71942781Y-28192031D01*
X71941503Y-28192000D01*
X71771027Y-28192000D01*
X71750569Y-28196069D01*
X71746500Y-28216527D01*
X71746500Y-30383473D01*
X71750569Y-30403931D01*
X71771027Y-30408000D01*
X71888406Y-30408000D01*
X71900221Y-30407437D01*
X72040177Y-30394084D01*
X72063336Y-30389625D01*
X72243472Y-30336779D01*
X72258028Y-30330957D01*
X72353541Y-30313169D01*
X72448591Y-30333285D01*
X72528707Y-30388244D01*
X72581693Y-30469678D01*
X72599500Y-30562150D01*
X72599500Y-54350500D01*
X72580546Y-54445788D01*
X72526570Y-54526570D01*
X72445788Y-54580546D01*
X72350500Y-54599500D01*
X649500Y-54599500D01*
X554212Y-54580546D01*
X473430Y-54526570D01*
X419454Y-54445788D01*
X400500Y-54350500D01*
X400500Y-51968497D01*
X994637Y-51968497D01*
X1010205Y-52251370D01*
X1011921Y-52259998D01*
X1011922Y-52260004D01*
X1063757Y-52520595D01*
X1065474Y-52529226D01*
X1159342Y-52796524D01*
X1163394Y-52804325D01*
X1163396Y-52804329D01*
X1285878Y-53040117D01*
X1285881Y-53040122D01*
X1289936Y-53047928D01*
X1295055Y-53055091D01*
X1295056Y-53055093D01*
X1449531Y-53271260D01*
X1449535Y-53271265D01*
X1454651Y-53278424D01*
X1525799Y-53353007D01*
X1644114Y-53477034D01*
X1644119Y-53477039D01*
X1650199Y-53483412D01*
X1872680Y-53658801D01*
X1880293Y-53663223D01*
X1880296Y-53663225D01*
X1939426Y-53697570D01*
X2117654Y-53801093D01*
X2125810Y-53804396D01*
X2125815Y-53804399D01*
X2347350Y-53894130D01*
X2380232Y-53907448D01*
X2516541Y-53941307D01*
X2646637Y-53973624D01*
X2646642Y-53973625D01*
X2655177Y-53975745D01*
X2663932Y-53976642D01*
X2890471Y-53999853D01*
X2890479Y-53999853D01*
X2896790Y-54000500D01*
X3072170Y-54000500D01*
X3076544Y-54000190D01*
X3076552Y-54000190D01*
X3150427Y-53994959D01*
X3282593Y-53985601D01*
X3291208Y-53983746D01*
X3291210Y-53983746D01*
X3383696Y-53963834D01*
X3559547Y-53925975D01*
X3825337Y-53827920D01*
X4074660Y-53693393D01*
X4081736Y-53688166D01*
X4081740Y-53688164D01*
X4295462Y-53530306D01*
X4295463Y-53530305D01*
X4302540Y-53525078D01*
X4504430Y-53326334D01*
X4546462Y-53271260D01*
X4670961Y-53108127D01*
X4676304Y-53101126D01*
X4710471Y-53040117D01*
X4810425Y-52861634D01*
X4814730Y-52853947D01*
X4916948Y-52589730D01*
X4930973Y-52529226D01*
X4978929Y-52322329D01*
X4978929Y-52322326D01*
X4980918Y-52313747D01*
X5005363Y-52031503D01*
X5001895Y-51968497D01*
X67994637Y-51968497D01*
X68010205Y-52251370D01*
X68011921Y-52259998D01*
X68011922Y-52260004D01*
X68063757Y-52520595D01*
X68065474Y-52529226D01*
X68159342Y-52796524D01*
X68163394Y-52804325D01*
X68163396Y-52804329D01*
X68285878Y-53040117D01*
X68285881Y-53040122D01*
X68289936Y-53047928D01*
X68295055Y-53055091D01*
X68295056Y-53055093D01*
X68449531Y-53271260D01*
X68449535Y-53271265D01*
X68454651Y-53278424D01*
X68525799Y-53353007D01*
X68644114Y-53477034D01*
X68644119Y-53477039D01*
X68650199Y-53483412D01*
X68872680Y-53658801D01*
X68880293Y-53663223D01*
X68880296Y-53663225D01*
X68939426Y-53697570D01*
X69117654Y-53801093D01*
X69125810Y-53804396D01*
X69125815Y-53804399D01*
X69347350Y-53894130D01*
X69380232Y-53907448D01*
X69516541Y-53941307D01*
X69646637Y-53973624D01*
X69646642Y-53973625D01*
X69655177Y-53975745D01*
X69663932Y-53976642D01*
X69890471Y-53999853D01*
X69890479Y-53999853D01*
X69896790Y-54000500D01*
X70072170Y-54000500D01*
X70076544Y-54000190D01*
X70076552Y-54000190D01*
X70150427Y-53994959D01*
X70282593Y-53985601D01*
X70291208Y-53983746D01*
X70291210Y-53983746D01*
X70383696Y-53963834D01*
X70559547Y-53925975D01*
X70825337Y-53827920D01*
X71074660Y-53693393D01*
X71081736Y-53688166D01*
X71081740Y-53688164D01*
X71295462Y-53530306D01*
X71295463Y-53530305D01*
X71302540Y-53525078D01*
X71504430Y-53326334D01*
X71546462Y-53271260D01*
X71670961Y-53108127D01*
X71676304Y-53101126D01*
X71710471Y-53040117D01*
X71810425Y-52861634D01*
X71814730Y-52853947D01*
X71916948Y-52589730D01*
X71930973Y-52529226D01*
X71978929Y-52322329D01*
X71978929Y-52322326D01*
X71980918Y-52313747D01*
X72005363Y-52031503D01*
X71989795Y-51748630D01*
X71985886Y-51728975D01*
X71936243Y-51479405D01*
X71936242Y-51479402D01*
X71934526Y-51470774D01*
X71840658Y-51203476D01*
X71815098Y-51154271D01*
X71714122Y-50959883D01*
X71714119Y-50959878D01*
X71710064Y-50952072D01*
X71704944Y-50944907D01*
X71550469Y-50728740D01*
X71550465Y-50728735D01*
X71545349Y-50721576D01*
X71474201Y-50646993D01*
X71355886Y-50522966D01*
X71355881Y-50522961D01*
X71349801Y-50516588D01*
X71127320Y-50341199D01*
X71067766Y-50306607D01*
X71016847Y-50277031D01*
X70882346Y-50198907D01*
X70874190Y-50195604D01*
X70874185Y-50195601D01*
X70627930Y-50095858D01*
X70627931Y-50095858D01*
X70619768Y-50092552D01*
X70483459Y-50058693D01*
X70353363Y-50026376D01*
X70353358Y-50026375D01*
X70344823Y-50024255D01*
X70320198Y-50021732D01*
X70109529Y-50000147D01*
X70109521Y-50000147D01*
X70103210Y-49999500D01*
X69927830Y-49999500D01*
X69923456Y-49999810D01*
X69923448Y-49999810D01*
X69849573Y-50005041D01*
X69717407Y-50014399D01*
X69708792Y-50016254D01*
X69708790Y-50016254D01*
X69616304Y-50036166D01*
X69440453Y-50074025D01*
X69174663Y-50172080D01*
X68925340Y-50306607D01*
X68918264Y-50311834D01*
X68918260Y-50311836D01*
X68704538Y-50469694D01*
X68697460Y-50474922D01*
X68495570Y-50673666D01*
X68490231Y-50680662D01*
X68490229Y-50680664D01*
X68329039Y-50891873D01*
X68323696Y-50898874D01*
X68319395Y-50906553D01*
X68319393Y-50906557D01*
X68219212Y-51085444D01*
X68185270Y-51146053D01*
X68083052Y-51410270D01*
X68081066Y-51418837D01*
X68081065Y-51418841D01*
X68026291Y-51655152D01*
X68019082Y-51686253D01*
X67994637Y-51968497D01*
X5001895Y-51968497D01*
X4989795Y-51748630D01*
X4985886Y-51728975D01*
X4936243Y-51479405D01*
X4936242Y-51479402D01*
X4934526Y-51470774D01*
X4840658Y-51203476D01*
X4815098Y-51154271D01*
X4714122Y-50959883D01*
X4714119Y-50959878D01*
X4710064Y-50952072D01*
X4704944Y-50944907D01*
X4550469Y-50728740D01*
X4550465Y-50728735D01*
X4545349Y-50721576D01*
X4474201Y-50646993D01*
X4355886Y-50522966D01*
X4355881Y-50522961D01*
X4349801Y-50516588D01*
X4127320Y-50341199D01*
X4067766Y-50306607D01*
X4016847Y-50277031D01*
X3882346Y-50198907D01*
X3874190Y-50195604D01*
X3874185Y-50195601D01*
X3627930Y-50095858D01*
X3627931Y-50095858D01*
X3619768Y-50092552D01*
X3483459Y-50058693D01*
X3353363Y-50026376D01*
X3353358Y-50026375D01*
X3344823Y-50024255D01*
X3320198Y-50021732D01*
X3109529Y-50000147D01*
X3109521Y-50000147D01*
X3103210Y-49999500D01*
X2927830Y-49999500D01*
X2923456Y-49999810D01*
X2923448Y-49999810D01*
X2849573Y-50005041D01*
X2717407Y-50014399D01*
X2708792Y-50016254D01*
X2708790Y-50016254D01*
X2616304Y-50036166D01*
X2440453Y-50074025D01*
X2174663Y-50172080D01*
X1925340Y-50306607D01*
X1918264Y-50311834D01*
X1918260Y-50311836D01*
X1704538Y-50469694D01*
X1697460Y-50474922D01*
X1495570Y-50673666D01*
X1490231Y-50680662D01*
X1490229Y-50680664D01*
X1329039Y-50891873D01*
X1323696Y-50898874D01*
X1319395Y-50906553D01*
X1319393Y-50906557D01*
X1219212Y-51085444D01*
X1185270Y-51146053D01*
X1083052Y-51410270D01*
X1081066Y-51418837D01*
X1081065Y-51418841D01*
X1026291Y-51655152D01*
X1019082Y-51686253D01*
X994637Y-51968497D01*
X400500Y-51968497D01*
X400500Y-48954910D01*
X419454Y-48859622D01*
X473430Y-48778840D01*
X554212Y-48724864D01*
X649500Y-48705910D01*
X742576Y-48723960D01*
X838884Y-48762774D01*
X861513Y-48769477D01*
X1048586Y-48806009D01*
X1064719Y-48807969D01*
X1065997Y-48808000D01*
X1236473Y-48808000D01*
X1256931Y-48803931D01*
X1261000Y-48783473D01*
X1771000Y-48783473D01*
X1775069Y-48803931D01*
X1795527Y-48808000D01*
X1912906Y-48808000D01*
X1924721Y-48807437D01*
X2064677Y-48794084D01*
X2087836Y-48789625D01*
X2267977Y-48736778D01*
X2289883Y-48728016D01*
X2456776Y-48642060D01*
X2476624Y-48629318D01*
X2624257Y-48513351D01*
X2641340Y-48497083D01*
X2764377Y-48355296D01*
X2778076Y-48336090D01*
X2872084Y-48173592D01*
X2881903Y-48152145D01*
X2943483Y-47974811D01*
X2944624Y-47970132D01*
X2944011Y-47958443D01*
X2934287Y-47955000D01*
X1795527Y-47955000D01*
X1775069Y-47959069D01*
X1771000Y-47979527D01*
X1771000Y-48783473D01*
X1261000Y-48783473D01*
X1261000Y-47733831D01*
X3548547Y-47733831D01*
X3553606Y-47741402D01*
X3588244Y-47765656D01*
X3606996Y-47776482D01*
X3782821Y-47858471D01*
X3803179Y-47865881D01*
X3990573Y-47916092D01*
X4011908Y-47919854D01*
X4205165Y-47936762D01*
X4226835Y-47936762D01*
X4420092Y-47919854D01*
X4441427Y-47916092D01*
X4628821Y-47865881D01*
X4649179Y-47858471D01*
X4825004Y-47776482D01*
X4843756Y-47765656D01*
X4869119Y-47747897D01*
X4883540Y-47732832D01*
X4879872Y-47724496D01*
X4233341Y-47077965D01*
X4216000Y-47066378D01*
X4198659Y-47077965D01*
X3560134Y-47716490D01*
X3548547Y-47733831D01*
X1261000Y-47733831D01*
X1261000Y-47420473D01*
X1771000Y-47420473D01*
X1775069Y-47440931D01*
X1795527Y-47445000D01*
X2919749Y-47445000D01*
X2942410Y-47440492D01*
X2974166Y-47419274D01*
X2987236Y-47406203D01*
X3076993Y-47369020D01*
X3154905Y-47369016D01*
X3181113Y-47368444D01*
X3191504Y-47363872D01*
X3838035Y-46717341D01*
X3849622Y-46700000D01*
X4582378Y-46700000D01*
X4593965Y-46717341D01*
X5232490Y-47355866D01*
X5249831Y-47367453D01*
X5257402Y-47362394D01*
X5281656Y-47327756D01*
X5292482Y-47309004D01*
X5374471Y-47133179D01*
X5381881Y-47112821D01*
X5415124Y-46988753D01*
X19344514Y-46988753D01*
X19345872Y-47002603D01*
X19345872Y-47002607D01*
X19348580Y-47030223D01*
X19362039Y-47167486D01*
X19366432Y-47180693D01*
X19366433Y-47180696D01*
X19371925Y-47197206D01*
X19418726Y-47337896D01*
X19511759Y-47491512D01*
X19521429Y-47501526D01*
X19521431Y-47501528D01*
X19626842Y-47610684D01*
X19626845Y-47610686D01*
X19636514Y-47620699D01*
X19648161Y-47628321D01*
X19648164Y-47628323D01*
X19775135Y-47711410D01*
X19786789Y-47719036D01*
X19793644Y-47721585D01*
X19853669Y-47765036D01*
X21700144Y-49611512D01*
X23540755Y-51452123D01*
X23560783Y-51475428D01*
X23563808Y-51478672D01*
X23572383Y-51490324D01*
X23608365Y-51520893D01*
X23614760Y-51526788D01*
X23614791Y-51526753D01*
X23620197Y-51531565D01*
X23625303Y-51536671D01*
X23630972Y-51541156D01*
X23630973Y-51541157D01*
X23645665Y-51552781D01*
X23652389Y-51558294D01*
X23694730Y-51594266D01*
X23694732Y-51594268D01*
X23705755Y-51603632D01*
X23717554Y-51609657D01*
X23727949Y-51617881D01*
X23741054Y-51624006D01*
X23741059Y-51624009D01*
X23791425Y-51647549D01*
X23799232Y-51651365D01*
X23848725Y-51676637D01*
X23848728Y-51676638D01*
X23861616Y-51683219D01*
X23874490Y-51686369D01*
X23886493Y-51691979D01*
X23900658Y-51694925D01*
X23900660Y-51694926D01*
X23955078Y-51706245D01*
X23963525Y-51708156D01*
X24031606Y-51724815D01*
X24042648Y-51725500D01*
X24046526Y-51725500D01*
X24047845Y-51725541D01*
X24057831Y-51727618D01*
X24072291Y-51727227D01*
X24072294Y-51727227D01*
X24132737Y-51725591D01*
X24139473Y-51725500D01*
X43741855Y-51725500D01*
X43749228Y-51725828D01*
X43757831Y-51727618D01*
X43772288Y-51727227D01*
X43772290Y-51727227D01*
X43832737Y-51725591D01*
X43839473Y-51725500D01*
X61674244Y-51725500D01*
X61704894Y-51727818D01*
X61709332Y-51727973D01*
X61723630Y-51730148D01*
X61770695Y-51726320D01*
X61779386Y-51725967D01*
X61779383Y-51725919D01*
X61786596Y-51725500D01*
X61793822Y-51725500D01*
X61800996Y-51724664D01*
X61801006Y-51724663D01*
X61819629Y-51722492D01*
X61828275Y-51721637D01*
X61883642Y-51717134D01*
X61883646Y-51717133D01*
X61898059Y-51715961D01*
X61910663Y-51711878D01*
X61923828Y-51710343D01*
X61937422Y-51705409D01*
X61937429Y-51705407D01*
X61989697Y-51686435D01*
X61997914Y-51683613D01*
X62008390Y-51680219D01*
X62064546Y-51662027D01*
X62075875Y-51655152D01*
X62088331Y-51650631D01*
X62146942Y-51612204D01*
X62154261Y-51607587D01*
X62204675Y-51576995D01*
X62204677Y-51576993D01*
X62214160Y-51571239D01*
X62222452Y-51563915D01*
X62225164Y-51561203D01*
X62226162Y-51560265D01*
X62234685Y-51554677D01*
X62286197Y-51500300D01*
X62290894Y-51495473D01*
X66761689Y-47024679D01*
X66842471Y-46970703D01*
X66937759Y-46951749D01*
X67033047Y-46970703D01*
X67113829Y-47024679D01*
X67163887Y-47096502D01*
X67216323Y-47210246D01*
X67222909Y-47219565D01*
X67328531Y-47369016D01*
X67339950Y-47385174D01*
X67493385Y-47534644D01*
X67671489Y-47653649D01*
X67681979Y-47658156D01*
X67681981Y-47658157D01*
X67753126Y-47688723D01*
X67868298Y-47738205D01*
X67879435Y-47740725D01*
X67879438Y-47740726D01*
X68066078Y-47782958D01*
X68066080Y-47782958D01*
X68077220Y-47785479D01*
X68193650Y-47790054D01*
X68279848Y-47793441D01*
X68279852Y-47793441D01*
X68291259Y-47793889D01*
X68470659Y-47767877D01*
X68491943Y-47764791D01*
X68491944Y-47764791D01*
X68503246Y-47763152D01*
X68514054Y-47759483D01*
X68514059Y-47759482D01*
X68695274Y-47697968D01*
X68695276Y-47697967D01*
X68706082Y-47694299D01*
X68729753Y-47681043D01*
X68883020Y-47595209D01*
X68892975Y-47589634D01*
X68959094Y-47534644D01*
X69048883Y-47459967D01*
X69057664Y-47452664D01*
X69107169Y-47393141D01*
X69187337Y-47296749D01*
X69187338Y-47296747D01*
X69194634Y-47287975D01*
X69263642Y-47164752D01*
X69293723Y-47111039D01*
X69293724Y-47111037D01*
X69299299Y-47101082D01*
X69307146Y-47077965D01*
X69364482Y-46909059D01*
X69364483Y-46909054D01*
X69368152Y-46898246D01*
X69376300Y-46842055D01*
X69397836Y-46693522D01*
X69397836Y-46693520D01*
X69398889Y-46686259D01*
X69400493Y-46625000D01*
X69380893Y-46411695D01*
X69322749Y-46205533D01*
X69263734Y-46085862D01*
X69233060Y-46023661D01*
X69233059Y-46023659D01*
X69228009Y-46013419D01*
X69170125Y-45935902D01*
X69106678Y-45850936D01*
X69106677Y-45850935D01*
X69099846Y-45841787D01*
X69091110Y-45833711D01*
X68950938Y-45704138D01*
X68942551Y-45696385D01*
X68932893Y-45690291D01*
X68771049Y-45588175D01*
X68771045Y-45588173D01*
X68761393Y-45582083D01*
X68750788Y-45577852D01*
X68750786Y-45577851D01*
X68714240Y-45563270D01*
X68632759Y-45510355D01*
X68577731Y-45430287D01*
X68557531Y-45335255D01*
X68575237Y-45239727D01*
X68630440Y-45155927D01*
X69629244Y-44157124D01*
X70919124Y-42867244D01*
X70942429Y-42847216D01*
X70945673Y-42844191D01*
X70957325Y-42835616D01*
X70987894Y-42799634D01*
X70993789Y-42793239D01*
X70993754Y-42793208D01*
X70998566Y-42787802D01*
X71003672Y-42782696D01*
X71008588Y-42776482D01*
X71019782Y-42762334D01*
X71025295Y-42755610D01*
X71061267Y-42713269D01*
X71061269Y-42713267D01*
X71070633Y-42702244D01*
X71076658Y-42690445D01*
X71084882Y-42680050D01*
X71114552Y-42616567D01*
X71118358Y-42608781D01*
X71120127Y-42605317D01*
X71150220Y-42546383D01*
X71153369Y-42533513D01*
X71158981Y-42521506D01*
X71173249Y-42452913D01*
X71175164Y-42444448D01*
X71189179Y-42387175D01*
X71189181Y-42387161D01*
X71191816Y-42376393D01*
X71192501Y-42365351D01*
X71192501Y-42361474D01*
X71192542Y-42360155D01*
X71194619Y-42350168D01*
X71193384Y-42304511D01*
X71192592Y-42275262D01*
X71192501Y-42268526D01*
X71192501Y-32117757D01*
X71194819Y-32087107D01*
X71194974Y-32082669D01*
X71197149Y-32068371D01*
X71193321Y-32021306D01*
X71192968Y-32012615D01*
X71192920Y-32012618D01*
X71192501Y-32005405D01*
X71192501Y-31998179D01*
X71191665Y-31991005D01*
X71191664Y-31990995D01*
X71189493Y-31972372D01*
X71188638Y-31963726D01*
X71184135Y-31908359D01*
X71184134Y-31908355D01*
X71182962Y-31893942D01*
X71178879Y-31881338D01*
X71177344Y-31868173D01*
X71172410Y-31854579D01*
X71172408Y-31854572D01*
X71153436Y-31802304D01*
X71150614Y-31794087D01*
X71140220Y-31762003D01*
X71129028Y-31727455D01*
X71122153Y-31716126D01*
X71117632Y-31703670D01*
X71079205Y-31645059D01*
X71074588Y-31637740D01*
X71043996Y-31587326D01*
X71043994Y-31587324D01*
X71038240Y-31577841D01*
X71030916Y-31569549D01*
X71028204Y-31566837D01*
X71027266Y-31565839D01*
X71021678Y-31557316D01*
X70967301Y-31505804D01*
X70962474Y-31501107D01*
X69268235Y-29806868D01*
X69214259Y-29726086D01*
X69195305Y-29630798D01*
X69208424Y-29564844D01*
X70066145Y-29564844D01*
X70066678Y-29569332D01*
X70086322Y-29650841D01*
X70094006Y-29673161D01*
X70171703Y-29844047D01*
X70183469Y-29864507D01*
X70292077Y-30017616D01*
X70307492Y-30035476D01*
X70443106Y-30165297D01*
X70461613Y-30179913D01*
X70619325Y-30281747D01*
X70640268Y-30292603D01*
X70814384Y-30362774D01*
X70837013Y-30369477D01*
X71024086Y-30406009D01*
X71040219Y-30407969D01*
X71041497Y-30408000D01*
X71211973Y-30408000D01*
X71232431Y-30403931D01*
X71236500Y-30383473D01*
X71236500Y-29579527D01*
X71232431Y-29559069D01*
X71211973Y-29555000D01*
X70087751Y-29555000D01*
X70067293Y-29559069D01*
X70066145Y-29564844D01*
X69208424Y-29564844D01*
X69214259Y-29535510D01*
X69268235Y-29454728D01*
X69339071Y-29405128D01*
X69400512Y-29376477D01*
X69419256Y-29365656D01*
X69444619Y-29347897D01*
X69459040Y-29332832D01*
X69455372Y-29324496D01*
X68430876Y-28300000D01*
X69157878Y-28300000D01*
X69169465Y-28317341D01*
X69807990Y-28955866D01*
X69826341Y-28968128D01*
X69830302Y-28967340D01*
X69927457Y-28967339D01*
X70017217Y-29004518D01*
X70045485Y-29026504D01*
X70061372Y-29040808D01*
X70073213Y-29045000D01*
X71211973Y-29045000D01*
X71232431Y-29040931D01*
X71236500Y-29020473D01*
X71236500Y-28216527D01*
X71232431Y-28196069D01*
X71211973Y-28192000D01*
X71094594Y-28192000D01*
X71082779Y-28192563D01*
X70942823Y-28205916D01*
X70919664Y-28210375D01*
X70739523Y-28263222D01*
X70717617Y-28271984D01*
X70550724Y-28357940D01*
X70530875Y-28370683D01*
X70429027Y-28450686D01*
X70342384Y-28494643D01*
X70245516Y-28502097D01*
X70153168Y-28471913D01*
X70079401Y-28408688D01*
X70035444Y-28322045D01*
X70027161Y-28276577D01*
X70011354Y-28095908D01*
X70007592Y-28074573D01*
X69957381Y-27887179D01*
X69949971Y-27866821D01*
X69867982Y-27690996D01*
X69857156Y-27672244D01*
X69839397Y-27646881D01*
X69824332Y-27632460D01*
X69815996Y-27636128D01*
X69169465Y-28282659D01*
X69157878Y-28300000D01*
X68430876Y-28300000D01*
X67775010Y-27644134D01*
X67757669Y-27632547D01*
X67750098Y-27637606D01*
X67725844Y-27672244D01*
X67715023Y-27690988D01*
X67686372Y-27752429D01*
X67628923Y-27830778D01*
X67545863Y-27881179D01*
X67449839Y-27895958D01*
X67355468Y-27872865D01*
X67284632Y-27823265D01*
X66728535Y-27267168D01*
X68123960Y-27267168D01*
X68127628Y-27275504D01*
X68774159Y-27922035D01*
X68791500Y-27933622D01*
X68808841Y-27922035D01*
X69447366Y-27283510D01*
X69458953Y-27266169D01*
X69453894Y-27258598D01*
X69419256Y-27234344D01*
X69400504Y-27223518D01*
X69224679Y-27141529D01*
X69204321Y-27134119D01*
X69016927Y-27083908D01*
X68995592Y-27080146D01*
X68802335Y-27063238D01*
X68780665Y-27063238D01*
X68587408Y-27080146D01*
X68566073Y-27083908D01*
X68378679Y-27134119D01*
X68358321Y-27141529D01*
X68182496Y-27223518D01*
X68163744Y-27234344D01*
X68138381Y-27252103D01*
X68123960Y-27267168D01*
X66728535Y-27267168D01*
X66665410Y-27204043D01*
X66627889Y-27151050D01*
X66626485Y-27151927D01*
X66538691Y-27011428D01*
X66531316Y-26999625D01*
X66404770Y-26872193D01*
X66253136Y-26775963D01*
X66240024Y-26771294D01*
X66240022Y-26771293D01*
X66190720Y-26753738D01*
X66083951Y-26715719D01*
X66070128Y-26714071D01*
X66070125Y-26714070D01*
X65980098Y-26703335D01*
X65905624Y-26694455D01*
X65891780Y-26695910D01*
X65891777Y-26695910D01*
X65803035Y-26705237D01*
X65727017Y-26713227D01*
X65713840Y-26717713D01*
X65713839Y-26717713D01*
X65570184Y-26766617D01*
X65570183Y-26766618D01*
X65557007Y-26771103D01*
X65545150Y-26778397D01*
X65545151Y-26778397D01*
X65415897Y-26857914D01*
X65415893Y-26857917D01*
X65404045Y-26865206D01*
X65275732Y-26990859D01*
X65178446Y-27141817D01*
X65155798Y-27204043D01*
X65133186Y-27266169D01*
X65117022Y-27310578D01*
X65094514Y-27488753D01*
X65095872Y-27502603D01*
X65095872Y-27502607D01*
X65103406Y-27579441D01*
X65112039Y-27667486D01*
X65116432Y-27680693D01*
X65116433Y-27680696D01*
X65160935Y-27814474D01*
X65168726Y-27837896D01*
X65261759Y-27991512D01*
X65271429Y-28001526D01*
X65271431Y-28001528D01*
X65376842Y-28110684D01*
X65376845Y-28110686D01*
X65386514Y-28120699D01*
X65398161Y-28128321D01*
X65398164Y-28128323D01*
X65525135Y-28211410D01*
X65536789Y-28219036D01*
X65543644Y-28221585D01*
X65603669Y-28265036D01*
X69618571Y-32279938D01*
X69672547Y-32360720D01*
X69691501Y-32456008D01*
X69691501Y-35778881D01*
X69672547Y-35874169D01*
X69618571Y-35954951D01*
X69537789Y-36008927D01*
X69442501Y-36027881D01*
X69347213Y-36008927D01*
X69266431Y-35954951D01*
X69231687Y-35910878D01*
X69228009Y-35903419D01*
X69221178Y-35894271D01*
X69106678Y-35740936D01*
X69106677Y-35740935D01*
X69099846Y-35731787D01*
X68942551Y-35586385D01*
X68930558Y-35578818D01*
X68771049Y-35478175D01*
X68771045Y-35478173D01*
X68761393Y-35472083D01*
X68562438Y-35392708D01*
X68551253Y-35390483D01*
X68551249Y-35390482D01*
X68363542Y-35353145D01*
X68363540Y-35353145D01*
X68352350Y-35350919D01*
X68246852Y-35349538D01*
X68149576Y-35348264D01*
X68149572Y-35348264D01*
X68138164Y-35348115D01*
X68126916Y-35350048D01*
X68126913Y-35350048D01*
X67940555Y-35382071D01*
X67927054Y-35384391D01*
X67916354Y-35388338D01*
X67916348Y-35388340D01*
X67736799Y-35454579D01*
X67736797Y-35454580D01*
X67726090Y-35458530D01*
X67542001Y-35568051D01*
X67380954Y-35709286D01*
X67248342Y-35877504D01*
X67243029Y-35887603D01*
X67243028Y-35887604D01*
X67217153Y-35936785D01*
X67148605Y-36067072D01*
X67085085Y-36271641D01*
X67082012Y-36297607D01*
X67065170Y-36439905D01*
X67059908Y-36484360D01*
X67063106Y-36533154D01*
X67068097Y-36609289D01*
X67073918Y-36698105D01*
X67126645Y-36905719D01*
X67216323Y-37100246D01*
X67222909Y-37109565D01*
X67328825Y-37259432D01*
X67339950Y-37275174D01*
X67493385Y-37424644D01*
X67671489Y-37543649D01*
X67681979Y-37548156D01*
X67681981Y-37548157D01*
X67753126Y-37578723D01*
X67868298Y-37628205D01*
X67879435Y-37630725D01*
X67879438Y-37630726D01*
X68066078Y-37672958D01*
X68066080Y-37672958D01*
X68077220Y-37675479D01*
X68193650Y-37680054D01*
X68279848Y-37683441D01*
X68279852Y-37683441D01*
X68291259Y-37683889D01*
X68432108Y-37663467D01*
X68491943Y-37654791D01*
X68491944Y-37654791D01*
X68503246Y-37653152D01*
X68514054Y-37649483D01*
X68514059Y-37649482D01*
X68695274Y-37587968D01*
X68695276Y-37587967D01*
X68706082Y-37584299D01*
X68764871Y-37551376D01*
X68883020Y-37485209D01*
X68892975Y-37479634D01*
X68959094Y-37424644D01*
X69048883Y-37349967D01*
X69057664Y-37342664D01*
X69130590Y-37254980D01*
X69187337Y-37186749D01*
X69187338Y-37186747D01*
X69194634Y-37177975D01*
X69202242Y-37164390D01*
X69225250Y-37123308D01*
X69288347Y-37049431D01*
X69374912Y-37005324D01*
X69471768Y-36997701D01*
X69564168Y-37027724D01*
X69638045Y-37090821D01*
X69682152Y-37177386D01*
X69691501Y-37244975D01*
X69691501Y-41868991D01*
X69672547Y-41964279D01*
X69618571Y-42045061D01*
X67992422Y-43671210D01*
X67911640Y-43725186D01*
X67816352Y-43744140D01*
X67721064Y-43725186D01*
X67640282Y-43671210D01*
X67593031Y-43605270D01*
X67533060Y-43483661D01*
X67533059Y-43483659D01*
X67528009Y-43473419D01*
X67517542Y-43459402D01*
X67406678Y-43310936D01*
X67406677Y-43310935D01*
X67399846Y-43301787D01*
X67340363Y-43246801D01*
X67265853Y-43177925D01*
X67242551Y-43156385D01*
X67232893Y-43150291D01*
X67071049Y-43048175D01*
X67071045Y-43048173D01*
X67061393Y-43042083D01*
X66862438Y-42962708D01*
X66851253Y-42960483D01*
X66851249Y-42960482D01*
X66663542Y-42923145D01*
X66663540Y-42923145D01*
X66652350Y-42920919D01*
X66546852Y-42919538D01*
X66449576Y-42918264D01*
X66449572Y-42918264D01*
X66438164Y-42918115D01*
X66426916Y-42920048D01*
X66426913Y-42920048D01*
X66240928Y-42952007D01*
X66227054Y-42954391D01*
X66216354Y-42958338D01*
X66216348Y-42958340D01*
X66036799Y-43024579D01*
X66036797Y-43024580D01*
X66026090Y-43028530D01*
X65842001Y-43138051D01*
X65680954Y-43279286D01*
X65548342Y-43447504D01*
X65543029Y-43457603D01*
X65543028Y-43457604D01*
X65474045Y-43588718D01*
X65448605Y-43637072D01*
X65385085Y-43841641D01*
X65375847Y-43919696D01*
X65361857Y-44037896D01*
X65359908Y-44054360D01*
X65360655Y-44065754D01*
X65373158Y-44256505D01*
X65373918Y-44268105D01*
X65426645Y-44475719D01*
X65516323Y-44670246D01*
X65522909Y-44679565D01*
X65628261Y-44828634D01*
X65639950Y-44845174D01*
X65793385Y-44994644D01*
X65971489Y-45113649D01*
X65981979Y-45118156D01*
X65981981Y-45118157D01*
X66038546Y-45142459D01*
X66118614Y-45197488D01*
X66171529Y-45278969D01*
X66189234Y-45374497D01*
X66169034Y-45469529D01*
X66116325Y-45547308D01*
X65597590Y-46066043D01*
X65516808Y-46120019D01*
X65421520Y-46138973D01*
X65326232Y-46120019D01*
X65245450Y-46066043D01*
X65191474Y-45985261D01*
X65172672Y-45898663D01*
X65169627Y-45811455D01*
X65169626Y-45811449D01*
X65169323Y-45802761D01*
X65164085Y-45773050D01*
X65121644Y-45532360D01*
X65121644Y-45532359D01*
X65120133Y-45523791D01*
X65054167Y-45320767D01*
X65035282Y-45262645D01*
X65035281Y-45262643D01*
X65032597Y-45254382D01*
X65023419Y-45235563D01*
X64932249Y-45048638D01*
X64908418Y-44999777D01*
X64896251Y-44981738D01*
X64754875Y-44772141D01*
X64754874Y-44772140D01*
X64750013Y-44764933D01*
X64704582Y-44714476D01*
X64626855Y-44628152D01*
X64560466Y-44554419D01*
X64505809Y-44508556D01*
X64416497Y-44433615D01*
X64343466Y-44372335D01*
X64336098Y-44367731D01*
X64336094Y-44367728D01*
X64110609Y-44226829D01*
X64110603Y-44226826D01*
X64103237Y-44222223D01*
X63844453Y-44107005D01*
X63572153Y-44028924D01*
X63291637Y-43989500D01*
X63079268Y-43989500D01*
X62867417Y-44004314D01*
X62858923Y-44006119D01*
X62858919Y-44006120D01*
X62665687Y-44047193D01*
X62590333Y-44063210D01*
X62582171Y-44066181D01*
X62582163Y-44066183D01*
X62460281Y-44110545D01*
X62324143Y-44160095D01*
X62316474Y-44164173D01*
X62316471Y-44164174D01*
X62287450Y-44179605D01*
X62074028Y-44293084D01*
X61844854Y-44459588D01*
X61838597Y-44465630D01*
X61838595Y-44465632D01*
X61647341Y-44650324D01*
X61647337Y-44650329D01*
X61641085Y-44656366D01*
X61466684Y-44879589D01*
X61325047Y-45124911D01*
X61321793Y-45132965D01*
X61321792Y-45132967D01*
X61229478Y-45361454D01*
X61218931Y-45387558D01*
X61150401Y-45662417D01*
X61144567Y-45717925D01*
X61125571Y-45898663D01*
X61120791Y-45944138D01*
X61121094Y-45952820D01*
X61121094Y-45952825D01*
X61130303Y-46216519D01*
X61130677Y-46227239D01*
X61149390Y-46333362D01*
X61151873Y-46347446D01*
X61149754Y-46444578D01*
X61110625Y-46533505D01*
X61040444Y-46600689D01*
X60949895Y-46635902D01*
X60852763Y-46633783D01*
X60796525Y-46614006D01*
X60749907Y-46591016D01*
X60732817Y-46584111D01*
X60508645Y-46512353D01*
X60490721Y-46508049D01*
X60258397Y-46470214D01*
X60240046Y-46468608D01*
X60004676Y-46465527D01*
X59986282Y-46466652D01*
X59753041Y-46498395D01*
X59735026Y-46502224D01*
X59509036Y-46568094D01*
X59491780Y-46574545D01*
X59278015Y-46673092D01*
X59261896Y-46682027D01*
X59104682Y-46785102D01*
X59089807Y-46799720D01*
X59092763Y-46807038D01*
X59093202Y-46807577D01*
X60100000Y-47814376D01*
X61459757Y-49174132D01*
X61477098Y-49185719D01*
X61483197Y-49181644D01*
X61484303Y-49180271D01*
X61600228Y-49000046D01*
X61609024Y-48983846D01*
X61705699Y-48769235D01*
X61712005Y-48751909D01*
X61775895Y-48525371D01*
X61779570Y-48507307D01*
X61809654Y-48270838D01*
X61810605Y-48258399D01*
X61812626Y-48181240D01*
X61812326Y-48168770D01*
X61801884Y-48028263D01*
X61813724Y-47931832D01*
X61861565Y-47847273D01*
X61938124Y-47787458D01*
X62031745Y-47761494D01*
X62128176Y-47773334D01*
X62182148Y-47798645D01*
X62196763Y-47807777D01*
X62455547Y-47922995D01*
X62727847Y-48001076D01*
X63008363Y-48040500D01*
X63021993Y-48040500D01*
X63024665Y-48041031D01*
X63025731Y-48041106D01*
X63025722Y-48041242D01*
X63117281Y-48059454D01*
X63198063Y-48113430D01*
X63252039Y-48194212D01*
X63270993Y-48289500D01*
X63252039Y-48384788D01*
X63198063Y-48465570D01*
X61512063Y-50151570D01*
X61431281Y-50205546D01*
X61335993Y-50224500D01*
X60867069Y-50224500D01*
X60771781Y-50205546D01*
X60690999Y-50151570D01*
X60637023Y-50070788D01*
X60618069Y-49975500D01*
X60637023Y-49880212D01*
X60690999Y-49799430D01*
X60768777Y-49746721D01*
X60882391Y-49697908D01*
X60898734Y-49689401D01*
X61098894Y-49565538D01*
X61101530Y-49563622D01*
X61110926Y-49551809D01*
X61104385Y-49540010D01*
X60117341Y-48552965D01*
X60100000Y-48541378D01*
X60082659Y-48552965D01*
X59103390Y-49532235D01*
X59091803Y-49549576D01*
X59097330Y-49557848D01*
X59184911Y-49622065D01*
X59200534Y-49631827D01*
X59408853Y-49741429D01*
X59422014Y-49747152D01*
X59501841Y-49802530D01*
X59554400Y-49884241D01*
X59571688Y-49979845D01*
X59551074Y-50074788D01*
X59495696Y-50154615D01*
X59413985Y-50207174D01*
X59322726Y-50224500D01*
X52377392Y-50224500D01*
X52282104Y-50205546D01*
X52201322Y-50151570D01*
X52147346Y-50070788D01*
X52128392Y-49975500D01*
X52147346Y-49880212D01*
X52201322Y-49799430D01*
X52226848Y-49777163D01*
X52237883Y-49768787D01*
X52249844Y-49761657D01*
X52379899Y-49637807D01*
X52405280Y-49599605D01*
X52471579Y-49499818D01*
X52471580Y-49499816D01*
X52479283Y-49488222D01*
X52543057Y-49320336D01*
X52544964Y-49306764D01*
X52586967Y-49219293D01*
X52610019Y-49192727D01*
X53663346Y-48139400D01*
X58388242Y-48139400D01*
X58399535Y-48374514D01*
X58401778Y-48392788D01*
X58447701Y-48623659D01*
X58452627Y-48641423D01*
X58532165Y-48862954D01*
X58539664Y-48879795D01*
X58651075Y-49087142D01*
X58660977Y-49102685D01*
X58710733Y-49169317D01*
X58726233Y-49183274D01*
X58735541Y-49178834D01*
X59722035Y-48192341D01*
X59733622Y-48175000D01*
X59722035Y-48157659D01*
X58740714Y-47176339D01*
X58723373Y-47164752D01*
X58712602Y-47171949D01*
X58711500Y-47173274D01*
X58700798Y-47188278D01*
X58578689Y-47389508D01*
X58570320Y-47405933D01*
X58479296Y-47623001D01*
X58473447Y-47640483D01*
X58415508Y-47868617D01*
X58412306Y-47886774D01*
X58388724Y-48120965D01*
X58388242Y-48139400D01*
X53663346Y-48139400D01*
X53965892Y-47836854D01*
X53970275Y-47832866D01*
X53977941Y-47828001D01*
X54024495Y-47778426D01*
X54029937Y-47772809D01*
X54048912Y-47753834D01*
X54053710Y-47747649D01*
X54055934Y-47745126D01*
X54061202Y-47739337D01*
X54066373Y-47733831D01*
X54090449Y-47708192D01*
X54097995Y-47694465D01*
X54102181Y-47688704D01*
X54111133Y-47675076D01*
X54114760Y-47668942D01*
X54124363Y-47656563D01*
X54140150Y-47620080D01*
X54150469Y-47599018D01*
X54162081Y-47577895D01*
X54162081Y-47577894D01*
X54169628Y-47564167D01*
X54173522Y-47548999D01*
X54176147Y-47542370D01*
X54181425Y-47526952D01*
X54183417Y-47520097D01*
X54189636Y-47505725D01*
X54192086Y-47490260D01*
X54192087Y-47490255D01*
X54195855Y-47466462D01*
X54200612Y-47443491D01*
X54206606Y-47420147D01*
X54206606Y-47420145D01*
X54210501Y-47404976D01*
X54210501Y-47389312D01*
X54211394Y-47382242D01*
X54212673Y-47365994D01*
X54212897Y-47358868D01*
X54215348Y-47343394D01*
X54211606Y-47303810D01*
X54210501Y-47280376D01*
X54210501Y-44809764D01*
X54229455Y-44714476D01*
X54283431Y-44633694D01*
X54364213Y-44579718D01*
X54423771Y-44563341D01*
X54518007Y-44549678D01*
X54613769Y-44517171D01*
X54698718Y-44488335D01*
X54698722Y-44488333D01*
X54709531Y-44484664D01*
X54719489Y-44479087D01*
X54719492Y-44479086D01*
X54876040Y-44391416D01*
X54876045Y-44391413D01*
X54886001Y-44385837D01*
X54894777Y-44378538D01*
X54894780Y-44378536D01*
X55032723Y-44263809D01*
X55041505Y-44256505D01*
X55048809Y-44247723D01*
X55163536Y-44109780D01*
X55163538Y-44109777D01*
X55170837Y-44101001D01*
X55176413Y-44091045D01*
X55176416Y-44091040D01*
X55233248Y-43989557D01*
X55296345Y-43915680D01*
X55382910Y-43871572D01*
X55479766Y-43863949D01*
X55572166Y-43893971D01*
X55646043Y-43957068D01*
X55690151Y-44043633D01*
X55699500Y-44111223D01*
X55699501Y-44796688D01*
X55699501Y-45476518D01*
X55714354Y-45570304D01*
X55771950Y-45683342D01*
X55861658Y-45773050D01*
X55974696Y-45830646D01*
X55994052Y-45833712D01*
X55994053Y-45833712D01*
X56014007Y-45836872D01*
X56068481Y-45845500D01*
X56799813Y-45845500D01*
X57531518Y-45845499D01*
X57625304Y-45830646D01*
X57738342Y-45773050D01*
X57828050Y-45683342D01*
X57885646Y-45570304D01*
X57890204Y-45541529D01*
X57891872Y-45530993D01*
X57900500Y-45476519D01*
X57900499Y-44490810D01*
X57919453Y-44395522D01*
X57973429Y-44314740D01*
X59109558Y-43178611D01*
X59117086Y-43171392D01*
X59146228Y-43144595D01*
X59146229Y-43144594D01*
X59158723Y-43133105D01*
X59177418Y-43102953D01*
X59190692Y-43083640D01*
X59212139Y-43055385D01*
X59218388Y-43039603D01*
X59222358Y-43032557D01*
X59225650Y-43025163D01*
X59234593Y-43010739D01*
X59244491Y-42976672D01*
X59252084Y-42954494D01*
X59258892Y-42937300D01*
X59258893Y-42937296D01*
X59265140Y-42921517D01*
X59266914Y-42904638D01*
X59269440Y-42894354D01*
X59271122Y-42885007D01*
X59274762Y-42872477D01*
X59275511Y-42862277D01*
X59275511Y-42835895D01*
X59276875Y-42809867D01*
X59278416Y-42795208D01*
X59278416Y-42795206D01*
X59280190Y-42778327D01*
X59277360Y-42761593D01*
X59276866Y-42745885D01*
X59275511Y-42729754D01*
X59275512Y-39096055D01*
X59275512Y-35447234D01*
X59275730Y-35436807D01*
X59276777Y-35411830D01*
X59278099Y-35380282D01*
X59274225Y-35363763D01*
X59274224Y-35363757D01*
X59270000Y-35345749D01*
X59265726Y-35322689D01*
X59263217Y-35304375D01*
X59260913Y-35287555D01*
X59254169Y-35271972D01*
X59251996Y-35264188D01*
X59249098Y-35256638D01*
X59245221Y-35240108D01*
X59228133Y-35209025D01*
X59217819Y-35187972D01*
X59203732Y-35155418D01*
X59193048Y-35142224D01*
X59187570Y-35133180D01*
X59182150Y-35125382D01*
X59175859Y-35113938D01*
X59169176Y-35106196D01*
X59150521Y-35087541D01*
X59133082Y-35068172D01*
X59123807Y-35056718D01*
X59123806Y-35056717D01*
X59113124Y-35043526D01*
X59099290Y-35033695D01*
X59087838Y-35022941D01*
X59075465Y-35012486D01*
X58983441Y-34920462D01*
X58929465Y-34839680D01*
X58910511Y-34744392D01*
X58910511Y-34141604D01*
X58929465Y-34046316D01*
X58983441Y-33965534D01*
X59064223Y-33911558D01*
X59159511Y-33892604D01*
X59254799Y-33911558D01*
X59275449Y-33921242D01*
X59408847Y-33991426D01*
X59425755Y-33998778D01*
X59647977Y-34076381D01*
X59665773Y-34081150D01*
X59897034Y-34125056D01*
X59915335Y-34127142D01*
X60150547Y-34136383D01*
X60168955Y-34135741D01*
X60402947Y-34110114D01*
X60421063Y-34106757D01*
X60648702Y-34046824D01*
X60666119Y-34040828D01*
X60804056Y-33981564D01*
X60899088Y-33961363D01*
X60994616Y-33979068D01*
X61076098Y-34031982D01*
X61131127Y-34112049D01*
X61151328Y-34207081D01*
X61149985Y-34236369D01*
X61121699Y-34505494D01*
X61121699Y-34505501D01*
X61120791Y-34514138D01*
X61121094Y-34522820D01*
X61121094Y-34522825D01*
X61129682Y-34768734D01*
X61130677Y-34797239D01*
X61132186Y-34805799D01*
X61132187Y-34805805D01*
X61168631Y-35012486D01*
X61179867Y-35076209D01*
X61221394Y-35204017D01*
X61264294Y-35336048D01*
X61267403Y-35345618D01*
X61271210Y-35353423D01*
X61271211Y-35353426D01*
X61302521Y-35417620D01*
X61391582Y-35600223D01*
X61396444Y-35607431D01*
X61396445Y-35607433D01*
X61545125Y-35827859D01*
X61549987Y-35835067D01*
X61555802Y-35841526D01*
X61555805Y-35841529D01*
X61597291Y-35887604D01*
X61739534Y-36045581D01*
X61746190Y-36051166D01*
X61746192Y-36051168D01*
X61778142Y-36077977D01*
X61956534Y-36227665D01*
X61963902Y-36232269D01*
X61963906Y-36232272D01*
X62189391Y-36373171D01*
X62189397Y-36373174D01*
X62196763Y-36377777D01*
X62455547Y-36492995D01*
X62463912Y-36495394D01*
X62463913Y-36495394D01*
X62478030Y-36499442D01*
X62727847Y-36571076D01*
X63008363Y-36610500D01*
X63220732Y-36610500D01*
X63432583Y-36595686D01*
X63441077Y-36593881D01*
X63441081Y-36593880D01*
X63701161Y-36538598D01*
X63709667Y-36536790D01*
X63717829Y-36533819D01*
X63717837Y-36533817D01*
X63892586Y-36470213D01*
X63975857Y-36439905D01*
X63983526Y-36435827D01*
X63983529Y-36435826D01*
X64191771Y-36325101D01*
X64225972Y-36306916D01*
X64455146Y-36140412D01*
X64472661Y-36123498D01*
X64652659Y-35949676D01*
X64652663Y-35949671D01*
X64658915Y-35943634D01*
X64833316Y-35720411D01*
X64974953Y-35475089D01*
X65000511Y-35411830D01*
X65077816Y-35220494D01*
X65077817Y-35220491D01*
X65081069Y-35212442D01*
X65149599Y-34937583D01*
X65162449Y-34815327D01*
X65191258Y-34722544D01*
X65253382Y-34647847D01*
X65339363Y-34602610D01*
X65436111Y-34593720D01*
X65528896Y-34622530D01*
X65603593Y-34684654D01*
X65613426Y-34697645D01*
X65633356Y-34725845D01*
X65633361Y-34725851D01*
X65639950Y-34735174D01*
X65793385Y-34884644D01*
X65971489Y-35003649D01*
X65981979Y-35008156D01*
X65981981Y-35008157D01*
X66042407Y-35034118D01*
X66168298Y-35088205D01*
X66179435Y-35090725D01*
X66179438Y-35090726D01*
X66366078Y-35132958D01*
X66366080Y-35132958D01*
X66377220Y-35135479D01*
X66493650Y-35140054D01*
X66579848Y-35143441D01*
X66579852Y-35143441D01*
X66591259Y-35143889D01*
X66732108Y-35123467D01*
X66791943Y-35114791D01*
X66791944Y-35114791D01*
X66803246Y-35113152D01*
X66814054Y-35109483D01*
X66814059Y-35109482D01*
X66995274Y-35047968D01*
X66995276Y-35047967D01*
X67006082Y-35044299D01*
X67044220Y-35022941D01*
X67183020Y-34945209D01*
X67192975Y-34939634D01*
X67230230Y-34908650D01*
X67348883Y-34809967D01*
X67357664Y-34802664D01*
X67494634Y-34637975D01*
X67590649Y-34466528D01*
X67593723Y-34461039D01*
X67593724Y-34461037D01*
X67599299Y-34451082D01*
X67618699Y-34393931D01*
X67664482Y-34259059D01*
X67664483Y-34259054D01*
X67668152Y-34248246D01*
X67670640Y-34231091D01*
X67697836Y-34043522D01*
X67697836Y-34043520D01*
X67698889Y-34036259D01*
X67700493Y-33975000D01*
X67680893Y-33761695D01*
X67622749Y-33555533D01*
X67528009Y-33363419D01*
X67516240Y-33347658D01*
X67406678Y-33200936D01*
X67406677Y-33200935D01*
X67399846Y-33191787D01*
X67242551Y-33046385D01*
X67232893Y-33040291D01*
X67071049Y-32938175D01*
X67071045Y-32938173D01*
X67061393Y-32932083D01*
X66862438Y-32852708D01*
X66851253Y-32850483D01*
X66851249Y-32850482D01*
X66663542Y-32813145D01*
X66663540Y-32813145D01*
X66652350Y-32810919D01*
X66546852Y-32809538D01*
X66449576Y-32808264D01*
X66449572Y-32808264D01*
X66438164Y-32808115D01*
X66426916Y-32810048D01*
X66426913Y-32810048D01*
X66303895Y-32831187D01*
X66227054Y-32844391D01*
X66216354Y-32848338D01*
X66216348Y-32848340D01*
X66036799Y-32914579D01*
X66036797Y-32914580D01*
X66026090Y-32918530D01*
X65842001Y-33028051D01*
X65680954Y-33169286D01*
X65548342Y-33337504D01*
X65543029Y-33347603D01*
X65543028Y-33347604D01*
X65529319Y-33373661D01*
X65448605Y-33527072D01*
X65419961Y-33619323D01*
X65416634Y-33630037D01*
X65370276Y-33715418D01*
X65294773Y-33776560D01*
X65201619Y-33804154D01*
X65104996Y-33793999D01*
X65019615Y-33747641D01*
X64955035Y-33665354D01*
X64912233Y-33577597D01*
X64912227Y-33577587D01*
X64908418Y-33569777D01*
X64881082Y-33529249D01*
X64754875Y-33342141D01*
X64754874Y-33342140D01*
X64750013Y-33334933D01*
X64739190Y-33322912D01*
X64608935Y-33178250D01*
X64560466Y-33124419D01*
X64547113Y-33113214D01*
X64447450Y-33029588D01*
X64343466Y-32942335D01*
X64336098Y-32937731D01*
X64336094Y-32937728D01*
X64110609Y-32796829D01*
X64110603Y-32796826D01*
X64103237Y-32792223D01*
X63844453Y-32677005D01*
X63572153Y-32598924D01*
X63291637Y-32559500D01*
X63079268Y-32559500D01*
X62867417Y-32574314D01*
X62858923Y-32576119D01*
X62858919Y-32576120D01*
X62666910Y-32616933D01*
X62590333Y-32633210D01*
X62582171Y-32636181D01*
X62582163Y-32636183D01*
X62476598Y-32674606D01*
X62324143Y-32730095D01*
X62316471Y-32734175D01*
X62316465Y-32734177D01*
X62168369Y-32812921D01*
X62075337Y-32840921D01*
X61978670Y-32831187D01*
X61893088Y-32785202D01*
X61831617Y-32709965D01*
X61803617Y-32616933D01*
X61804462Y-32561641D01*
X61809654Y-32520832D01*
X61810605Y-32508399D01*
X61812626Y-32431240D01*
X61812326Y-32418770D01*
X61794660Y-32181054D01*
X61791934Y-32162815D01*
X61739989Y-31933249D01*
X61734597Y-31915613D01*
X61649290Y-31696244D01*
X61641348Y-31679594D01*
X61524550Y-31475242D01*
X61514249Y-31459970D01*
X61490377Y-31429688D01*
X61474518Y-31416144D01*
X61464248Y-31421377D01*
X60276070Y-32609554D01*
X60195288Y-32663530D01*
X60100000Y-32682484D01*
X60004712Y-32663530D01*
X59923930Y-32609554D01*
X59915446Y-32601070D01*
X59861470Y-32520288D01*
X59842516Y-32425000D01*
X59861470Y-32329712D01*
X59915446Y-32248930D01*
X61097123Y-31067252D01*
X61108710Y-31049911D01*
X61103738Y-31042470D01*
X60976902Y-30954481D01*
X60961014Y-30945122D01*
X60749914Y-30841019D01*
X60732817Y-30834111D01*
X60508645Y-30762353D01*
X60490721Y-30758049D01*
X60258397Y-30720214D01*
X60240046Y-30718608D01*
X60004676Y-30715527D01*
X59986279Y-30716652D01*
X59955088Y-30720897D01*
X59858114Y-30714965D01*
X59770792Y-30672375D01*
X59706416Y-30599610D01*
X59674785Y-30507748D01*
X59672511Y-30474171D01*
X59672511Y-30261953D01*
X62641314Y-30261953D01*
X62642672Y-30275803D01*
X62642672Y-30275807D01*
X62644319Y-30292603D01*
X62658839Y-30440686D01*
X62663232Y-30453893D01*
X62663233Y-30453896D01*
X62669978Y-30474171D01*
X62715526Y-30611096D01*
X62808559Y-30764712D01*
X62818229Y-30774726D01*
X62818231Y-30774728D01*
X62923642Y-30883884D01*
X62923645Y-30883886D01*
X62933314Y-30893899D01*
X62944961Y-30901521D01*
X62944964Y-30901523D01*
X63071935Y-30984610D01*
X63083589Y-30992236D01*
X63096641Y-30997090D01*
X63096643Y-30997091D01*
X63131624Y-31010100D01*
X63251916Y-31054836D01*
X63265712Y-31056677D01*
X63265713Y-31056677D01*
X63416137Y-31076748D01*
X63416140Y-31076748D01*
X63429930Y-31078588D01*
X63443787Y-31077327D01*
X63443791Y-31077327D01*
X63554497Y-31067252D01*
X63608781Y-31062312D01*
X63622023Y-31058009D01*
X63622025Y-31058009D01*
X63766345Y-31011116D01*
X63779582Y-31006815D01*
X63933844Y-30914857D01*
X64011381Y-30841019D01*
X64053815Y-30800610D01*
X64053815Y-30800609D01*
X64063899Y-30791007D01*
X64163283Y-30641422D01*
X64227057Y-30473536D01*
X64233621Y-30426834D01*
X64250963Y-30303436D01*
X64250963Y-30303433D01*
X64252051Y-30295693D01*
X64252365Y-30273200D01*
X64251104Y-30261953D01*
X64240281Y-30165467D01*
X64232346Y-30094728D01*
X64173285Y-29925127D01*
X64078116Y-29772825D01*
X63951570Y-29645393D01*
X63799936Y-29549163D01*
X63786824Y-29544494D01*
X63786822Y-29544493D01*
X63737520Y-29526938D01*
X63630751Y-29488919D01*
X63616928Y-29487271D01*
X63616925Y-29487270D01*
X63526898Y-29476535D01*
X63452424Y-29467655D01*
X63438580Y-29469110D01*
X63438577Y-29469110D01*
X63349835Y-29478437D01*
X63273817Y-29486427D01*
X63260640Y-29490913D01*
X63260639Y-29490913D01*
X63116984Y-29539817D01*
X63116983Y-29539818D01*
X63103807Y-29544303D01*
X63091950Y-29551597D01*
X63091951Y-29551597D01*
X62962697Y-29631114D01*
X62962693Y-29631117D01*
X62950845Y-29638406D01*
X62940901Y-29648143D01*
X62940902Y-29648143D01*
X62853624Y-29733612D01*
X62822532Y-29764059D01*
X62725246Y-29915017D01*
X62663822Y-30083778D01*
X62641314Y-30261953D01*
X59672511Y-30261953D01*
X59672511Y-25314043D01*
X59672729Y-25303616D01*
X59674387Y-25264051D01*
X59675098Y-25247091D01*
X59666998Y-25212555D01*
X59662724Y-25189494D01*
X59660216Y-25171186D01*
X59657912Y-25154364D01*
X59651168Y-25138778D01*
X59648993Y-25130990D01*
X59646099Y-25123449D01*
X59642221Y-25106917D01*
X59625135Y-25075838D01*
X59614817Y-25054776D01*
X59607471Y-25037801D01*
X59607470Y-25037799D01*
X59600731Y-25022227D01*
X59590051Y-25009038D01*
X59584563Y-24999976D01*
X59579139Y-24992172D01*
X59572858Y-24980747D01*
X59566176Y-24973005D01*
X59547516Y-24954345D01*
X59530076Y-24934975D01*
X59520808Y-24923530D01*
X59510123Y-24910335D01*
X59496281Y-24900498D01*
X59484825Y-24889740D01*
X59472469Y-24879298D01*
X58927001Y-24333831D01*
X68124047Y-24333831D01*
X68129106Y-24341402D01*
X68163744Y-24365656D01*
X68182496Y-24376482D01*
X68358321Y-24458471D01*
X68378679Y-24465881D01*
X68566073Y-24516092D01*
X68587408Y-24519854D01*
X68780665Y-24536762D01*
X68802335Y-24536762D01*
X68995592Y-24519854D01*
X69016927Y-24516092D01*
X69204321Y-24465881D01*
X69224679Y-24458471D01*
X69400504Y-24376482D01*
X69419256Y-24365656D01*
X69444619Y-24347897D01*
X69459040Y-24332832D01*
X69455372Y-24324496D01*
X68808841Y-23677965D01*
X68791500Y-23666378D01*
X68774159Y-23677965D01*
X68135634Y-24316490D01*
X68124047Y-24333831D01*
X58927001Y-24333831D01*
X58004434Y-23411265D01*
X57997214Y-23403737D01*
X57970406Y-23374583D01*
X57970405Y-23374582D01*
X57958916Y-23362088D01*
X57944487Y-23353142D01*
X57944484Y-23353139D01*
X57928768Y-23343394D01*
X57909441Y-23330111D01*
X57894721Y-23318938D01*
X57894717Y-23318936D01*
X57884045Y-23310835D01*
X67554738Y-23310835D01*
X67571646Y-23504092D01*
X67575408Y-23525427D01*
X67625619Y-23712821D01*
X67633029Y-23733179D01*
X67715018Y-23909004D01*
X67725844Y-23927756D01*
X67743603Y-23953119D01*
X67758668Y-23967540D01*
X67767004Y-23963872D01*
X68413535Y-23317341D01*
X68425122Y-23300000D01*
X69157878Y-23300000D01*
X69169465Y-23317341D01*
X69807990Y-23955866D01*
X69825331Y-23967453D01*
X69832902Y-23962394D01*
X69857156Y-23927756D01*
X69867982Y-23909004D01*
X69949971Y-23733179D01*
X69957381Y-23712821D01*
X70007592Y-23525427D01*
X70011354Y-23504092D01*
X70026826Y-23327253D01*
X70054013Y-23233980D01*
X70114825Y-23158210D01*
X70200003Y-23111480D01*
X70296581Y-23100904D01*
X70389854Y-23128091D01*
X70432971Y-23158989D01*
X70433796Y-23157945D01*
X70461613Y-23179913D01*
X70619325Y-23281747D01*
X70640268Y-23292603D01*
X70814384Y-23362774D01*
X70837013Y-23369477D01*
X71024086Y-23406009D01*
X71040219Y-23407969D01*
X71041497Y-23408000D01*
X71211973Y-23408000D01*
X71232431Y-23403931D01*
X71236500Y-23383473D01*
X71236500Y-22579527D01*
X71232431Y-22559069D01*
X71211973Y-22555000D01*
X70087751Y-22555000D01*
X70065090Y-22559508D01*
X70033334Y-22580726D01*
X70020264Y-22593797D01*
X69930507Y-22630980D01*
X69852595Y-22630984D01*
X69826387Y-22631556D01*
X69815996Y-22636128D01*
X69169465Y-23282659D01*
X69157878Y-23300000D01*
X68425122Y-23300000D01*
X68413535Y-23282659D01*
X67775010Y-22644134D01*
X67757669Y-22632547D01*
X67750098Y-22637606D01*
X67725844Y-22672244D01*
X67715018Y-22690996D01*
X67633029Y-22866821D01*
X67625619Y-22887179D01*
X67575408Y-23074573D01*
X67571646Y-23095908D01*
X67554738Y-23289165D01*
X67554738Y-23310835D01*
X57884045Y-23310835D01*
X57881195Y-23308672D01*
X57865410Y-23302423D01*
X57858361Y-23298451D01*
X57850976Y-23295163D01*
X57836550Y-23286218D01*
X57820252Y-23281483D01*
X57820248Y-23281481D01*
X57802485Y-23276320D01*
X57780299Y-23268724D01*
X57763114Y-23261921D01*
X57763112Y-23261921D01*
X57747327Y-23255671D01*
X57730443Y-23253896D01*
X57720162Y-23251371D01*
X57710824Y-23249691D01*
X57698288Y-23246049D01*
X57688088Y-23245300D01*
X57661706Y-23245300D01*
X57635678Y-23243936D01*
X57621019Y-23242395D01*
X57621017Y-23242395D01*
X57604138Y-23240621D01*
X57587404Y-23243451D01*
X57571696Y-23243945D01*
X57555565Y-23245300D01*
X57222614Y-23245300D01*
X57127326Y-23226346D01*
X57045931Y-23171754D01*
X57027180Y-23152872D01*
X57017370Y-23142993D01*
X56865736Y-23046763D01*
X56852624Y-23042094D01*
X56852622Y-23042093D01*
X56803320Y-23024538D01*
X56696551Y-22986519D01*
X56682728Y-22984871D01*
X56682725Y-22984870D01*
X56592698Y-22974135D01*
X56518224Y-22965255D01*
X56504380Y-22966710D01*
X56504377Y-22966710D01*
X56415635Y-22976037D01*
X56339617Y-22984027D01*
X56326440Y-22988513D01*
X56326439Y-22988513D01*
X56182784Y-23037417D01*
X56182783Y-23037418D01*
X56169607Y-23041903D01*
X56157750Y-23049197D01*
X56157751Y-23049197D01*
X56028497Y-23128714D01*
X56028493Y-23128717D01*
X56016645Y-23136006D01*
X55888332Y-23261659D01*
X55880796Y-23273353D01*
X55880794Y-23273355D01*
X55868390Y-23292603D01*
X55791046Y-23412617D01*
X55765247Y-23483500D01*
X55737574Y-23559531D01*
X55729622Y-23581378D01*
X55707114Y-23759553D01*
X55724639Y-23938286D01*
X55729032Y-23951493D01*
X55729033Y-23951496D01*
X55770430Y-24075942D01*
X55781326Y-24108696D01*
X55874359Y-24262312D01*
X55884029Y-24272326D01*
X55884031Y-24272328D01*
X55989442Y-24381484D01*
X55989445Y-24381486D01*
X55999114Y-24391499D01*
X56010761Y-24399121D01*
X56010764Y-24399123D01*
X56089737Y-24450801D01*
X56149389Y-24489836D01*
X56162441Y-24494690D01*
X56162443Y-24494691D01*
X56286269Y-24540741D01*
X56317716Y-24552436D01*
X56330918Y-24554197D01*
X56418475Y-24595493D01*
X56483799Y-24667409D01*
X56511597Y-24737979D01*
X56512039Y-24742486D01*
X56516433Y-24755696D01*
X56516434Y-24755699D01*
X56563078Y-24895918D01*
X56568726Y-24912896D01*
X56661759Y-25066512D01*
X56671429Y-25076526D01*
X56671431Y-25076528D01*
X56786514Y-25195699D01*
X56783970Y-25198156D01*
X56828904Y-25253330D01*
X56856758Y-25346406D01*
X56846872Y-25443057D01*
X56800753Y-25528568D01*
X56797560Y-25532190D01*
X56786325Y-25541288D01*
X56776492Y-25555124D01*
X56765743Y-25566571D01*
X56755287Y-25578944D01*
X51565442Y-30768789D01*
X51557914Y-30776008D01*
X51541603Y-30791007D01*
X51516277Y-30814295D01*
X51497582Y-30844447D01*
X51484308Y-30863760D01*
X51462861Y-30892015D01*
X51456612Y-30907797D01*
X51452642Y-30914843D01*
X51449350Y-30922237D01*
X51440407Y-30936661D01*
X51430509Y-30970728D01*
X51422916Y-30992906D01*
X51416108Y-31010100D01*
X51416107Y-31010104D01*
X51409860Y-31025883D01*
X51408086Y-31042762D01*
X51405560Y-31053046D01*
X51403878Y-31062393D01*
X51400238Y-31074923D01*
X51399489Y-31085123D01*
X51399489Y-31111505D01*
X51398125Y-31137533D01*
X51394810Y-31169073D01*
X51397640Y-31185807D01*
X51398134Y-31201515D01*
X51399489Y-31217646D01*
X51399489Y-38582956D01*
X51399271Y-38593383D01*
X51396902Y-38649908D01*
X51405001Y-38684437D01*
X51409276Y-38707503D01*
X51414088Y-38742635D01*
X51420832Y-38758221D01*
X51423007Y-38766009D01*
X51425901Y-38773550D01*
X51429779Y-38790082D01*
X51437958Y-38804959D01*
X51437958Y-38804960D01*
X51446864Y-38821160D01*
X51457183Y-38842223D01*
X51458969Y-38846349D01*
X51471269Y-38874772D01*
X51481948Y-38887961D01*
X51487432Y-38897015D01*
X51492856Y-38904819D01*
X51499142Y-38916252D01*
X51505825Y-38923994D01*
X51524480Y-38942649D01*
X51541920Y-38962019D01*
X51551192Y-38973470D01*
X51551195Y-38973473D01*
X51561877Y-38986664D01*
X51575715Y-38996498D01*
X51587170Y-39007255D01*
X51599533Y-39017702D01*
X53104979Y-40523148D01*
X53158955Y-40603930D01*
X53177909Y-40699218D01*
X53176184Y-40728477D01*
X53155164Y-40906069D01*
X53168392Y-41107894D01*
X53171202Y-41118958D01*
X53212180Y-41280310D01*
X53218178Y-41303928D01*
X53302856Y-41487607D01*
X53309442Y-41496926D01*
X53412012Y-41642060D01*
X53419588Y-41652780D01*
X53427760Y-41660740D01*
X53427761Y-41660742D01*
X53485862Y-41717341D01*
X53564466Y-41793913D01*
X53573945Y-41800246D01*
X53573949Y-41800250D01*
X53662806Y-41859622D01*
X53732637Y-41906282D01*
X53743116Y-41910784D01*
X53743125Y-41910789D01*
X53898267Y-41977442D01*
X53978336Y-42032471D01*
X54031250Y-42113951D01*
X54048956Y-42209479D01*
X54028756Y-42304511D01*
X53973727Y-42384580D01*
X53886161Y-42439830D01*
X53794909Y-42473495D01*
X53794903Y-42473498D01*
X53784193Y-42477449D01*
X53610371Y-42580862D01*
X53534338Y-42647541D01*
X53475640Y-42699018D01*
X53458305Y-42714220D01*
X53451240Y-42723181D01*
X53451238Y-42723184D01*
X53404323Y-42782696D01*
X53333089Y-42873057D01*
X53238914Y-43052053D01*
X53208411Y-43150291D01*
X53188423Y-43214664D01*
X53178937Y-43245213D01*
X53164845Y-43364273D01*
X53158060Y-43421605D01*
X53155164Y-43446069D01*
X53155911Y-43457466D01*
X53160937Y-43534161D01*
X53148255Y-43630484D01*
X53099677Y-43714623D01*
X53088540Y-43726514D01*
X53071090Y-43743964D01*
X53066292Y-43750149D01*
X53064068Y-43752672D01*
X53058806Y-43758455D01*
X53029553Y-43789606D01*
X53022007Y-43803333D01*
X53017821Y-43809094D01*
X53008869Y-43822722D01*
X53005242Y-43828856D01*
X52995639Y-43841235D01*
X52980585Y-43876024D01*
X52979854Y-43877713D01*
X52969533Y-43898780D01*
X52968678Y-43900336D01*
X52950374Y-43933631D01*
X52946480Y-43948799D01*
X52943855Y-43955428D01*
X52938577Y-43970846D01*
X52936585Y-43977701D01*
X52930366Y-43992073D01*
X52927916Y-44007538D01*
X52927915Y-44007543D01*
X52924147Y-44031336D01*
X52919390Y-44054305D01*
X52909501Y-44092822D01*
X52909501Y-44108486D01*
X52908608Y-44115556D01*
X52907329Y-44131804D01*
X52907105Y-44138930D01*
X52904654Y-44154404D01*
X52906128Y-44169997D01*
X52906128Y-44169999D01*
X52908396Y-44193988D01*
X52909501Y-44217422D01*
X52909501Y-46950213D01*
X52890547Y-47045501D01*
X52836571Y-47126283D01*
X51690296Y-48272558D01*
X51609514Y-48326534D01*
X51589663Y-48332774D01*
X51589817Y-48333227D01*
X51432984Y-48386617D01*
X51432983Y-48386618D01*
X51419807Y-48391103D01*
X51407950Y-48398397D01*
X51407951Y-48398397D01*
X51278697Y-48477914D01*
X51278693Y-48477917D01*
X51266845Y-48485206D01*
X51138532Y-48610859D01*
X51041246Y-48761817D01*
X51024642Y-48807437D01*
X50998306Y-48879795D01*
X50979822Y-48930578D01*
X50957314Y-49108753D01*
X50958672Y-49122603D01*
X50958672Y-49122607D01*
X50965548Y-49192727D01*
X50974839Y-49287486D01*
X50979232Y-49300693D01*
X50979233Y-49300696D01*
X50990095Y-49333349D01*
X51031526Y-49457896D01*
X51124559Y-49611512D01*
X51134229Y-49621526D01*
X51134231Y-49621528D01*
X51239642Y-49730684D01*
X51239645Y-49730686D01*
X51249314Y-49740699D01*
X51289731Y-49767147D01*
X51359085Y-49835183D01*
X51397124Y-49924581D01*
X51398056Y-50021732D01*
X51361740Y-50111844D01*
X51293703Y-50181199D01*
X51204305Y-50219238D01*
X51153386Y-50224500D01*
X45218955Y-50224500D01*
X45123667Y-50205546D01*
X45042885Y-50151570D01*
X44988909Y-50070788D01*
X44969955Y-49975500D01*
X44978440Y-49911054D01*
X44986704Y-49880212D01*
X45029907Y-49718977D01*
X45048977Y-49501000D01*
X45029907Y-49283023D01*
X44973275Y-49071670D01*
X44939876Y-49000046D01*
X44885397Y-48883215D01*
X44885395Y-48883211D01*
X44880802Y-48873362D01*
X44755298Y-48694123D01*
X44600577Y-48539402D01*
X44591678Y-48533171D01*
X44591671Y-48533165D01*
X44451432Y-48434969D01*
X44384248Y-48364788D01*
X44349035Y-48274239D01*
X44351154Y-48177107D01*
X44390283Y-48088180D01*
X44451432Y-48027031D01*
X44591671Y-47928835D01*
X44591678Y-47928829D01*
X44600577Y-47922598D01*
X44755298Y-47767877D01*
X44880802Y-47588638D01*
X44902378Y-47542370D01*
X44968678Y-47400188D01*
X44973275Y-47390330D01*
X45029907Y-47178977D01*
X45048977Y-46961000D01*
X45029907Y-46743023D01*
X44973275Y-46531670D01*
X44946650Y-46474573D01*
X44885397Y-46343215D01*
X44885395Y-46343211D01*
X44880802Y-46333362D01*
X44755298Y-46154123D01*
X44600577Y-45999402D01*
X44591678Y-45993171D01*
X44591671Y-45993165D01*
X44451432Y-45894969D01*
X44384248Y-45824788D01*
X44349035Y-45734239D01*
X44351154Y-45637107D01*
X44390283Y-45548180D01*
X44451432Y-45487031D01*
X44591671Y-45388835D01*
X44591678Y-45388829D01*
X44600577Y-45382598D01*
X44755298Y-45227877D01*
X44880802Y-45048638D01*
X44889395Y-45030212D01*
X44961614Y-44875336D01*
X44973275Y-44850330D01*
X45029907Y-44638977D01*
X45048977Y-44421000D01*
X45044720Y-44372335D01*
X45030854Y-44213848D01*
X45029907Y-44203023D01*
X44973275Y-43991670D01*
X44939713Y-43919696D01*
X44885397Y-43803215D01*
X44885395Y-43803211D01*
X44880802Y-43793362D01*
X44755298Y-43614123D01*
X44747611Y-43606436D01*
X44740620Y-43598104D01*
X44742176Y-43596798D01*
X44696662Y-43528681D01*
X44677708Y-43433393D01*
X44696662Y-43338105D01*
X44750638Y-43257323D01*
X44839304Y-43200237D01*
X44873552Y-43187398D01*
X44904360Y-43170531D01*
X44992403Y-43104547D01*
X45017247Y-43079703D01*
X45083231Y-42991660D01*
X45100100Y-42960850D01*
X45139473Y-42855822D01*
X45146638Y-42825691D01*
X45150973Y-42785786D01*
X45151700Y-42772350D01*
X45151700Y-42160527D01*
X45147631Y-42140069D01*
X45127173Y-42136000D01*
X42460228Y-42136000D01*
X42439770Y-42140069D01*
X42435701Y-42160527D01*
X42435701Y-42772346D01*
X42436429Y-42785792D01*
X42440762Y-42825685D01*
X42447928Y-42855826D01*
X42487300Y-42960850D01*
X42504169Y-42991660D01*
X42570153Y-43079703D01*
X42594997Y-43104547D01*
X42683040Y-43170531D01*
X42713848Y-43187398D01*
X42748096Y-43200237D01*
X42830667Y-43251433D01*
X42887362Y-43330331D01*
X42909548Y-43424919D01*
X42893848Y-43520797D01*
X42845024Y-43596631D01*
X42846780Y-43598104D01*
X42839789Y-43606436D01*
X42832102Y-43614123D01*
X42706598Y-43793362D01*
X42702005Y-43803211D01*
X42702003Y-43803215D01*
X42647687Y-43919696D01*
X42614125Y-43991670D01*
X42557493Y-44203023D01*
X42556546Y-44213848D01*
X42542681Y-44372335D01*
X42538423Y-44421000D01*
X42557493Y-44638977D01*
X42614125Y-44850330D01*
X42625786Y-44875336D01*
X42698006Y-45030212D01*
X42706598Y-45048638D01*
X42832102Y-45227877D01*
X42986823Y-45382598D01*
X42995726Y-45388832D01*
X42995732Y-45388837D01*
X43135969Y-45487033D01*
X43203153Y-45557214D01*
X43238365Y-45647764D01*
X43236246Y-45744895D01*
X43197116Y-45833822D01*
X43135969Y-45894969D01*
X42986823Y-45999402D01*
X42832102Y-46154123D01*
X42706598Y-46333362D01*
X42702005Y-46343211D01*
X42702003Y-46343215D01*
X42640750Y-46474573D01*
X42614125Y-46531670D01*
X42557493Y-46743023D01*
X42538423Y-46961000D01*
X42557493Y-47178977D01*
X42614125Y-47390330D01*
X42618722Y-47400188D01*
X42685023Y-47542370D01*
X42706598Y-47588638D01*
X42832102Y-47767877D01*
X42986823Y-47922598D01*
X42995726Y-47928832D01*
X42995732Y-47928837D01*
X43135969Y-48027033D01*
X43203153Y-48097214D01*
X43238365Y-48187764D01*
X43236246Y-48284895D01*
X43197116Y-48373822D01*
X43135969Y-48434969D01*
X42986823Y-48539402D01*
X42832102Y-48694123D01*
X42706598Y-48873362D01*
X42702005Y-48883211D01*
X42702003Y-48883215D01*
X42647524Y-49000046D01*
X42614125Y-49071670D01*
X42557493Y-49283023D01*
X42538423Y-49501000D01*
X42557493Y-49718977D01*
X42600696Y-49880212D01*
X42608960Y-49911054D01*
X42615315Y-50008001D01*
X42584085Y-50100000D01*
X42520027Y-50173045D01*
X42432891Y-50216015D01*
X42368445Y-50224500D01*
X41061652Y-50224500D01*
X40966364Y-50205546D01*
X40885582Y-50151570D01*
X40831606Y-50070788D01*
X40812652Y-49975500D01*
X40823405Y-49903115D01*
X40874411Y-49735235D01*
X40878489Y-49716371D01*
X40877155Y-49696003D01*
X40866835Y-49692500D01*
X38235363Y-49692500D01*
X38214905Y-49696569D01*
X38213572Y-49703274D01*
X38213872Y-49705972D01*
X38242954Y-49835019D01*
X38249048Y-49854463D01*
X38260156Y-49881820D01*
X38278445Y-49977238D01*
X38258826Y-50072391D01*
X38204287Y-50152794D01*
X38123131Y-50206205D01*
X38029451Y-50224500D01*
X24539007Y-50224500D01*
X24443719Y-50205546D01*
X24362937Y-50151570D01*
X20915410Y-46704043D01*
X20877889Y-46651050D01*
X20876485Y-46651927D01*
X20854365Y-46616527D01*
X20781316Y-46499625D01*
X20654770Y-46372193D01*
X20503136Y-46275963D01*
X20490024Y-46271294D01*
X20490022Y-46271293D01*
X20440720Y-46253738D01*
X20333951Y-46215719D01*
X20320128Y-46214071D01*
X20320125Y-46214070D01*
X20230098Y-46203335D01*
X20155624Y-46194455D01*
X20141780Y-46195910D01*
X20141777Y-46195910D01*
X20053035Y-46205237D01*
X19977017Y-46213227D01*
X19963840Y-46217713D01*
X19963839Y-46217713D01*
X19820184Y-46266617D01*
X19820183Y-46266618D01*
X19807007Y-46271103D01*
X19786986Y-46283420D01*
X19665897Y-46357914D01*
X19665893Y-46357917D01*
X19654045Y-46365206D01*
X19644101Y-46374943D01*
X19644102Y-46374943D01*
X19544572Y-46472410D01*
X19525732Y-46490859D01*
X19518196Y-46502553D01*
X19518194Y-46502555D01*
X19512476Y-46511428D01*
X19428446Y-46641817D01*
X19403301Y-46710903D01*
X19376295Y-46785102D01*
X19367022Y-46810578D01*
X19344514Y-46988753D01*
X5415124Y-46988753D01*
X5432092Y-46925427D01*
X5435854Y-46904092D01*
X5452762Y-46710835D01*
X5452762Y-46689165D01*
X5435854Y-46495908D01*
X5432092Y-46474573D01*
X5381881Y-46287179D01*
X5374471Y-46266821D01*
X5292482Y-46090996D01*
X5281656Y-46072244D01*
X5263897Y-46046881D01*
X5248832Y-46032460D01*
X5240496Y-46036128D01*
X4593965Y-46682659D01*
X4582378Y-46700000D01*
X3849622Y-46700000D01*
X3838035Y-46682659D01*
X3199510Y-46044134D01*
X3182169Y-46032547D01*
X3174598Y-46037606D01*
X3150344Y-46072244D01*
X3139518Y-46090996D01*
X3057529Y-46266821D01*
X3050119Y-46287179D01*
X2999908Y-46474573D01*
X2996146Y-46495908D01*
X2980674Y-46672747D01*
X2953487Y-46766020D01*
X2892675Y-46841790D01*
X2807497Y-46888520D01*
X2710919Y-46899096D01*
X2617646Y-46871909D01*
X2574529Y-46841011D01*
X2573704Y-46842055D01*
X2545887Y-46820087D01*
X2388175Y-46718253D01*
X2367232Y-46707397D01*
X2193116Y-46637226D01*
X2170487Y-46630523D01*
X1983414Y-46593991D01*
X1967281Y-46592031D01*
X1966003Y-46592000D01*
X1795527Y-46592000D01*
X1775069Y-46596069D01*
X1771000Y-46616527D01*
X1771000Y-47420473D01*
X1261000Y-47420473D01*
X1261000Y-46616527D01*
X1256931Y-46596069D01*
X1236473Y-46592000D01*
X1119094Y-46592000D01*
X1107279Y-46592563D01*
X967323Y-46605916D01*
X944164Y-46610375D01*
X764023Y-46663222D01*
X741973Y-46672042D01*
X646460Y-46689831D01*
X551411Y-46669716D01*
X471294Y-46614757D01*
X418308Y-46533323D01*
X400500Y-46440850D01*
X400500Y-45667168D01*
X3548460Y-45667168D01*
X3552128Y-45675504D01*
X4198659Y-46322035D01*
X4216000Y-46333622D01*
X4233341Y-46322035D01*
X4871866Y-45683510D01*
X4883453Y-45666169D01*
X4878394Y-45658598D01*
X4843756Y-45634344D01*
X4825004Y-45623518D01*
X4649179Y-45541529D01*
X4628821Y-45534119D01*
X4441427Y-45483908D01*
X4420092Y-45480146D01*
X4226835Y-45463238D01*
X4205165Y-45463238D01*
X4011908Y-45480146D01*
X3990573Y-45483908D01*
X3803179Y-45534119D01*
X3782821Y-45541529D01*
X3606996Y-45623518D01*
X3588244Y-45634344D01*
X3562881Y-45652103D01*
X3548460Y-45667168D01*
X400500Y-45667168D01*
X400500Y-43688753D01*
X11294514Y-43688753D01*
X11295872Y-43702603D01*
X11295872Y-43702607D01*
X11305661Y-43802442D01*
X11312039Y-43867486D01*
X11316432Y-43880693D01*
X11316433Y-43880696D01*
X11346422Y-43970846D01*
X11368726Y-44037896D01*
X11461759Y-44191512D01*
X11471429Y-44201526D01*
X11471431Y-44201528D01*
X11576842Y-44310684D01*
X11576845Y-44310686D01*
X11586514Y-44320699D01*
X11598161Y-44328321D01*
X11598164Y-44328323D01*
X11719336Y-44407615D01*
X11736789Y-44419036D01*
X11749841Y-44423890D01*
X11749843Y-44423891D01*
X11832087Y-44454477D01*
X11905116Y-44481636D01*
X11918912Y-44483477D01*
X11918913Y-44483477D01*
X12069337Y-44503548D01*
X12069340Y-44503548D01*
X12083130Y-44505388D01*
X12096988Y-44504127D01*
X12096992Y-44504127D01*
X12160846Y-44498316D01*
X12257460Y-44508556D01*
X12342801Y-44554990D01*
X12403876Y-44630547D01*
X12431224Y-44721992D01*
X12436552Y-44776324D01*
X12443039Y-44842486D01*
X12447432Y-44855693D01*
X12447433Y-44855696D01*
X12458296Y-44888351D01*
X12499726Y-45012896D01*
X12592759Y-45166512D01*
X12602429Y-45176526D01*
X12602431Y-45176528D01*
X12707842Y-45285684D01*
X12707845Y-45285686D01*
X12717514Y-45295699D01*
X12729161Y-45303321D01*
X12729164Y-45303323D01*
X12768915Y-45329335D01*
X12867789Y-45394036D01*
X12880841Y-45398890D01*
X12880843Y-45398891D01*
X12912804Y-45410777D01*
X13036116Y-45456636D01*
X13049912Y-45458477D01*
X13049913Y-45458477D01*
X13200337Y-45478548D01*
X13200340Y-45478548D01*
X13214130Y-45480388D01*
X13227987Y-45479127D01*
X13227991Y-45479127D01*
X13326054Y-45470203D01*
X13392981Y-45464112D01*
X13406223Y-45459809D01*
X13406225Y-45459809D01*
X13550545Y-45412916D01*
X13563782Y-45408615D01*
X13718044Y-45316657D01*
X13848099Y-45192807D01*
X13893413Y-45124604D01*
X13939779Y-45054818D01*
X13939780Y-45054816D01*
X13947483Y-45043222D01*
X14011257Y-44875336D01*
X14014377Y-44853141D01*
X14035163Y-44705236D01*
X14035163Y-44705233D01*
X14036251Y-44697493D01*
X14036565Y-44675000D01*
X14035304Y-44663753D01*
X18521514Y-44663753D01*
X18522872Y-44677603D01*
X18522872Y-44677607D01*
X18524822Y-44697493D01*
X18539039Y-44842486D01*
X18543432Y-44855693D01*
X18543433Y-44855696D01*
X18554296Y-44888351D01*
X18595726Y-45012896D01*
X18688759Y-45166512D01*
X18698429Y-45176526D01*
X18698431Y-45176528D01*
X18803842Y-45285684D01*
X18803845Y-45285686D01*
X18813514Y-45295699D01*
X18825161Y-45303321D01*
X18825164Y-45303323D01*
X18864915Y-45329335D01*
X18963789Y-45394036D01*
X18976841Y-45398890D01*
X18976843Y-45398891D01*
X19008804Y-45410777D01*
X19132116Y-45456636D01*
X19145912Y-45458477D01*
X19145913Y-45458477D01*
X19296337Y-45478548D01*
X19296340Y-45478548D01*
X19310130Y-45480388D01*
X19323987Y-45479127D01*
X19323991Y-45479127D01*
X19422054Y-45470203D01*
X19488981Y-45464112D01*
X19502223Y-45459809D01*
X19502225Y-45459809D01*
X19646545Y-45412916D01*
X19659782Y-45408615D01*
X19814044Y-45316657D01*
X19944099Y-45192807D01*
X19989413Y-45124604D01*
X20035779Y-45054818D01*
X20035780Y-45054816D01*
X20043483Y-45043222D01*
X20107257Y-44875336D01*
X20110377Y-44853141D01*
X20131163Y-44705236D01*
X20131163Y-44705233D01*
X20132251Y-44697493D01*
X20132565Y-44675000D01*
X20131304Y-44663753D01*
X20125264Y-44609909D01*
X20112546Y-44496528D01*
X20067901Y-44368325D01*
X20058065Y-44340078D01*
X20058064Y-44340075D01*
X20053485Y-44326927D01*
X19958316Y-44174625D01*
X19831770Y-44047193D01*
X19817121Y-44037896D01*
X19740950Y-43989557D01*
X19680136Y-43950963D01*
X19667024Y-43946294D01*
X19667022Y-43946293D01*
X19592909Y-43919903D01*
X19510951Y-43890719D01*
X19497128Y-43889071D01*
X19497125Y-43889070D01*
X19401878Y-43877713D01*
X19332624Y-43869455D01*
X19318780Y-43870910D01*
X19318777Y-43870910D01*
X19230035Y-43880237D01*
X19154017Y-43888227D01*
X19140840Y-43892713D01*
X19140839Y-43892713D01*
X18997184Y-43941617D01*
X18997183Y-43941618D01*
X18984007Y-43946103D01*
X18966184Y-43957068D01*
X18842897Y-44032914D01*
X18842893Y-44032917D01*
X18831045Y-44040206D01*
X18816591Y-44054360D01*
X18729626Y-44139523D01*
X18702732Y-44165859D01*
X18695196Y-44177553D01*
X18695194Y-44177555D01*
X18666408Y-44222223D01*
X18605446Y-44316817D01*
X18600685Y-44329899D01*
X18553482Y-44459588D01*
X18544022Y-44485578D01*
X18521514Y-44663753D01*
X14035304Y-44663753D01*
X14029264Y-44609909D01*
X14016546Y-44496528D01*
X13971901Y-44368325D01*
X13962065Y-44340078D01*
X13962064Y-44340075D01*
X13957485Y-44326927D01*
X13862316Y-44174625D01*
X13735770Y-44047193D01*
X13721121Y-44037896D01*
X13644950Y-43989557D01*
X13584136Y-43950963D01*
X13571024Y-43946294D01*
X13571022Y-43946293D01*
X13496909Y-43919903D01*
X13414951Y-43890719D01*
X13401128Y-43889071D01*
X13401125Y-43889070D01*
X13305878Y-43877713D01*
X13236624Y-43869455D01*
X13222780Y-43870910D01*
X13222776Y-43870910D01*
X13174120Y-43876024D01*
X13077373Y-43867134D01*
X12991392Y-43821897D01*
X12929268Y-43747199D01*
X12900646Y-43656144D01*
X12890362Y-43564467D01*
X12885546Y-43521528D01*
X12864350Y-43460661D01*
X12850500Y-43378774D01*
X12850500Y-42952007D01*
X12869454Y-42856719D01*
X12923430Y-42775937D01*
X16502117Y-39197250D01*
X16525421Y-39177223D01*
X16528670Y-39174194D01*
X16540324Y-39165617D01*
X16549689Y-39154593D01*
X16549694Y-39154589D01*
X16570906Y-39129621D01*
X16576788Y-39123241D01*
X16576752Y-39123209D01*
X16581564Y-39117803D01*
X16586670Y-39112697D01*
X16602780Y-39092335D01*
X16608270Y-39085639D01*
X16612177Y-39081040D01*
X16653632Y-39032245D01*
X16659657Y-39020445D01*
X16667881Y-39010051D01*
X16674008Y-38996942D01*
X16674012Y-38996935D01*
X16697549Y-38946575D01*
X16701365Y-38938768D01*
X16726637Y-38889275D01*
X16726638Y-38889272D01*
X16733219Y-38876384D01*
X16736369Y-38863510D01*
X16741979Y-38851507D01*
X16756241Y-38782942D01*
X16758158Y-38774470D01*
X16774815Y-38706395D01*
X16777999Y-38707174D01*
X16803762Y-38636227D01*
X16869346Y-38564548D01*
X16957367Y-38523423D01*
X17054427Y-38519113D01*
X17145747Y-38552274D01*
X17160952Y-38563081D01*
X17162514Y-38564699D01*
X17179868Y-38576055D01*
X17277440Y-38639904D01*
X17312789Y-38663036D01*
X17325841Y-38667890D01*
X17325843Y-38667891D01*
X17420430Y-38703067D01*
X17481116Y-38725636D01*
X17494912Y-38727477D01*
X17494913Y-38727477D01*
X17645337Y-38747548D01*
X17645340Y-38747548D01*
X17659130Y-38749388D01*
X17672987Y-38748127D01*
X17672991Y-38748127D01*
X17771054Y-38739203D01*
X17837981Y-38733112D01*
X17851223Y-38728809D01*
X17851225Y-38728809D01*
X17995545Y-38681916D01*
X18008782Y-38677615D01*
X18163044Y-38585657D01*
X18212898Y-38538181D01*
X18294975Y-38486194D01*
X18384614Y-38469500D01*
X19714569Y-38469500D01*
X19809857Y-38488454D01*
X19890639Y-38542430D01*
X19944615Y-38623212D01*
X19950839Y-38639904D01*
X19980634Y-38729471D01*
X20004726Y-38801896D01*
X20097759Y-38955512D01*
X20107429Y-38965526D01*
X20107431Y-38965528D01*
X20212842Y-39074684D01*
X20212845Y-39074686D01*
X20222514Y-39084699D01*
X20234161Y-39092321D01*
X20234164Y-39092323D01*
X20354451Y-39171036D01*
X20372789Y-39183036D01*
X20385841Y-39187890D01*
X20385843Y-39187891D01*
X20418888Y-39200180D01*
X20541116Y-39245636D01*
X20554912Y-39247477D01*
X20554913Y-39247477D01*
X20705337Y-39267548D01*
X20705340Y-39267548D01*
X20719130Y-39269388D01*
X20732987Y-39268127D01*
X20732991Y-39268127D01*
X20831054Y-39259203D01*
X20897981Y-39253112D01*
X20911223Y-39248809D01*
X20911225Y-39248809D01*
X21055545Y-39201916D01*
X21068782Y-39197615D01*
X21223044Y-39105657D01*
X21353099Y-38981807D01*
X21379116Y-38942649D01*
X21444779Y-38843818D01*
X21444780Y-38843816D01*
X21452483Y-38832222D01*
X21516257Y-38664336D01*
X21520208Y-38636227D01*
X21540163Y-38494236D01*
X21540163Y-38494233D01*
X21541251Y-38486493D01*
X21541565Y-38464000D01*
X21521546Y-38285528D01*
X21482757Y-38174140D01*
X21467065Y-38129078D01*
X21467064Y-38129075D01*
X21462485Y-38115927D01*
X21367316Y-37963625D01*
X21240770Y-37836193D01*
X21190707Y-37804422D01*
X21120409Y-37737362D01*
X21081124Y-37648504D01*
X21078834Y-37551376D01*
X21113888Y-37460765D01*
X21148057Y-37418114D01*
X22234548Y-36331623D01*
X22242076Y-36324404D01*
X22271218Y-36297607D01*
X22271219Y-36297606D01*
X22283713Y-36286117D01*
X22302408Y-36255965D01*
X22315682Y-36236652D01*
X22337129Y-36208397D01*
X22343378Y-36192615D01*
X22347348Y-36185569D01*
X22350640Y-36178175D01*
X22359583Y-36163751D01*
X22364879Y-36145523D01*
X22369477Y-36129694D01*
X22377078Y-36107494D01*
X22378066Y-36105000D01*
X22390131Y-36074528D01*
X22391905Y-36057648D01*
X22394428Y-36047376D01*
X22396111Y-36038019D01*
X22399752Y-36025489D01*
X22400501Y-36015289D01*
X22400501Y-35988916D01*
X22401865Y-35962888D01*
X22403407Y-35948220D01*
X22403407Y-35948218D01*
X22405181Y-35931339D01*
X22402350Y-35914604D01*
X22401857Y-35898909D01*
X22400501Y-35882759D01*
X22400501Y-35392753D01*
X35031514Y-35392753D01*
X35032872Y-35406603D01*
X35032872Y-35406607D01*
X35038163Y-35460567D01*
X35049039Y-35571486D01*
X35053432Y-35584693D01*
X35053433Y-35584696D01*
X35075798Y-35651927D01*
X35105726Y-35741896D01*
X35198759Y-35895512D01*
X35208429Y-35905526D01*
X35208431Y-35905528D01*
X35313842Y-36014684D01*
X35313845Y-36014686D01*
X35323514Y-36024699D01*
X35335161Y-36032321D01*
X35335164Y-36032323D01*
X35423778Y-36090310D01*
X35473789Y-36123036D01*
X35486841Y-36127890D01*
X35486843Y-36127891D01*
X35556065Y-36153634D01*
X35642116Y-36185636D01*
X35655912Y-36187477D01*
X35655913Y-36187477D01*
X35806337Y-36207548D01*
X35806340Y-36207548D01*
X35820130Y-36209388D01*
X35833987Y-36208127D01*
X35833991Y-36208127D01*
X35932054Y-36199203D01*
X35998981Y-36193112D01*
X36012223Y-36188809D01*
X36012225Y-36188809D01*
X36156545Y-36141916D01*
X36169782Y-36137615D01*
X36324044Y-36045657D01*
X36410960Y-35962888D01*
X36444015Y-35931410D01*
X36444015Y-35931409D01*
X36454099Y-35921807D01*
X36491294Y-35865824D01*
X36545779Y-35783818D01*
X36545780Y-35783816D01*
X36553483Y-35772222D01*
X36617257Y-35604336D01*
X36620637Y-35580291D01*
X36641163Y-35434236D01*
X36641163Y-35434233D01*
X36642251Y-35426493D01*
X36642565Y-35404000D01*
X36641304Y-35392753D01*
X36629167Y-35284559D01*
X36622546Y-35225528D01*
X36583984Y-35114791D01*
X36568065Y-35069078D01*
X36568064Y-35069075D01*
X36563485Y-35055927D01*
X36468316Y-34903625D01*
X36341770Y-34776193D01*
X36289689Y-34743141D01*
X36217998Y-34697645D01*
X36190136Y-34679963D01*
X36177024Y-34675294D01*
X36177022Y-34675293D01*
X36122452Y-34655862D01*
X36020951Y-34619719D01*
X36007128Y-34618071D01*
X36007125Y-34618070D01*
X35917098Y-34607335D01*
X35842624Y-34598455D01*
X35828780Y-34599910D01*
X35828777Y-34599910D01*
X35740035Y-34609237D01*
X35664017Y-34617227D01*
X35650840Y-34621713D01*
X35650839Y-34621713D01*
X35507184Y-34670617D01*
X35507183Y-34670618D01*
X35494007Y-34675103D01*
X35482150Y-34682397D01*
X35482151Y-34682397D01*
X35352897Y-34761914D01*
X35352893Y-34761917D01*
X35341045Y-34769206D01*
X35212732Y-34894859D01*
X35205196Y-34906553D01*
X35205194Y-34906555D01*
X35179760Y-34946021D01*
X35115446Y-35045817D01*
X35082812Y-35135479D01*
X35060817Y-35195910D01*
X35054022Y-35214578D01*
X35031514Y-35392753D01*
X22400501Y-35392753D01*
X22400501Y-34065808D01*
X22419455Y-33970520D01*
X22473431Y-33889738D01*
X32806739Y-23556430D01*
X32887521Y-23502454D01*
X32982809Y-23483500D01*
X38427888Y-23483500D01*
X38523176Y-23502454D01*
X38607001Y-23559528D01*
X38625514Y-23578699D01*
X38637161Y-23586321D01*
X38637164Y-23586323D01*
X38759502Y-23666378D01*
X38775789Y-23677036D01*
X38788841Y-23681890D01*
X38788843Y-23681891D01*
X38872012Y-23712821D01*
X38944116Y-23739636D01*
X38957912Y-23741477D01*
X38957913Y-23741477D01*
X39108337Y-23761548D01*
X39108340Y-23761548D01*
X39122130Y-23763388D01*
X39135988Y-23762127D01*
X39135992Y-23762127D01*
X39230934Y-23753487D01*
X39327548Y-23763727D01*
X39412889Y-23810161D01*
X39473964Y-23885718D01*
X39501475Y-23978896D01*
X39502500Y-24001462D01*
X39502500Y-36221961D01*
X39483546Y-36317249D01*
X39429570Y-36398031D01*
X33333125Y-42494476D01*
X33252343Y-42548452D01*
X33157055Y-42567406D01*
X33061767Y-42548452D01*
X32980985Y-42494476D01*
X32945891Y-42450356D01*
X32919691Y-42408428D01*
X32912316Y-42396625D01*
X32785770Y-42269193D01*
X32774003Y-42261725D01*
X32645886Y-42180420D01*
X32634136Y-42172963D01*
X32621024Y-42168294D01*
X32621022Y-42168293D01*
X32544230Y-42140949D01*
X32464951Y-42112719D01*
X32451128Y-42111071D01*
X32451125Y-42111070D01*
X32361098Y-42100335D01*
X32286624Y-42091455D01*
X32272780Y-42092910D01*
X32272777Y-42092910D01*
X32184035Y-42102237D01*
X32108017Y-42110227D01*
X32094840Y-42114713D01*
X32094839Y-42114713D01*
X31951184Y-42163617D01*
X31951183Y-42163618D01*
X31938007Y-42168103D01*
X31926150Y-42175397D01*
X31926151Y-42175397D01*
X31796897Y-42254914D01*
X31796893Y-42254917D01*
X31785045Y-42262206D01*
X31656732Y-42387859D01*
X31559446Y-42538817D01*
X31522418Y-42640550D01*
X31504698Y-42689237D01*
X31498022Y-42707578D01*
X31475514Y-42885753D01*
X31476872Y-42899603D01*
X31476872Y-42899607D01*
X31483324Y-42965406D01*
X31493039Y-43064486D01*
X31497432Y-43077693D01*
X31497433Y-43077696D01*
X31531003Y-43178611D01*
X31549726Y-43234896D01*
X31642759Y-43388512D01*
X31652429Y-43398526D01*
X31652431Y-43398528D01*
X31757842Y-43507684D01*
X31757845Y-43507686D01*
X31767514Y-43517699D01*
X31779161Y-43525321D01*
X31779164Y-43525323D01*
X31838983Y-43564467D01*
X31908338Y-43632503D01*
X31946378Y-43721901D01*
X31947311Y-43819052D01*
X31910994Y-43909164D01*
X31878710Y-43948891D01*
X30849550Y-44978051D01*
X30842022Y-44985270D01*
X30826246Y-44999777D01*
X30800385Y-45023557D01*
X30781690Y-45053709D01*
X30768416Y-45073022D01*
X30746969Y-45101277D01*
X30740720Y-45117059D01*
X30736750Y-45124105D01*
X30733458Y-45131499D01*
X30724515Y-45145923D01*
X30714617Y-45179990D01*
X30707024Y-45202168D01*
X30700216Y-45219362D01*
X30700215Y-45219366D01*
X30693968Y-45235145D01*
X30692194Y-45252024D01*
X30689668Y-45262308D01*
X30687986Y-45271655D01*
X30684346Y-45284185D01*
X30683597Y-45294385D01*
X30683597Y-45320767D01*
X30682233Y-45346795D01*
X30678918Y-45378335D01*
X30681748Y-45395069D01*
X30682242Y-45410777D01*
X30683597Y-45426908D01*
X30683597Y-47017508D01*
X30664643Y-47112796D01*
X30610667Y-47193578D01*
X30606678Y-47197107D01*
X30606517Y-47197206D01*
X30606058Y-47197655D01*
X30606054Y-47197659D01*
X30492352Y-47309004D01*
X30478204Y-47322859D01*
X30470668Y-47334553D01*
X30470666Y-47334555D01*
X30441492Y-47379824D01*
X30380918Y-47473817D01*
X30358779Y-47534644D01*
X30335349Y-47599018D01*
X30319494Y-47642578D01*
X30296986Y-47820753D01*
X30298344Y-47834603D01*
X30298344Y-47834607D01*
X30301357Y-47865331D01*
X30314511Y-47999486D01*
X30318904Y-48012693D01*
X30318905Y-48012696D01*
X30354921Y-48120965D01*
X30371198Y-48169896D01*
X30464231Y-48323512D01*
X30473901Y-48333526D01*
X30473903Y-48333528D01*
X30579314Y-48442684D01*
X30579317Y-48442686D01*
X30588986Y-48452699D01*
X30600633Y-48460321D01*
X30600636Y-48460323D01*
X30711951Y-48533165D01*
X30739261Y-48551036D01*
X30752313Y-48555890D01*
X30752315Y-48555891D01*
X30790028Y-48569916D01*
X30907588Y-48613636D01*
X30921384Y-48615477D01*
X30921385Y-48615477D01*
X31071809Y-48635548D01*
X31071812Y-48635548D01*
X31085602Y-48637388D01*
X31099459Y-48636127D01*
X31099463Y-48636127D01*
X31197526Y-48627203D01*
X31264453Y-48621112D01*
X31277695Y-48616809D01*
X31277697Y-48616809D01*
X31422017Y-48569916D01*
X31435254Y-48565615D01*
X31589516Y-48473657D01*
X31694353Y-48373822D01*
X31709487Y-48359410D01*
X31709487Y-48359409D01*
X31719571Y-48349807D01*
X31759639Y-48289500D01*
X31811251Y-48211818D01*
X31811252Y-48211816D01*
X31818955Y-48200222D01*
X31873437Y-48056796D01*
X31924994Y-47974450D01*
X32004138Y-47918101D01*
X32068778Y-47901143D01*
X32068579Y-47900172D01*
X32082210Y-47897374D01*
X32096079Y-47896112D01*
X32109321Y-47891809D01*
X32109323Y-47891809D01*
X32253643Y-47844916D01*
X32266880Y-47840615D01*
X32421142Y-47748657D01*
X32492144Y-47681043D01*
X32541113Y-47634410D01*
X32541113Y-47634409D01*
X32551197Y-47624807D01*
X32611101Y-47534644D01*
X32642877Y-47486818D01*
X32642878Y-47486816D01*
X32650581Y-47475222D01*
X32714355Y-47307336D01*
X32716494Y-47292121D01*
X32738261Y-47137236D01*
X32738261Y-47137233D01*
X32739349Y-47129493D01*
X32739663Y-47107000D01*
X32736407Y-47077965D01*
X32724910Y-46975471D01*
X32733124Y-46878664D01*
X32777760Y-46792370D01*
X32852021Y-46729725D01*
X32895411Y-46710903D01*
X32948903Y-46693522D01*
X32994782Y-46678615D01*
X33149044Y-46586657D01*
X33279099Y-46462807D01*
X33358556Y-46343215D01*
X33370779Y-46324818D01*
X33370780Y-46324816D01*
X33378483Y-46313222D01*
X33389804Y-46283420D01*
X33393498Y-46273696D01*
X33445054Y-46191348D01*
X33524198Y-46134999D01*
X33603703Y-46114141D01*
X33661007Y-46108926D01*
X33717641Y-46103772D01*
X33730883Y-46099469D01*
X33730885Y-46099469D01*
X33875205Y-46052576D01*
X33888442Y-46048275D01*
X34042704Y-45956317D01*
X34172759Y-45832467D01*
X34238022Y-45734239D01*
X34264439Y-45694478D01*
X34264440Y-45694476D01*
X34272143Y-45682882D01*
X34335917Y-45514996D01*
X34339967Y-45486183D01*
X34359823Y-45344896D01*
X34359823Y-45344893D01*
X34360911Y-45337153D01*
X34361225Y-45314660D01*
X34359954Y-45303323D01*
X34351491Y-45227877D01*
X34341206Y-45136188D01*
X34326911Y-45095138D01*
X34313473Y-44998917D01*
X34337880Y-44904877D01*
X34385990Y-44837179D01*
X37869930Y-41353240D01*
X37950712Y-41299264D01*
X38046000Y-41280310D01*
X38141288Y-41299264D01*
X38222070Y-41353240D01*
X38276046Y-41434022D01*
X38295000Y-41529310D01*
X38295001Y-42110227D01*
X38295001Y-42699018D01*
X38309854Y-42792804D01*
X38367450Y-42905842D01*
X38457158Y-42995550D01*
X38570196Y-43053146D01*
X38579283Y-43054585D01*
X38656776Y-43097985D01*
X38716923Y-43174284D01*
X38743294Y-43267791D01*
X38731873Y-43364273D01*
X38684400Y-43449039D01*
X38671131Y-43463394D01*
X38583902Y-43550623D01*
X38458398Y-43729862D01*
X38453805Y-43739711D01*
X38453803Y-43739715D01*
X38395872Y-43863949D01*
X38365925Y-43928170D01*
X38309293Y-44139523D01*
X38308346Y-44150348D01*
X38295859Y-44293084D01*
X38290223Y-44357500D01*
X38309293Y-44575477D01*
X38365925Y-44786830D01*
X38370522Y-44796688D01*
X38400133Y-44860188D01*
X38458398Y-44985138D01*
X38583902Y-45164377D01*
X38738623Y-45319098D01*
X38747526Y-45325332D01*
X38747532Y-45325337D01*
X38887769Y-45423533D01*
X38954953Y-45493714D01*
X38990165Y-45584264D01*
X38988046Y-45681395D01*
X38948916Y-45770322D01*
X38887769Y-45831469D01*
X38738623Y-45935902D01*
X38583902Y-46090623D01*
X38458398Y-46269862D01*
X38453805Y-46279711D01*
X38453803Y-46279715D01*
X38434069Y-46322035D01*
X38365925Y-46468170D01*
X38309293Y-46679523D01*
X38290223Y-46897500D01*
X38291170Y-46908325D01*
X38294831Y-46950175D01*
X38309293Y-47115477D01*
X38365925Y-47326830D01*
X38370522Y-47336688D01*
X38449346Y-47505725D01*
X38458398Y-47525138D01*
X38583902Y-47704377D01*
X38738623Y-47859098D01*
X38747521Y-47865328D01*
X38747524Y-47865331D01*
X38792277Y-47896667D01*
X38859461Y-47966849D01*
X38894673Y-48057398D01*
X38892554Y-48154530D01*
X38853425Y-48243457D01*
X38798961Y-48299757D01*
X38648976Y-48412370D01*
X38633735Y-48425901D01*
X38493580Y-48572565D01*
X38480757Y-48588401D01*
X38366437Y-48755987D01*
X38356377Y-48773696D01*
X38270963Y-48957705D01*
X38263928Y-48976827D01*
X38210560Y-49169261D01*
X38211426Y-49178888D01*
X38222976Y-49182500D01*
X40857181Y-49182500D01*
X40877639Y-49178431D01*
X40878668Y-49173255D01*
X40877972Y-49167627D01*
X40837944Y-49008273D01*
X40831380Y-48988992D01*
X40750486Y-48802946D01*
X40740864Y-48785002D01*
X40630668Y-48614664D01*
X40618237Y-48598522D01*
X40481709Y-48448480D01*
X40466805Y-48434582D01*
X40307596Y-48308847D01*
X40305024Y-48307138D01*
X40303452Y-48305574D01*
X40299581Y-48302517D01*
X40299932Y-48302073D01*
X40236146Y-48238619D01*
X40198732Y-48148956D01*
X40198479Y-48051802D01*
X40235424Y-47961946D01*
X40300001Y-47895772D01*
X40343473Y-47865333D01*
X40343475Y-47865331D01*
X40352377Y-47859098D01*
X40507098Y-47704377D01*
X40632602Y-47525138D01*
X40641655Y-47505725D01*
X40720478Y-47336688D01*
X40725075Y-47326830D01*
X40781707Y-47115477D01*
X40796169Y-46950175D01*
X40799830Y-46908325D01*
X40800777Y-46897500D01*
X40781707Y-46679523D01*
X40725075Y-46468170D01*
X40656931Y-46322035D01*
X40637197Y-46279715D01*
X40637195Y-46279711D01*
X40632602Y-46269862D01*
X40507098Y-46090623D01*
X40352377Y-45935902D01*
X40343478Y-45929671D01*
X40343471Y-45929665D01*
X40203232Y-45831469D01*
X40136048Y-45761288D01*
X40100835Y-45670739D01*
X40102954Y-45573607D01*
X40142083Y-45484680D01*
X40203232Y-45423531D01*
X40343471Y-45325335D01*
X40343478Y-45325329D01*
X40352377Y-45319098D01*
X40507098Y-45164377D01*
X40632602Y-44985138D01*
X40690868Y-44860188D01*
X40720478Y-44796688D01*
X40725075Y-44786830D01*
X40781707Y-44575477D01*
X40800777Y-44357500D01*
X40795142Y-44293084D01*
X40782654Y-44150348D01*
X40781707Y-44139523D01*
X40725075Y-43928170D01*
X40695128Y-43863949D01*
X40637197Y-43739715D01*
X40637195Y-43739711D01*
X40632602Y-43729862D01*
X40507098Y-43550623D01*
X40419869Y-43463394D01*
X40365893Y-43382612D01*
X40346939Y-43287324D01*
X40365893Y-43192036D01*
X40419869Y-43111254D01*
X40500651Y-43057278D01*
X40505117Y-43055630D01*
X40520804Y-43053146D01*
X40633842Y-42995550D01*
X40723550Y-42905842D01*
X40781146Y-42792804D01*
X40796000Y-42699019D01*
X40795999Y-41601473D01*
X42435700Y-41601473D01*
X42439769Y-41621931D01*
X42460227Y-41626000D01*
X43514173Y-41626000D01*
X43534631Y-41621931D01*
X43538700Y-41601473D01*
X44048700Y-41601473D01*
X44052769Y-41621931D01*
X44073227Y-41626000D01*
X45127172Y-41626000D01*
X45147630Y-41621931D01*
X45151699Y-41601473D01*
X45151699Y-40989654D01*
X45150971Y-40976208D01*
X45146638Y-40936315D01*
X45139472Y-40906174D01*
X45100100Y-40801150D01*
X45083231Y-40770340D01*
X45017247Y-40682297D01*
X44992403Y-40657453D01*
X44904360Y-40591469D01*
X44873550Y-40574600D01*
X44768522Y-40535227D01*
X44738391Y-40528062D01*
X44698486Y-40523727D01*
X44685050Y-40523000D01*
X44073227Y-40523000D01*
X44052769Y-40527069D01*
X44048700Y-40547527D01*
X44048700Y-41601473D01*
X43538700Y-41601473D01*
X43538700Y-40547528D01*
X43534631Y-40527070D01*
X43514173Y-40523001D01*
X42902354Y-40523001D01*
X42888908Y-40523729D01*
X42849015Y-40528062D01*
X42818874Y-40535228D01*
X42713850Y-40574600D01*
X42683040Y-40591469D01*
X42594997Y-40657453D01*
X42570153Y-40682297D01*
X42504169Y-40770340D01*
X42487300Y-40801150D01*
X42447927Y-40906178D01*
X42440762Y-40936309D01*
X42436427Y-40976214D01*
X42435700Y-40989650D01*
X42435700Y-41601473D01*
X40795999Y-41601473D01*
X40795999Y-40935982D01*
X40781146Y-40842196D01*
X40723550Y-40729158D01*
X40633842Y-40639450D01*
X40520804Y-40581854D01*
X40501448Y-40578788D01*
X40501447Y-40578788D01*
X40481493Y-40575628D01*
X40427019Y-40567000D01*
X40398424Y-40567000D01*
X39257306Y-40567001D01*
X39162020Y-40548047D01*
X39081239Y-40494071D01*
X39027262Y-40413289D01*
X39008308Y-40318001D01*
X39027262Y-40222713D01*
X39081238Y-40141931D01*
X40226235Y-38996935D01*
X41784560Y-37438610D01*
X41792088Y-37431391D01*
X41821220Y-37404603D01*
X41833712Y-37393116D01*
X41842654Y-37378695D01*
X41842656Y-37378692D01*
X41850863Y-37365454D01*
X41852404Y-37362969D01*
X41865687Y-37343643D01*
X41876865Y-37328916D01*
X41887127Y-37315396D01*
X41893375Y-37299614D01*
X41897346Y-37292567D01*
X41900635Y-37285179D01*
X41909582Y-37270750D01*
X41919477Y-37236693D01*
X41927073Y-37214505D01*
X41933882Y-37197307D01*
X41933882Y-37197306D01*
X41940129Y-37181528D01*
X41941903Y-37164649D01*
X41944428Y-37154369D01*
X41946110Y-37145020D01*
X41949751Y-37132488D01*
X41950500Y-37122288D01*
X41950500Y-37095907D01*
X41951864Y-37069879D01*
X41953405Y-37055220D01*
X41953405Y-37055218D01*
X41955179Y-37038339D01*
X41952349Y-37021605D01*
X41951855Y-37005897D01*
X41950500Y-36989766D01*
X41950500Y-24089753D01*
X49128514Y-24089753D01*
X49129872Y-24103603D01*
X49129872Y-24103607D01*
X49131822Y-24123493D01*
X49146039Y-24268486D01*
X49150432Y-24281693D01*
X49150433Y-24281696D01*
X49171292Y-24344401D01*
X49202726Y-24438896D01*
X49295759Y-24592512D01*
X49305429Y-24602526D01*
X49305431Y-24602528D01*
X49410842Y-24711684D01*
X49410845Y-24711686D01*
X49420514Y-24721699D01*
X49432161Y-24729321D01*
X49432164Y-24729323D01*
X49504523Y-24776673D01*
X49570789Y-24820036D01*
X49583841Y-24824890D01*
X49583843Y-24824891D01*
X49621556Y-24838916D01*
X49739116Y-24882636D01*
X49752912Y-24884477D01*
X49752913Y-24884477D01*
X49903337Y-24904548D01*
X49903340Y-24904548D01*
X49917130Y-24906388D01*
X49930987Y-24905127D01*
X49930991Y-24905127D01*
X50032181Y-24895918D01*
X50095981Y-24890112D01*
X50109223Y-24885809D01*
X50109225Y-24885809D01*
X50253545Y-24838916D01*
X50266782Y-24834615D01*
X50421044Y-24742657D01*
X50551099Y-24618807D01*
X50562951Y-24600969D01*
X50642779Y-24480818D01*
X50642780Y-24480816D01*
X50650483Y-24469222D01*
X50714257Y-24301336D01*
X50716297Y-24286825D01*
X50738163Y-24131236D01*
X50738163Y-24131233D01*
X50739251Y-24123493D01*
X50739565Y-24101000D01*
X50738304Y-24089753D01*
X50724585Y-23967453D01*
X50719546Y-23922528D01*
X50686116Y-23826529D01*
X50665065Y-23766078D01*
X50665064Y-23766075D01*
X50660485Y-23752927D01*
X50565316Y-23600625D01*
X50438770Y-23473193D01*
X50287136Y-23376963D01*
X50274024Y-23372294D01*
X50274022Y-23372293D01*
X50192863Y-23343394D01*
X50117951Y-23316719D01*
X50104128Y-23315071D01*
X50104125Y-23315070D01*
X50014098Y-23304335D01*
X49939624Y-23295455D01*
X49925780Y-23296910D01*
X49925777Y-23296910D01*
X49837035Y-23306237D01*
X49761017Y-23314227D01*
X49747840Y-23318713D01*
X49747839Y-23318713D01*
X49604184Y-23367617D01*
X49604183Y-23367618D01*
X49591007Y-23372103D01*
X49570986Y-23384420D01*
X49449897Y-23458914D01*
X49449893Y-23458917D01*
X49438045Y-23466206D01*
X49428101Y-23475943D01*
X49428102Y-23475943D01*
X49323171Y-23578699D01*
X49309732Y-23591859D01*
X49212446Y-23742817D01*
X49151022Y-23911578D01*
X49128514Y-24089753D01*
X41950500Y-24089753D01*
X41950500Y-22413353D01*
X59390114Y-22413353D01*
X59391472Y-22427203D01*
X59391472Y-22427207D01*
X59399805Y-22512190D01*
X59407639Y-22592086D01*
X59412032Y-22605293D01*
X59412033Y-22605296D01*
X59440541Y-22690996D01*
X59464326Y-22762496D01*
X59557359Y-22916112D01*
X59567029Y-22926126D01*
X59567031Y-22926128D01*
X59672442Y-23035284D01*
X59672445Y-23035286D01*
X59682114Y-23045299D01*
X59693761Y-23052921D01*
X59693764Y-23052923D01*
X59820008Y-23135534D01*
X59832389Y-23143636D01*
X59845441Y-23148490D01*
X59845443Y-23148491D01*
X59873672Y-23158989D01*
X60000716Y-23206236D01*
X60014512Y-23208077D01*
X60014513Y-23208077D01*
X60164937Y-23228148D01*
X60164940Y-23228148D01*
X60178730Y-23229988D01*
X60192587Y-23228727D01*
X60192591Y-23228727D01*
X60290654Y-23219803D01*
X60357581Y-23213712D01*
X60370823Y-23209409D01*
X60370825Y-23209409D01*
X60515145Y-23162516D01*
X60528382Y-23158215D01*
X60682644Y-23066257D01*
X60812699Y-22942407D01*
X60887382Y-22830000D01*
X60904379Y-22804418D01*
X60904380Y-22804416D01*
X60912083Y-22792822D01*
X60975857Y-22624936D01*
X60980561Y-22591470D01*
X60999763Y-22454836D01*
X60999763Y-22454833D01*
X61000851Y-22447093D01*
X61001165Y-22424600D01*
X60999904Y-22413353D01*
X60988219Y-22309189D01*
X60983506Y-22267168D01*
X68123960Y-22267168D01*
X68127628Y-22275504D01*
X68774159Y-22922035D01*
X68791500Y-22933622D01*
X68808841Y-22922035D01*
X69447366Y-22283510D01*
X69458953Y-22266169D01*
X69453894Y-22258598D01*
X69419256Y-22234344D01*
X69400504Y-22223518D01*
X69224679Y-22141529D01*
X69204321Y-22134119D01*
X69016927Y-22083908D01*
X68995592Y-22080146D01*
X68802335Y-22063238D01*
X68780665Y-22063238D01*
X68587408Y-22080146D01*
X68566073Y-22083908D01*
X68378679Y-22134119D01*
X68358321Y-22141529D01*
X68182496Y-22223518D01*
X68163744Y-22234344D01*
X68138381Y-22252103D01*
X68123960Y-22267168D01*
X60983506Y-22267168D01*
X60981146Y-22246128D01*
X60942141Y-22134119D01*
X60926665Y-22089678D01*
X60926664Y-22089675D01*
X60922085Y-22076527D01*
X60892929Y-22029868D01*
X70062876Y-22029868D01*
X70063489Y-22041557D01*
X70073213Y-22045000D01*
X71211973Y-22045000D01*
X71232431Y-22040931D01*
X71236500Y-22020473D01*
X71236500Y-21216527D01*
X71232431Y-21196069D01*
X71211973Y-21192000D01*
X71094594Y-21192000D01*
X71082779Y-21192563D01*
X70942823Y-21205916D01*
X70919664Y-21210375D01*
X70739523Y-21263222D01*
X70717617Y-21271984D01*
X70550724Y-21357940D01*
X70530876Y-21370682D01*
X70383243Y-21486649D01*
X70366160Y-21502917D01*
X70243123Y-21644704D01*
X70229424Y-21663910D01*
X70135416Y-21826408D01*
X70125597Y-21847855D01*
X70064017Y-22025189D01*
X70062876Y-22029868D01*
X60892929Y-22029868D01*
X60826916Y-21924225D01*
X60700370Y-21796793D01*
X60548736Y-21700563D01*
X60535624Y-21695894D01*
X60535622Y-21695893D01*
X60445802Y-21663910D01*
X60379551Y-21640319D01*
X60365728Y-21638671D01*
X60365725Y-21638670D01*
X60275698Y-21627935D01*
X60201224Y-21619055D01*
X60187380Y-21620510D01*
X60187377Y-21620510D01*
X60098635Y-21629837D01*
X60022617Y-21637827D01*
X60009440Y-21642313D01*
X60009439Y-21642313D01*
X59865784Y-21691217D01*
X59865783Y-21691218D01*
X59852607Y-21695703D01*
X59840750Y-21702997D01*
X59840751Y-21702997D01*
X59711497Y-21782514D01*
X59711493Y-21782517D01*
X59699645Y-21789806D01*
X59689701Y-21799543D01*
X59689702Y-21799543D01*
X59607295Y-21880242D01*
X59571332Y-21915459D01*
X59474046Y-22066417D01*
X59412622Y-22235178D01*
X59390114Y-22413353D01*
X41950500Y-22413353D01*
X41950500Y-17104253D01*
X50319514Y-17104253D01*
X50320872Y-17118103D01*
X50320872Y-17118107D01*
X50322822Y-17137993D01*
X50337039Y-17282986D01*
X50341432Y-17296193D01*
X50341433Y-17296196D01*
X50389332Y-17440187D01*
X50393726Y-17453396D01*
X50486759Y-17607012D01*
X50496429Y-17617026D01*
X50496431Y-17617028D01*
X50601842Y-17726184D01*
X50601845Y-17726186D01*
X50611514Y-17736199D01*
X50623161Y-17743821D01*
X50623164Y-17743823D01*
X50750135Y-17826910D01*
X50761789Y-17834536D01*
X50774841Y-17839390D01*
X50774843Y-17839391D01*
X50812556Y-17853416D01*
X50930116Y-17897136D01*
X50943912Y-17898977D01*
X50943913Y-17898977D01*
X51094337Y-17919048D01*
X51094340Y-17919048D01*
X51108130Y-17920888D01*
X51121987Y-17919627D01*
X51121991Y-17919627D01*
X51220054Y-17910703D01*
X51286981Y-17904612D01*
X51300223Y-17900309D01*
X51300225Y-17900309D01*
X51444545Y-17853416D01*
X51457782Y-17849115D01*
X51612044Y-17757157D01*
X51742099Y-17633307D01*
X51841483Y-17483722D01*
X51905257Y-17315836D01*
X51911821Y-17269134D01*
X51929163Y-17145736D01*
X51929163Y-17145733D01*
X51930251Y-17137993D01*
X51930565Y-17115500D01*
X51929304Y-17104253D01*
X51918125Y-17004594D01*
X51910546Y-16937028D01*
X51877116Y-16841029D01*
X51856065Y-16780578D01*
X51856064Y-16780575D01*
X51851485Y-16767427D01*
X51838332Y-16746377D01*
X51763691Y-16626928D01*
X51756316Y-16615125D01*
X51629770Y-16487693D01*
X51618018Y-16480235D01*
X51618013Y-16480231D01*
X51612288Y-16476598D01*
X51541989Y-16409538D01*
X51502703Y-16320680D01*
X51500413Y-16223552D01*
X51535467Y-16132941D01*
X51595163Y-16068021D01*
X51600080Y-16064289D01*
X51612044Y-16057157D01*
X51742099Y-15933307D01*
X51841483Y-15783722D01*
X51905257Y-15615836D01*
X51911821Y-15569134D01*
X51929163Y-15445736D01*
X51929163Y-15445733D01*
X51930251Y-15437993D01*
X51930565Y-15415500D01*
X51929304Y-15404253D01*
X51912097Y-15250859D01*
X51910546Y-15237028D01*
X51851485Y-15067427D01*
X51756316Y-14915125D01*
X51629770Y-14787693D01*
X51555055Y-14740277D01*
X51521543Y-14719010D01*
X51478136Y-14691463D01*
X51465024Y-14686794D01*
X51465022Y-14686793D01*
X51415720Y-14669238D01*
X51308951Y-14631219D01*
X51295128Y-14629571D01*
X51295125Y-14629570D01*
X51205098Y-14618835D01*
X51130624Y-14609955D01*
X51116780Y-14611410D01*
X51116777Y-14611410D01*
X51028035Y-14620737D01*
X50952017Y-14628727D01*
X50938840Y-14633213D01*
X50938839Y-14633213D01*
X50795184Y-14682117D01*
X50795183Y-14682118D01*
X50782007Y-14686603D01*
X50770150Y-14693897D01*
X50770151Y-14693897D01*
X50640897Y-14773414D01*
X50640893Y-14773417D01*
X50629045Y-14780706D01*
X50500732Y-14906359D01*
X50403446Y-15057317D01*
X50342022Y-15226078D01*
X50319514Y-15404253D01*
X50320872Y-15418103D01*
X50320872Y-15418107D01*
X50322822Y-15437993D01*
X50337039Y-15582986D01*
X50341432Y-15596193D01*
X50341433Y-15596196D01*
X50352296Y-15628851D01*
X50393726Y-15753396D01*
X50486759Y-15907012D01*
X50496429Y-15917026D01*
X50496431Y-15917028D01*
X50601842Y-16026184D01*
X50601845Y-16026186D01*
X50611514Y-16036199D01*
X50641816Y-16056028D01*
X50711169Y-16124061D01*
X50749209Y-16213459D01*
X50750143Y-16310610D01*
X50713828Y-16400722D01*
X50651455Y-16464306D01*
X50651872Y-16464840D01*
X50647840Y-16467990D01*
X50645792Y-16470078D01*
X50642126Y-16472455D01*
X50640901Y-16473412D01*
X50629045Y-16480706D01*
X50500732Y-16606359D01*
X50403446Y-16757317D01*
X50342022Y-16926078D01*
X50319514Y-17104253D01*
X41950500Y-17104253D01*
X41950500Y-13713753D01*
X57319514Y-13713753D01*
X57320872Y-13727603D01*
X57320872Y-13727607D01*
X57322822Y-13747493D01*
X57337039Y-13892486D01*
X57341432Y-13905693D01*
X57341433Y-13905696D01*
X57349820Y-13930909D01*
X57393726Y-14062896D01*
X57486759Y-14216512D01*
X57496429Y-14226526D01*
X57496431Y-14226528D01*
X57601842Y-14335684D01*
X57601845Y-14335686D01*
X57611514Y-14345699D01*
X57623161Y-14353321D01*
X57623164Y-14353323D01*
X57750135Y-14436410D01*
X57761789Y-14444036D01*
X57774841Y-14448890D01*
X57774843Y-14448891D01*
X57812556Y-14462916D01*
X57930116Y-14506636D01*
X57943912Y-14508477D01*
X57943913Y-14508477D01*
X58094337Y-14528548D01*
X58094340Y-14528548D01*
X58108130Y-14530388D01*
X58121987Y-14529127D01*
X58121991Y-14529127D01*
X58220054Y-14520203D01*
X58286981Y-14514112D01*
X58300223Y-14509809D01*
X58300225Y-14509809D01*
X58444545Y-14462916D01*
X58457782Y-14458615D01*
X58612044Y-14366657D01*
X58742099Y-14242807D01*
X58841483Y-14093222D01*
X58905257Y-13925336D01*
X58911821Y-13878634D01*
X58929163Y-13755236D01*
X58929163Y-13755233D01*
X58930251Y-13747493D01*
X58930565Y-13725000D01*
X58929304Y-13713753D01*
X58912097Y-13560359D01*
X58910546Y-13546528D01*
X58876684Y-13449288D01*
X58856065Y-13390078D01*
X58856064Y-13390075D01*
X58851485Y-13376927D01*
X58756316Y-13224625D01*
X58629770Y-13097193D01*
X58478136Y-13000963D01*
X58465024Y-12996294D01*
X58465022Y-12996293D01*
X58415720Y-12978738D01*
X58308951Y-12940719D01*
X58295128Y-12939071D01*
X58295125Y-12939070D01*
X58205098Y-12928335D01*
X58130624Y-12919455D01*
X58116780Y-12920910D01*
X58116777Y-12920910D01*
X58028035Y-12930237D01*
X57952017Y-12938227D01*
X57938840Y-12942713D01*
X57938839Y-12942713D01*
X57795184Y-12991617D01*
X57795183Y-12991618D01*
X57782007Y-12996103D01*
X57770150Y-13003397D01*
X57770151Y-13003397D01*
X57640897Y-13082914D01*
X57640893Y-13082917D01*
X57629045Y-13090206D01*
X57500732Y-13215859D01*
X57403446Y-13366817D01*
X57342022Y-13535578D01*
X57319514Y-13713753D01*
X41950500Y-13713753D01*
X41950500Y-10788753D01*
X53744504Y-10788753D01*
X53745862Y-10802603D01*
X53745862Y-10802607D01*
X53747812Y-10822493D01*
X53762029Y-10967486D01*
X53766422Y-10980693D01*
X53766423Y-10980696D01*
X53799795Y-11081018D01*
X53818716Y-11137896D01*
X53911749Y-11291512D01*
X53921419Y-11301526D01*
X53921421Y-11301528D01*
X54026832Y-11410684D01*
X54026835Y-11410686D01*
X54036504Y-11420699D01*
X54048151Y-11428321D01*
X54048154Y-11428323D01*
X54094979Y-11458964D01*
X54186779Y-11519036D01*
X54199831Y-11523890D01*
X54199833Y-11523891D01*
X54235349Y-11537099D01*
X54355106Y-11581636D01*
X54368902Y-11583477D01*
X54368903Y-11583477D01*
X54519327Y-11603548D01*
X54519330Y-11603548D01*
X54533120Y-11605388D01*
X54546977Y-11604127D01*
X54546981Y-11604127D01*
X54645044Y-11595203D01*
X54711971Y-11589112D01*
X54725213Y-11584809D01*
X54725215Y-11584809D01*
X54869535Y-11537916D01*
X54882772Y-11533615D01*
X55037034Y-11441657D01*
X55117106Y-11365405D01*
X55157005Y-11327410D01*
X55157005Y-11327409D01*
X55167089Y-11317807D01*
X55266473Y-11168222D01*
X55330247Y-11000336D01*
X55336811Y-10953634D01*
X55354153Y-10830236D01*
X55354153Y-10830233D01*
X55355241Y-10822493D01*
X55355555Y-10800000D01*
X55354294Y-10788753D01*
X55337087Y-10635359D01*
X55335536Y-10621528D01*
X55301874Y-10524862D01*
X55281055Y-10465078D01*
X55281054Y-10465075D01*
X55276475Y-10451927D01*
X55181306Y-10299625D01*
X55054760Y-10172193D01*
X54903126Y-10075963D01*
X54890014Y-10071294D01*
X54890012Y-10071293D01*
X54840710Y-10053738D01*
X54733941Y-10015719D01*
X54720118Y-10014071D01*
X54720115Y-10014070D01*
X54630088Y-10003335D01*
X54555614Y-9994455D01*
X54541770Y-9995910D01*
X54541767Y-9995910D01*
X54453025Y-10005237D01*
X54377007Y-10013227D01*
X54363830Y-10017713D01*
X54363829Y-10017713D01*
X54220174Y-10066617D01*
X54220173Y-10066618D01*
X54206997Y-10071103D01*
X54195140Y-10078397D01*
X54195141Y-10078397D01*
X54065887Y-10157914D01*
X54065883Y-10157917D01*
X54054035Y-10165206D01*
X53925722Y-10290859D01*
X53828436Y-10441817D01*
X53767012Y-10610578D01*
X53744504Y-10788753D01*
X41950500Y-10788753D01*
X41950500Y-6321966D01*
X41969454Y-6226678D01*
X42023430Y-6145896D01*
X42104212Y-6091920D01*
X42122554Y-6085153D01*
X42252545Y-6042916D01*
X42265782Y-6038615D01*
X42420044Y-5946657D01*
X42550099Y-5822807D01*
X42649483Y-5673222D01*
X42713257Y-5505336D01*
X42719821Y-5458634D01*
X42737163Y-5335236D01*
X42737163Y-5335233D01*
X42738251Y-5327493D01*
X42738565Y-5305000D01*
X42737304Y-5293753D01*
X42720097Y-5140359D01*
X42718546Y-5126528D01*
X42674551Y-5000190D01*
X42664065Y-4970078D01*
X42664064Y-4970075D01*
X42659485Y-4956927D01*
X42564316Y-4804625D01*
X42437770Y-4677193D01*
X42400194Y-4653346D01*
X42341829Y-4616307D01*
X42286136Y-4580963D01*
X42273024Y-4576294D01*
X42273022Y-4576293D01*
X42223720Y-4558738D01*
X42116951Y-4520719D01*
X42103128Y-4519071D01*
X42103125Y-4519070D01*
X42013098Y-4508335D01*
X41938624Y-4499455D01*
X41924780Y-4500910D01*
X41924777Y-4500910D01*
X41836035Y-4510237D01*
X41760017Y-4518227D01*
X41746840Y-4522713D01*
X41746839Y-4522713D01*
X41603184Y-4571617D01*
X41603183Y-4571618D01*
X41590007Y-4576103D01*
X41578150Y-4583397D01*
X41578151Y-4583397D01*
X41448897Y-4662914D01*
X41448893Y-4662917D01*
X41437045Y-4670206D01*
X41308732Y-4795859D01*
X41301192Y-4807559D01*
X41300391Y-4808541D01*
X41225477Y-4870404D01*
X41132592Y-4898889D01*
X41035877Y-4889661D01*
X40950054Y-4844124D01*
X40917144Y-4810751D01*
X40913316Y-4804625D01*
X40786770Y-4677193D01*
X40749194Y-4653346D01*
X40690829Y-4616307D01*
X40635136Y-4580963D01*
X40622024Y-4576294D01*
X40622022Y-4576293D01*
X40572720Y-4558738D01*
X40465951Y-4520719D01*
X40452128Y-4519071D01*
X40452125Y-4519070D01*
X40362098Y-4508335D01*
X40287624Y-4499455D01*
X40273780Y-4500910D01*
X40273777Y-4500910D01*
X40185035Y-4510237D01*
X40109017Y-4518227D01*
X40095840Y-4522713D01*
X40095839Y-4522713D01*
X39952184Y-4571617D01*
X39952183Y-4571618D01*
X39939007Y-4576103D01*
X39786045Y-4670206D01*
X39785123Y-4668708D01*
X39713471Y-4704825D01*
X39616583Y-4712026D01*
X39524315Y-4681603D01*
X39513504Y-4675120D01*
X39420829Y-4616307D01*
X39365136Y-4580963D01*
X39352024Y-4576294D01*
X39352022Y-4576293D01*
X39302720Y-4558738D01*
X39195951Y-4520719D01*
X39182128Y-4519071D01*
X39182125Y-4519070D01*
X39092098Y-4508335D01*
X39017624Y-4499455D01*
X39003780Y-4500910D01*
X39003777Y-4500910D01*
X38915035Y-4510237D01*
X38839017Y-4518227D01*
X38825840Y-4522713D01*
X38825839Y-4522713D01*
X38682184Y-4571617D01*
X38682183Y-4571618D01*
X38669007Y-4576103D01*
X38516045Y-4670206D01*
X38515123Y-4668708D01*
X38443471Y-4704825D01*
X38346583Y-4712026D01*
X38254315Y-4681603D01*
X38243504Y-4675120D01*
X38150829Y-4616307D01*
X38095136Y-4580963D01*
X38082024Y-4576294D01*
X38082022Y-4576293D01*
X38032720Y-4558738D01*
X37925951Y-4520719D01*
X37912128Y-4519071D01*
X37912125Y-4519070D01*
X37822098Y-4508335D01*
X37747624Y-4499455D01*
X37733780Y-4500910D01*
X37733777Y-4500910D01*
X37645035Y-4510237D01*
X37569017Y-4518227D01*
X37555840Y-4522713D01*
X37555839Y-4522713D01*
X37412184Y-4571617D01*
X37412183Y-4571618D01*
X37399007Y-4576103D01*
X37387150Y-4583397D01*
X37387151Y-4583397D01*
X37257897Y-4662914D01*
X37257893Y-4662917D01*
X37246045Y-4670206D01*
X37117732Y-4795859D01*
X37110196Y-4807553D01*
X37110194Y-4807555D01*
X37091595Y-4836416D01*
X37020446Y-4946817D01*
X36959022Y-5115578D01*
X36936514Y-5293753D01*
X36937872Y-5307603D01*
X36937872Y-5307607D01*
X36939822Y-5327493D01*
X36954039Y-5472486D01*
X36958432Y-5485693D01*
X36958433Y-5485696D01*
X36969296Y-5518351D01*
X37010726Y-5642896D01*
X37103759Y-5796512D01*
X37113429Y-5806526D01*
X37113431Y-5806528D01*
X37218842Y-5915684D01*
X37218845Y-5915686D01*
X37228514Y-5925699D01*
X37240161Y-5933321D01*
X37240164Y-5933323D01*
X37367135Y-6016410D01*
X37378789Y-6024036D01*
X37391841Y-6028890D01*
X37391843Y-6028891D01*
X37429556Y-6042916D01*
X37547116Y-6086636D01*
X37560912Y-6088477D01*
X37560913Y-6088477D01*
X37725130Y-6110388D01*
X37724790Y-6112934D01*
X37799113Y-6129341D01*
X37875105Y-6181274D01*
X39227836Y-7534005D01*
X39429570Y-7735740D01*
X39483546Y-7816522D01*
X39502500Y-7911810D01*
X39502500Y-21914674D01*
X39483546Y-22009962D01*
X39429570Y-22090744D01*
X39348788Y-22144720D01*
X39253500Y-22163674D01*
X39224018Y-22161922D01*
X39209660Y-22160210D01*
X39144624Y-22152455D01*
X39130780Y-22153910D01*
X39130777Y-22153910D01*
X39042035Y-22163237D01*
X38966017Y-22171227D01*
X38952840Y-22175713D01*
X38952839Y-22175713D01*
X38809184Y-22224617D01*
X38809183Y-22224618D01*
X38796007Y-22229103D01*
X38768333Y-22246128D01*
X38654897Y-22315914D01*
X38654893Y-22315917D01*
X38643045Y-22323206D01*
X38633102Y-22332943D01*
X38604037Y-22361405D01*
X38522695Y-22414532D01*
X38429822Y-22432500D01*
X32679024Y-22432500D01*
X32668596Y-22432282D01*
X32612081Y-22429913D01*
X32595562Y-22433787D01*
X32595556Y-22433788D01*
X32577548Y-22438012D01*
X32554490Y-22442286D01*
X32519354Y-22447099D01*
X32503771Y-22453843D01*
X32495987Y-22456016D01*
X32488437Y-22458914D01*
X32471907Y-22462791D01*
X32440824Y-22479879D01*
X32419771Y-22490193D01*
X32387217Y-22504280D01*
X32374023Y-22514964D01*
X32364979Y-22520442D01*
X32357181Y-22525862D01*
X32345737Y-22532153D01*
X32337995Y-22538836D01*
X32319340Y-22557491D01*
X32299970Y-22574931D01*
X32288519Y-22584203D01*
X32288516Y-22584206D01*
X32275325Y-22594888D01*
X32265491Y-22608726D01*
X32254734Y-22620181D01*
X32244287Y-22632544D01*
X21515454Y-33361377D01*
X21507927Y-33368595D01*
X21466289Y-33406883D01*
X21447594Y-33437035D01*
X21434320Y-33456348D01*
X21412873Y-33484603D01*
X21406624Y-33500385D01*
X21402654Y-33507431D01*
X21399362Y-33514825D01*
X21390419Y-33529249D01*
X21380521Y-33563316D01*
X21372928Y-33585494D01*
X21366120Y-33602688D01*
X21366119Y-33602692D01*
X21359872Y-33618471D01*
X21358098Y-33635350D01*
X21355572Y-33645634D01*
X21353890Y-33654981D01*
X21350250Y-33667511D01*
X21349501Y-33677711D01*
X21349501Y-33704093D01*
X21348137Y-33730121D01*
X21344822Y-33761661D01*
X21347652Y-33778395D01*
X21348146Y-33794103D01*
X21349501Y-33810234D01*
X21349501Y-35627191D01*
X21330547Y-35722479D01*
X21276571Y-35803261D01*
X19734263Y-37345570D01*
X19653481Y-37399546D01*
X19558193Y-37418500D01*
X18386014Y-37418500D01*
X18290726Y-37399546D01*
X18209331Y-37344954D01*
X18197892Y-37333435D01*
X18180770Y-37316193D01*
X18029136Y-37219963D01*
X18016024Y-37215294D01*
X18016022Y-37215293D01*
X17965510Y-37197307D01*
X17859951Y-37159719D01*
X17846128Y-37158071D01*
X17846125Y-37158070D01*
X17756098Y-37147335D01*
X17681624Y-37138455D01*
X17667780Y-37139910D01*
X17667777Y-37139910D01*
X17579035Y-37149237D01*
X17503017Y-37157227D01*
X17489840Y-37161713D01*
X17489839Y-37161713D01*
X17346184Y-37210617D01*
X17346183Y-37210618D01*
X17333007Y-37215103D01*
X17180045Y-37309206D01*
X17174593Y-37314545D01*
X17091046Y-37356658D01*
X16994158Y-37363859D01*
X16901890Y-37333435D01*
X16828288Y-37270018D01*
X16784557Y-37183261D01*
X16775500Y-37116715D01*
X16775500Y-19345372D01*
X16791729Y-19256950D01*
X16800313Y-19234351D01*
X16805257Y-19221336D01*
X16808018Y-19201693D01*
X16829163Y-19051236D01*
X16829163Y-19051233D01*
X16830251Y-19043493D01*
X16830565Y-19021000D01*
X16829304Y-19009753D01*
X16812097Y-18856359D01*
X16810546Y-18842528D01*
X16773782Y-18736956D01*
X16756065Y-18686078D01*
X16756064Y-18686075D01*
X16751485Y-18672927D01*
X16656316Y-18520625D01*
X16529770Y-18393193D01*
X16378136Y-18296963D01*
X16365024Y-18292294D01*
X16365022Y-18292293D01*
X16315720Y-18274738D01*
X16208951Y-18236719D01*
X16195128Y-18235071D01*
X16195125Y-18235070D01*
X16105098Y-18224335D01*
X16030624Y-18215455D01*
X16016780Y-18216910D01*
X16016777Y-18216910D01*
X15928035Y-18226237D01*
X15852017Y-18234227D01*
X15838840Y-18238713D01*
X15838839Y-18238713D01*
X15695184Y-18287617D01*
X15695183Y-18287618D01*
X15682007Y-18292103D01*
X15670150Y-18299397D01*
X15670151Y-18299397D01*
X15540897Y-18378914D01*
X15540893Y-18378917D01*
X15529045Y-18386206D01*
X15400732Y-18511859D01*
X15393196Y-18523553D01*
X15393194Y-18523555D01*
X15370451Y-18558846D01*
X15303446Y-18662817D01*
X15242022Y-18831578D01*
X15219514Y-19009753D01*
X15220872Y-19023603D01*
X15220872Y-19023607D01*
X15222822Y-19043493D01*
X15237039Y-19188486D01*
X15241431Y-19201690D01*
X15241432Y-19201693D01*
X15261771Y-19262835D01*
X15274500Y-19341430D01*
X15274500Y-35230521D01*
X15255546Y-35325809D01*
X15201570Y-35406591D01*
X15120788Y-35460567D01*
X15025500Y-35479521D01*
X14930212Y-35460567D01*
X14848817Y-35405975D01*
X14825080Y-35382071D01*
X14825077Y-35382068D01*
X14815270Y-35372193D01*
X14785256Y-35353145D01*
X14675386Y-35283420D01*
X14663636Y-35275963D01*
X14650524Y-35271294D01*
X14650522Y-35271293D01*
X14601220Y-35253738D01*
X14494451Y-35215719D01*
X14480628Y-35214071D01*
X14480625Y-35214070D01*
X14375130Y-35201491D01*
X14316124Y-35194455D01*
X14302280Y-35195910D01*
X14302277Y-35195910D01*
X14225146Y-35204017D01*
X14137517Y-35213227D01*
X14124340Y-35217713D01*
X14124339Y-35217713D01*
X13980684Y-35266617D01*
X13980683Y-35266618D01*
X13967507Y-35271103D01*
X13955650Y-35278397D01*
X13955651Y-35278397D01*
X13826397Y-35357914D01*
X13826393Y-35357917D01*
X13814545Y-35365206D01*
X13804601Y-35374943D01*
X13804602Y-35374943D01*
X13699185Y-35478175D01*
X13686232Y-35490859D01*
X13678696Y-35502553D01*
X13678694Y-35502555D01*
X13649004Y-35548626D01*
X13588946Y-35641817D01*
X13527522Y-35810578D01*
X13505014Y-35988753D01*
X13506372Y-36002603D01*
X13506372Y-36002607D01*
X13514185Y-36082285D01*
X13522539Y-36167486D01*
X13526932Y-36180693D01*
X13526933Y-36180696D01*
X13553059Y-36259234D01*
X13579226Y-36337896D01*
X13672259Y-36491512D01*
X13681929Y-36501526D01*
X13681931Y-36501528D01*
X13787342Y-36610684D01*
X13787345Y-36610686D01*
X13797014Y-36620699D01*
X13808661Y-36628321D01*
X13808664Y-36628323D01*
X13915303Y-36698105D01*
X13947289Y-36719036D01*
X13960341Y-36723890D01*
X13960343Y-36723891D01*
X13998056Y-36737916D01*
X14115616Y-36781636D01*
X14129412Y-36783477D01*
X14129413Y-36783477D01*
X14279837Y-36803548D01*
X14279840Y-36803548D01*
X14293630Y-36805388D01*
X14307487Y-36804127D01*
X14307491Y-36804127D01*
X14405554Y-36795203D01*
X14472481Y-36789112D01*
X14485723Y-36784809D01*
X14485725Y-36784809D01*
X14630045Y-36737916D01*
X14643282Y-36733615D01*
X14797544Y-36641657D01*
X14853785Y-36588100D01*
X14935860Y-36536113D01*
X15031583Y-36519492D01*
X15126379Y-36540768D01*
X15205818Y-36596702D01*
X15257805Y-36678778D01*
X15274500Y-36768418D01*
X15274500Y-38198993D01*
X15255546Y-38294281D01*
X15201570Y-38375063D01*
X11622883Y-41953750D01*
X11599579Y-41973777D01*
X11596330Y-41976806D01*
X11584676Y-41985383D01*
X11575311Y-41996407D01*
X11575306Y-41996411D01*
X11554094Y-42021379D01*
X11548212Y-42027759D01*
X11548248Y-42027791D01*
X11543436Y-42033197D01*
X11538330Y-42038303D01*
X11522220Y-42058665D01*
X11516737Y-42065352D01*
X11471368Y-42118755D01*
X11465343Y-42130555D01*
X11457119Y-42140949D01*
X11450992Y-42154058D01*
X11450988Y-42154065D01*
X11427451Y-42204425D01*
X11423635Y-42212232D01*
X11401841Y-42254914D01*
X11391781Y-42274616D01*
X11388631Y-42287490D01*
X11383021Y-42299493D01*
X11380075Y-42313658D01*
X11380074Y-42313660D01*
X11368755Y-42368078D01*
X11366844Y-42376525D01*
X11350185Y-42444606D01*
X11349500Y-42455648D01*
X11349500Y-42459526D01*
X11349459Y-42460845D01*
X11347382Y-42470831D01*
X11347773Y-42485291D01*
X11347773Y-42485294D01*
X11349409Y-42545737D01*
X11349500Y-42552473D01*
X11349500Y-43377438D01*
X11334484Y-43462600D01*
X11321784Y-43497493D01*
X11321783Y-43497497D01*
X11317022Y-43510578D01*
X11315277Y-43524388D01*
X11315277Y-43524390D01*
X11313293Y-43540095D01*
X11294514Y-43688753D01*
X400500Y-43688753D01*
X400500Y-42733831D01*
X3548547Y-42733831D01*
X3553606Y-42741402D01*
X3588244Y-42765656D01*
X3606996Y-42776482D01*
X3782821Y-42858471D01*
X3803179Y-42865881D01*
X3990573Y-42916092D01*
X4011908Y-42919854D01*
X4205165Y-42936762D01*
X4226835Y-42936762D01*
X4420092Y-42919854D01*
X4441427Y-42916092D01*
X4628821Y-42865881D01*
X4649179Y-42858471D01*
X4825004Y-42776482D01*
X4843756Y-42765656D01*
X4869119Y-42747897D01*
X4883540Y-42732832D01*
X4879872Y-42724496D01*
X4233341Y-42077965D01*
X4216000Y-42066378D01*
X4198659Y-42077965D01*
X3560134Y-42716490D01*
X3548547Y-42733831D01*
X400500Y-42733831D01*
X400500Y-41954910D01*
X419454Y-41859622D01*
X473430Y-41778840D01*
X554212Y-41724864D01*
X649500Y-41705910D01*
X742576Y-41723960D01*
X838884Y-41762774D01*
X861513Y-41769477D01*
X1048586Y-41806009D01*
X1064719Y-41807969D01*
X1065997Y-41808000D01*
X1236473Y-41808000D01*
X1256931Y-41803931D01*
X1261000Y-41783473D01*
X1771000Y-41783473D01*
X1775069Y-41803931D01*
X1795527Y-41808000D01*
X1912906Y-41808000D01*
X1924721Y-41807437D01*
X2064677Y-41794084D01*
X2087836Y-41789625D01*
X2267977Y-41736778D01*
X2289883Y-41728016D01*
X2456776Y-41642060D01*
X2476625Y-41629317D01*
X2578473Y-41549314D01*
X2665116Y-41505357D01*
X2761984Y-41497903D01*
X2854332Y-41528087D01*
X2928099Y-41591312D01*
X2972056Y-41677955D01*
X2980339Y-41723423D01*
X2996146Y-41904092D01*
X2999908Y-41925427D01*
X3050119Y-42112821D01*
X3057529Y-42133179D01*
X3139518Y-42309004D01*
X3150344Y-42327756D01*
X3168103Y-42353119D01*
X3183168Y-42367540D01*
X3191504Y-42363872D01*
X3838035Y-41717341D01*
X3849622Y-41700000D01*
X4582378Y-41700000D01*
X4593965Y-41717341D01*
X5232490Y-42355866D01*
X5249831Y-42367453D01*
X5257402Y-42362394D01*
X5281656Y-42327756D01*
X5292482Y-42309004D01*
X5374471Y-42133179D01*
X5381881Y-42112821D01*
X5432092Y-41925427D01*
X5435854Y-41904092D01*
X5452762Y-41710835D01*
X5452762Y-41689165D01*
X5435854Y-41495908D01*
X5432092Y-41474573D01*
X5381881Y-41287179D01*
X5374471Y-41266821D01*
X5292482Y-41090996D01*
X5281656Y-41072244D01*
X5263897Y-41046881D01*
X5248832Y-41032460D01*
X5240496Y-41036128D01*
X4593965Y-41682659D01*
X4582378Y-41700000D01*
X3849622Y-41700000D01*
X3838035Y-41682659D01*
X3199510Y-41044134D01*
X3181159Y-41031872D01*
X3177198Y-41032660D01*
X3080043Y-41032661D01*
X2990283Y-40995482D01*
X2962015Y-40973496D01*
X2946128Y-40959192D01*
X2934287Y-40955000D01*
X1795527Y-40955000D01*
X1775069Y-40959069D01*
X1771000Y-40979527D01*
X1771000Y-41783473D01*
X1261000Y-41783473D01*
X1261000Y-40667168D01*
X3548460Y-40667168D01*
X3552128Y-40675504D01*
X4198659Y-41322035D01*
X4216000Y-41333622D01*
X4233341Y-41322035D01*
X4871866Y-40683510D01*
X4883453Y-40666169D01*
X4878394Y-40658598D01*
X4843756Y-40634344D01*
X4825004Y-40623518D01*
X4649179Y-40541529D01*
X4628821Y-40534119D01*
X4441427Y-40483908D01*
X4420092Y-40480146D01*
X4226835Y-40463238D01*
X4205165Y-40463238D01*
X4011908Y-40480146D01*
X3990573Y-40483908D01*
X3803179Y-40534119D01*
X3782821Y-40541529D01*
X3606996Y-40623518D01*
X3588244Y-40634344D01*
X3562881Y-40652103D01*
X3548460Y-40667168D01*
X1261000Y-40667168D01*
X1261000Y-39616527D01*
X1256931Y-39596069D01*
X1236473Y-39592000D01*
X1119094Y-39592000D01*
X1107279Y-39592563D01*
X967323Y-39605916D01*
X944164Y-39610375D01*
X764023Y-39663222D01*
X741973Y-39672042D01*
X646460Y-39689831D01*
X551411Y-39669716D01*
X471294Y-39614757D01*
X418308Y-39533323D01*
X400500Y-39440850D01*
X400500Y-36791346D01*
X1667001Y-36791346D01*
X1667729Y-36804792D01*
X1672062Y-36844685D01*
X1679228Y-36874826D01*
X1718600Y-36979850D01*
X1735469Y-37010660D01*
X1801453Y-37098703D01*
X1826297Y-37123547D01*
X1914340Y-37189531D01*
X1960709Y-37214918D01*
X1959547Y-37217040D01*
X2020734Y-37254980D01*
X2077426Y-37333879D01*
X2099609Y-37428468D01*
X2083906Y-37524345D01*
X2054726Y-37579749D01*
X1944432Y-37737266D01*
X1939836Y-37747122D01*
X1936756Y-37753728D01*
X1848261Y-37943504D01*
X1789365Y-38163308D01*
X1788418Y-38174136D01*
X1788417Y-38174140D01*
X1778990Y-38281896D01*
X1769532Y-38390000D01*
X1770480Y-38400836D01*
X1788073Y-38601922D01*
X1789365Y-38616692D01*
X1809101Y-38690348D01*
X1832769Y-38778677D01*
X1848261Y-38836496D01*
X1944432Y-39042734D01*
X1950670Y-39051642D01*
X1950670Y-39051643D01*
X1966803Y-39074684D01*
X2028930Y-39163410D01*
X2054676Y-39200180D01*
X2093805Y-39289107D01*
X2095924Y-39386239D01*
X2060711Y-39476788D01*
X1993527Y-39546969D01*
X1904600Y-39586098D01*
X1850707Y-39592000D01*
X1795527Y-39592000D01*
X1775069Y-39596069D01*
X1771000Y-39616527D01*
X1771000Y-40420473D01*
X1775069Y-40440931D01*
X1795527Y-40445000D01*
X2919749Y-40445000D01*
X2940207Y-40440931D01*
X2941355Y-40435156D01*
X2940822Y-40430668D01*
X2921178Y-40349159D01*
X2913494Y-40326839D01*
X2835797Y-40155953D01*
X2824031Y-40135493D01*
X2786067Y-40081973D01*
X2746395Y-39993287D01*
X2743682Y-39896170D01*
X2778341Y-39805407D01*
X2845095Y-39734817D01*
X2933781Y-39695145D01*
X3010857Y-39689856D01*
X3075000Y-39695468D01*
X3085836Y-39694520D01*
X3290860Y-39676583D01*
X3290864Y-39676582D01*
X3301692Y-39675635D01*
X3521496Y-39616739D01*
X3727734Y-39520568D01*
X3914139Y-39390047D01*
X4075047Y-39229139D01*
X4108532Y-39181317D01*
X4178711Y-39114135D01*
X4269259Y-39078921D01*
X4366391Y-39081040D01*
X4455319Y-39120168D01*
X4516468Y-39181317D01*
X4549953Y-39229139D01*
X4710861Y-39390047D01*
X4897266Y-39520568D01*
X5103504Y-39616739D01*
X5323308Y-39675635D01*
X5334136Y-39676582D01*
X5334140Y-39676583D01*
X5539164Y-39694520D01*
X5550000Y-39695468D01*
X5560836Y-39694520D01*
X5765860Y-39676583D01*
X5765864Y-39676582D01*
X5776692Y-39675635D01*
X5996496Y-39616739D01*
X6202734Y-39520568D01*
X6389139Y-39390047D01*
X6550047Y-39229139D01*
X6633532Y-39109909D01*
X6703711Y-39042726D01*
X6794260Y-39007513D01*
X6891392Y-39009632D01*
X6980319Y-39048760D01*
X7041468Y-39109909D01*
X7124953Y-39229139D01*
X7285861Y-39390047D01*
X7472266Y-39520568D01*
X7678504Y-39616739D01*
X7898308Y-39675635D01*
X7909136Y-39676582D01*
X7909140Y-39676583D01*
X8114164Y-39694520D01*
X8125000Y-39695468D01*
X8135836Y-39694520D01*
X8340860Y-39676583D01*
X8340864Y-39676582D01*
X8351692Y-39675635D01*
X8571496Y-39616739D01*
X8777734Y-39520568D01*
X8964139Y-39390047D01*
X9125047Y-39229139D01*
X9233197Y-39074684D01*
X9249330Y-39051643D01*
X9249330Y-39051642D01*
X9255568Y-39042734D01*
X9351739Y-38836496D01*
X9367232Y-38778677D01*
X9390899Y-38690348D01*
X9410635Y-38616692D01*
X9411928Y-38601922D01*
X9429520Y-38400836D01*
X9430468Y-38390000D01*
X9421010Y-38281896D01*
X9411583Y-38174140D01*
X9411582Y-38174136D01*
X9410635Y-38163308D01*
X9351739Y-37943504D01*
X9263244Y-37753728D01*
X9260164Y-37747122D01*
X9255568Y-37737266D01*
X9145275Y-37579750D01*
X9106149Y-37490826D01*
X9104030Y-37393694D01*
X9139243Y-37303145D01*
X9206427Y-37232964D01*
X9239604Y-37215490D01*
X9239291Y-37214918D01*
X9285660Y-37189531D01*
X9373703Y-37123547D01*
X9398547Y-37098703D01*
X9464531Y-37010660D01*
X9481400Y-36979850D01*
X9520773Y-36874822D01*
X9527938Y-36844691D01*
X9532273Y-36804786D01*
X9533000Y-36791350D01*
X9533000Y-36129527D01*
X9528931Y-36109069D01*
X9508473Y-36105000D01*
X1691528Y-36105000D01*
X1671070Y-36109069D01*
X1667001Y-36129527D01*
X1667001Y-36791346D01*
X400500Y-36791346D01*
X400500Y-35570473D01*
X1667000Y-35570473D01*
X1671069Y-35590931D01*
X1691527Y-35595000D01*
X2795473Y-35595000D01*
X2815931Y-35590931D01*
X2820000Y-35570473D01*
X3330000Y-35570473D01*
X3334069Y-35590931D01*
X3354527Y-35595000D01*
X5270473Y-35595000D01*
X5290931Y-35590931D01*
X5295000Y-35570473D01*
X5295000Y-34466528D01*
X5290931Y-34446070D01*
X5270473Y-34442001D01*
X4608654Y-34442001D01*
X4595208Y-34442729D01*
X4555315Y-34447062D01*
X4525174Y-34454228D01*
X4403538Y-34499828D01*
X4402268Y-34496442D01*
X4339368Y-34516207D01*
X4242591Y-34507646D01*
X4221765Y-34499019D01*
X4221462Y-34499828D01*
X4099822Y-34454227D01*
X4069691Y-34447062D01*
X4029786Y-34442727D01*
X4016350Y-34442000D01*
X3354527Y-34442000D01*
X3334069Y-34446069D01*
X3330000Y-34466527D01*
X3330000Y-35570473D01*
X2820000Y-35570473D01*
X2820000Y-34466528D01*
X2815931Y-34446070D01*
X2795473Y-34442001D01*
X2133654Y-34442001D01*
X2120208Y-34442729D01*
X2080315Y-34447062D01*
X2050174Y-34454228D01*
X1945150Y-34493600D01*
X1914340Y-34510469D01*
X1826297Y-34576453D01*
X1801453Y-34601297D01*
X1735469Y-34689340D01*
X1718600Y-34720150D01*
X1679227Y-34825178D01*
X1672062Y-34855309D01*
X1667727Y-34895214D01*
X1667000Y-34908650D01*
X1667000Y-35570473D01*
X400500Y-35570473D01*
X400500Y-31900000D01*
X3544723Y-31900000D01*
X3563793Y-32117977D01*
X3620425Y-32329330D01*
X3642181Y-32375986D01*
X3703927Y-32508399D01*
X3712898Y-32527638D01*
X3838402Y-32706877D01*
X3993123Y-32861598D01*
X4002021Y-32867828D01*
X4002024Y-32867831D01*
X4163462Y-32980871D01*
X4172361Y-32987102D01*
X4370670Y-33079575D01*
X4381173Y-33082389D01*
X4381175Y-33082390D01*
X4461024Y-33103785D01*
X4582023Y-33136207D01*
X4800000Y-33155277D01*
X5017977Y-33136207D01*
X5138976Y-33103785D01*
X5218825Y-33082390D01*
X5218827Y-33082389D01*
X5229330Y-33079575D01*
X5427639Y-32987102D01*
X5429620Y-32985715D01*
X5518045Y-32955699D01*
X5614992Y-32962054D01*
X5702127Y-33005025D01*
X5766186Y-33078070D01*
X5797415Y-33170069D01*
X5799132Y-33188232D01*
X5809010Y-33359545D01*
X5811257Y-33369514D01*
X5811257Y-33369517D01*
X5856388Y-33569777D01*
X5863255Y-33600249D01*
X5956084Y-33828861D01*
X6085006Y-34039241D01*
X6091104Y-34046281D01*
X6131928Y-34134024D01*
X6136082Y-34231091D01*
X6102775Y-34322358D01*
X6037076Y-34393931D01*
X5948989Y-34434915D01*
X5890013Y-34442000D01*
X5829527Y-34442000D01*
X5809069Y-34446069D01*
X5805000Y-34466527D01*
X5805000Y-35570473D01*
X5809069Y-35590931D01*
X5829527Y-35595000D01*
X9508472Y-35595000D01*
X9528930Y-35590931D01*
X9532999Y-35570473D01*
X9532999Y-34908654D01*
X9532271Y-34895208D01*
X9527938Y-34855315D01*
X9520772Y-34825174D01*
X9481400Y-34720150D01*
X9464531Y-34689340D01*
X9398547Y-34601297D01*
X9373703Y-34576453D01*
X9285660Y-34510469D01*
X9254850Y-34493600D01*
X9149822Y-34454227D01*
X9119691Y-34447062D01*
X9079786Y-34442727D01*
X9066350Y-34442000D01*
X8704962Y-34442000D01*
X8609674Y-34423046D01*
X8528892Y-34369070D01*
X8474916Y-34288288D01*
X8455962Y-34193000D01*
X8474916Y-34097712D01*
X8502753Y-34047698D01*
X8503747Y-34046316D01*
X8590588Y-33925463D01*
X8699911Y-33704264D01*
X8707699Y-33678633D01*
X8768669Y-33477956D01*
X8768669Y-33477954D01*
X8771639Y-33468180D01*
X8775741Y-33437026D01*
X8802981Y-33230114D01*
X8802981Y-33230111D01*
X8803845Y-33223550D01*
X8804622Y-33191787D01*
X8805347Y-33162123D01*
X8805643Y-33150000D01*
X8803081Y-33118832D01*
X8792628Y-32991695D01*
X8785425Y-32904089D01*
X8725316Y-32664783D01*
X8626928Y-32438507D01*
X8492905Y-32231339D01*
X8326846Y-32048842D01*
X8133210Y-31895918D01*
X8106799Y-31881338D01*
X7950473Y-31795042D01*
X7917198Y-31776673D01*
X7907572Y-31773264D01*
X7907567Y-31773262D01*
X7694240Y-31697719D01*
X7694238Y-31697718D01*
X7684610Y-31694309D01*
X7441694Y-31651039D01*
X7431474Y-31650914D01*
X7431472Y-31650914D01*
X7291179Y-31649200D01*
X7194972Y-31648025D01*
X7025570Y-31673947D01*
X6961166Y-31683802D01*
X6961165Y-31683802D01*
X6951070Y-31685347D01*
X6941359Y-31688521D01*
X6726250Y-31758829D01*
X6726247Y-31758830D01*
X6716540Y-31762003D01*
X6497679Y-31875935D01*
X6489507Y-31882071D01*
X6489505Y-31882072D01*
X6439056Y-31919950D01*
X6351475Y-31962005D01*
X6254467Y-31967343D01*
X6162800Y-31935151D01*
X6090430Y-31870330D01*
X6048375Y-31782749D01*
X6041500Y-31742527D01*
X6041386Y-31741218D01*
X6036207Y-31682023D01*
X5979575Y-31470670D01*
X5906714Y-31314420D01*
X5891697Y-31282215D01*
X5891695Y-31282211D01*
X5887102Y-31272362D01*
X5761598Y-31093123D01*
X5606877Y-30938402D01*
X5597979Y-30932172D01*
X5597976Y-30932169D01*
X5436538Y-30819129D01*
X5436537Y-30819128D01*
X5427639Y-30812898D01*
X5229330Y-30720425D01*
X5218827Y-30717611D01*
X5218825Y-30717610D01*
X5050005Y-30672375D01*
X5017977Y-30663793D01*
X4800000Y-30644723D01*
X4582023Y-30663793D01*
X4370670Y-30720425D01*
X4360811Y-30725022D01*
X4360812Y-30725022D01*
X4182215Y-30808303D01*
X4182211Y-30808305D01*
X4172362Y-30812898D01*
X3993123Y-30938402D01*
X3838402Y-31093123D01*
X3712898Y-31272362D01*
X3708305Y-31282211D01*
X3708303Y-31282215D01*
X3693286Y-31314420D01*
X3620425Y-31470670D01*
X3563793Y-31682023D01*
X3562846Y-31692848D01*
X3552618Y-31809763D01*
X3544723Y-31900000D01*
X400500Y-31900000D01*
X400500Y-28525807D01*
X4040572Y-28525807D01*
X4043131Y-28529637D01*
X4048626Y-28533876D01*
X4202395Y-28623731D01*
X4220765Y-28632532D01*
X4410279Y-28704900D01*
X4429853Y-28710587D01*
X4628640Y-28751030D01*
X4648867Y-28753442D01*
X4851602Y-28760877D01*
X4871951Y-28759952D01*
X5073177Y-28734175D01*
X5093098Y-28729941D01*
X5287412Y-28671644D01*
X5306379Y-28664211D01*
X5488561Y-28574960D01*
X5506056Y-28564531D01*
X5543207Y-28538032D01*
X5557494Y-28522844D01*
X5553621Y-28514245D01*
X4817341Y-27777965D01*
X4800000Y-27766378D01*
X4782658Y-27777966D01*
X4052160Y-28508465D01*
X4040572Y-28525807D01*
X400500Y-28525807D01*
X400500Y-27376914D01*
X3438342Y-27376914D01*
X3450019Y-27579441D01*
X3452854Y-27599615D01*
X3497454Y-27797519D01*
X3503546Y-27816957D01*
X3579870Y-28004924D01*
X3589052Y-28023101D01*
X3662574Y-28143076D01*
X3676731Y-28158391D01*
X3682309Y-28156334D01*
X3685769Y-28153606D01*
X4422034Y-27417342D01*
X4433622Y-27400000D01*
X4422035Y-27382659D01*
X3693805Y-26654429D01*
X3676464Y-26642842D01*
X3669251Y-26647662D01*
X3620937Y-26718487D01*
X3610877Y-26736196D01*
X3525463Y-26920205D01*
X3518428Y-26939327D01*
X3464212Y-27134819D01*
X3460396Y-27154826D01*
X3438840Y-27356540D01*
X3438342Y-27376914D01*
X400500Y-27376914D01*
X400500Y-26276182D01*
X4041693Y-26276182D01*
X4046207Y-26285582D01*
X4800000Y-27039376D01*
X5906535Y-28145911D01*
X5923877Y-28157499D01*
X5931831Y-28152184D01*
X5962053Y-28110125D01*
X5972552Y-28092653D01*
X6062438Y-27910784D01*
X6069933Y-27891854D01*
X6128911Y-27697734D01*
X6133213Y-27677835D01*
X6141953Y-27611448D01*
X6173182Y-27519448D01*
X6237240Y-27446403D01*
X6324375Y-27403432D01*
X6421322Y-27397077D01*
X6514450Y-27428961D01*
X6640481Y-27502607D01*
X6649433Y-27507838D01*
X6879939Y-27595859D01*
X6889950Y-27597896D01*
X6889954Y-27597897D01*
X7111713Y-27643015D01*
X7111715Y-27643015D01*
X7121726Y-27645052D01*
X7224353Y-27648815D01*
X7358087Y-27653719D01*
X7358093Y-27653719D01*
X7368300Y-27654093D01*
X7378431Y-27652795D01*
X7378436Y-27652795D01*
X7513670Y-27635471D01*
X7613041Y-27622741D01*
X7849374Y-27551838D01*
X8070954Y-27443287D01*
X8155951Y-27382659D01*
X8263512Y-27305937D01*
X8263516Y-27305934D01*
X8271829Y-27300004D01*
X8446605Y-27125837D01*
X8590588Y-26925463D01*
X8699911Y-26704264D01*
X8702892Y-26694455D01*
X8768669Y-26477956D01*
X8768669Y-26477954D01*
X8771639Y-26468180D01*
X8795679Y-26285582D01*
X8802981Y-26230114D01*
X8802981Y-26230111D01*
X8803845Y-26223550D01*
X8805643Y-26150000D01*
X8799951Y-26080762D01*
X8786262Y-25914271D01*
X8785425Y-25904089D01*
X8725316Y-25664783D01*
X8626928Y-25438507D01*
X8492905Y-25231339D01*
X8326846Y-25048842D01*
X8133210Y-24895918D01*
X8122693Y-24890112D01*
X7926143Y-24781611D01*
X7926144Y-24781611D01*
X7917198Y-24776673D01*
X7907572Y-24773264D01*
X7907567Y-24773262D01*
X7759695Y-24720898D01*
X7676199Y-24671223D01*
X7618069Y-24593377D01*
X7594154Y-24499211D01*
X7608095Y-24403062D01*
X7657770Y-24319566D01*
X7711785Y-24274443D01*
X7798890Y-24220540D01*
X7801530Y-24218622D01*
X7810926Y-24206809D01*
X7804385Y-24195010D01*
X6817341Y-23207965D01*
X6800000Y-23196378D01*
X6782659Y-23207965D01*
X5803390Y-24187235D01*
X5791803Y-24204576D01*
X5797330Y-24212848D01*
X5884911Y-24277065D01*
X5900534Y-24286827D01*
X6108846Y-24396426D01*
X6125755Y-24403778D01*
X6347968Y-24481379D01*
X6351370Y-24482290D01*
X6353290Y-24483237D01*
X6356698Y-24484427D01*
X6356552Y-24484846D01*
X6438505Y-24525262D01*
X6502562Y-24598308D01*
X6533790Y-24690308D01*
X6527435Y-24787255D01*
X6484463Y-24874390D01*
X6436426Y-24921925D01*
X6373507Y-24969166D01*
X6308533Y-25017949D01*
X6308529Y-25017953D01*
X6300364Y-25024083D01*
X6293312Y-25031463D01*
X6293307Y-25031467D01*
X6142294Y-25189494D01*
X6129896Y-25202468D01*
X6124134Y-25210915D01*
X5998383Y-25395259D01*
X5990851Y-25406300D01*
X5886965Y-25630104D01*
X5884238Y-25639939D01*
X5884236Y-25639943D01*
X5874600Y-25674690D01*
X5821026Y-25867871D01*
X5816068Y-25914271D01*
X5805902Y-26009391D01*
X5776930Y-26102125D01*
X5714675Y-26176713D01*
X5628615Y-26221800D01*
X5531852Y-26230521D01*
X5437975Y-26200922D01*
X5367532Y-26162035D01*
X5348952Y-26153685D01*
X5157714Y-26085964D01*
X5138023Y-26080762D01*
X4938302Y-26045187D01*
X4918014Y-26043269D01*
X4715171Y-26040790D01*
X4694840Y-26042211D01*
X4494311Y-26072897D01*
X4474496Y-26077617D01*
X4281657Y-26140646D01*
X4262892Y-26148534D01*
X4082940Y-26242212D01*
X4065696Y-26253071D01*
X4055611Y-26260644D01*
X4041693Y-26276182D01*
X400500Y-26276182D01*
X400500Y-24471876D01*
X419454Y-24376588D01*
X473430Y-24295806D01*
X554212Y-24241830D01*
X649500Y-24222876D01*
X744788Y-24241830D01*
X796736Y-24271071D01*
X804916Y-24277069D01*
X820530Y-24286825D01*
X1028846Y-24396426D01*
X1045755Y-24403778D01*
X1267977Y-24481381D01*
X1285773Y-24486150D01*
X1517034Y-24530056D01*
X1535335Y-24532142D01*
X1770547Y-24541383D01*
X1788955Y-24540741D01*
X2022947Y-24515114D01*
X2041063Y-24511757D01*
X2268702Y-24451824D01*
X2286112Y-24445830D01*
X2502391Y-24352908D01*
X2518734Y-24344401D01*
X2718894Y-24220538D01*
X2721530Y-24218622D01*
X2730926Y-24206809D01*
X2724385Y-24195010D01*
X1535446Y-23006070D01*
X1481470Y-22925288D01*
X1462516Y-22830000D01*
X1481470Y-22734712D01*
X1535446Y-22653930D01*
X1543930Y-22645446D01*
X1624712Y-22591470D01*
X1720000Y-22572516D01*
X1815288Y-22591470D01*
X1896070Y-22645446D01*
X3079757Y-23829132D01*
X3097098Y-23840719D01*
X3103197Y-23836644D01*
X3104303Y-23835271D01*
X3220228Y-23655046D01*
X3229024Y-23638846D01*
X3325699Y-23424235D01*
X3332005Y-23406909D01*
X3395895Y-23180371D01*
X3399570Y-23162307D01*
X3429654Y-22925838D01*
X3430605Y-22913399D01*
X3432626Y-22836240D01*
X3432326Y-22823770D01*
X3416337Y-22608621D01*
X3428177Y-22512190D01*
X3476018Y-22427630D01*
X3552577Y-22367816D01*
X3646198Y-22341852D01*
X3735371Y-22351420D01*
X3795253Y-22369158D01*
X3803628Y-22370440D01*
X3803630Y-22370440D01*
X3857640Y-22378705D01*
X4081727Y-22412995D01*
X4237585Y-22415443D01*
X4363022Y-22417414D01*
X4363025Y-22417414D01*
X4371500Y-22417547D01*
X4379911Y-22416529D01*
X4379914Y-22416529D01*
X4650799Y-22383749D01*
X4650802Y-22383749D01*
X4659210Y-22382731D01*
X4794192Y-22347319D01*
X4891167Y-22341472D01*
X4983001Y-22373182D01*
X5055710Y-22437622D01*
X5098224Y-22524981D01*
X5105122Y-22613114D01*
X5088724Y-22775963D01*
X5088242Y-22794400D01*
X5099535Y-23029514D01*
X5101778Y-23047788D01*
X5147701Y-23278659D01*
X5152627Y-23296423D01*
X5232165Y-23517954D01*
X5239664Y-23534795D01*
X5351075Y-23742142D01*
X5360977Y-23757685D01*
X5410733Y-23824317D01*
X5426233Y-23838274D01*
X5435541Y-23833834D01*
X6439376Y-22830000D01*
X7166378Y-22830000D01*
X7177965Y-22847341D01*
X8159757Y-23829132D01*
X8177098Y-23840719D01*
X8183197Y-23836644D01*
X8184303Y-23835271D01*
X8300228Y-23655046D01*
X8309024Y-23638846D01*
X8405699Y-23424235D01*
X8412005Y-23406909D01*
X8475895Y-23180371D01*
X8479570Y-23162307D01*
X8509654Y-22925838D01*
X8510605Y-22913399D01*
X8512626Y-22836240D01*
X8512326Y-22823770D01*
X8494660Y-22586054D01*
X8491934Y-22567815D01*
X8439989Y-22338249D01*
X8434597Y-22320613D01*
X8349290Y-22101244D01*
X8341348Y-22084594D01*
X8224550Y-21880242D01*
X8214249Y-21864970D01*
X8190377Y-21834688D01*
X8174518Y-21821144D01*
X8164248Y-21826377D01*
X7177965Y-22812659D01*
X7166378Y-22830000D01*
X6439376Y-22830000D01*
X6800000Y-22469376D01*
X7797123Y-21472252D01*
X7808710Y-21454911D01*
X7803738Y-21447470D01*
X7676902Y-21359481D01*
X7661014Y-21350122D01*
X7449914Y-21246019D01*
X7432817Y-21239111D01*
X7208645Y-21167353D01*
X7190721Y-21163049D01*
X6958397Y-21125214D01*
X6940046Y-21123608D01*
X6704676Y-21120527D01*
X6686279Y-21121652D01*
X6592710Y-21134386D01*
X6495736Y-21128454D01*
X6408414Y-21085864D01*
X6344037Y-21013099D01*
X6312407Y-20921237D01*
X6316417Y-20832075D01*
X6364237Y-20623278D01*
X6370907Y-20548550D01*
X6389565Y-20339490D01*
X6390000Y-20334617D01*
X6390467Y-20290000D01*
X6370756Y-20000862D01*
X6367934Y-19987232D01*
X6354232Y-19921070D01*
X6318219Y-19747173D01*
X6317455Y-19650024D01*
X6353928Y-19559975D01*
X6422086Y-19490738D01*
X6511550Y-19452855D01*
X6590230Y-19449281D01*
X6615342Y-19452142D01*
X6850547Y-19461383D01*
X6868955Y-19460741D01*
X7102947Y-19435114D01*
X7121063Y-19431757D01*
X7348702Y-19371824D01*
X7366112Y-19365830D01*
X7582391Y-19272908D01*
X7598734Y-19264401D01*
X7798894Y-19140538D01*
X7801530Y-19138622D01*
X7810926Y-19126809D01*
X7804385Y-19115010D01*
X6439376Y-17750000D01*
X7166378Y-17750000D01*
X7177965Y-17767341D01*
X8159757Y-18749132D01*
X8177098Y-18760719D01*
X8183197Y-18756644D01*
X8184303Y-18755271D01*
X8300228Y-18575046D01*
X8309024Y-18558846D01*
X8405699Y-18344235D01*
X8412005Y-18326909D01*
X8475895Y-18100371D01*
X8479570Y-18082307D01*
X8509654Y-17845838D01*
X8510605Y-17833399D01*
X8512626Y-17756240D01*
X8512326Y-17743770D01*
X8494660Y-17506054D01*
X8491934Y-17487815D01*
X8439989Y-17258249D01*
X8434597Y-17240613D01*
X8349290Y-17021244D01*
X8341348Y-17004594D01*
X8224550Y-16800242D01*
X8214249Y-16784970D01*
X8190377Y-16754688D01*
X8174518Y-16741144D01*
X8164248Y-16746377D01*
X7177965Y-17732659D01*
X7166378Y-17750000D01*
X6439376Y-17750000D01*
X5440714Y-16751339D01*
X5423373Y-16739752D01*
X5412602Y-16746949D01*
X5411500Y-16748274D01*
X5400798Y-16763278D01*
X5278689Y-16964508D01*
X5270320Y-16980933D01*
X5179296Y-17198001D01*
X5173447Y-17215483D01*
X5115508Y-17443617D01*
X5112306Y-17461774D01*
X5088724Y-17695965D01*
X5088242Y-17714400D01*
X5099535Y-17949507D01*
X5100795Y-17959774D01*
X5093592Y-18056661D01*
X5049860Y-18143417D01*
X4976257Y-18206834D01*
X4883988Y-18237257D01*
X4785433Y-18229585D01*
X4711107Y-18208412D01*
X4711095Y-18208409D01*
X4702949Y-18206089D01*
X4416032Y-18165254D01*
X4280055Y-18164542D01*
X4134706Y-18163781D01*
X4134700Y-18163781D01*
X4126227Y-18163737D01*
X3838898Y-18201565D01*
X3822361Y-18206089D01*
X3727796Y-18231958D01*
X3630883Y-18238819D01*
X3538722Y-18208071D01*
X3465343Y-18144396D01*
X3421918Y-18057486D01*
X3415084Y-17960358D01*
X3429654Y-17845835D01*
X3430605Y-17833399D01*
X3432626Y-17756240D01*
X3432326Y-17743770D01*
X3414660Y-17506054D01*
X3411934Y-17487815D01*
X3359989Y-17258249D01*
X3354597Y-17240613D01*
X3269290Y-17021244D01*
X3261348Y-17004594D01*
X3144550Y-16800242D01*
X3134249Y-16784970D01*
X3110377Y-16754688D01*
X3094518Y-16741144D01*
X3084248Y-16746377D01*
X1896070Y-17934554D01*
X1815288Y-17988530D01*
X1720000Y-18007484D01*
X1624712Y-17988530D01*
X1543930Y-17934554D01*
X1535446Y-17926070D01*
X1481470Y-17845288D01*
X1462516Y-17750000D01*
X1481470Y-17654712D01*
X1535446Y-17573930D01*
X2717123Y-16392252D01*
X2728710Y-16374911D01*
X2728582Y-16374720D01*
X5789807Y-16374720D01*
X5792763Y-16382038D01*
X5793202Y-16382577D01*
X6782659Y-17372035D01*
X6800000Y-17383622D01*
X6817341Y-17372035D01*
X7797123Y-16392252D01*
X7808710Y-16374911D01*
X7803738Y-16367470D01*
X7676902Y-16279481D01*
X7661014Y-16270122D01*
X7449914Y-16166019D01*
X7432817Y-16159111D01*
X7208645Y-16087353D01*
X7190721Y-16083049D01*
X6958397Y-16045214D01*
X6940046Y-16043608D01*
X6704676Y-16040527D01*
X6686282Y-16041652D01*
X6453041Y-16073395D01*
X6435026Y-16077224D01*
X6209036Y-16143094D01*
X6191780Y-16149545D01*
X5978015Y-16248092D01*
X5961896Y-16257027D01*
X5804682Y-16360102D01*
X5789807Y-16374720D01*
X2728582Y-16374720D01*
X2723738Y-16367470D01*
X2596902Y-16279481D01*
X2581014Y-16270122D01*
X2369914Y-16166019D01*
X2352817Y-16159111D01*
X2128645Y-16087353D01*
X2110721Y-16083049D01*
X1878397Y-16045214D01*
X1860046Y-16043608D01*
X1624676Y-16040527D01*
X1606282Y-16041652D01*
X1373041Y-16073395D01*
X1355026Y-16077224D01*
X1129036Y-16143094D01*
X1111780Y-16149545D01*
X898013Y-16248093D01*
X881895Y-16257028D01*
X786025Y-16319883D01*
X695945Y-16356278D01*
X598793Y-16355430D01*
X509362Y-16317469D01*
X441265Y-16248173D01*
X404870Y-16158093D01*
X400500Y-16111648D01*
X400500Y-14989277D01*
X419454Y-14893989D01*
X473430Y-14813207D01*
X554212Y-14759231D01*
X649500Y-14740277D01*
X744788Y-14759231D01*
X796736Y-14788472D01*
X813916Y-14801069D01*
X829530Y-14810825D01*
X1037846Y-14920426D01*
X1054755Y-14927778D01*
X1276977Y-15005381D01*
X1294773Y-15010150D01*
X1526034Y-15054056D01*
X1544335Y-15056142D01*
X1779547Y-15065383D01*
X1797955Y-15064741D01*
X2031947Y-15039114D01*
X2050063Y-15035757D01*
X2277702Y-14975824D01*
X2295112Y-14969830D01*
X2511391Y-14876908D01*
X2527734Y-14868401D01*
X2727894Y-14744538D01*
X2730530Y-14742622D01*
X2739926Y-14730809D01*
X2738688Y-14728576D01*
X5800803Y-14728576D01*
X5806330Y-14736848D01*
X5893911Y-14801065D01*
X5909534Y-14810827D01*
X6117846Y-14920426D01*
X6134755Y-14927778D01*
X6356977Y-15005381D01*
X6374773Y-15010150D01*
X6606034Y-15054056D01*
X6624335Y-15056142D01*
X6859547Y-15065383D01*
X6877955Y-15064741D01*
X7111947Y-15039114D01*
X7130063Y-15035757D01*
X7357702Y-14975824D01*
X7375112Y-14969830D01*
X7591391Y-14876908D01*
X7607734Y-14868401D01*
X7807894Y-14744538D01*
X7810530Y-14742622D01*
X7819926Y-14730809D01*
X7813385Y-14719010D01*
X6826341Y-13731965D01*
X6809000Y-13720378D01*
X6791659Y-13731965D01*
X5812390Y-14711235D01*
X5800803Y-14728576D01*
X2738688Y-14728576D01*
X2733385Y-14719010D01*
X1544446Y-13530070D01*
X1490470Y-13449288D01*
X1471516Y-13354000D01*
X1490470Y-13258712D01*
X1544446Y-13177930D01*
X1552930Y-13169446D01*
X1633712Y-13115470D01*
X1729000Y-13096516D01*
X1824288Y-13115470D01*
X1905070Y-13169446D01*
X3088757Y-14353132D01*
X3106098Y-14364719D01*
X3112197Y-14360644D01*
X3113303Y-14359271D01*
X3229228Y-14179046D01*
X3238024Y-14162846D01*
X3334699Y-13948235D01*
X3341005Y-13930909D01*
X3404895Y-13704371D01*
X3408570Y-13686307D01*
X3438654Y-13449838D01*
X3439605Y-13437399D01*
X3441626Y-13360240D01*
X3441326Y-13347770D01*
X3425337Y-13132621D01*
X3437177Y-13036190D01*
X3485018Y-12951630D01*
X3561577Y-12891816D01*
X3655198Y-12865852D01*
X3744371Y-12875420D01*
X3804253Y-12893158D01*
X3812628Y-12894440D01*
X3812630Y-12894440D01*
X3866640Y-12902705D01*
X4090727Y-12936995D01*
X4246585Y-12939443D01*
X4372022Y-12941414D01*
X4372025Y-12941414D01*
X4380500Y-12941547D01*
X4388911Y-12940529D01*
X4388914Y-12940529D01*
X4659799Y-12907749D01*
X4659802Y-12907749D01*
X4668210Y-12906731D01*
X4803192Y-12871319D01*
X4900167Y-12865472D01*
X4992001Y-12897182D01*
X5064710Y-12961622D01*
X5107224Y-13048981D01*
X5114122Y-13137114D01*
X5097724Y-13299963D01*
X5097242Y-13318400D01*
X5108535Y-13553514D01*
X5110778Y-13571788D01*
X5156701Y-13802659D01*
X5161627Y-13820423D01*
X5241165Y-14041954D01*
X5248664Y-14058795D01*
X5360075Y-14266142D01*
X5369977Y-14281685D01*
X5419733Y-14348317D01*
X5435233Y-14362274D01*
X5444541Y-14357834D01*
X6448376Y-13354000D01*
X7175378Y-13354000D01*
X7186965Y-13371341D01*
X8168757Y-14353132D01*
X8186098Y-14364719D01*
X8192197Y-14360644D01*
X8193303Y-14359271D01*
X8309228Y-14179046D01*
X8318024Y-14162846D01*
X8414699Y-13948235D01*
X8421005Y-13930909D01*
X8484895Y-13704371D01*
X8488570Y-13686307D01*
X8518654Y-13449838D01*
X8519605Y-13437399D01*
X8521626Y-13360240D01*
X8521326Y-13347770D01*
X8503660Y-13110054D01*
X8500934Y-13091815D01*
X8448989Y-12862249D01*
X8443597Y-12844613D01*
X8358290Y-12625244D01*
X8350348Y-12608594D01*
X8233550Y-12404242D01*
X8223249Y-12388970D01*
X8199377Y-12358688D01*
X8183518Y-12345144D01*
X8173248Y-12350377D01*
X7186965Y-13336659D01*
X7175378Y-13354000D01*
X6448376Y-13354000D01*
X6809000Y-12993376D01*
X7806123Y-11996252D01*
X7817710Y-11978911D01*
X7812738Y-11971470D01*
X7685902Y-11883481D01*
X7670014Y-11874122D01*
X7458914Y-11770019D01*
X7441817Y-11763111D01*
X7217645Y-11691353D01*
X7199721Y-11687049D01*
X6967397Y-11649214D01*
X6949046Y-11647608D01*
X6713676Y-11644527D01*
X6695279Y-11645652D01*
X6601710Y-11658386D01*
X6504736Y-11652454D01*
X6417414Y-11609864D01*
X6353037Y-11537099D01*
X6321407Y-11445237D01*
X6325417Y-11356075D01*
X6373237Y-11147278D01*
X6379907Y-11072550D01*
X6398565Y-10863490D01*
X6399000Y-10858617D01*
X6399467Y-10814000D01*
X6379756Y-10524862D01*
X6376934Y-10511232D01*
X6360135Y-10430118D01*
X6327219Y-10271173D01*
X6326455Y-10174024D01*
X6362928Y-10083975D01*
X6431086Y-10014738D01*
X6520550Y-9976855D01*
X6599230Y-9973281D01*
X6624342Y-9976142D01*
X6859547Y-9985383D01*
X6877955Y-9984741D01*
X7111947Y-9959114D01*
X7130063Y-9955757D01*
X7357702Y-9895824D01*
X7375112Y-9889830D01*
X7591391Y-9796908D01*
X7607734Y-9788401D01*
X7807894Y-9664538D01*
X7810530Y-9662622D01*
X7819926Y-9650809D01*
X7813385Y-9639010D01*
X6448376Y-8274000D01*
X7175378Y-8274000D01*
X7186965Y-8291341D01*
X8168757Y-9273132D01*
X8186098Y-9284719D01*
X8192197Y-9280644D01*
X8193303Y-9279271D01*
X8309228Y-9099046D01*
X8318024Y-9082846D01*
X8414699Y-8868235D01*
X8421005Y-8850909D01*
X8484895Y-8624371D01*
X8488570Y-8606307D01*
X8518654Y-8369838D01*
X8519605Y-8357399D01*
X8521626Y-8280240D01*
X8521326Y-8267770D01*
X8503660Y-8030054D01*
X8500934Y-8011815D01*
X8448989Y-7782249D01*
X8443597Y-7764613D01*
X8358290Y-7545244D01*
X8350348Y-7528594D01*
X8233550Y-7324242D01*
X8223249Y-7308970D01*
X8199377Y-7278688D01*
X8183518Y-7265144D01*
X8173248Y-7270377D01*
X7186965Y-8256659D01*
X7175378Y-8274000D01*
X6448376Y-8274000D01*
X5449714Y-7275339D01*
X5432373Y-7263752D01*
X5421602Y-7270949D01*
X5420500Y-7272274D01*
X5409798Y-7287278D01*
X5287689Y-7488508D01*
X5279320Y-7504933D01*
X5188296Y-7722001D01*
X5182447Y-7739483D01*
X5124508Y-7967617D01*
X5121306Y-7985774D01*
X5097724Y-8219965D01*
X5097242Y-8238400D01*
X5108535Y-8473507D01*
X5109795Y-8483774D01*
X5102592Y-8580661D01*
X5058860Y-8667417D01*
X4985257Y-8730834D01*
X4892988Y-8761257D01*
X4794433Y-8753585D01*
X4720107Y-8732412D01*
X4720095Y-8732409D01*
X4711949Y-8730089D01*
X4425032Y-8689254D01*
X4289055Y-8688542D01*
X4143706Y-8687781D01*
X4143700Y-8687781D01*
X4135227Y-8687737D01*
X3847898Y-8725565D01*
X3831361Y-8730089D01*
X3736796Y-8755958D01*
X3639883Y-8762819D01*
X3547722Y-8732071D01*
X3474343Y-8668396D01*
X3430918Y-8581486D01*
X3424084Y-8484358D01*
X3438654Y-8369835D01*
X3439605Y-8357399D01*
X3441626Y-8280240D01*
X3441326Y-8267770D01*
X3423660Y-8030054D01*
X3420934Y-8011815D01*
X3368989Y-7782249D01*
X3363597Y-7764613D01*
X3278290Y-7545244D01*
X3270348Y-7528594D01*
X3153550Y-7324242D01*
X3143249Y-7308970D01*
X3119377Y-7278688D01*
X3103518Y-7265144D01*
X3093248Y-7270377D01*
X1905070Y-8458554D01*
X1824288Y-8512530D01*
X1729000Y-8531484D01*
X1633712Y-8512530D01*
X1552930Y-8458554D01*
X1544446Y-8450070D01*
X1490470Y-8369288D01*
X1471516Y-8274000D01*
X1490470Y-8178712D01*
X1544446Y-8097930D01*
X2726123Y-6916252D01*
X2737710Y-6898911D01*
X2737582Y-6898720D01*
X5798807Y-6898720D01*
X5801763Y-6906038D01*
X5802202Y-6906577D01*
X6791659Y-7896035D01*
X6809000Y-7907622D01*
X6826341Y-7896035D01*
X7806123Y-6916252D01*
X7817710Y-6898911D01*
X7812738Y-6891470D01*
X7685902Y-6803481D01*
X7670014Y-6794122D01*
X7458914Y-6690019D01*
X7441817Y-6683111D01*
X7217645Y-6611353D01*
X7199721Y-6607049D01*
X6967397Y-6569214D01*
X6949046Y-6567608D01*
X6713676Y-6564527D01*
X6695282Y-6565652D01*
X6462041Y-6597395D01*
X6444026Y-6601224D01*
X6218036Y-6667094D01*
X6200780Y-6673545D01*
X5987015Y-6772092D01*
X5970896Y-6781027D01*
X5813682Y-6884102D01*
X5798807Y-6898720D01*
X2737582Y-6898720D01*
X2732738Y-6891470D01*
X2605902Y-6803481D01*
X2590014Y-6794122D01*
X2378914Y-6690019D01*
X2361817Y-6683111D01*
X2137645Y-6611353D01*
X2119721Y-6607049D01*
X1887397Y-6569214D01*
X1869046Y-6567608D01*
X1633676Y-6564527D01*
X1615282Y-6565652D01*
X1382041Y-6597395D01*
X1364026Y-6601224D01*
X1138036Y-6667094D01*
X1120780Y-6673545D01*
X907013Y-6772093D01*
X890902Y-6781024D01*
X786026Y-6849784D01*
X695945Y-6886179D01*
X598794Y-6885331D01*
X509362Y-6847370D01*
X441265Y-6778075D01*
X404870Y-6687994D01*
X400500Y-6641549D01*
X400500Y-2968497D01*
X994637Y-2968497D01*
X1010205Y-3251370D01*
X1011921Y-3259998D01*
X1011922Y-3260004D01*
X1035174Y-3376897D01*
X1065474Y-3529226D01*
X1093814Y-3609928D01*
X1144198Y-3753399D01*
X1159342Y-3796524D01*
X1163394Y-3804325D01*
X1163396Y-3804329D01*
X1285878Y-4040117D01*
X1285881Y-4040122D01*
X1289936Y-4047928D01*
X1295055Y-4055091D01*
X1295056Y-4055093D01*
X1449531Y-4271260D01*
X1449535Y-4271265D01*
X1454651Y-4278424D01*
X1525799Y-4353007D01*
X1644114Y-4477034D01*
X1644119Y-4477039D01*
X1650199Y-4483412D01*
X1657120Y-4488868D01*
X1657121Y-4488869D01*
X1672395Y-4500910D01*
X1872680Y-4658801D01*
X1880293Y-4663223D01*
X1880296Y-4663225D01*
X1939426Y-4697570D01*
X2117654Y-4801093D01*
X2125810Y-4804396D01*
X2125815Y-4804399D01*
X2300820Y-4875283D01*
X2380232Y-4907448D01*
X2491624Y-4935118D01*
X2646637Y-4973624D01*
X2646642Y-4973625D01*
X2655177Y-4975745D01*
X2663932Y-4976642D01*
X2890471Y-4999853D01*
X2890479Y-4999853D01*
X2896790Y-5000500D01*
X3072170Y-5000500D01*
X3076544Y-5000190D01*
X3076552Y-5000190D01*
X3150427Y-4994959D01*
X3282593Y-4985601D01*
X3291208Y-4983746D01*
X3291210Y-4983746D01*
X3401975Y-4959899D01*
X3559547Y-4925975D01*
X3825337Y-4827920D01*
X4074660Y-4693393D01*
X4081736Y-4688166D01*
X4081740Y-4688164D01*
X4295462Y-4530306D01*
X4295463Y-4530305D01*
X4302540Y-4525078D01*
X4504430Y-4326334D01*
X4546462Y-4271260D01*
X4670961Y-4108127D01*
X4676304Y-4101126D01*
X4682135Y-4090715D01*
X4684074Y-4087253D01*
X51641514Y-4087253D01*
X51642872Y-4101103D01*
X51642872Y-4101107D01*
X51644822Y-4120993D01*
X51659039Y-4265986D01*
X51663432Y-4279193D01*
X51663433Y-4279196D01*
X51674296Y-4311851D01*
X51715726Y-4436396D01*
X51808759Y-4590012D01*
X51818429Y-4600026D01*
X51818431Y-4600028D01*
X51923842Y-4709184D01*
X51923845Y-4709186D01*
X51933514Y-4719199D01*
X51945161Y-4726821D01*
X51945164Y-4726823D01*
X52064059Y-4804625D01*
X52083789Y-4817536D01*
X52096841Y-4822390D01*
X52096843Y-4822391D01*
X52134556Y-4836416D01*
X52252116Y-4880136D01*
X52265912Y-4881977D01*
X52265913Y-4881977D01*
X52416337Y-4902048D01*
X52416340Y-4902048D01*
X52430130Y-4903888D01*
X52443987Y-4902627D01*
X52443991Y-4902627D01*
X52542054Y-4893703D01*
X52608981Y-4887612D01*
X52622223Y-4883309D01*
X52622225Y-4883309D01*
X52766545Y-4836416D01*
X52779782Y-4832115D01*
X52934044Y-4740157D01*
X53064099Y-4616307D01*
X53085964Y-4583397D01*
X53155779Y-4478318D01*
X53155780Y-4478316D01*
X53163483Y-4466722D01*
X53227257Y-4298836D01*
X53229231Y-4284795D01*
X53251163Y-4128736D01*
X53251163Y-4128733D01*
X53252251Y-4120993D01*
X53252565Y-4098500D01*
X53251304Y-4087253D01*
X53234097Y-3933859D01*
X53232546Y-3920028D01*
X53173485Y-3750427D01*
X53078316Y-3598125D01*
X52951770Y-3470693D01*
X52800136Y-3374463D01*
X52787024Y-3369794D01*
X52787022Y-3369793D01*
X52737720Y-3352238D01*
X52630951Y-3314219D01*
X52617128Y-3312571D01*
X52617125Y-3312570D01*
X52527098Y-3301835D01*
X52452624Y-3292955D01*
X52438780Y-3294410D01*
X52438777Y-3294410D01*
X52350035Y-3303737D01*
X52274017Y-3311727D01*
X52260840Y-3316213D01*
X52260839Y-3316213D01*
X52117184Y-3365117D01*
X52117183Y-3365118D01*
X52104007Y-3369603D01*
X52092150Y-3376897D01*
X52092151Y-3376897D01*
X51962897Y-3456414D01*
X51962893Y-3456417D01*
X51951045Y-3463706D01*
X51822732Y-3589359D01*
X51725446Y-3740317D01*
X51664022Y-3909078D01*
X51641514Y-4087253D01*
X4684074Y-4087253D01*
X4810425Y-3861634D01*
X4814730Y-3853947D01*
X4916948Y-3589730D01*
X4930973Y-3529226D01*
X4978929Y-3322329D01*
X4978929Y-3322326D01*
X4980918Y-3313747D01*
X5005363Y-3031503D01*
X5001895Y-2968497D01*
X67994637Y-2968497D01*
X68010205Y-3251370D01*
X68011921Y-3259998D01*
X68011922Y-3260004D01*
X68035174Y-3376897D01*
X68065474Y-3529226D01*
X68093814Y-3609928D01*
X68144198Y-3753399D01*
X68159342Y-3796524D01*
X68163394Y-3804325D01*
X68163396Y-3804329D01*
X68285878Y-4040117D01*
X68285881Y-4040122D01*
X68289936Y-4047928D01*
X68295055Y-4055091D01*
X68295056Y-4055093D01*
X68449531Y-4271260D01*
X68449535Y-4271265D01*
X68454651Y-4278424D01*
X68525799Y-4353007D01*
X68644114Y-4477034D01*
X68644119Y-4477039D01*
X68650199Y-4483412D01*
X68657120Y-4488868D01*
X68657121Y-4488869D01*
X68672395Y-4500910D01*
X68872680Y-4658801D01*
X68880293Y-4663223D01*
X68880296Y-4663225D01*
X68939426Y-4697570D01*
X69117654Y-4801093D01*
X69125810Y-4804396D01*
X69125815Y-4804399D01*
X69300820Y-4875283D01*
X69380232Y-4907448D01*
X69491624Y-4935118D01*
X69646637Y-4973624D01*
X69646642Y-4973625D01*
X69655177Y-4975745D01*
X69663932Y-4976642D01*
X69890471Y-4999853D01*
X69890479Y-4999853D01*
X69896790Y-5000500D01*
X70072170Y-5000500D01*
X70076544Y-5000190D01*
X70076552Y-5000190D01*
X70150427Y-4994959D01*
X70282593Y-4985601D01*
X70291208Y-4983746D01*
X70291210Y-4983746D01*
X70401975Y-4959899D01*
X70559547Y-4925975D01*
X70825337Y-4827920D01*
X71074660Y-4693393D01*
X71081736Y-4688166D01*
X71081740Y-4688164D01*
X71295462Y-4530306D01*
X71295463Y-4530305D01*
X71302540Y-4525078D01*
X71504430Y-4326334D01*
X71546462Y-4271260D01*
X71670961Y-4108127D01*
X71676304Y-4101126D01*
X71682135Y-4090715D01*
X71810425Y-3861634D01*
X71814730Y-3853947D01*
X71916948Y-3589730D01*
X71930973Y-3529226D01*
X71978929Y-3322329D01*
X71978929Y-3322326D01*
X71980918Y-3313747D01*
X72005363Y-3031503D01*
X71989795Y-2748630D01*
X71977388Y-2686253D01*
X71936243Y-2479405D01*
X71936242Y-2479402D01*
X71934526Y-2470774D01*
X71840658Y-2203476D01*
X71815098Y-2154271D01*
X71714122Y-1959883D01*
X71714119Y-1959878D01*
X71710064Y-1952072D01*
X71704944Y-1944907D01*
X71550469Y-1728740D01*
X71550465Y-1728735D01*
X71545349Y-1721576D01*
X71474201Y-1646993D01*
X71355886Y-1522966D01*
X71355881Y-1522961D01*
X71349801Y-1516588D01*
X71127320Y-1341199D01*
X71067766Y-1306607D01*
X71016847Y-1277031D01*
X70882346Y-1198907D01*
X70874190Y-1195604D01*
X70874185Y-1195601D01*
X70627930Y-1095858D01*
X70627931Y-1095858D01*
X70619768Y-1092552D01*
X70483459Y-1058693D01*
X70353363Y-1026376D01*
X70353358Y-1026375D01*
X70344823Y-1024255D01*
X70329331Y-1022668D01*
X70109529Y-1000147D01*
X70109521Y-1000147D01*
X70103210Y-999500D01*
X69927830Y-999500D01*
X69923456Y-999810D01*
X69923448Y-999810D01*
X69849573Y-1005041D01*
X69717407Y-1014399D01*
X69708792Y-1016254D01*
X69708790Y-1016254D01*
X69616304Y-1036166D01*
X69440453Y-1074025D01*
X69174663Y-1172080D01*
X68925340Y-1306607D01*
X68918264Y-1311834D01*
X68918260Y-1311836D01*
X68704538Y-1469694D01*
X68697460Y-1474922D01*
X68495570Y-1673666D01*
X68490231Y-1680662D01*
X68490229Y-1680664D01*
X68329039Y-1891873D01*
X68323696Y-1898874D01*
X68319395Y-1906553D01*
X68319393Y-1906557D01*
X68219212Y-2085444D01*
X68185270Y-2146053D01*
X68083052Y-2410270D01*
X68081066Y-2418837D01*
X68081065Y-2418841D01*
X68067027Y-2479405D01*
X68019082Y-2686253D01*
X67994637Y-2968497D01*
X5001895Y-2968497D01*
X4989795Y-2748630D01*
X4977388Y-2686253D01*
X4936243Y-2479405D01*
X4936242Y-2479402D01*
X4934526Y-2470774D01*
X4840658Y-2203476D01*
X4815098Y-2154271D01*
X4714122Y-1959883D01*
X4714119Y-1959878D01*
X4710064Y-1952072D01*
X4704944Y-1944907D01*
X4550469Y-1728740D01*
X4550465Y-1728735D01*
X4545349Y-1721576D01*
X4474201Y-1646993D01*
X4355886Y-1522966D01*
X4355881Y-1522961D01*
X4349801Y-1516588D01*
X4127320Y-1341199D01*
X4067766Y-1306607D01*
X4016847Y-1277031D01*
X3882346Y-1198907D01*
X3874190Y-1195604D01*
X3874185Y-1195601D01*
X3627930Y-1095858D01*
X3627931Y-1095858D01*
X3619768Y-1092552D01*
X3483459Y-1058693D01*
X3353363Y-1026376D01*
X3353358Y-1026375D01*
X3344823Y-1024255D01*
X3329331Y-1022668D01*
X3109529Y-1000147D01*
X3109521Y-1000147D01*
X3103210Y-999500D01*
X2927830Y-999500D01*
X2923456Y-999810D01*
X2923448Y-999810D01*
X2849573Y-1005041D01*
X2717407Y-1014399D01*
X2708792Y-1016254D01*
X2708790Y-1016254D01*
X2616304Y-1036166D01*
X2440453Y-1074025D01*
X2174663Y-1172080D01*
X1925340Y-1306607D01*
X1918264Y-1311834D01*
X1918260Y-1311836D01*
X1704538Y-1469694D01*
X1697460Y-1474922D01*
X1495570Y-1673666D01*
X1490231Y-1680662D01*
X1490229Y-1680664D01*
X1329039Y-1891873D01*
X1323696Y-1898874D01*
X1319395Y-1906553D01*
X1319393Y-1906557D01*
X1219212Y-2085444D01*
X1185270Y-2146053D01*
X1083052Y-2410270D01*
X1081066Y-2418837D01*
X1081065Y-2418841D01*
X1067027Y-2479405D01*
X1019082Y-2686253D01*
X994637Y-2968497D01*
X400500Y-2968497D01*
X400500Y-649500D01*
X419454Y-554212D01*
X473430Y-473430D01*
X554212Y-419454D01*
X649500Y-400500D01*
X72350500Y-400500D01*
X72445788Y-419454D01*
G37*
%TD.AperFunction*%
%TA.AperFunction,Conductor*%
G36*
X53244788Y-32485336D02*
G01*
X53246783Y-32486251D01*
X53253789Y-32490836D01*
X53422116Y-32553436D01*
X53435912Y-32555277D01*
X53435913Y-32555277D01*
X53586337Y-32575348D01*
X53586340Y-32575348D01*
X53600130Y-32577188D01*
X53613988Y-32575927D01*
X53613993Y-32575927D01*
X53640946Y-32573474D01*
X53737559Y-32583714D01*
X53822900Y-32630148D01*
X53883975Y-32705705D01*
X53911486Y-32798884D01*
X53910548Y-32852652D01*
X53894492Y-32979753D01*
X53895850Y-32993603D01*
X53895850Y-32993607D01*
X53902292Y-33059300D01*
X53912017Y-33158486D01*
X53916410Y-33171693D01*
X53916411Y-33171696D01*
X53948252Y-33267415D01*
X53968704Y-33328896D01*
X54061737Y-33482512D01*
X54071407Y-33492526D01*
X54071409Y-33492528D01*
X54176820Y-33601684D01*
X54176823Y-33601686D01*
X54186492Y-33611699D01*
X54198139Y-33619321D01*
X54198142Y-33619323D01*
X54325113Y-33702410D01*
X54336767Y-33710036D01*
X54349819Y-33714890D01*
X54349821Y-33714891D01*
X54387534Y-33728916D01*
X54505094Y-33772636D01*
X54518890Y-33774477D01*
X54518891Y-33774477D01*
X54669315Y-33794548D01*
X54669318Y-33794548D01*
X54683108Y-33796388D01*
X54696965Y-33795127D01*
X54696969Y-33795127D01*
X54795032Y-33786203D01*
X54861959Y-33780112D01*
X54875201Y-33775809D01*
X54875203Y-33775809D01*
X55019523Y-33728916D01*
X55032760Y-33724615D01*
X55187022Y-33632657D01*
X55317077Y-33508807D01*
X55416461Y-33359222D01*
X55421402Y-33346215D01*
X55421407Y-33346205D01*
X55469394Y-33219878D01*
X55520950Y-33137531D01*
X55600094Y-33081182D01*
X55702165Y-33059300D01*
X56055488Y-33059300D01*
X56150776Y-33078254D01*
X56234601Y-33135328D01*
X56253114Y-33154499D01*
X56264761Y-33162121D01*
X56264764Y-33162123D01*
X56368666Y-33230114D01*
X56403389Y-33252836D01*
X56416441Y-33257690D01*
X56416443Y-33257691D01*
X56456420Y-33272558D01*
X56571716Y-33315436D01*
X56585512Y-33317277D01*
X56585513Y-33317277D01*
X56735937Y-33337348D01*
X56735940Y-33337348D01*
X56749730Y-33339188D01*
X56763587Y-33337927D01*
X56763591Y-33337927D01*
X56867495Y-33328471D01*
X56928581Y-33322912D01*
X56941823Y-33318609D01*
X56941825Y-33318609D01*
X57083554Y-33272558D01*
X57180036Y-33261139D01*
X57273543Y-33287510D01*
X57349841Y-33347658D01*
X57397313Y-33432425D01*
X57409500Y-33509371D01*
X57409500Y-35234567D01*
X57409282Y-35244994D01*
X57406913Y-35301519D01*
X57415012Y-35336048D01*
X57419287Y-35359114D01*
X57424099Y-35394246D01*
X57430843Y-35409832D01*
X57433018Y-35417620D01*
X57435912Y-35425161D01*
X57439790Y-35441693D01*
X57447969Y-35456570D01*
X57447969Y-35456571D01*
X57456875Y-35472771D01*
X57467194Y-35493834D01*
X57481280Y-35526383D01*
X57491959Y-35539572D01*
X57497443Y-35548626D01*
X57502867Y-35556430D01*
X57509153Y-35567863D01*
X57515836Y-35575605D01*
X57534491Y-35594260D01*
X57551931Y-35613630D01*
X57571888Y-35638275D01*
X57585727Y-35648110D01*
X57597175Y-35658860D01*
X57609540Y-35669309D01*
X57701573Y-35761343D01*
X57755548Y-35842123D01*
X57774501Y-35937410D01*
X57774501Y-35986997D01*
X57755547Y-36082285D01*
X57701571Y-36163067D01*
X57620789Y-36217043D01*
X57525501Y-36235997D01*
X57430213Y-36217043D01*
X57392631Y-36197583D01*
X57311413Y-36146338D01*
X57311409Y-36146336D01*
X57301757Y-36140246D01*
X57113898Y-36065298D01*
X56915526Y-36025839D01*
X56791877Y-36024221D01*
X56724691Y-36023341D01*
X56724688Y-36023341D01*
X56713286Y-36023192D01*
X56702050Y-36025123D01*
X56702046Y-36025123D01*
X56525192Y-36055512D01*
X56525191Y-36055512D01*
X56513949Y-36057444D01*
X56324193Y-36127449D01*
X56150371Y-36230862D01*
X56121736Y-36255974D01*
X56043707Y-36324404D01*
X55998305Y-36364220D01*
X55991240Y-36373181D01*
X55991238Y-36373184D01*
X55941856Y-36435826D01*
X55873089Y-36523057D01*
X55778914Y-36702053D01*
X55718937Y-36895213D01*
X55705837Y-37005897D01*
X55696530Y-37084532D01*
X55695164Y-37096069D01*
X55698050Y-37140104D01*
X55706292Y-37265850D01*
X55708392Y-37297894D01*
X55711202Y-37308958D01*
X55711203Y-37308965D01*
X55735327Y-37403953D01*
X55740412Y-37500975D01*
X55707981Y-37592558D01*
X55642972Y-37664758D01*
X55574234Y-37700961D01*
X55522377Y-37718615D01*
X55522373Y-37718617D01*
X55509195Y-37723103D01*
X55497337Y-37730398D01*
X55497335Y-37730399D01*
X55444451Y-37762933D01*
X55353360Y-37796719D01*
X55256273Y-37793074D01*
X55167972Y-37752553D01*
X55114467Y-37699836D01*
X55088163Y-37664611D01*
X55081335Y-37655467D01*
X54932812Y-37518174D01*
X54923154Y-37512080D01*
X54771416Y-37416340D01*
X54771413Y-37416338D01*
X54761757Y-37410246D01*
X54751156Y-37406017D01*
X54747791Y-37404302D01*
X54671495Y-37344151D01*
X54624026Y-37259383D01*
X54612609Y-37162901D01*
X54638983Y-37069394D01*
X54699134Y-36993098D01*
X54755610Y-36956773D01*
X54856453Y-36909750D01*
X54875213Y-36898919D01*
X54895165Y-36884948D01*
X54909589Y-36869880D01*
X54905922Y-36861546D01*
X53899376Y-35855000D01*
X54626378Y-35855000D01*
X54637965Y-35872341D01*
X55258539Y-36492915D01*
X55275880Y-36504502D01*
X55283452Y-36499442D01*
X55303919Y-36470213D01*
X55314750Y-36451452D01*
X55394888Y-36279593D01*
X55402299Y-36259234D01*
X55451379Y-36076065D01*
X55455139Y-36054746D01*
X55471667Y-35865824D01*
X55471667Y-35844176D01*
X55455139Y-35655254D01*
X55451379Y-35633935D01*
X55402299Y-35450766D01*
X55394888Y-35430407D01*
X55314750Y-35258548D01*
X55303919Y-35239787D01*
X55289948Y-35219835D01*
X55274880Y-35205411D01*
X55266546Y-35209078D01*
X54637965Y-35837659D01*
X54626378Y-35855000D01*
X53899376Y-35855000D01*
X53261461Y-35217085D01*
X53243110Y-35204823D01*
X53198077Y-35213781D01*
X53100922Y-35213780D01*
X53011163Y-35176601D01*
X52942464Y-35107902D01*
X52905284Y-35018142D01*
X52900500Y-34969565D01*
X52900500Y-34840120D01*
X53610411Y-34840120D01*
X53614078Y-34848454D01*
X54242659Y-35477035D01*
X54260000Y-35488622D01*
X54277341Y-35477035D01*
X54897915Y-34856461D01*
X54909502Y-34839120D01*
X54904442Y-34831548D01*
X54875213Y-34811081D01*
X54856452Y-34800250D01*
X54684593Y-34720112D01*
X54664234Y-34712701D01*
X54481065Y-34663621D01*
X54459746Y-34659861D01*
X54270824Y-34643333D01*
X54249176Y-34643333D01*
X54060254Y-34659861D01*
X54038935Y-34663621D01*
X53855766Y-34712701D01*
X53835407Y-34720112D01*
X53663548Y-34800250D01*
X53644787Y-34811081D01*
X53624835Y-34825052D01*
X53610411Y-34840120D01*
X52900500Y-34840120D01*
X52900500Y-32715382D01*
X52919454Y-32620094D01*
X52973430Y-32539312D01*
X53054212Y-32485336D01*
X53149500Y-32466382D01*
X53244788Y-32485336D01*
G37*
%TD.AperFunction*%
%TA.AperFunction,Conductor*%
G36*
X57997374Y-27428286D02*
G01*
X58082553Y-27475016D01*
X58143365Y-27550785D01*
X58170552Y-27644059D01*
X58171500Y-27665762D01*
X58171500Y-29554017D01*
X58152546Y-29649305D01*
X58098570Y-29730087D01*
X58017788Y-29784063D01*
X57922500Y-29803017D01*
X57893029Y-29801266D01*
X57864424Y-29797855D01*
X57850580Y-29799310D01*
X57850577Y-29799310D01*
X57778669Y-29806868D01*
X57685817Y-29816627D01*
X57672640Y-29821113D01*
X57672639Y-29821113D01*
X57528984Y-29870017D01*
X57528983Y-29870018D01*
X57515807Y-29874503D01*
X57503950Y-29881797D01*
X57503951Y-29881797D01*
X57374697Y-29961314D01*
X57374693Y-29961317D01*
X57362845Y-29968606D01*
X57352902Y-29978343D01*
X57323837Y-30006805D01*
X57242495Y-30059932D01*
X57149622Y-30077900D01*
X55004209Y-30077900D01*
X54908921Y-30058946D01*
X54828139Y-30004970D01*
X54774163Y-29924188D01*
X54755209Y-29828900D01*
X54774163Y-29733612D01*
X54828139Y-29652830D01*
X56666495Y-27814474D01*
X56747277Y-27760498D01*
X56842565Y-27741544D01*
X56904234Y-27752631D01*
X56904955Y-27749740D01*
X56918469Y-27753110D01*
X56931512Y-27757960D01*
X56945304Y-27759800D01*
X56945307Y-27759801D01*
X57095733Y-27779872D01*
X57095736Y-27779872D01*
X57109526Y-27781712D01*
X57123383Y-27780451D01*
X57123387Y-27780451D01*
X57221450Y-27771527D01*
X57288377Y-27765436D01*
X57301619Y-27761133D01*
X57301621Y-27761133D01*
X57445941Y-27714240D01*
X57459178Y-27709939D01*
X57613440Y-27617981D01*
X57743495Y-27494131D01*
X57744658Y-27495352D01*
X57807523Y-27444897D01*
X57900797Y-27417710D01*
X57997374Y-27428286D01*
G37*
%TD.AperFunction*%
%TA.AperFunction,Conductor*%
G36*
X744788Y-19161830D02*
G01*
X796736Y-19191071D01*
X804916Y-19197069D01*
X820530Y-19206825D01*
X1028846Y-19316426D01*
X1045755Y-19323778D01*
X1267977Y-19401381D01*
X1285773Y-19406150D01*
X1517034Y-19450056D01*
X1535335Y-19452142D01*
X1770547Y-19461383D01*
X1788953Y-19460741D01*
X1932847Y-19444981D01*
X2029632Y-19453448D01*
X2115810Y-19498309D01*
X2178260Y-19572734D01*
X2207476Y-19665392D01*
X2203240Y-19745545D01*
X2154195Y-19970485D01*
X2154194Y-19970492D01*
X2152388Y-19978775D01*
X2151723Y-19987226D01*
X2151722Y-19987232D01*
X2130315Y-20259238D01*
X2129650Y-20267690D01*
X2146332Y-20557018D01*
X2201422Y-20837812D01*
X2201168Y-20934964D01*
X2163753Y-21024626D01*
X2094875Y-21093145D01*
X2005019Y-21130090D01*
X1917055Y-21131510D01*
X1878394Y-21125214D01*
X1860046Y-21123608D01*
X1624676Y-21120527D01*
X1606282Y-21121652D01*
X1373041Y-21153395D01*
X1355026Y-21157224D01*
X1129036Y-21223094D01*
X1111780Y-21229545D01*
X898013Y-21328093D01*
X881895Y-21337028D01*
X786025Y-21399883D01*
X695945Y-21436278D01*
X598793Y-21435430D01*
X509362Y-21397469D01*
X441265Y-21328173D01*
X404870Y-21238093D01*
X400500Y-21191648D01*
X400500Y-19391876D01*
X419454Y-19296588D01*
X473430Y-19215806D01*
X554212Y-19161830D01*
X649500Y-19142876D01*
X744788Y-19161830D01*
G37*
%TD.AperFunction*%
%TA.AperFunction,Conductor*%
G36*
X744788Y-9679231D02*
G01*
X796736Y-9708472D01*
X813916Y-9721069D01*
X829530Y-9730825D01*
X1037846Y-9840426D01*
X1054755Y-9847778D01*
X1276977Y-9925381D01*
X1294773Y-9930150D01*
X1526034Y-9974056D01*
X1544335Y-9976142D01*
X1779547Y-9985383D01*
X1797953Y-9984741D01*
X1941847Y-9968981D01*
X2038632Y-9977448D01*
X2124810Y-10022309D01*
X2187260Y-10096734D01*
X2216476Y-10189392D01*
X2212240Y-10269545D01*
X2163195Y-10494485D01*
X2163194Y-10494492D01*
X2161388Y-10502775D01*
X2160723Y-10511226D01*
X2160722Y-10511232D01*
X2150953Y-10635359D01*
X2138650Y-10791690D01*
X2155332Y-11081018D01*
X2210422Y-11361812D01*
X2210168Y-11458964D01*
X2172753Y-11548626D01*
X2103875Y-11617145D01*
X2014019Y-11654090D01*
X1926055Y-11655510D01*
X1887394Y-11649214D01*
X1869046Y-11647608D01*
X1633676Y-11644527D01*
X1615282Y-11645652D01*
X1382041Y-11677395D01*
X1364026Y-11681224D01*
X1138036Y-11747094D01*
X1120780Y-11753545D01*
X907013Y-11852093D01*
X890902Y-11861024D01*
X786026Y-11929784D01*
X695945Y-11966179D01*
X598794Y-11965331D01*
X509362Y-11927370D01*
X441265Y-11858075D01*
X404870Y-11767994D01*
X400500Y-11721549D01*
X400500Y-9909277D01*
X419454Y-9813989D01*
X473430Y-9733207D01*
X554212Y-9679231D01*
X649500Y-9660277D01*
X744788Y-9679231D01*
G37*
%TD.AperFunction*%
%TD*%
M02*
