M48
INCH
T1C0.0157
T2C0.0236
T3C0.0335
T4C0.0354
T5C0.0394
T6C0.0402
T7C0.0433
T8C0.0512
T9C0.0591
T10C0.0630
%
G90
G05
T1
X0.0394Y-0.2323
X0.046Y-0.4045
X0.046Y-0.9882
X0.047Y-0.4419
X0.0677Y-0.7795
X0.0677Y-0.8287
X0.0705Y-0.6142
X0.1417Y-0.2323
X0.1464Y-0.3209
X0.1484Y-0.5315
X0.1504Y-0.7008
X0.1504Y-0.9882
X0.1523Y-0.9114
X0.1622Y-0.612
X0.1897Y-0.3189
X0.1917Y-0.5315
X0.1937Y-0.6988
X0.1956Y-0.9114
X0.2087Y-1.3307
X0.2205Y-0.9882
X0.2323Y-1.874
X0.2441Y-0.2323
X0.2441Y-1.9488
X0.2626Y-0.6102
X0.2756Y-1.6614
X0.2913Y-1.5827
X0.3071Y-1.8898
X0.3149Y-1.7729
X0.3374Y-0.6122
X0.3483Y-0.2373
X0.3504Y-0.3268
X0.3543Y-0.7205
X0.3583Y-0.4882
X0.3583Y-0.5472
X0.3583Y-0.9213
X0.3583Y-0.9882
X0.3819Y-1.4291
X0.3937Y-1.3504
X0.3937Y-1.5315
X0.4016Y-0.7362
X0.4094Y-0.2244
X0.4094Y-0.878
X0.4309Y-1.9039
X0.4331Y-1.7953
X0.437Y-0.3937
X0.4459Y-0.5439
X0.4459Y-0.6289
X0.4469Y-0.7008
X0.4559Y-0.1789
X0.4609Y-0.3339
X0.4641Y-0.8242
X0.4764Y-1.7205
X0.4959Y-0.4889
X0.5041Y-0.7742
X0.5079Y-0.126
X0.5098Y-0.2717
X0.5209Y-1.7589
X0.5236Y-1.9961
X0.5354Y-0.6772
X0.5354Y-0.7323
X0.5634Y-1.4173
X0.5709Y-0.6142
X0.5909Y-1.6164
X0.5984Y-1.9189
X0.6024Y-0.5551
X0.6063Y-0.4646
X0.6102Y-0.2362
X0.6159Y-0.2973
X0.6309Y-0.7489
X0.6339Y-2.0039
X0.6398Y-0.1161
X0.6459Y-0.4273
X0.6673Y-0.2106
X0.6809Y-1.9189
X0.687Y-0.5571
X0.687Y-1.1063
X0.687Y-1.2559
X0.689Y-0.2559
X0.689Y-0.3071
X0.689Y-0.3563
X0.689Y-0.4075
X0.689Y-0.4567
X0.689Y-0.6083
X0.689Y-0.9075
X0.689Y-1.0079
X0.6909Y-0.8583
X0.6909Y-0.9567
X0.6909Y-1.0571
X0.6909Y-1.1535
X0.6929Y-1.2067
X0.6959Y-1.4939
X0.7323Y-1.4016
X0.7343Y-0.1161
X0.7343Y-0.2096
X0.748Y-2.0039
X0.7609Y-1.7589
X0.7854Y-1.4016
X0.7933Y-1.8504
X0.7959Y-1.9189
X0.8081Y-0.2116
X0.8164Y-1.5143
X0.8189Y-0.1161
X0.8327Y-1.4016
X0.8858Y-0.4055
X0.8858Y-0.7598
X0.8858Y-0.8071
X0.8858Y-0.8543
X0.8858Y-0.9055
X0.8858Y-0.9567
X0.8858Y-1.0079
X0.8858Y-1.0551
X0.8858Y-1.1063
X0.8858Y-1.1575
X0.8858Y-1.2047
X0.8858Y-2.0039
X0.8898Y-0.4567
X0.8898Y-0.5079
X0.8898Y-0.5591
X0.8898Y-0.6063
X0.8898Y-0.6575
X0.8898Y-0.7087
X0.8937Y-0.1535
X0.9159Y-1.6339
X0.9259Y-1.9189
X0.9291Y-0.2028
X0.937Y-0.4055
X0.9882Y-0.4055
X0.9931Y-1.4636
X1.0009Y-1.9639
X1.0059Y-1.6339
X1.0059Y-1.7389
X1.0059Y-1.8339
X1.0157Y-0.5354
X1.0197Y-1.0748
X1.0315Y-1.2126
X1.0433Y-0.4331
X1.0591Y-1.3996
X1.063Y-1.0315
X1.0669Y-0.5669
X1.0827Y-0.4055
X1.0827Y-1.2126
X1.0959Y-1.6889
X1.0959Y-1.7739
X1.0959Y-1.8689
X1.0959Y-1.9589
X1.1102Y-1.3996
X1.1339Y-1.2126
X1.1509Y-1.5089
X1.1859Y-1.5989
X1.2245Y-1.8831
X1.2323Y-0.2106
X1.2323Y-1.4177
X1.2362Y-1.2106
X1.2572Y-1.8546
X1.2709Y-1.6889
X1.2756Y-1.5945
X1.2859Y-1.8089
X1.2953Y-0.8091
X1.3009Y-1.5089
X1.3081Y-0.4134
X1.3109Y-1.8589
X1.3211Y-1.784
X1.4109Y-1.3939
X1.4309Y-1.5089
X1.4331Y-0.4075
X1.4331Y-1.7739
X1.4331Y-1.9289
X1.4724Y-0.4547
X1.4809Y-1.4589
X1.4859Y-0.2089
X1.5309Y-1.4039
X1.5354Y-1.2067
X1.5359Y-0.2089
X1.5409Y-0.9039
X1.5827Y-1.5512
X1.5859Y-0.2089
X1.6299Y-0.1374
X1.6496Y-1.4843
X1.6509Y-0.2089
X1.6609Y-1.4039
X1.6791Y-0.7039
X1.6809Y-0.5289
X1.6809Y-0.6539
X1.6811Y-0.9823
X1.6811Y-1.0315
X1.6811Y-1.2067
X1.6831Y-1.1339
X1.6834Y-0.8245
X1.685Y-0.4055
X1.7343Y-0.2146
X1.7559Y-1.4039
X1.7835Y-0.2126
X1.7835Y-1.4843
X1.7835Y-1.5591
X1.7874Y-1.9252
X1.8622Y-1.4843
X1.874Y-1.3858
X1.878Y-0.2756
X1.878Y-0.622
X1.8898Y-1.0472
X1.8996Y-1.2559
X1.9213Y-0.3386
X1.9213Y-0.4213
X1.9331Y-0.9134
X1.9659Y-0.9489
X1.9724Y-0.2953
X1.9859Y-1.185
X2.0128Y-0.6069
X2.0128Y-0.6738
X2.0138Y-1.2953
X2.0138Y-1.3937
X2.0138Y-1.4902
X2.0249Y-0.8029
X2.0319Y-1.5779
X2.0319Y-1.6409
X2.0319Y-1.7929
X2.0329Y-1.7039
X2.0359Y-1.8689
X2.0369Y-0.5449
X2.0379Y-1.9339
X2.0394Y-0.3661
X2.0409Y-0.4862
X2.0459Y-0.4264
X2.0648Y-0.1614
X2.1009Y-1.0489
X2.1109Y-1.2509
X2.1476Y-0.4252
X2.1489Y-1.7929
X2.1535Y-1.2989
X2.1752Y-0.69
X2.189Y-0.8504
X2.1989Y-1.5139
X2.2249Y-0.9359
X2.2259Y-1.1639
X2.2349Y-1.2809
X2.2421Y-0.2096
X2.2491Y-1.0621
X2.2499Y-1.3309
X2.2559Y-0.9675
X2.2639Y-1.5129
X2.2667Y-1.0199
X2.2779Y-1.2049
X2.2884Y-0.5404
X2.2949Y-1.8079
X2.3279Y-1.3419
X2.3425Y-1.7244
X2.3445Y-1.5374
X2.3445Y-1.628
X2.3459Y-1.4239
X2.3465Y-0.8278
X2.3699Y-0.8829
X2.3699Y-1.1859
X2.4114Y-0.2087
X2.4803Y-1.248
X2.4979Y-1.1919
X2.5394Y-0.2096
X2.5519Y-1.5389
X2.5945Y-1.0827
X2.5959Y-1.4269
X2.6417Y-0.8425
X2.6575Y-0.2087
X2.6654Y-1.2402
X2.7333Y-0.8278
X2.8228Y-1.3465
X2.8307Y-1.8346
T3
X0.166Y-1.6417
X0.166Y-1.8386
X2.7083Y-0.9173
X2.7083Y-1.1142
T4
X0.1211Y-1.4114
X0.1211Y-1.5114
X0.2185Y-1.4114
X0.2185Y-1.5114
X0.3199Y-1.4114
X0.3199Y-1.5114
X2.1362Y-1.4116
X2.1362Y-1.5116
X2.1362Y-1.6116
X2.1362Y-1.7116
X2.2362Y-1.4616
X2.2362Y-1.5616
X2.2362Y-1.6616
X2.2362Y-1.7616
T5
X0.189Y-1.0787
X0.189Y-1.2559
X1.7242Y-1.6489
X1.7242Y-1.7489
X1.7242Y-1.8489
X1.7242Y-1.9489
T6
X2.6193Y-1.3376
X2.6193Y-1.7356
X2.6862Y-1.4376
X2.6862Y-1.8356
T7
X1.5569Y-1.6464
X1.5569Y-1.7464
X1.5569Y-1.8464
X1.5569Y-1.9464
T8
X0.2874Y-1.0295
X0.2874Y-1.3051
T9
X0.1677Y-0.7988
X0.1681Y-0.4257
T10
X0.0677Y-0.6988
X0.0677Y-0.8988
X0.0681Y-0.3257
X0.0681Y-0.5257
X0.2677Y-0.6988
X0.2677Y-0.8988
X0.2681Y-0.3257
X0.2681Y-0.5257
X2.3661Y-1.2766
X2.3661Y-1.8967
T2
G00X0.0459Y-1.6024
M15
G01X0.0735Y-1.6024
M16
G05
G00X0.0735Y-1.878
M15
G01X0.0459Y-1.878
M16
G05
G00X2.8008Y-0.878
M15
G01X2.8284Y-0.878
M16
G05
G00X2.8284Y-1.1535
M15
G01X2.8008Y-1.1535
M16
G05
T0
M30
