%TF.GenerationSoftware,KiCad,Pcbnew,(6.0.9)*%
%TF.CreationDate,2023-03-02T15:05:35+09:00*%
%TF.ProjectId,mosaicBoard,6d6f7361-6963-4426-9f61-72642e6b6963,rev?*%
%TF.SameCoordinates,PX72eaf20PY14fb180*%
%TF.FileFunction,Legend,Top*%
%TF.FilePolarity,Positive*%
%FSLAX46Y46*%
G04 Gerber Fmt 4.6, Leading zero omitted, Abs format (unit mm)*
G04 Created by KiCad (PCBNEW (6.0.9)) date 2023-03-02 15:05:35*
%MOMM*%
%LPD*%
G01*
G04 APERTURE LIST*
%ADD10C,0.120000*%
%ADD11C,0.100000*%
%ADD12C,0.150000*%
%ADD13C,0.200000*%
%ADD14C,0.250000*%
G04 APERTURE END LIST*
D10*
X10300000Y-48050000D02*
G75*
G03*
X10300000Y-48050000I-100000J0D01*
G01*
D11*
G36*
X47040000Y-36980000D02*
G01*
X46220000Y-36980000D01*
X46220000Y-36050000D01*
X47040000Y-36050000D01*
X47040000Y-36980000D01*
G37*
X47040000Y-36980000D02*
X46220000Y-36980000D01*
X46220000Y-36050000D01*
X47040000Y-36050000D01*
X47040000Y-36980000D01*
G36*
X49110000Y-34500000D02*
G01*
X48100000Y-34500000D01*
X48100000Y-34190000D01*
X49110000Y-34190000D01*
X49110000Y-34500000D01*
G37*
X49110000Y-34500000D02*
X48100000Y-34500000D01*
X48100000Y-34190000D01*
X49110000Y-34190000D01*
X49110000Y-34500000D01*
G36*
X49100000Y-36970000D02*
G01*
X48090000Y-36970000D01*
X48090000Y-34440000D01*
X49100000Y-34440000D01*
X49100000Y-36970000D01*
G37*
X49100000Y-36970000D02*
X48090000Y-36970000D01*
X48090000Y-34440000D01*
X49100000Y-34440000D01*
X49100000Y-36970000D01*
G36*
X48410000Y-36960000D02*
G01*
X46550000Y-36960000D01*
X46550000Y-36010000D01*
X48410000Y-36010000D01*
X48410000Y-36960000D01*
G37*
X48410000Y-36960000D02*
X46550000Y-36960000D01*
X46550000Y-36010000D01*
X48410000Y-36010000D01*
X48410000Y-36960000D01*
D12*
X37542857Y-42573047D02*
X37542857Y-42306380D01*
X37961904Y-42192095D02*
X37961904Y-42573047D01*
X37161904Y-42573047D01*
X37161904Y-42192095D01*
X37428571Y-41925428D02*
X37961904Y-41734952D01*
X37428571Y-41544476D01*
X37733333Y-41277809D02*
X37733333Y-40896857D01*
X37961904Y-41354000D02*
X37161904Y-41087333D01*
X37961904Y-40820666D01*
X37542857Y-45170190D02*
X37542857Y-44903523D01*
X37961904Y-44789238D02*
X37961904Y-45170190D01*
X37161904Y-45170190D01*
X37161904Y-44789238D01*
X37428571Y-44522571D02*
X37961904Y-44332095D01*
X37428571Y-44141619D01*
X37542857Y-43570190D02*
X37580952Y-43455904D01*
X37619047Y-43417809D01*
X37695238Y-43379714D01*
X37809523Y-43379714D01*
X37885714Y-43417809D01*
X37923809Y-43455904D01*
X37961904Y-43532095D01*
X37961904Y-43836857D01*
X37161904Y-43836857D01*
X37161904Y-43570190D01*
X37200000Y-43494000D01*
X37238095Y-43455904D01*
X37314285Y-43417809D01*
X37390476Y-43417809D01*
X37466666Y-43455904D01*
X37504761Y-43494000D01*
X37542857Y-43570190D01*
X37542857Y-43836857D01*
X37961904Y-47824476D02*
X37161904Y-47824476D01*
X37161904Y-47519714D01*
X37200000Y-47443523D01*
X37238095Y-47405428D01*
X37314285Y-47367333D01*
X37428571Y-47367333D01*
X37504761Y-47405428D01*
X37542857Y-47443523D01*
X37580952Y-47519714D01*
X37580952Y-47824476D01*
X37961904Y-47024476D02*
X37161904Y-47024476D01*
X37161904Y-46719714D01*
X37200000Y-46643523D01*
X37238095Y-46605428D01*
X37314285Y-46567333D01*
X37428571Y-46567333D01*
X37504761Y-46605428D01*
X37542857Y-46643523D01*
X37580952Y-46719714D01*
X37580952Y-47024476D01*
X37923809Y-46262571D02*
X37961904Y-46148285D01*
X37961904Y-45957809D01*
X37923809Y-45881619D01*
X37885714Y-45843523D01*
X37809523Y-45805428D01*
X37733333Y-45805428D01*
X37657142Y-45843523D01*
X37619047Y-45881619D01*
X37580952Y-45957809D01*
X37542857Y-46110190D01*
X37504761Y-46186380D01*
X37466666Y-46224476D01*
X37390476Y-46262571D01*
X37314285Y-46262571D01*
X37238095Y-46224476D01*
X37200000Y-46186380D01*
X37161904Y-46110190D01*
X37161904Y-45919714D01*
X37200000Y-45805428D01*
X16263333Y-18836666D02*
X16730000Y-18836666D01*
X16663333Y-18836666D02*
X16696666Y-18870000D01*
X16730000Y-18936666D01*
X16730000Y-19036666D01*
X16696666Y-19103333D01*
X16630000Y-19136666D01*
X16263333Y-19136666D01*
X16630000Y-19136666D02*
X16696666Y-19170000D01*
X16730000Y-19236666D01*
X16730000Y-19336666D01*
X16696666Y-19403333D01*
X16630000Y-19436666D01*
X16263333Y-19436666D01*
X16263333Y-19870000D02*
X16296666Y-19803333D01*
X16330000Y-19770000D01*
X16396666Y-19736666D01*
X16596666Y-19736666D01*
X16663333Y-19770000D01*
X16696666Y-19803333D01*
X16730000Y-19870000D01*
X16730000Y-19970000D01*
X16696666Y-20036666D01*
X16663333Y-20070000D01*
X16596666Y-20103333D01*
X16396666Y-20103333D01*
X16330000Y-20070000D01*
X16296666Y-20036666D01*
X16263333Y-19970000D01*
X16263333Y-19870000D01*
X16296666Y-20370000D02*
X16263333Y-20436666D01*
X16263333Y-20570000D01*
X16296666Y-20636666D01*
X16363333Y-20670000D01*
X16396666Y-20670000D01*
X16463333Y-20636666D01*
X16496666Y-20570000D01*
X16496666Y-20470000D01*
X16530000Y-20403333D01*
X16596666Y-20370000D01*
X16630000Y-20370000D01*
X16696666Y-20403333D01*
X16730000Y-20470000D01*
X16730000Y-20570000D01*
X16696666Y-20636666D01*
X16263333Y-21270000D02*
X16630000Y-21270000D01*
X16696666Y-21236666D01*
X16730000Y-21170000D01*
X16730000Y-21036666D01*
X16696666Y-20970000D01*
X16296666Y-21270000D02*
X16263333Y-21203333D01*
X16263333Y-21036666D01*
X16296666Y-20970000D01*
X16363333Y-20936666D01*
X16430000Y-20936666D01*
X16496666Y-20970000D01*
X16530000Y-21036666D01*
X16530000Y-21203333D01*
X16563333Y-21270000D01*
X16263333Y-21603333D02*
X16730000Y-21603333D01*
X16963333Y-21603333D02*
X16930000Y-21570000D01*
X16896666Y-21603333D01*
X16930000Y-21636666D01*
X16963333Y-21603333D01*
X16896666Y-21603333D01*
X16296666Y-22236666D02*
X16263333Y-22170000D01*
X16263333Y-22036666D01*
X16296666Y-21970000D01*
X16330000Y-21936666D01*
X16396666Y-21903333D01*
X16596666Y-21903333D01*
X16663333Y-21936666D01*
X16696666Y-21970000D01*
X16730000Y-22036666D01*
X16730000Y-22170000D01*
X16696666Y-22236666D01*
D11*
X12304761Y-15526190D02*
X12590476Y-15526190D01*
X12447619Y-16026190D02*
X12447619Y-15526190D01*
X12685714Y-15526190D02*
X12852380Y-16026190D01*
X13019047Y-15526190D01*
X13161904Y-16002380D02*
X13233333Y-16026190D01*
X13352380Y-16026190D01*
X13400000Y-16002380D01*
X13423809Y-15978571D01*
X13447619Y-15930952D01*
X13447619Y-15883333D01*
X13423809Y-15835714D01*
X13400000Y-15811904D01*
X13352380Y-15788095D01*
X13257142Y-15764285D01*
X13209523Y-15740476D01*
X13185714Y-15716666D01*
X13161904Y-15669047D01*
X13161904Y-15621428D01*
X13185714Y-15573809D01*
X13209523Y-15550000D01*
X13257142Y-15526190D01*
X13376190Y-15526190D01*
X13447619Y-15550000D01*
X13607142Y-2726190D02*
X13916666Y-2726190D01*
X13750000Y-2916666D01*
X13821428Y-2916666D01*
X13869047Y-2940476D01*
X13892857Y-2964285D01*
X13916666Y-3011904D01*
X13916666Y-3130952D01*
X13892857Y-3178571D01*
X13869047Y-3202380D01*
X13821428Y-3226190D01*
X13678571Y-3226190D01*
X13630952Y-3202380D01*
X13607142Y-3178571D01*
X14154761Y-3226190D02*
X14250000Y-3226190D01*
X14297619Y-3202380D01*
X14321428Y-3178571D01*
X14369047Y-3107142D01*
X14392857Y-3011904D01*
X14392857Y-2821428D01*
X14369047Y-2773809D01*
X14345238Y-2750000D01*
X14297619Y-2726190D01*
X14202380Y-2726190D01*
X14154761Y-2750000D01*
X14130952Y-2773809D01*
X14107142Y-2821428D01*
X14107142Y-2940476D01*
X14130952Y-2988095D01*
X14154761Y-3011904D01*
X14202380Y-3035714D01*
X14297619Y-3035714D01*
X14345238Y-3011904D01*
X14369047Y-2988095D01*
X14392857Y-2940476D01*
X14607142Y-2892857D02*
X14607142Y-3226190D01*
X14607142Y-2940476D02*
X14630952Y-2916666D01*
X14678571Y-2892857D01*
X14750000Y-2892857D01*
X14797619Y-2916666D01*
X14821428Y-2964285D01*
X14821428Y-3226190D01*
X15059523Y-3226190D02*
X15059523Y-2726190D01*
X15059523Y-2964285D02*
X15345238Y-2964285D01*
X15345238Y-3226190D02*
X15345238Y-2726190D01*
X13126190Y-8526190D02*
X12840476Y-8526190D01*
X12983333Y-8526190D02*
X12983333Y-8026190D01*
X12935714Y-8097619D01*
X12888095Y-8145238D01*
X12840476Y-8169047D01*
X13435714Y-8026190D02*
X13483333Y-8026190D01*
X13530952Y-8050000D01*
X13554761Y-8073809D01*
X13578571Y-8121428D01*
X13602380Y-8216666D01*
X13602380Y-8335714D01*
X13578571Y-8430952D01*
X13554761Y-8478571D01*
X13530952Y-8502380D01*
X13483333Y-8526190D01*
X13435714Y-8526190D01*
X13388095Y-8502380D01*
X13364285Y-8478571D01*
X13340476Y-8430952D01*
X13316666Y-8335714D01*
X13316666Y-8216666D01*
X13340476Y-8121428D01*
X13364285Y-8073809D01*
X13388095Y-8050000D01*
X13435714Y-8026190D01*
X13911904Y-8026190D02*
X13959523Y-8026190D01*
X14007142Y-8050000D01*
X14030952Y-8073809D01*
X14054761Y-8121428D01*
X14078571Y-8216666D01*
X14078571Y-8335714D01*
X14054761Y-8430952D01*
X14030952Y-8478571D01*
X14007142Y-8502380D01*
X13959523Y-8526190D01*
X13911904Y-8526190D01*
X13864285Y-8502380D01*
X13840476Y-8478571D01*
X13816666Y-8430952D01*
X13792857Y-8335714D01*
X13792857Y-8216666D01*
X13816666Y-8121428D01*
X13840476Y-8073809D01*
X13864285Y-8050000D01*
X13911904Y-8026190D01*
X14292857Y-8192857D02*
X14292857Y-8526190D01*
X14292857Y-8240476D02*
X14316666Y-8216666D01*
X14364285Y-8192857D01*
X14435714Y-8192857D01*
X14483333Y-8216666D01*
X14507142Y-8264285D01*
X14507142Y-8526190D01*
X14911904Y-8264285D02*
X14745238Y-8264285D01*
X14745238Y-8526190D02*
X14745238Y-8026190D01*
X14983333Y-8026190D01*
X8557142Y-44402380D02*
X8628571Y-44426190D01*
X8747619Y-44426190D01*
X8795238Y-44402380D01*
X8819047Y-44378571D01*
X8842857Y-44330952D01*
X8842857Y-44283333D01*
X8819047Y-44235714D01*
X8795238Y-44211904D01*
X8747619Y-44188095D01*
X8652380Y-44164285D01*
X8604761Y-44140476D01*
X8580952Y-44116666D01*
X8557142Y-44069047D01*
X8557142Y-44021428D01*
X8580952Y-43973809D01*
X8604761Y-43950000D01*
X8652380Y-43926190D01*
X8771428Y-43926190D01*
X8842857Y-43950000D01*
X9223809Y-44164285D02*
X9295238Y-44188095D01*
X9319047Y-44211904D01*
X9342857Y-44259523D01*
X9342857Y-44330952D01*
X9319047Y-44378571D01*
X9295238Y-44402380D01*
X9247619Y-44426190D01*
X9057142Y-44426190D01*
X9057142Y-43926190D01*
X9223809Y-43926190D01*
X9271428Y-43950000D01*
X9295238Y-43973809D01*
X9319047Y-44021428D01*
X9319047Y-44069047D01*
X9295238Y-44116666D01*
X9271428Y-44140476D01*
X9223809Y-44164285D01*
X9057142Y-44164285D01*
X9557142Y-44426190D02*
X9557142Y-43926190D01*
X9676190Y-43926190D01*
X9747619Y-43950000D01*
X9795238Y-43997619D01*
X9819047Y-44045238D01*
X9842857Y-44140476D01*
X9842857Y-44211904D01*
X9819047Y-44307142D01*
X9795238Y-44354761D01*
X9747619Y-44402380D01*
X9676190Y-44426190D01*
X9557142Y-44426190D01*
D12*
X48926666Y-22243333D02*
X48460000Y-22243333D01*
X48526666Y-22243333D02*
X48493333Y-22210000D01*
X48460000Y-22143333D01*
X48460000Y-22043333D01*
X48493333Y-21976666D01*
X48560000Y-21943333D01*
X48926666Y-21943333D01*
X48560000Y-21943333D02*
X48493333Y-21910000D01*
X48460000Y-21843333D01*
X48460000Y-21743333D01*
X48493333Y-21676666D01*
X48560000Y-21643333D01*
X48926666Y-21643333D01*
X48926666Y-21210000D02*
X48893333Y-21276666D01*
X48860000Y-21310000D01*
X48793333Y-21343333D01*
X48593333Y-21343333D01*
X48526666Y-21310000D01*
X48493333Y-21276666D01*
X48460000Y-21210000D01*
X48460000Y-21110000D01*
X48493333Y-21043333D01*
X48526666Y-21010000D01*
X48593333Y-20976666D01*
X48793333Y-20976666D01*
X48860000Y-21010000D01*
X48893333Y-21043333D01*
X48926666Y-21110000D01*
X48926666Y-21210000D01*
X48893333Y-20710000D02*
X48926666Y-20643333D01*
X48926666Y-20510000D01*
X48893333Y-20443333D01*
X48826666Y-20410000D01*
X48793333Y-20410000D01*
X48726666Y-20443333D01*
X48693333Y-20510000D01*
X48693333Y-20610000D01*
X48660000Y-20676666D01*
X48593333Y-20710000D01*
X48560000Y-20710000D01*
X48493333Y-20676666D01*
X48460000Y-20610000D01*
X48460000Y-20510000D01*
X48493333Y-20443333D01*
X48926666Y-19810000D02*
X48560000Y-19810000D01*
X48493333Y-19843333D01*
X48460000Y-19910000D01*
X48460000Y-20043333D01*
X48493333Y-20110000D01*
X48893333Y-19810000D02*
X48926666Y-19876666D01*
X48926666Y-20043333D01*
X48893333Y-20110000D01*
X48826666Y-20143333D01*
X48760000Y-20143333D01*
X48693333Y-20110000D01*
X48660000Y-20043333D01*
X48660000Y-19876666D01*
X48626666Y-19810000D01*
X48926666Y-19476666D02*
X48460000Y-19476666D01*
X48226666Y-19476666D02*
X48260000Y-19510000D01*
X48293333Y-19476666D01*
X48260000Y-19443333D01*
X48226666Y-19476666D01*
X48293333Y-19476666D01*
X48893333Y-18843333D02*
X48926666Y-18910000D01*
X48926666Y-19043333D01*
X48893333Y-19110000D01*
X48860000Y-19143333D01*
X48793333Y-19176666D01*
X48593333Y-19176666D01*
X48526666Y-19143333D01*
X48493333Y-19110000D01*
X48460000Y-19043333D01*
X48460000Y-18910000D01*
X48493333Y-18843333D01*
D11*
X12426190Y-11792857D02*
X12426190Y-11483333D01*
X12616666Y-11650000D01*
X12616666Y-11578571D01*
X12640476Y-11530952D01*
X12664285Y-11507142D01*
X12711904Y-11483333D01*
X12830952Y-11483333D01*
X12878571Y-11507142D01*
X12902380Y-11530952D01*
X12926190Y-11578571D01*
X12926190Y-11721428D01*
X12902380Y-11769047D01*
X12878571Y-11792857D01*
X12926190Y-11245238D02*
X12926190Y-11150000D01*
X12902380Y-11102380D01*
X12878571Y-11078571D01*
X12807142Y-11030952D01*
X12711904Y-11007142D01*
X12521428Y-11007142D01*
X12473809Y-11030952D01*
X12450000Y-11054761D01*
X12426190Y-11102380D01*
X12426190Y-11197619D01*
X12450000Y-11245238D01*
X12473809Y-11269047D01*
X12521428Y-11292857D01*
X12640476Y-11292857D01*
X12688095Y-11269047D01*
X12711904Y-11245238D01*
X12735714Y-11197619D01*
X12735714Y-11102380D01*
X12711904Y-11054761D01*
X12688095Y-11030952D01*
X12640476Y-11007142D01*
X12592857Y-10792857D02*
X12926190Y-10792857D01*
X12640476Y-10792857D02*
X12616666Y-10769047D01*
X12592857Y-10721428D01*
X12592857Y-10650000D01*
X12616666Y-10602380D01*
X12664285Y-10578571D01*
X12926190Y-10578571D01*
X12926190Y-10340476D02*
X12426190Y-10340476D01*
X12664285Y-10340476D02*
X12664285Y-10054761D01*
X12926190Y-10054761D02*
X12426190Y-10054761D01*
X49776190Y-5226190D02*
X49490476Y-5226190D01*
X49633333Y-5226190D02*
X49633333Y-4726190D01*
X49585714Y-4797619D01*
X49538095Y-4845238D01*
X49490476Y-4869047D01*
X50085714Y-4726190D02*
X50133333Y-4726190D01*
X50180952Y-4750000D01*
X50204761Y-4773809D01*
X50228571Y-4821428D01*
X50252380Y-4916666D01*
X50252380Y-5035714D01*
X50228571Y-5130952D01*
X50204761Y-5178571D01*
X50180952Y-5202380D01*
X50133333Y-5226190D01*
X50085714Y-5226190D01*
X50038095Y-5202380D01*
X50014285Y-5178571D01*
X49990476Y-5130952D01*
X49966666Y-5035714D01*
X49966666Y-4916666D01*
X49990476Y-4821428D01*
X50014285Y-4773809D01*
X50038095Y-4750000D01*
X50085714Y-4726190D01*
X50561904Y-4726190D02*
X50609523Y-4726190D01*
X50657142Y-4750000D01*
X50680952Y-4773809D01*
X50704761Y-4821428D01*
X50728571Y-4916666D01*
X50728571Y-5035714D01*
X50704761Y-5130952D01*
X50680952Y-5178571D01*
X50657142Y-5202380D01*
X50609523Y-5226190D01*
X50561904Y-5226190D01*
X50514285Y-5202380D01*
X50490476Y-5178571D01*
X50466666Y-5130952D01*
X50442857Y-5035714D01*
X50442857Y-4916666D01*
X50466666Y-4821428D01*
X50490476Y-4773809D01*
X50514285Y-4750000D01*
X50561904Y-4726190D01*
X50942857Y-4892857D02*
X50942857Y-5226190D01*
X50942857Y-4940476D02*
X50966666Y-4916666D01*
X51014285Y-4892857D01*
X51085714Y-4892857D01*
X51133333Y-4916666D01*
X51157142Y-4964285D01*
X51157142Y-5226190D01*
X51561904Y-4964285D02*
X51395238Y-4964285D01*
X51395238Y-5226190D02*
X51395238Y-4726190D01*
X51633333Y-4726190D01*
X50904761Y-8326190D02*
X51190476Y-8326190D01*
X51047619Y-8826190D02*
X51047619Y-8326190D01*
X51285714Y-8326190D02*
X51452380Y-8826190D01*
X51619047Y-8326190D01*
X51761904Y-8802380D02*
X51833333Y-8826190D01*
X51952380Y-8826190D01*
X52000000Y-8802380D01*
X52023809Y-8778571D01*
X52047619Y-8730952D01*
X52047619Y-8683333D01*
X52023809Y-8635714D01*
X52000000Y-8611904D01*
X51952380Y-8588095D01*
X51857142Y-8564285D01*
X51809523Y-8540476D01*
X51785714Y-8516666D01*
X51761904Y-8469047D01*
X51761904Y-8421428D01*
X51785714Y-8373809D01*
X51809523Y-8350000D01*
X51857142Y-8326190D01*
X51976190Y-8326190D01*
X52047619Y-8350000D01*
D12*
X34253333Y-4173333D02*
X34253333Y-4640000D01*
X34253333Y-4573333D02*
X34220000Y-4606666D01*
X34153333Y-4640000D01*
X34053333Y-4640000D01*
X33986666Y-4606666D01*
X33953333Y-4540000D01*
X33953333Y-4173333D01*
X33953333Y-4540000D02*
X33920000Y-4606666D01*
X33853333Y-4640000D01*
X33753333Y-4640000D01*
X33686666Y-4606666D01*
X33653333Y-4540000D01*
X33653333Y-4173333D01*
X33220000Y-4173333D02*
X33286666Y-4206666D01*
X33320000Y-4240000D01*
X33353333Y-4306666D01*
X33353333Y-4506666D01*
X33320000Y-4573333D01*
X33286666Y-4606666D01*
X33220000Y-4640000D01*
X33120000Y-4640000D01*
X33053333Y-4606666D01*
X33020000Y-4573333D01*
X32986666Y-4506666D01*
X32986666Y-4306666D01*
X33020000Y-4240000D01*
X33053333Y-4206666D01*
X33120000Y-4173333D01*
X33220000Y-4173333D01*
X32720000Y-4206666D02*
X32653333Y-4173333D01*
X32520000Y-4173333D01*
X32453333Y-4206666D01*
X32420000Y-4273333D01*
X32420000Y-4306666D01*
X32453333Y-4373333D01*
X32520000Y-4406666D01*
X32620000Y-4406666D01*
X32686666Y-4440000D01*
X32720000Y-4506666D01*
X32720000Y-4540000D01*
X32686666Y-4606666D01*
X32620000Y-4640000D01*
X32520000Y-4640000D01*
X32453333Y-4606666D01*
X31820000Y-4173333D02*
X31820000Y-4540000D01*
X31853333Y-4606666D01*
X31920000Y-4640000D01*
X32053333Y-4640000D01*
X32120000Y-4606666D01*
X31820000Y-4206666D02*
X31886666Y-4173333D01*
X32053333Y-4173333D01*
X32120000Y-4206666D01*
X32153333Y-4273333D01*
X32153333Y-4340000D01*
X32120000Y-4406666D01*
X32053333Y-4440000D01*
X31886666Y-4440000D01*
X31820000Y-4473333D01*
X31486666Y-4173333D02*
X31486666Y-4640000D01*
X31486666Y-4873333D02*
X31520000Y-4840000D01*
X31486666Y-4806666D01*
X31453333Y-4840000D01*
X31486666Y-4873333D01*
X31486666Y-4806666D01*
X30853333Y-4206666D02*
X30920000Y-4173333D01*
X31053333Y-4173333D01*
X31120000Y-4206666D01*
X31153333Y-4240000D01*
X31186666Y-4306666D01*
X31186666Y-4506666D01*
X31153333Y-4573333D01*
X31120000Y-4606666D01*
X31053333Y-4640000D01*
X30920000Y-4640000D01*
X30853333Y-4606666D01*
D11*
X49807142Y-6222190D02*
X50116666Y-6222190D01*
X49950000Y-6412666D01*
X50021428Y-6412666D01*
X50069047Y-6436476D01*
X50092857Y-6460285D01*
X50116666Y-6507904D01*
X50116666Y-6626952D01*
X50092857Y-6674571D01*
X50069047Y-6698380D01*
X50021428Y-6722190D01*
X49878571Y-6722190D01*
X49830952Y-6698380D01*
X49807142Y-6674571D01*
X50283333Y-6222190D02*
X50592857Y-6222190D01*
X50426190Y-6412666D01*
X50497619Y-6412666D01*
X50545238Y-6436476D01*
X50569047Y-6460285D01*
X50592857Y-6507904D01*
X50592857Y-6626952D01*
X50569047Y-6674571D01*
X50545238Y-6698380D01*
X50497619Y-6722190D01*
X50354761Y-6722190D01*
X50307142Y-6698380D01*
X50283333Y-6674571D01*
X50807142Y-6722190D02*
X50807142Y-6222190D01*
X50854761Y-6531714D02*
X50997619Y-6722190D01*
X50997619Y-6388857D02*
X50807142Y-6579333D01*
X51188095Y-6722190D02*
X51307142Y-6722190D01*
X51307142Y-6626952D01*
X51259523Y-6603142D01*
X51211904Y-6555523D01*
X51188095Y-6484095D01*
X51188095Y-6365047D01*
X51211904Y-6293619D01*
X51259523Y-6246000D01*
X51330952Y-6222190D01*
X51426190Y-6222190D01*
X51497619Y-6246000D01*
X51545238Y-6293619D01*
X51569047Y-6365047D01*
X51569047Y-6484095D01*
X51545238Y-6555523D01*
X51497619Y-6603142D01*
X51450000Y-6626952D01*
X51450000Y-6722190D01*
X51569047Y-6722190D01*
X20315285Y-37750190D02*
X20029571Y-37750190D01*
X20172428Y-37750190D02*
X20172428Y-37250190D01*
X20124809Y-37321619D01*
X20077190Y-37369238D01*
X20029571Y-37393047D01*
X20624809Y-37250190D02*
X20672428Y-37250190D01*
X20720047Y-37274000D01*
X20743857Y-37297809D01*
X20767666Y-37345428D01*
X20791476Y-37440666D01*
X20791476Y-37559714D01*
X20767666Y-37654952D01*
X20743857Y-37702571D01*
X20720047Y-37726380D01*
X20672428Y-37750190D01*
X20624809Y-37750190D01*
X20577190Y-37726380D01*
X20553380Y-37702571D01*
X20529571Y-37654952D01*
X20505761Y-37559714D01*
X20505761Y-37440666D01*
X20529571Y-37345428D01*
X20553380Y-37297809D01*
X20577190Y-37274000D01*
X20624809Y-37250190D01*
X21220047Y-37416857D02*
X21220047Y-37750190D01*
X21005761Y-37416857D02*
X21005761Y-37678761D01*
X21029571Y-37726380D01*
X21077190Y-37750190D01*
X21148619Y-37750190D01*
X21196238Y-37726380D01*
X21220047Y-37702571D01*
X21624809Y-37488285D02*
X21458142Y-37488285D01*
X21458142Y-37750190D02*
X21458142Y-37250190D01*
X21696238Y-37250190D01*
D12*
X37200000Y-50237523D02*
X37161904Y-50313714D01*
X37161904Y-50428000D01*
X37200000Y-50542285D01*
X37276190Y-50618476D01*
X37352380Y-50656571D01*
X37504761Y-50694666D01*
X37619047Y-50694666D01*
X37771428Y-50656571D01*
X37847619Y-50618476D01*
X37923809Y-50542285D01*
X37961904Y-50428000D01*
X37961904Y-50351809D01*
X37923809Y-50237523D01*
X37885714Y-50199428D01*
X37619047Y-50199428D01*
X37619047Y-50351809D01*
X37961904Y-49856571D02*
X37161904Y-49856571D01*
X37961904Y-49399428D01*
X37161904Y-49399428D01*
X37961904Y-49018476D02*
X37161904Y-49018476D01*
X37161904Y-48828000D01*
X37200000Y-48713714D01*
X37276190Y-48637523D01*
X37352380Y-48599428D01*
X37504761Y-48561333D01*
X37619047Y-48561333D01*
X37771428Y-48599428D01*
X37847619Y-48637523D01*
X37923809Y-48713714D01*
X37961904Y-48828000D01*
X37961904Y-49018476D01*
X41234700Y-42554023D02*
X41196604Y-42630214D01*
X41196604Y-42744500D01*
X41234700Y-42858785D01*
X41310890Y-42934976D01*
X41387080Y-42973071D01*
X41539461Y-43011166D01*
X41653747Y-43011166D01*
X41806128Y-42973071D01*
X41882319Y-42934976D01*
X41958509Y-42858785D01*
X41996604Y-42744500D01*
X41996604Y-42668309D01*
X41958509Y-42554023D01*
X41920414Y-42515928D01*
X41653747Y-42515928D01*
X41653747Y-42668309D01*
X41996604Y-42173071D02*
X41196604Y-42173071D01*
X41996604Y-41715928D01*
X41196604Y-41715928D01*
X41996604Y-41334976D02*
X41196604Y-41334976D01*
X41196604Y-41144500D01*
X41234700Y-41030214D01*
X41310890Y-40954023D01*
X41387080Y-40915928D01*
X41539461Y-40877833D01*
X41653747Y-40877833D01*
X41806128Y-40915928D01*
X41882319Y-40954023D01*
X41958509Y-41030214D01*
X41996604Y-41144500D01*
X41996604Y-41334976D01*
X41996604Y-44497190D02*
X41615652Y-44763857D01*
X41996604Y-44954333D02*
X41196604Y-44954333D01*
X41196604Y-44649571D01*
X41234700Y-44573380D01*
X41272795Y-44535285D01*
X41348985Y-44497190D01*
X41463271Y-44497190D01*
X41539461Y-44535285D01*
X41577557Y-44573380D01*
X41615652Y-44649571D01*
X41615652Y-44954333D01*
X41996604Y-44230523D02*
X41463271Y-43811476D01*
X41463271Y-44230523D02*
X41996604Y-43811476D01*
X41196604Y-47302380D02*
X41196604Y-46845238D01*
X41996604Y-47073809D02*
X41196604Y-47073809D01*
X41996604Y-46654761D02*
X41463271Y-46235714D01*
X41463271Y-46654761D02*
X41996604Y-46235714D01*
X9333333Y-11595238D02*
X9333333Y-11214285D01*
X9561904Y-11671428D02*
X8761904Y-11404761D01*
X9561904Y-11138095D01*
X9561904Y-10871428D02*
X8761904Y-10871428D01*
X9561904Y-10414285D01*
X8761904Y-10414285D01*
X8761904Y-10147619D02*
X8761904Y-9690476D01*
X9561904Y-9919047D02*
X8761904Y-9919047D01*
X9561904Y-9004761D02*
X9561904Y-9461904D01*
X9561904Y-9233333D02*
X8761904Y-9233333D01*
X8876190Y-9309523D01*
X8952380Y-9385714D01*
X8990476Y-9461904D01*
X9333333Y-21795238D02*
X9333333Y-21414285D01*
X9561904Y-21871428D02*
X8761904Y-21604761D01*
X9561904Y-21338095D01*
X9561904Y-21071428D02*
X8761904Y-21071428D01*
X9561904Y-20614285D01*
X8761904Y-20614285D01*
X8761904Y-20347619D02*
X8761904Y-19890476D01*
X9561904Y-20119047D02*
X8761904Y-20119047D01*
X8838095Y-19661904D02*
X8800000Y-19623809D01*
X8761904Y-19547619D01*
X8761904Y-19357142D01*
X8800000Y-19280952D01*
X8838095Y-19242857D01*
X8914285Y-19204761D01*
X8990476Y-19204761D01*
X9104761Y-19242857D01*
X9561904Y-19700000D01*
X9561904Y-19204761D01*
D11*
X66702380Y-27842857D02*
X66726190Y-27771428D01*
X66726190Y-27652380D01*
X66702380Y-27604761D01*
X66678571Y-27580952D01*
X66630952Y-27557142D01*
X66583333Y-27557142D01*
X66535714Y-27580952D01*
X66511904Y-27604761D01*
X66488095Y-27652380D01*
X66464285Y-27747619D01*
X66440476Y-27795238D01*
X66416666Y-27819047D01*
X66369047Y-27842857D01*
X66321428Y-27842857D01*
X66273809Y-27819047D01*
X66250000Y-27795238D01*
X66226190Y-27747619D01*
X66226190Y-27628571D01*
X66250000Y-27557142D01*
X66464285Y-27176190D02*
X66488095Y-27104761D01*
X66511904Y-27080952D01*
X66559523Y-27057142D01*
X66630952Y-27057142D01*
X66678571Y-27080952D01*
X66702380Y-27104761D01*
X66726190Y-27152380D01*
X66726190Y-27342857D01*
X66226190Y-27342857D01*
X66226190Y-27176190D01*
X66250000Y-27128571D01*
X66273809Y-27104761D01*
X66321428Y-27080952D01*
X66369047Y-27080952D01*
X66416666Y-27104761D01*
X66440476Y-27128571D01*
X66464285Y-27176190D01*
X66464285Y-27342857D01*
X66726190Y-26842857D02*
X66226190Y-26842857D01*
X66226190Y-26723809D01*
X66250000Y-26652380D01*
X66297619Y-26604761D01*
X66345238Y-26580952D01*
X66440476Y-26557142D01*
X66511904Y-26557142D01*
X66607142Y-26580952D01*
X66654761Y-26604761D01*
X66702380Y-26652380D01*
X66726190Y-26723809D01*
X66726190Y-26842857D01*
X11716666Y-34926190D02*
X11430952Y-34926190D01*
X11573809Y-34926190D02*
X11573809Y-34426190D01*
X11526190Y-34497619D01*
X11478571Y-34545238D01*
X11430952Y-34569047D01*
X12026190Y-34426190D02*
X12073809Y-34426190D01*
X12121428Y-34450000D01*
X12145238Y-34473809D01*
X12169047Y-34521428D01*
X12192857Y-34616666D01*
X12192857Y-34735714D01*
X12169047Y-34830952D01*
X12145238Y-34878571D01*
X12121428Y-34902380D01*
X12073809Y-34926190D01*
X12026190Y-34926190D01*
X11978571Y-34902380D01*
X11954761Y-34878571D01*
X11930952Y-34830952D01*
X11907142Y-34735714D01*
X11907142Y-34616666D01*
X11930952Y-34521428D01*
X11954761Y-34473809D01*
X11978571Y-34450000D01*
X12026190Y-34426190D01*
X12407142Y-34926190D02*
X12407142Y-34426190D01*
X12454761Y-34735714D02*
X12597619Y-34926190D01*
X12597619Y-34592857D02*
X12407142Y-34783333D01*
X12788095Y-34926190D02*
X12907142Y-34926190D01*
X12907142Y-34830952D01*
X12859523Y-34807142D01*
X12811904Y-34759523D01*
X12788095Y-34688095D01*
X12788095Y-34569047D01*
X12811904Y-34497619D01*
X12859523Y-34450000D01*
X12930952Y-34426190D01*
X13026190Y-34426190D01*
X13097619Y-34450000D01*
X13145238Y-34497619D01*
X13169047Y-34569047D01*
X13169047Y-34688095D01*
X13145238Y-34759523D01*
X13097619Y-34807142D01*
X13050000Y-34830952D01*
X13050000Y-34926190D01*
X13169047Y-34926190D01*
X13995238Y-38973809D02*
X14019047Y-38950000D01*
X14066666Y-38926190D01*
X14185714Y-38926190D01*
X14233333Y-38950000D01*
X14257142Y-38973809D01*
X14280952Y-39021428D01*
X14280952Y-39069047D01*
X14257142Y-39140476D01*
X13971428Y-39426190D01*
X14280952Y-39426190D01*
X14471428Y-38973809D02*
X14495238Y-38950000D01*
X14542857Y-38926190D01*
X14661904Y-38926190D01*
X14709523Y-38950000D01*
X14733333Y-38973809D01*
X14757142Y-39021428D01*
X14757142Y-39069047D01*
X14733333Y-39140476D01*
X14447619Y-39426190D01*
X14757142Y-39426190D01*
X15066666Y-38926190D02*
X15114285Y-38926190D01*
X15161904Y-38950000D01*
X15185714Y-38973809D01*
X15209523Y-39021428D01*
X15233333Y-39116666D01*
X15233333Y-39235714D01*
X15209523Y-39330952D01*
X15185714Y-39378571D01*
X15161904Y-39402380D01*
X15114285Y-39426190D01*
X15066666Y-39426190D01*
X15019047Y-39402380D01*
X14995238Y-39378571D01*
X14971428Y-39330952D01*
X14947619Y-39235714D01*
X14947619Y-39116666D01*
X14971428Y-39021428D01*
X14995238Y-38973809D01*
X15019047Y-38950000D01*
X15066666Y-38926190D01*
X15423809Y-39426190D02*
X15542857Y-39426190D01*
X15542857Y-39330952D01*
X15495238Y-39307142D01*
X15447619Y-39259523D01*
X15423809Y-39188095D01*
X15423809Y-39069047D01*
X15447619Y-38997619D01*
X15495238Y-38950000D01*
X15566666Y-38926190D01*
X15661904Y-38926190D01*
X15733333Y-38950000D01*
X15780952Y-38997619D01*
X15804761Y-39069047D01*
X15804761Y-39188095D01*
X15780952Y-39259523D01*
X15733333Y-39307142D01*
X15685714Y-39330952D01*
X15685714Y-39426190D01*
X15804761Y-39426190D01*
X8695238Y-41073809D02*
X8719047Y-41050000D01*
X8766666Y-41026190D01*
X8885714Y-41026190D01*
X8933333Y-41050000D01*
X8957142Y-41073809D01*
X8980952Y-41121428D01*
X8980952Y-41169047D01*
X8957142Y-41240476D01*
X8671428Y-41526190D01*
X8980952Y-41526190D01*
X9171428Y-41073809D02*
X9195238Y-41050000D01*
X9242857Y-41026190D01*
X9361904Y-41026190D01*
X9409523Y-41050000D01*
X9433333Y-41073809D01*
X9457142Y-41121428D01*
X9457142Y-41169047D01*
X9433333Y-41240476D01*
X9147619Y-41526190D01*
X9457142Y-41526190D01*
X9766666Y-41026190D02*
X9814285Y-41026190D01*
X9861904Y-41050000D01*
X9885714Y-41073809D01*
X9909523Y-41121428D01*
X9933333Y-41216666D01*
X9933333Y-41335714D01*
X9909523Y-41430952D01*
X9885714Y-41478571D01*
X9861904Y-41502380D01*
X9814285Y-41526190D01*
X9766666Y-41526190D01*
X9719047Y-41502380D01*
X9695238Y-41478571D01*
X9671428Y-41430952D01*
X9647619Y-41335714D01*
X9647619Y-41216666D01*
X9671428Y-41121428D01*
X9695238Y-41073809D01*
X9719047Y-41050000D01*
X9766666Y-41026190D01*
X10123809Y-41526190D02*
X10242857Y-41526190D01*
X10242857Y-41430952D01*
X10195238Y-41407142D01*
X10147619Y-41359523D01*
X10123809Y-41288095D01*
X10123809Y-41169047D01*
X10147619Y-41097619D01*
X10195238Y-41050000D01*
X10266666Y-41026190D01*
X10361904Y-41026190D01*
X10433333Y-41050000D01*
X10480952Y-41097619D01*
X10504761Y-41169047D01*
X10504761Y-41288095D01*
X10480952Y-41359523D01*
X10433333Y-41407142D01*
X10385714Y-41430952D01*
X10385714Y-41526190D01*
X10504761Y-41526190D01*
X13426190Y-43535714D02*
X13426190Y-43821428D01*
X13426190Y-43678571D02*
X12926190Y-43678571D01*
X12997619Y-43726190D01*
X13045238Y-43773809D01*
X13069047Y-43821428D01*
X12926190Y-43226190D02*
X12926190Y-43178571D01*
X12950000Y-43130952D01*
X12973809Y-43107142D01*
X13021428Y-43083333D01*
X13116666Y-43059523D01*
X13235714Y-43059523D01*
X13330952Y-43083333D01*
X13378571Y-43107142D01*
X13402380Y-43130952D01*
X13426190Y-43178571D01*
X13426190Y-43226190D01*
X13402380Y-43273809D01*
X13378571Y-43297619D01*
X13330952Y-43321428D01*
X13235714Y-43345238D01*
X13116666Y-43345238D01*
X13021428Y-43321428D01*
X12973809Y-43297619D01*
X12950000Y-43273809D01*
X12926190Y-43226190D01*
X13092857Y-42630952D02*
X13426190Y-42630952D01*
X13092857Y-42845238D02*
X13354761Y-42845238D01*
X13402380Y-42821428D01*
X13426190Y-42773809D01*
X13426190Y-42702380D01*
X13402380Y-42654761D01*
X13378571Y-42630952D01*
X13164285Y-42226190D02*
X13164285Y-42392857D01*
X13426190Y-42392857D02*
X12926190Y-42392857D01*
X12926190Y-42154761D01*
X13426190Y-47673809D02*
X13426190Y-47959523D01*
X13426190Y-47816666D02*
X12926190Y-47816666D01*
X12997619Y-47864285D01*
X13045238Y-47911904D01*
X13069047Y-47959523D01*
X12926190Y-47364285D02*
X12926190Y-47316666D01*
X12950000Y-47269047D01*
X12973809Y-47245238D01*
X13021428Y-47221428D01*
X13116666Y-47197619D01*
X13235714Y-47197619D01*
X13330952Y-47221428D01*
X13378571Y-47245238D01*
X13402380Y-47269047D01*
X13426190Y-47316666D01*
X13426190Y-47364285D01*
X13402380Y-47411904D01*
X13378571Y-47435714D01*
X13330952Y-47459523D01*
X13235714Y-47483333D01*
X13116666Y-47483333D01*
X13021428Y-47459523D01*
X12973809Y-47435714D01*
X12950000Y-47411904D01*
X12926190Y-47364285D01*
X12926190Y-46888095D02*
X12926190Y-46840476D01*
X12950000Y-46792857D01*
X12973809Y-46769047D01*
X13021428Y-46745238D01*
X13116666Y-46721428D01*
X13235714Y-46721428D01*
X13330952Y-46745238D01*
X13378571Y-46769047D01*
X13402380Y-46792857D01*
X13426190Y-46840476D01*
X13426190Y-46888095D01*
X13402380Y-46935714D01*
X13378571Y-46959523D01*
X13330952Y-46983333D01*
X13235714Y-47007142D01*
X13116666Y-47007142D01*
X13021428Y-46983333D01*
X12973809Y-46959523D01*
X12950000Y-46935714D01*
X12926190Y-46888095D01*
X13092857Y-46507142D02*
X13426190Y-46507142D01*
X13140476Y-46507142D02*
X13116666Y-46483333D01*
X13092857Y-46435714D01*
X13092857Y-46364285D01*
X13116666Y-46316666D01*
X13164285Y-46292857D01*
X13426190Y-46292857D01*
X13164285Y-45888095D02*
X13164285Y-46054761D01*
X13426190Y-46054761D02*
X12926190Y-46054761D01*
X12926190Y-45816666D01*
X33526190Y-40226190D02*
X33240476Y-40226190D01*
X33383333Y-40226190D02*
X33383333Y-39726190D01*
X33335714Y-39797619D01*
X33288095Y-39845238D01*
X33240476Y-39869047D01*
X33835714Y-39726190D02*
X33883333Y-39726190D01*
X33930952Y-39750000D01*
X33954761Y-39773809D01*
X33978571Y-39821428D01*
X34002380Y-39916666D01*
X34002380Y-40035714D01*
X33978571Y-40130952D01*
X33954761Y-40178571D01*
X33930952Y-40202380D01*
X33883333Y-40226190D01*
X33835714Y-40226190D01*
X33788095Y-40202380D01*
X33764285Y-40178571D01*
X33740476Y-40130952D01*
X33716666Y-40035714D01*
X33716666Y-39916666D01*
X33740476Y-39821428D01*
X33764285Y-39773809D01*
X33788095Y-39750000D01*
X33835714Y-39726190D01*
X34311904Y-39726190D02*
X34359523Y-39726190D01*
X34407142Y-39750000D01*
X34430952Y-39773809D01*
X34454761Y-39821428D01*
X34478571Y-39916666D01*
X34478571Y-40035714D01*
X34454761Y-40130952D01*
X34430952Y-40178571D01*
X34407142Y-40202380D01*
X34359523Y-40226190D01*
X34311904Y-40226190D01*
X34264285Y-40202380D01*
X34240476Y-40178571D01*
X34216666Y-40130952D01*
X34192857Y-40035714D01*
X34192857Y-39916666D01*
X34216666Y-39821428D01*
X34240476Y-39773809D01*
X34264285Y-39750000D01*
X34311904Y-39726190D01*
X34692857Y-39892857D02*
X34692857Y-40226190D01*
X34692857Y-39940476D02*
X34716666Y-39916666D01*
X34764285Y-39892857D01*
X34835714Y-39892857D01*
X34883333Y-39916666D01*
X34907142Y-39964285D01*
X34907142Y-40226190D01*
X35311904Y-39964285D02*
X35145238Y-39964285D01*
X35145238Y-40226190D02*
X35145238Y-39726190D01*
X35383333Y-39726190D01*
X46600000Y-39192857D02*
X46600000Y-39526190D01*
X46480952Y-39002380D02*
X46361904Y-39359523D01*
X46671428Y-39359523D01*
X46885714Y-39526190D02*
X46980952Y-39526190D01*
X47028571Y-39502380D01*
X47052380Y-39478571D01*
X47100000Y-39407142D01*
X47123809Y-39311904D01*
X47123809Y-39121428D01*
X47100000Y-39073809D01*
X47076190Y-39050000D01*
X47028571Y-39026190D01*
X46933333Y-39026190D01*
X46885714Y-39050000D01*
X46861904Y-39073809D01*
X46838095Y-39121428D01*
X46838095Y-39240476D01*
X46861904Y-39288095D01*
X46885714Y-39311904D01*
X46933333Y-39335714D01*
X47028571Y-39335714D01*
X47076190Y-39311904D01*
X47100000Y-39288095D01*
X47123809Y-39240476D01*
X47338095Y-39478571D02*
X47361904Y-39502380D01*
X47338095Y-39526190D01*
X47314285Y-39502380D01*
X47338095Y-39478571D01*
X47338095Y-39526190D01*
X47600000Y-39526190D02*
X47695238Y-39526190D01*
X47742857Y-39502380D01*
X47766666Y-39478571D01*
X47814285Y-39407142D01*
X47838095Y-39311904D01*
X47838095Y-39121428D01*
X47814285Y-39073809D01*
X47790476Y-39050000D01*
X47742857Y-39026190D01*
X47647619Y-39026190D01*
X47600000Y-39050000D01*
X47576190Y-39073809D01*
X47552380Y-39121428D01*
X47552380Y-39240476D01*
X47576190Y-39288095D01*
X47600000Y-39311904D01*
X47647619Y-39335714D01*
X47742857Y-39335714D01*
X47790476Y-39311904D01*
X47814285Y-39288095D01*
X47838095Y-39240476D01*
X46600000Y-40792857D02*
X46600000Y-41126190D01*
X46480952Y-40602380D02*
X46361904Y-40959523D01*
X46671428Y-40959523D01*
X46885714Y-41126190D02*
X46980952Y-41126190D01*
X47028571Y-41102380D01*
X47052380Y-41078571D01*
X47100000Y-41007142D01*
X47123809Y-40911904D01*
X47123809Y-40721428D01*
X47100000Y-40673809D01*
X47076190Y-40650000D01*
X47028571Y-40626190D01*
X46933333Y-40626190D01*
X46885714Y-40650000D01*
X46861904Y-40673809D01*
X46838095Y-40721428D01*
X46838095Y-40840476D01*
X46861904Y-40888095D01*
X46885714Y-40911904D01*
X46933333Y-40935714D01*
X47028571Y-40935714D01*
X47076190Y-40911904D01*
X47100000Y-40888095D01*
X47123809Y-40840476D01*
X47338095Y-41078571D02*
X47361904Y-41102380D01*
X47338095Y-41126190D01*
X47314285Y-41102380D01*
X47338095Y-41078571D01*
X47338095Y-41126190D01*
X47600000Y-41126190D02*
X47695238Y-41126190D01*
X47742857Y-41102380D01*
X47766666Y-41078571D01*
X47814285Y-41007142D01*
X47838095Y-40911904D01*
X47838095Y-40721428D01*
X47814285Y-40673809D01*
X47790476Y-40650000D01*
X47742857Y-40626190D01*
X47647619Y-40626190D01*
X47600000Y-40650000D01*
X47576190Y-40673809D01*
X47552380Y-40721428D01*
X47552380Y-40840476D01*
X47576190Y-40888095D01*
X47600000Y-40911904D01*
X47647619Y-40935714D01*
X47742857Y-40935714D01*
X47790476Y-40911904D01*
X47814285Y-40888095D01*
X47838095Y-40840476D01*
X46600000Y-42492857D02*
X46600000Y-42826190D01*
X46480952Y-42302380D02*
X46361904Y-42659523D01*
X46671428Y-42659523D01*
X46885714Y-42826190D02*
X46980952Y-42826190D01*
X47028571Y-42802380D01*
X47052380Y-42778571D01*
X47100000Y-42707142D01*
X47123809Y-42611904D01*
X47123809Y-42421428D01*
X47100000Y-42373809D01*
X47076190Y-42350000D01*
X47028571Y-42326190D01*
X46933333Y-42326190D01*
X46885714Y-42350000D01*
X46861904Y-42373809D01*
X46838095Y-42421428D01*
X46838095Y-42540476D01*
X46861904Y-42588095D01*
X46885714Y-42611904D01*
X46933333Y-42635714D01*
X47028571Y-42635714D01*
X47076190Y-42611904D01*
X47100000Y-42588095D01*
X47123809Y-42540476D01*
X47338095Y-42778571D02*
X47361904Y-42802380D01*
X47338095Y-42826190D01*
X47314285Y-42802380D01*
X47338095Y-42778571D01*
X47338095Y-42826190D01*
X47600000Y-42826190D02*
X47695238Y-42826190D01*
X47742857Y-42802380D01*
X47766666Y-42778571D01*
X47814285Y-42707142D01*
X47838095Y-42611904D01*
X47838095Y-42421428D01*
X47814285Y-42373809D01*
X47790476Y-42350000D01*
X47742857Y-42326190D01*
X47647619Y-42326190D01*
X47600000Y-42350000D01*
X47576190Y-42373809D01*
X47552380Y-42421428D01*
X47552380Y-42540476D01*
X47576190Y-42588095D01*
X47600000Y-42611904D01*
X47647619Y-42635714D01*
X47742857Y-42635714D01*
X47790476Y-42611904D01*
X47814285Y-42588095D01*
X47838095Y-42540476D01*
X46600000Y-44092857D02*
X46600000Y-44426190D01*
X46480952Y-43902380D02*
X46361904Y-44259523D01*
X46671428Y-44259523D01*
X46885714Y-44426190D02*
X46980952Y-44426190D01*
X47028571Y-44402380D01*
X47052380Y-44378571D01*
X47100000Y-44307142D01*
X47123809Y-44211904D01*
X47123809Y-44021428D01*
X47100000Y-43973809D01*
X47076190Y-43950000D01*
X47028571Y-43926190D01*
X46933333Y-43926190D01*
X46885714Y-43950000D01*
X46861904Y-43973809D01*
X46838095Y-44021428D01*
X46838095Y-44140476D01*
X46861904Y-44188095D01*
X46885714Y-44211904D01*
X46933333Y-44235714D01*
X47028571Y-44235714D01*
X47076190Y-44211904D01*
X47100000Y-44188095D01*
X47123809Y-44140476D01*
X47338095Y-44378571D02*
X47361904Y-44402380D01*
X47338095Y-44426190D01*
X47314285Y-44402380D01*
X47338095Y-44378571D01*
X47338095Y-44426190D01*
X47600000Y-44426190D02*
X47695238Y-44426190D01*
X47742857Y-44402380D01*
X47766666Y-44378571D01*
X47814285Y-44307142D01*
X47838095Y-44211904D01*
X47838095Y-44021428D01*
X47814285Y-43973809D01*
X47790476Y-43950000D01*
X47742857Y-43926190D01*
X47647619Y-43926190D01*
X47600000Y-43950000D01*
X47576190Y-43973809D01*
X47552380Y-44021428D01*
X47552380Y-44140476D01*
X47576190Y-44188095D01*
X47600000Y-44211904D01*
X47647619Y-44235714D01*
X47742857Y-44235714D01*
X47790476Y-44211904D01*
X47814285Y-44188095D01*
X47838095Y-44140476D01*
X46026190Y-46126190D02*
X45740476Y-46126190D01*
X45883333Y-46126190D02*
X45883333Y-45626190D01*
X45835714Y-45697619D01*
X45788095Y-45745238D01*
X45740476Y-45769047D01*
X46335714Y-45626190D02*
X46383333Y-45626190D01*
X46430952Y-45650000D01*
X46454761Y-45673809D01*
X46478571Y-45721428D01*
X46502380Y-45816666D01*
X46502380Y-45935714D01*
X46478571Y-46030952D01*
X46454761Y-46078571D01*
X46430952Y-46102380D01*
X46383333Y-46126190D01*
X46335714Y-46126190D01*
X46288095Y-46102380D01*
X46264285Y-46078571D01*
X46240476Y-46030952D01*
X46216666Y-45935714D01*
X46216666Y-45816666D01*
X46240476Y-45721428D01*
X46264285Y-45673809D01*
X46288095Y-45650000D01*
X46335714Y-45626190D01*
X46811904Y-45626190D02*
X46859523Y-45626190D01*
X46907142Y-45650000D01*
X46930952Y-45673809D01*
X46954761Y-45721428D01*
X46978571Y-45816666D01*
X46978571Y-45935714D01*
X46954761Y-46030952D01*
X46930952Y-46078571D01*
X46907142Y-46102380D01*
X46859523Y-46126190D01*
X46811904Y-46126190D01*
X46764285Y-46102380D01*
X46740476Y-46078571D01*
X46716666Y-46030952D01*
X46692857Y-45935714D01*
X46692857Y-45816666D01*
X46716666Y-45721428D01*
X46740476Y-45673809D01*
X46764285Y-45650000D01*
X46811904Y-45626190D01*
X47192857Y-45792857D02*
X47192857Y-46126190D01*
X47192857Y-45840476D02*
X47216666Y-45816666D01*
X47264285Y-45792857D01*
X47335714Y-45792857D01*
X47383333Y-45816666D01*
X47407142Y-45864285D01*
X47407142Y-46126190D01*
X47811904Y-45864285D02*
X47645238Y-45864285D01*
X47645238Y-46126190D02*
X47645238Y-45626190D01*
X47883333Y-45626190D01*
X46026190Y-47826190D02*
X45740476Y-47826190D01*
X45883333Y-47826190D02*
X45883333Y-47326190D01*
X45835714Y-47397619D01*
X45788095Y-47445238D01*
X45740476Y-47469047D01*
X46335714Y-47326190D02*
X46383333Y-47326190D01*
X46430952Y-47350000D01*
X46454761Y-47373809D01*
X46478571Y-47421428D01*
X46502380Y-47516666D01*
X46502380Y-47635714D01*
X46478571Y-47730952D01*
X46454761Y-47778571D01*
X46430952Y-47802380D01*
X46383333Y-47826190D01*
X46335714Y-47826190D01*
X46288095Y-47802380D01*
X46264285Y-47778571D01*
X46240476Y-47730952D01*
X46216666Y-47635714D01*
X46216666Y-47516666D01*
X46240476Y-47421428D01*
X46264285Y-47373809D01*
X46288095Y-47350000D01*
X46335714Y-47326190D01*
X46811904Y-47326190D02*
X46859523Y-47326190D01*
X46907142Y-47350000D01*
X46930952Y-47373809D01*
X46954761Y-47421428D01*
X46978571Y-47516666D01*
X46978571Y-47635714D01*
X46954761Y-47730952D01*
X46930952Y-47778571D01*
X46907142Y-47802380D01*
X46859523Y-47826190D01*
X46811904Y-47826190D01*
X46764285Y-47802380D01*
X46740476Y-47778571D01*
X46716666Y-47730952D01*
X46692857Y-47635714D01*
X46692857Y-47516666D01*
X46716666Y-47421428D01*
X46740476Y-47373809D01*
X46764285Y-47350000D01*
X46811904Y-47326190D01*
X47192857Y-47492857D02*
X47192857Y-47826190D01*
X47192857Y-47540476D02*
X47216666Y-47516666D01*
X47264285Y-47492857D01*
X47335714Y-47492857D01*
X47383333Y-47516666D01*
X47407142Y-47564285D01*
X47407142Y-47826190D01*
X47811904Y-47564285D02*
X47645238Y-47564285D01*
X47645238Y-47826190D02*
X47645238Y-47326190D01*
X47883333Y-47326190D01*
X46464285Y-49426190D02*
X46178571Y-49426190D01*
X46321428Y-49426190D02*
X46321428Y-48926190D01*
X46273809Y-48997619D01*
X46226190Y-49045238D01*
X46178571Y-49069047D01*
X46773809Y-48926190D02*
X46821428Y-48926190D01*
X46869047Y-48950000D01*
X46892857Y-48973809D01*
X46916666Y-49021428D01*
X46940476Y-49116666D01*
X46940476Y-49235714D01*
X46916666Y-49330952D01*
X46892857Y-49378571D01*
X46869047Y-49402380D01*
X46821428Y-49426190D01*
X46773809Y-49426190D01*
X46726190Y-49402380D01*
X46702380Y-49378571D01*
X46678571Y-49330952D01*
X46654761Y-49235714D01*
X46654761Y-49116666D01*
X46678571Y-49021428D01*
X46702380Y-48973809D01*
X46726190Y-48950000D01*
X46773809Y-48926190D01*
X47369047Y-49092857D02*
X47369047Y-49426190D01*
X47154761Y-49092857D02*
X47154761Y-49354761D01*
X47178571Y-49402380D01*
X47226190Y-49426190D01*
X47297619Y-49426190D01*
X47345238Y-49402380D01*
X47369047Y-49378571D01*
X47773809Y-49164285D02*
X47607142Y-49164285D01*
X47607142Y-49426190D02*
X47607142Y-48926190D01*
X47845238Y-48926190D01*
X46464285Y-51026190D02*
X46178571Y-51026190D01*
X46321428Y-51026190D02*
X46321428Y-50526190D01*
X46273809Y-50597619D01*
X46226190Y-50645238D01*
X46178571Y-50669047D01*
X46773809Y-50526190D02*
X46821428Y-50526190D01*
X46869047Y-50550000D01*
X46892857Y-50573809D01*
X46916666Y-50621428D01*
X46940476Y-50716666D01*
X46940476Y-50835714D01*
X46916666Y-50930952D01*
X46892857Y-50978571D01*
X46869047Y-51002380D01*
X46821428Y-51026190D01*
X46773809Y-51026190D01*
X46726190Y-51002380D01*
X46702380Y-50978571D01*
X46678571Y-50930952D01*
X46654761Y-50835714D01*
X46654761Y-50716666D01*
X46678571Y-50621428D01*
X46702380Y-50573809D01*
X46726190Y-50550000D01*
X46773809Y-50526190D01*
X47369047Y-50692857D02*
X47369047Y-51026190D01*
X47154761Y-50692857D02*
X47154761Y-50954761D01*
X47178571Y-51002380D01*
X47226190Y-51026190D01*
X47297619Y-51026190D01*
X47345238Y-51002380D01*
X47369047Y-50978571D01*
X47773809Y-50764285D02*
X47607142Y-50764285D01*
X47607142Y-51026190D02*
X47607142Y-50526190D01*
X47845238Y-50526190D01*
X49826190Y-14926190D02*
X49540476Y-14926190D01*
X49683333Y-14926190D02*
X49683333Y-14426190D01*
X49635714Y-14497619D01*
X49588095Y-14545238D01*
X49540476Y-14569047D01*
X50135714Y-14426190D02*
X50183333Y-14426190D01*
X50230952Y-14450000D01*
X50254761Y-14473809D01*
X50278571Y-14521428D01*
X50302380Y-14616666D01*
X50302380Y-14735714D01*
X50278571Y-14830952D01*
X50254761Y-14878571D01*
X50230952Y-14902380D01*
X50183333Y-14926190D01*
X50135714Y-14926190D01*
X50088095Y-14902380D01*
X50064285Y-14878571D01*
X50040476Y-14830952D01*
X50016666Y-14735714D01*
X50016666Y-14616666D01*
X50040476Y-14521428D01*
X50064285Y-14473809D01*
X50088095Y-14450000D01*
X50135714Y-14426190D01*
X50611904Y-14426190D02*
X50659523Y-14426190D01*
X50707142Y-14450000D01*
X50730952Y-14473809D01*
X50754761Y-14521428D01*
X50778571Y-14616666D01*
X50778571Y-14735714D01*
X50754761Y-14830952D01*
X50730952Y-14878571D01*
X50707142Y-14902380D01*
X50659523Y-14926190D01*
X50611904Y-14926190D01*
X50564285Y-14902380D01*
X50540476Y-14878571D01*
X50516666Y-14830952D01*
X50492857Y-14735714D01*
X50492857Y-14616666D01*
X50516666Y-14521428D01*
X50540476Y-14473809D01*
X50564285Y-14450000D01*
X50611904Y-14426190D01*
X50992857Y-14592857D02*
X50992857Y-14926190D01*
X50992857Y-14640476D02*
X51016666Y-14616666D01*
X51064285Y-14592857D01*
X51135714Y-14592857D01*
X51183333Y-14616666D01*
X51207142Y-14664285D01*
X51207142Y-14926190D01*
X51611904Y-14664285D02*
X51445238Y-14664285D01*
X51445238Y-14926190D02*
X51445238Y-14426190D01*
X51683333Y-14426190D01*
X50264285Y-16526190D02*
X49978571Y-16526190D01*
X50121428Y-16526190D02*
X50121428Y-16026190D01*
X50073809Y-16097619D01*
X50026190Y-16145238D01*
X49978571Y-16169047D01*
X50573809Y-16026190D02*
X50621428Y-16026190D01*
X50669047Y-16050000D01*
X50692857Y-16073809D01*
X50716666Y-16121428D01*
X50740476Y-16216666D01*
X50740476Y-16335714D01*
X50716666Y-16430952D01*
X50692857Y-16478571D01*
X50669047Y-16502380D01*
X50621428Y-16526190D01*
X50573809Y-16526190D01*
X50526190Y-16502380D01*
X50502380Y-16478571D01*
X50478571Y-16430952D01*
X50454761Y-16335714D01*
X50454761Y-16216666D01*
X50478571Y-16121428D01*
X50502380Y-16073809D01*
X50526190Y-16050000D01*
X50573809Y-16026190D01*
X51169047Y-16192857D02*
X51169047Y-16526190D01*
X50954761Y-16192857D02*
X50954761Y-16454761D01*
X50978571Y-16502380D01*
X51026190Y-16526190D01*
X51097619Y-16526190D01*
X51145238Y-16502380D01*
X51169047Y-16478571D01*
X51573809Y-16264285D02*
X51407142Y-16264285D01*
X51407142Y-16526190D02*
X51407142Y-16026190D01*
X51645238Y-16026190D01*
X49850000Y-17892857D02*
X49850000Y-18226190D01*
X49730952Y-17702380D02*
X49611904Y-18059523D01*
X49921428Y-18059523D01*
X50111904Y-18178571D02*
X50135714Y-18202380D01*
X50111904Y-18226190D01*
X50088095Y-18202380D01*
X50111904Y-18178571D01*
X50111904Y-18226190D01*
X50302380Y-17726190D02*
X50635714Y-17726190D01*
X50421428Y-18226190D01*
X50826190Y-18226190D02*
X50826190Y-17726190D01*
X50873809Y-18035714D02*
X51016666Y-18226190D01*
X51016666Y-17892857D02*
X50826190Y-18083333D01*
X51207142Y-18226190D02*
X51326190Y-18226190D01*
X51326190Y-18130952D01*
X51278571Y-18107142D01*
X51230952Y-18059523D01*
X51207142Y-17988095D01*
X51207142Y-17869047D01*
X51230952Y-17797619D01*
X51278571Y-17750000D01*
X51350000Y-17726190D01*
X51445238Y-17726190D01*
X51516666Y-17750000D01*
X51564285Y-17797619D01*
X51588095Y-17869047D01*
X51588095Y-17988095D01*
X51564285Y-18059523D01*
X51516666Y-18107142D01*
X51469047Y-18130952D01*
X51469047Y-18226190D01*
X51588095Y-18226190D01*
X49826190Y-19726190D02*
X49540476Y-19726190D01*
X49683333Y-19726190D02*
X49683333Y-19226190D01*
X49635714Y-19297619D01*
X49588095Y-19345238D01*
X49540476Y-19369047D01*
X50135714Y-19226190D02*
X50183333Y-19226190D01*
X50230952Y-19250000D01*
X50254761Y-19273809D01*
X50278571Y-19321428D01*
X50302380Y-19416666D01*
X50302380Y-19535714D01*
X50278571Y-19630952D01*
X50254761Y-19678571D01*
X50230952Y-19702380D01*
X50183333Y-19726190D01*
X50135714Y-19726190D01*
X50088095Y-19702380D01*
X50064285Y-19678571D01*
X50040476Y-19630952D01*
X50016666Y-19535714D01*
X50016666Y-19416666D01*
X50040476Y-19321428D01*
X50064285Y-19273809D01*
X50088095Y-19250000D01*
X50135714Y-19226190D01*
X50611904Y-19226190D02*
X50659523Y-19226190D01*
X50707142Y-19250000D01*
X50730952Y-19273809D01*
X50754761Y-19321428D01*
X50778571Y-19416666D01*
X50778571Y-19535714D01*
X50754761Y-19630952D01*
X50730952Y-19678571D01*
X50707142Y-19702380D01*
X50659523Y-19726190D01*
X50611904Y-19726190D01*
X50564285Y-19702380D01*
X50540476Y-19678571D01*
X50516666Y-19630952D01*
X50492857Y-19535714D01*
X50492857Y-19416666D01*
X50516666Y-19321428D01*
X50540476Y-19273809D01*
X50564285Y-19250000D01*
X50611904Y-19226190D01*
X50992857Y-19392857D02*
X50992857Y-19892857D01*
X50992857Y-19416666D02*
X51040476Y-19392857D01*
X51135714Y-19392857D01*
X51183333Y-19416666D01*
X51207142Y-19440476D01*
X51230952Y-19488095D01*
X51230952Y-19630952D01*
X51207142Y-19678571D01*
X51183333Y-19702380D01*
X51135714Y-19726190D01*
X51040476Y-19726190D01*
X50992857Y-19702380D01*
X51611904Y-19464285D02*
X51445238Y-19464285D01*
X51445238Y-19726190D02*
X51445238Y-19226190D01*
X51683333Y-19226190D01*
X49511904Y-21126190D02*
X49416666Y-21126190D01*
X49369047Y-21150000D01*
X49345238Y-21173809D01*
X49297619Y-21245238D01*
X49273809Y-21340476D01*
X49273809Y-21530952D01*
X49297619Y-21578571D01*
X49321428Y-21602380D01*
X49369047Y-21626190D01*
X49464285Y-21626190D01*
X49511904Y-21602380D01*
X49535714Y-21578571D01*
X49559523Y-21530952D01*
X49559523Y-21411904D01*
X49535714Y-21364285D01*
X49511904Y-21340476D01*
X49464285Y-21316666D01*
X49369047Y-21316666D01*
X49321428Y-21340476D01*
X49297619Y-21364285D01*
X49273809Y-21411904D01*
X49773809Y-21578571D02*
X49797619Y-21602380D01*
X49773809Y-21626190D01*
X49750000Y-21602380D01*
X49773809Y-21578571D01*
X49773809Y-21626190D01*
X50226190Y-21292857D02*
X50226190Y-21626190D01*
X50107142Y-21102380D02*
X49988095Y-21459523D01*
X50297619Y-21459523D01*
X50511904Y-21626190D02*
X50607142Y-21626190D01*
X50654761Y-21602380D01*
X50678571Y-21578571D01*
X50726190Y-21507142D01*
X50750000Y-21411904D01*
X50750000Y-21221428D01*
X50726190Y-21173809D01*
X50702380Y-21150000D01*
X50654761Y-21126190D01*
X50559523Y-21126190D01*
X50511904Y-21150000D01*
X50488095Y-21173809D01*
X50464285Y-21221428D01*
X50464285Y-21340476D01*
X50488095Y-21388095D01*
X50511904Y-21411904D01*
X50559523Y-21435714D01*
X50654761Y-21435714D01*
X50702380Y-21411904D01*
X50726190Y-21388095D01*
X50750000Y-21340476D01*
X50964285Y-21626190D02*
X50964285Y-21126190D01*
X51011904Y-21435714D02*
X51154761Y-21626190D01*
X51154761Y-21292857D02*
X50964285Y-21483333D01*
X51345238Y-21626190D02*
X51464285Y-21626190D01*
X51464285Y-21530952D01*
X51416666Y-21507142D01*
X51369047Y-21459523D01*
X51345238Y-21388095D01*
X51345238Y-21269047D01*
X51369047Y-21197619D01*
X51416666Y-21150000D01*
X51488095Y-21126190D01*
X51583333Y-21126190D01*
X51654761Y-21150000D01*
X51702380Y-21197619D01*
X51726190Y-21269047D01*
X51726190Y-21388095D01*
X51702380Y-21459523D01*
X51654761Y-21507142D01*
X51607142Y-21530952D01*
X51607142Y-21626190D01*
X51726190Y-21626190D01*
X57421428Y-20764285D02*
X57254761Y-20764285D01*
X57254761Y-21026190D02*
X57254761Y-20526190D01*
X57492857Y-20526190D01*
X57850000Y-20764285D02*
X57921428Y-20788095D01*
X57945238Y-20811904D01*
X57969047Y-20859523D01*
X57969047Y-20930952D01*
X57945238Y-20978571D01*
X57921428Y-21002380D01*
X57873809Y-21026190D01*
X57683333Y-21026190D01*
X57683333Y-20526190D01*
X57850000Y-20526190D01*
X57897619Y-20550000D01*
X57921428Y-20573809D01*
X57945238Y-20621428D01*
X57945238Y-20669047D01*
X57921428Y-20716666D01*
X57897619Y-20740476D01*
X57850000Y-20764285D01*
X57683333Y-20764285D01*
X64764285Y-21126190D02*
X64478571Y-21126190D01*
X64621428Y-21126190D02*
X64621428Y-20626190D01*
X64573809Y-20697619D01*
X64526190Y-20745238D01*
X64478571Y-20769047D01*
X65073809Y-20626190D02*
X65121428Y-20626190D01*
X65169047Y-20650000D01*
X65192857Y-20673809D01*
X65216666Y-20721428D01*
X65240476Y-20816666D01*
X65240476Y-20935714D01*
X65216666Y-21030952D01*
X65192857Y-21078571D01*
X65169047Y-21102380D01*
X65121428Y-21126190D01*
X65073809Y-21126190D01*
X65026190Y-21102380D01*
X65002380Y-21078571D01*
X64978571Y-21030952D01*
X64954761Y-20935714D01*
X64954761Y-20816666D01*
X64978571Y-20721428D01*
X65002380Y-20673809D01*
X65026190Y-20650000D01*
X65073809Y-20626190D01*
X65669047Y-20792857D02*
X65669047Y-21126190D01*
X65454761Y-20792857D02*
X65454761Y-21054761D01*
X65478571Y-21102380D01*
X65526190Y-21126190D01*
X65597619Y-21126190D01*
X65645238Y-21102380D01*
X65669047Y-21078571D01*
X66073809Y-20864285D02*
X65907142Y-20864285D01*
X65907142Y-21126190D02*
X65907142Y-20626190D01*
X66145238Y-20626190D01*
X64626190Y-21826190D02*
X64340476Y-21826190D01*
X64483333Y-21826190D02*
X64483333Y-21326190D01*
X64435714Y-21397619D01*
X64388095Y-21445238D01*
X64340476Y-21469047D01*
X64935714Y-21326190D02*
X64983333Y-21326190D01*
X65030952Y-21350000D01*
X65054761Y-21373809D01*
X65078571Y-21421428D01*
X65102380Y-21516666D01*
X65102380Y-21635714D01*
X65078571Y-21730952D01*
X65054761Y-21778571D01*
X65030952Y-21802380D01*
X64983333Y-21826190D01*
X64935714Y-21826190D01*
X64888095Y-21802380D01*
X64864285Y-21778571D01*
X64840476Y-21730952D01*
X64816666Y-21635714D01*
X64816666Y-21516666D01*
X64840476Y-21421428D01*
X64864285Y-21373809D01*
X64888095Y-21350000D01*
X64935714Y-21326190D01*
X65411904Y-21326190D02*
X65459523Y-21326190D01*
X65507142Y-21350000D01*
X65530952Y-21373809D01*
X65554761Y-21421428D01*
X65578571Y-21516666D01*
X65578571Y-21635714D01*
X65554761Y-21730952D01*
X65530952Y-21778571D01*
X65507142Y-21802380D01*
X65459523Y-21826190D01*
X65411904Y-21826190D01*
X65364285Y-21802380D01*
X65340476Y-21778571D01*
X65316666Y-21730952D01*
X65292857Y-21635714D01*
X65292857Y-21516666D01*
X65316666Y-21421428D01*
X65340476Y-21373809D01*
X65364285Y-21350000D01*
X65411904Y-21326190D01*
X65792857Y-21492857D02*
X65792857Y-21826190D01*
X65792857Y-21540476D02*
X65816666Y-21516666D01*
X65864285Y-21492857D01*
X65935714Y-21492857D01*
X65983333Y-21516666D01*
X66007142Y-21564285D01*
X66007142Y-21826190D01*
X66411904Y-21564285D02*
X66245238Y-21564285D01*
X66245238Y-21826190D02*
X66245238Y-21326190D01*
X66483333Y-21326190D01*
X64395238Y-22173809D02*
X64419047Y-22150000D01*
X64466666Y-22126190D01*
X64585714Y-22126190D01*
X64633333Y-22150000D01*
X64657142Y-22173809D01*
X64680952Y-22221428D01*
X64680952Y-22269047D01*
X64657142Y-22340476D01*
X64371428Y-22626190D01*
X64680952Y-22626190D01*
X64871428Y-22173809D02*
X64895238Y-22150000D01*
X64942857Y-22126190D01*
X65061904Y-22126190D01*
X65109523Y-22150000D01*
X65133333Y-22173809D01*
X65157142Y-22221428D01*
X65157142Y-22269047D01*
X65133333Y-22340476D01*
X64847619Y-22626190D01*
X65157142Y-22626190D01*
X65466666Y-22126190D02*
X65514285Y-22126190D01*
X65561904Y-22150000D01*
X65585714Y-22173809D01*
X65609523Y-22221428D01*
X65633333Y-22316666D01*
X65633333Y-22435714D01*
X65609523Y-22530952D01*
X65585714Y-22578571D01*
X65561904Y-22602380D01*
X65514285Y-22626190D01*
X65466666Y-22626190D01*
X65419047Y-22602380D01*
X65395238Y-22578571D01*
X65371428Y-22530952D01*
X65347619Y-22435714D01*
X65347619Y-22316666D01*
X65371428Y-22221428D01*
X65395238Y-22173809D01*
X65419047Y-22150000D01*
X65466666Y-22126190D01*
X65823809Y-22626190D02*
X65942857Y-22626190D01*
X65942857Y-22530952D01*
X65895238Y-22507142D01*
X65847619Y-22459523D01*
X65823809Y-22388095D01*
X65823809Y-22269047D01*
X65847619Y-22197619D01*
X65895238Y-22150000D01*
X65966666Y-22126190D01*
X66061904Y-22126190D01*
X66133333Y-22150000D01*
X66180952Y-22197619D01*
X66204761Y-22269047D01*
X66204761Y-22388095D01*
X66180952Y-22459523D01*
X66133333Y-22507142D01*
X66085714Y-22530952D01*
X66085714Y-22626190D01*
X66204761Y-22626190D01*
X56416666Y-23126190D02*
X56130952Y-23126190D01*
X56273809Y-23126190D02*
X56273809Y-22626190D01*
X56226190Y-22697619D01*
X56178571Y-22745238D01*
X56130952Y-22769047D01*
X56726190Y-22626190D02*
X56773809Y-22626190D01*
X56821428Y-22650000D01*
X56845238Y-22673809D01*
X56869047Y-22721428D01*
X56892857Y-22816666D01*
X56892857Y-22935714D01*
X56869047Y-23030952D01*
X56845238Y-23078571D01*
X56821428Y-23102380D01*
X56773809Y-23126190D01*
X56726190Y-23126190D01*
X56678571Y-23102380D01*
X56654761Y-23078571D01*
X56630952Y-23030952D01*
X56607142Y-22935714D01*
X56607142Y-22816666D01*
X56630952Y-22721428D01*
X56654761Y-22673809D01*
X56678571Y-22650000D01*
X56726190Y-22626190D01*
X57107142Y-23126190D02*
X57107142Y-22626190D01*
X57154761Y-22935714D02*
X57297619Y-23126190D01*
X57297619Y-22792857D02*
X57107142Y-22983333D01*
X57488095Y-23126190D02*
X57607142Y-23126190D01*
X57607142Y-23030952D01*
X57559523Y-23007142D01*
X57511904Y-22959523D01*
X57488095Y-22888095D01*
X57488095Y-22769047D01*
X57511904Y-22697619D01*
X57559523Y-22650000D01*
X57630952Y-22626190D01*
X57726190Y-22626190D01*
X57797619Y-22650000D01*
X57845238Y-22697619D01*
X57869047Y-22769047D01*
X57869047Y-22888095D01*
X57845238Y-22959523D01*
X57797619Y-23007142D01*
X57750000Y-23030952D01*
X57750000Y-23126190D01*
X57869047Y-23126190D01*
X56564285Y-21726190D02*
X56278571Y-21726190D01*
X56421428Y-21726190D02*
X56421428Y-21226190D01*
X56373809Y-21297619D01*
X56326190Y-21345238D01*
X56278571Y-21369047D01*
X56873809Y-21226190D02*
X56921428Y-21226190D01*
X56969047Y-21250000D01*
X56992857Y-21273809D01*
X57016666Y-21321428D01*
X57040476Y-21416666D01*
X57040476Y-21535714D01*
X57016666Y-21630952D01*
X56992857Y-21678571D01*
X56969047Y-21702380D01*
X56921428Y-21726190D01*
X56873809Y-21726190D01*
X56826190Y-21702380D01*
X56802380Y-21678571D01*
X56778571Y-21630952D01*
X56754761Y-21535714D01*
X56754761Y-21416666D01*
X56778571Y-21321428D01*
X56802380Y-21273809D01*
X56826190Y-21250000D01*
X56873809Y-21226190D01*
X57469047Y-21392857D02*
X57469047Y-21726190D01*
X57254761Y-21392857D02*
X57254761Y-21654761D01*
X57278571Y-21702380D01*
X57326190Y-21726190D01*
X57397619Y-21726190D01*
X57445238Y-21702380D01*
X57469047Y-21678571D01*
X57873809Y-21464285D02*
X57707142Y-21464285D01*
X57707142Y-21726190D02*
X57707142Y-21226190D01*
X57945238Y-21226190D01*
X56326190Y-22426190D02*
X56040476Y-22426190D01*
X56183333Y-22426190D02*
X56183333Y-21926190D01*
X56135714Y-21997619D01*
X56088095Y-22045238D01*
X56040476Y-22069047D01*
X56635714Y-21926190D02*
X56683333Y-21926190D01*
X56730952Y-21950000D01*
X56754761Y-21973809D01*
X56778571Y-22021428D01*
X56802380Y-22116666D01*
X56802380Y-22235714D01*
X56778571Y-22330952D01*
X56754761Y-22378571D01*
X56730952Y-22402380D01*
X56683333Y-22426190D01*
X56635714Y-22426190D01*
X56588095Y-22402380D01*
X56564285Y-22378571D01*
X56540476Y-22330952D01*
X56516666Y-22235714D01*
X56516666Y-22116666D01*
X56540476Y-22021428D01*
X56564285Y-21973809D01*
X56588095Y-21950000D01*
X56635714Y-21926190D01*
X57111904Y-21926190D02*
X57159523Y-21926190D01*
X57207142Y-21950000D01*
X57230952Y-21973809D01*
X57254761Y-22021428D01*
X57278571Y-22116666D01*
X57278571Y-22235714D01*
X57254761Y-22330952D01*
X57230952Y-22378571D01*
X57207142Y-22402380D01*
X57159523Y-22426190D01*
X57111904Y-22426190D01*
X57064285Y-22402380D01*
X57040476Y-22378571D01*
X57016666Y-22330952D01*
X56992857Y-22235714D01*
X56992857Y-22116666D01*
X57016666Y-22021428D01*
X57040476Y-21973809D01*
X57064285Y-21950000D01*
X57111904Y-21926190D01*
X57492857Y-22092857D02*
X57492857Y-22426190D01*
X57492857Y-22140476D02*
X57516666Y-22116666D01*
X57564285Y-22092857D01*
X57635714Y-22092857D01*
X57683333Y-22116666D01*
X57707142Y-22164285D01*
X57707142Y-22426190D01*
X58111904Y-22164285D02*
X57945238Y-22164285D01*
X57945238Y-22426190D02*
X57945238Y-21926190D01*
X58183333Y-21926190D01*
X64395238Y-22973809D02*
X64419047Y-22950000D01*
X64466666Y-22926190D01*
X64585714Y-22926190D01*
X64633333Y-22950000D01*
X64657142Y-22973809D01*
X64680952Y-23021428D01*
X64680952Y-23069047D01*
X64657142Y-23140476D01*
X64371428Y-23426190D01*
X64680952Y-23426190D01*
X64871428Y-22973809D02*
X64895238Y-22950000D01*
X64942857Y-22926190D01*
X65061904Y-22926190D01*
X65109523Y-22950000D01*
X65133333Y-22973809D01*
X65157142Y-23021428D01*
X65157142Y-23069047D01*
X65133333Y-23140476D01*
X64847619Y-23426190D01*
X65157142Y-23426190D01*
X65466666Y-22926190D02*
X65514285Y-22926190D01*
X65561904Y-22950000D01*
X65585714Y-22973809D01*
X65609523Y-23021428D01*
X65633333Y-23116666D01*
X65633333Y-23235714D01*
X65609523Y-23330952D01*
X65585714Y-23378571D01*
X65561904Y-23402380D01*
X65514285Y-23426190D01*
X65466666Y-23426190D01*
X65419047Y-23402380D01*
X65395238Y-23378571D01*
X65371428Y-23330952D01*
X65347619Y-23235714D01*
X65347619Y-23116666D01*
X65371428Y-23021428D01*
X65395238Y-22973809D01*
X65419047Y-22950000D01*
X65466666Y-22926190D01*
X65823809Y-23426190D02*
X65942857Y-23426190D01*
X65942857Y-23330952D01*
X65895238Y-23307142D01*
X65847619Y-23259523D01*
X65823809Y-23188095D01*
X65823809Y-23069047D01*
X65847619Y-22997619D01*
X65895238Y-22950000D01*
X65966666Y-22926190D01*
X66061904Y-22926190D01*
X66133333Y-22950000D01*
X66180952Y-22997619D01*
X66204761Y-23069047D01*
X66204761Y-23188095D01*
X66180952Y-23259523D01*
X66133333Y-23307142D01*
X66085714Y-23330952D01*
X66085714Y-23426190D01*
X66204761Y-23426190D01*
X64716666Y-24226190D02*
X64430952Y-24226190D01*
X64573809Y-24226190D02*
X64573809Y-23726190D01*
X64526190Y-23797619D01*
X64478571Y-23845238D01*
X64430952Y-23869047D01*
X65026190Y-23726190D02*
X65073809Y-23726190D01*
X65121428Y-23750000D01*
X65145238Y-23773809D01*
X65169047Y-23821428D01*
X65192857Y-23916666D01*
X65192857Y-24035714D01*
X65169047Y-24130952D01*
X65145238Y-24178571D01*
X65121428Y-24202380D01*
X65073809Y-24226190D01*
X65026190Y-24226190D01*
X64978571Y-24202380D01*
X64954761Y-24178571D01*
X64930952Y-24130952D01*
X64907142Y-24035714D01*
X64907142Y-23916666D01*
X64930952Y-23821428D01*
X64954761Y-23773809D01*
X64978571Y-23750000D01*
X65026190Y-23726190D01*
X65407142Y-24226190D02*
X65407142Y-23726190D01*
X65454761Y-24035714D02*
X65597619Y-24226190D01*
X65597619Y-23892857D02*
X65407142Y-24083333D01*
X65788095Y-24226190D02*
X65907142Y-24226190D01*
X65907142Y-24130952D01*
X65859523Y-24107142D01*
X65811904Y-24059523D01*
X65788095Y-23988095D01*
X65788095Y-23869047D01*
X65811904Y-23797619D01*
X65859523Y-23750000D01*
X65930952Y-23726190D01*
X66026190Y-23726190D01*
X66097619Y-23750000D01*
X66145238Y-23797619D01*
X66169047Y-23869047D01*
X66169047Y-23988095D01*
X66145238Y-24059523D01*
X66097619Y-24107142D01*
X66050000Y-24130952D01*
X66050000Y-24226190D01*
X66169047Y-24226190D01*
D12*
X7661904Y-30771428D02*
X7661904Y-31152380D01*
X6861904Y-31152380D01*
X6861904Y-30352380D02*
X6861904Y-30200000D01*
X6900000Y-30123809D01*
X6976190Y-30047619D01*
X7128571Y-30009523D01*
X7395238Y-30009523D01*
X7547619Y-30047619D01*
X7623809Y-30123809D01*
X7661904Y-30200000D01*
X7661904Y-30352380D01*
X7623809Y-30428571D01*
X7547619Y-30504761D01*
X7395238Y-30542857D01*
X7128571Y-30542857D01*
X6976190Y-30504761D01*
X6900000Y-30428571D01*
X6861904Y-30352380D01*
X6900000Y-29247619D02*
X6861904Y-29323809D01*
X6861904Y-29438095D01*
X6900000Y-29552380D01*
X6976190Y-29628571D01*
X7052380Y-29666666D01*
X7204761Y-29704761D01*
X7319047Y-29704761D01*
X7471428Y-29666666D01*
X7547619Y-29628571D01*
X7623809Y-29552380D01*
X7661904Y-29438095D01*
X7661904Y-29361904D01*
X7623809Y-29247619D01*
X7585714Y-29209523D01*
X7319047Y-29209523D01*
X7319047Y-29361904D01*
X6261904Y-46852380D02*
X5461904Y-46852380D01*
X5461904Y-46547619D01*
X5500000Y-46471428D01*
X5538095Y-46433333D01*
X5614285Y-46395238D01*
X5728571Y-46395238D01*
X5804761Y-46433333D01*
X5842857Y-46471428D01*
X5880952Y-46547619D01*
X5880952Y-46852380D01*
X5461904Y-46128571D02*
X6261904Y-45938095D01*
X5690476Y-45785714D01*
X6261904Y-45633333D01*
X5461904Y-45442857D01*
X6261904Y-44680952D02*
X5880952Y-44947619D01*
X6261904Y-45138095D02*
X5461904Y-45138095D01*
X5461904Y-44833333D01*
X5500000Y-44757142D01*
X5538095Y-44719047D01*
X5614285Y-44680952D01*
X5728571Y-44680952D01*
X5804761Y-44719047D01*
X5842857Y-44757142D01*
X5880952Y-44833333D01*
X5880952Y-45138095D01*
X5957142Y-44338095D02*
X5957142Y-43728571D01*
X6261904Y-44033333D02*
X5652380Y-44033333D01*
X6261904Y-43347619D02*
X5461904Y-43347619D01*
X5461904Y-43157142D01*
X5500000Y-43042857D01*
X5576190Y-42966666D01*
X5652380Y-42928571D01*
X5804761Y-42890476D01*
X5919047Y-42890476D01*
X6071428Y-42928571D01*
X6147619Y-42966666D01*
X6223809Y-43042857D01*
X6261904Y-43157142D01*
X6261904Y-43347619D01*
X6033333Y-42585714D02*
X6033333Y-42204761D01*
X6261904Y-42661904D02*
X5461904Y-42395238D01*
X6261904Y-42128571D01*
X5461904Y-41976190D02*
X5461904Y-41519047D01*
X6261904Y-41747619D02*
X5461904Y-41747619D01*
X6033333Y-41290476D02*
X6033333Y-40909523D01*
X6261904Y-41366666D02*
X5461904Y-41100000D01*
X6261904Y-40833333D01*
X67661904Y-24266666D02*
X66861904Y-24266666D01*
X66861904Y-23961904D01*
X66900000Y-23885714D01*
X66938095Y-23847619D01*
X67014285Y-23809523D01*
X67128571Y-23809523D01*
X67204761Y-23847619D01*
X67242857Y-23885714D01*
X67280952Y-23961904D01*
X67280952Y-24266666D01*
X66861904Y-23542857D02*
X67661904Y-23352380D01*
X67090476Y-23200000D01*
X67661904Y-23047619D01*
X66861904Y-22857142D01*
X67661904Y-22095238D02*
X67280952Y-22361904D01*
X67661904Y-22552380D02*
X66861904Y-22552380D01*
X66861904Y-22247619D01*
X66900000Y-22171428D01*
X66938095Y-22133333D01*
X67014285Y-22095238D01*
X67128571Y-22095238D01*
X67204761Y-22133333D01*
X67242857Y-22171428D01*
X67280952Y-22247619D01*
X67280952Y-22552380D01*
X41186904Y-50786904D02*
X41186904Y-51167857D01*
X41567857Y-51205952D01*
X41529761Y-51167857D01*
X41491666Y-51091666D01*
X41491666Y-50901190D01*
X41529761Y-50825000D01*
X41567857Y-50786904D01*
X41644047Y-50748809D01*
X41834523Y-50748809D01*
X41910714Y-50786904D01*
X41948809Y-50825000D01*
X41986904Y-50901190D01*
X41986904Y-51091666D01*
X41948809Y-51167857D01*
X41910714Y-51205952D01*
X41186904Y-50520238D02*
X41986904Y-50253571D01*
X41186904Y-49986904D01*
X41186904Y-49567857D02*
X41186904Y-49415476D01*
X41225000Y-49339285D01*
X41301190Y-49263095D01*
X41453571Y-49225000D01*
X41720238Y-49225000D01*
X41872619Y-49263095D01*
X41948809Y-49339285D01*
X41986904Y-49415476D01*
X41986904Y-49567857D01*
X41948809Y-49644047D01*
X41872619Y-49720238D01*
X41720238Y-49758333D01*
X41453571Y-49758333D01*
X41301190Y-49720238D01*
X41225000Y-49644047D01*
X41186904Y-49567857D01*
X41453571Y-48539285D02*
X41986904Y-48539285D01*
X41453571Y-48882142D02*
X41872619Y-48882142D01*
X41948809Y-48844047D01*
X41986904Y-48767857D01*
X41986904Y-48653571D01*
X41948809Y-48577380D01*
X41910714Y-48539285D01*
X41453571Y-48272619D02*
X41453571Y-47967857D01*
X41186904Y-48158333D02*
X41872619Y-48158333D01*
X41948809Y-48120238D01*
X41986904Y-48044047D01*
X41986904Y-47967857D01*
%TO.C,U1*%
X33052380Y-24380952D02*
X32052380Y-24380952D01*
X32766666Y-24047619D01*
X32052380Y-23714285D01*
X33052380Y-23714285D01*
X33052380Y-23095238D02*
X33004761Y-23190476D01*
X32957142Y-23238095D01*
X32861904Y-23285714D01*
X32576190Y-23285714D01*
X32480952Y-23238095D01*
X32433333Y-23190476D01*
X32385714Y-23095238D01*
X32385714Y-22952380D01*
X32433333Y-22857142D01*
X32480952Y-22809523D01*
X32576190Y-22761904D01*
X32861904Y-22761904D01*
X32957142Y-22809523D01*
X33004761Y-22857142D01*
X33052380Y-22952380D01*
X33052380Y-23095238D01*
X33004761Y-22380952D02*
X33052380Y-22285714D01*
X33052380Y-22095238D01*
X33004761Y-22000000D01*
X32909523Y-21952380D01*
X32861904Y-21952380D01*
X32766666Y-22000000D01*
X32719047Y-22095238D01*
X32719047Y-22238095D01*
X32671428Y-22333333D01*
X32576190Y-22380952D01*
X32528571Y-22380952D01*
X32433333Y-22333333D01*
X32385714Y-22238095D01*
X32385714Y-22095238D01*
X32433333Y-22000000D01*
X33052380Y-21095238D02*
X32528571Y-21095238D01*
X32433333Y-21142857D01*
X32385714Y-21238095D01*
X32385714Y-21428571D01*
X32433333Y-21523809D01*
X33004761Y-21095238D02*
X33052380Y-21190476D01*
X33052380Y-21428571D01*
X33004761Y-21523809D01*
X32909523Y-21571428D01*
X32814285Y-21571428D01*
X32719047Y-21523809D01*
X32671428Y-21428571D01*
X32671428Y-21190476D01*
X32623809Y-21095238D01*
X33052380Y-20619047D02*
X32385714Y-20619047D01*
X32052380Y-20619047D02*
X32100000Y-20666666D01*
X32147619Y-20619047D01*
X32100000Y-20571428D01*
X32052380Y-20619047D01*
X32147619Y-20619047D01*
X33004761Y-19714285D02*
X33052380Y-19809523D01*
X33052380Y-20000000D01*
X33004761Y-20095238D01*
X32957142Y-20142857D01*
X32861904Y-20190476D01*
X32576190Y-20190476D01*
X32480952Y-20142857D01*
X32433333Y-20095238D01*
X32385714Y-20000000D01*
X32385714Y-19809523D01*
X32433333Y-19714285D01*
X32671428Y-19285714D02*
X32671428Y-18523809D01*
X32052380Y-18142857D02*
X33052380Y-17476190D01*
X32052380Y-17476190D02*
X33052380Y-18142857D01*
X32052380Y-16619047D02*
X32052380Y-17095238D01*
X32528571Y-17142857D01*
X32480952Y-17095238D01*
X32433333Y-17000000D01*
X32433333Y-16761904D01*
X32480952Y-16666666D01*
X32528571Y-16619047D01*
X32623809Y-16571428D01*
X32861904Y-16571428D01*
X32957142Y-16619047D01*
X33004761Y-16666666D01*
X33052380Y-16761904D01*
X33052380Y-17000000D01*
X33004761Y-17095238D01*
X32957142Y-17142857D01*
D10*
%TO.C,C1*%
X14947500Y-46861721D02*
X14947500Y-47187279D01*
X13927500Y-46861721D02*
X13927500Y-47187279D01*
%TO.C,R2*%
X62496621Y-26084200D02*
X62822179Y-26084200D01*
X62496621Y-25064200D02*
X62822179Y-25064200D01*
%TO.C,R4*%
X12179221Y-41375000D02*
X12504779Y-41375000D01*
X12179221Y-40355000D02*
X12504779Y-40355000D01*
%TO.C,C5*%
X34149721Y-43407000D02*
X34475279Y-43407000D01*
X34149721Y-42387000D02*
X34475279Y-42387000D01*
%TO.C,C2*%
X14947500Y-44012279D02*
X14947500Y-43686721D01*
X13927500Y-44012279D02*
X13927500Y-43686721D01*
%TO.C,C10*%
X62496621Y-21635200D02*
X62822179Y-21635200D01*
X62496621Y-22655200D02*
X62822179Y-22655200D01*
%TO.C,C12*%
X62496621Y-23362400D02*
X62822179Y-23362400D01*
X62496621Y-24382400D02*
X62822179Y-24382400D01*
%TO.C,C13*%
X59254721Y-26793200D02*
X59580279Y-26793200D01*
X59254721Y-27813200D02*
X59580279Y-27813200D01*
%TO.C,C14*%
X49364721Y-46959000D02*
X49690279Y-46959000D01*
X49364721Y-47979000D02*
X49690279Y-47979000D01*
%TO.C,C15*%
X59245421Y-26084200D02*
X59570979Y-26084200D01*
X59245421Y-25064200D02*
X59570979Y-25064200D01*
%TO.C,C16*%
X49364721Y-45308000D02*
X49690279Y-45308000D01*
X49364721Y-46328000D02*
X49690279Y-46328000D01*
%TO.C,FB1*%
X59570979Y-23362400D02*
X59245421Y-23362400D01*
X59570979Y-24382400D02*
X59245421Y-24382400D01*
D11*
%TO.C,J9*%
X52600000Y-48300000D02*
X52600000Y-32300000D01*
X52600000Y-32300000D02*
X58400000Y-32300000D01*
D13*
X56700000Y-48900000D02*
X56700000Y-48900000D01*
D11*
X61900000Y-48300000D02*
X73900000Y-48300000D01*
D13*
X56900000Y-48900000D02*
X56900000Y-48900000D01*
D11*
X73900000Y-32300000D02*
X61900000Y-32300000D01*
X58400000Y-48300000D02*
X52600000Y-48300000D01*
X73900000Y-48300000D02*
X73900000Y-32300000D01*
D13*
X56700000Y-48900000D02*
G75*
G03*
X56900000Y-48900000I100000J0D01*
G01*
X56900000Y-48900000D02*
G75*
G03*
X56700000Y-48900000I-100000J0D01*
G01*
D10*
%TO.C,R10*%
X49364721Y-43657000D02*
X49690279Y-43657000D01*
X49364721Y-44677000D02*
X49690279Y-44677000D01*
%TO.C,R14*%
X62496621Y-29537400D02*
X62822179Y-29537400D01*
X62496621Y-28517400D02*
X62822179Y-28517400D01*
%TO.C,J5*%
X38215500Y-43087500D02*
X38215500Y-50767500D01*
X38215500Y-41817500D02*
X38215500Y-40487500D01*
X38215500Y-40487500D02*
X39545500Y-40487500D01*
X40875500Y-43087500D02*
X40875500Y-50767500D01*
X38215500Y-50767500D02*
X40875500Y-50767500D01*
X38215500Y-43087500D02*
X40875500Y-43087500D01*
%TO.C,FL1*%
X8600000Y-47410000D02*
X10190000Y-47410000D01*
X8600000Y-45590000D02*
X10000000Y-45590000D01*
%TO.C,SW1*%
X8920000Y-26670000D02*
X8570000Y-26670000D01*
X2130000Y-33520000D02*
X5980000Y-33520000D01*
X8620000Y-33520000D02*
X8920000Y-33520000D01*
X8920000Y-25780000D02*
X8920000Y-26670000D01*
X8920000Y-32630000D02*
X8570000Y-32630000D01*
X8920000Y-32630000D02*
X8920000Y-33520000D01*
X8620000Y-25780000D02*
X8920000Y-25780000D01*
X6370000Y-32140000D02*
X6370000Y-27160000D01*
X2130000Y-25780000D02*
X2130000Y-33520000D01*
X5980000Y-25780000D02*
X2130000Y-25780000D01*
%TO.C,L1*%
X13440000Y-4774721D02*
X13440000Y-5100279D01*
X14460000Y-4774721D02*
X14460000Y-5100279D01*
%TO.C,L2*%
X14480000Y-11929721D02*
X14480000Y-12255279D01*
X13460000Y-11929721D02*
X13460000Y-12255279D01*
%TO.C,C3*%
X14604721Y-8930000D02*
X14930279Y-8930000D01*
X14604721Y-9950000D02*
X14930279Y-9950000D01*
%TO.C,C6*%
X23124721Y-37410000D02*
X23450279Y-37410000D01*
X23124721Y-36390000D02*
X23450279Y-36390000D01*
%TO.C,C7*%
X23087221Y-37990000D02*
X23412779Y-37990000D01*
X23087221Y-39010000D02*
X23412779Y-39010000D01*
%TO.C,D1*%
X11450000Y-44600000D02*
X11450000Y-42600000D01*
X11450000Y-44600000D02*
X7550000Y-44600000D01*
X11450000Y-42600000D02*
X7550000Y-42600000D01*
%TO.C,U1*%
X23710000Y-29390000D02*
X23710000Y-11610000D01*
X23710000Y-11610000D02*
X41490000Y-11610000D01*
X49110000Y-3990000D02*
X16090000Y-3990000D01*
X17100000Y-36000000D02*
X17100000Y-5000000D01*
X48100000Y-36000000D02*
X48100000Y-5000000D01*
X48100000Y-36000000D02*
X17100000Y-36000000D01*
X41490000Y-11610000D02*
X41490000Y-29390000D01*
X16090000Y-3990000D02*
X16090000Y-37010000D01*
X49110000Y-37010000D02*
X49110000Y-3990000D01*
X16090000Y-37010000D02*
X49110000Y-37010000D01*
X48100000Y-5000000D02*
X17100000Y-5000000D01*
X41490000Y-29390000D02*
X23710000Y-29390000D01*
%TO.C,J10*%
X67941500Y-27500000D02*
X68391500Y-27500000D01*
X72891500Y-21900000D02*
X72641500Y-21900000D01*
X68491500Y-29700000D02*
X68491500Y-29250000D01*
X68491500Y-21900000D02*
X68491500Y-22350000D01*
X72891500Y-29700000D02*
X72641500Y-29700000D01*
X67941500Y-27500000D02*
X67941500Y-27050000D01*
X70341500Y-29700000D02*
X68491500Y-29700000D01*
X70341500Y-21900000D02*
X68491500Y-21900000D01*
%TO.C,U2*%
X16649000Y-41328500D02*
X22659000Y-41328500D01*
X22659000Y-48148500D02*
X22659000Y-46888500D01*
X18899000Y-48148500D02*
X22659000Y-48148500D01*
X22659000Y-41328500D02*
X22659000Y-42588500D01*
%TO.C,U3*%
X32090500Y-49442000D02*
X29890500Y-49442000D01*
X32090500Y-49442000D02*
X34290500Y-49442000D01*
X32090500Y-43972000D02*
X34290500Y-43972000D01*
X32090500Y-43972000D02*
X28490500Y-43972000D01*
%TO.C,C4*%
X34149721Y-41710000D02*
X34475279Y-41710000D01*
X34149721Y-40690000D02*
X34475279Y-40690000D01*
D14*
%TO.C,IC1*%
X56299500Y-29231000D02*
G75*
G03*
X56299500Y-29231000I-125000J0D01*
G01*
D10*
%TO.C,C9*%
X49690279Y-49630000D02*
X49364721Y-49630000D01*
X49690279Y-48610000D02*
X49364721Y-48610000D01*
%TO.C,C11*%
X49690279Y-50261000D02*
X49364721Y-50261000D01*
X49690279Y-51281000D02*
X49364721Y-51281000D01*
%TO.C,R3*%
X49364721Y-39724000D02*
X49690279Y-39724000D01*
X49364721Y-38704000D02*
X49690279Y-38704000D01*
%TO.C,R8*%
X49390221Y-41375000D02*
X49715779Y-41375000D01*
X49390221Y-40355000D02*
X49715779Y-40355000D01*
%TO.C,R9*%
X49364721Y-43026000D02*
X49690279Y-43026000D01*
X49364721Y-42006000D02*
X49690279Y-42006000D01*
%TO.C,C19*%
X53068721Y-15938500D02*
X53394279Y-15938500D01*
X53068721Y-14918500D02*
X53394279Y-14918500D01*
%TO.C,C17*%
X53405779Y-19889700D02*
X53080221Y-19889700D01*
X53405779Y-20909700D02*
X53080221Y-20909700D01*
%TO.C,C18*%
X53068721Y-17589500D02*
X53394279Y-17589500D01*
X53068721Y-16569500D02*
X53394279Y-16569500D01*
%TO.C,R13*%
X53068721Y-19240500D02*
X53394279Y-19240500D01*
X53068721Y-18220500D02*
X53394279Y-18220500D01*
%TO.C,R12*%
X53082721Y-21559000D02*
X53408279Y-21559000D01*
X53082721Y-22579000D02*
X53408279Y-22579000D01*
%TO.C,J3*%
X4516000Y-48100000D02*
X4516000Y-47650000D01*
X5066000Y-42500000D02*
X5066000Y-42950000D01*
X2666000Y-48100000D02*
X4516000Y-48100000D01*
X5066000Y-42500000D02*
X4616000Y-42500000D01*
X2666000Y-40300000D02*
X4516000Y-40300000D01*
X116000Y-40300000D02*
X366000Y-40300000D01*
X4516000Y-40300000D02*
X4516000Y-40750000D01*
X116000Y-48100000D02*
X366000Y-48100000D01*
%TO.C,R7*%
X12504779Y-36422000D02*
X12179221Y-36422000D01*
X12504779Y-35402000D02*
X12179221Y-35402000D01*
%TO.C,R5*%
X12179221Y-39724000D02*
X12504779Y-39724000D01*
X12179221Y-38704000D02*
X12504779Y-38704000D01*
%TO.C,J8*%
X72685000Y-7685000D02*
X72685000Y-7425000D01*
X56615000Y-19725000D02*
X56615000Y-20175000D01*
X61925000Y-20175000D02*
X66625000Y-20175000D01*
X72885000Y-10195000D02*
X72535000Y-10705000D01*
X72535000Y-17075000D02*
X72685000Y-17075000D01*
X72885000Y-19145000D02*
X72885000Y-17285000D01*
X56615000Y-20175000D02*
X60225000Y-20175000D01*
X72535000Y-17075000D02*
X72535000Y-10705000D01*
X72885000Y-17285000D02*
X72685000Y-17075000D01*
X72885000Y-7885000D02*
X72685000Y-7685000D01*
X56615000Y-8125000D02*
X56615000Y-6205000D01*
X72885000Y-7885000D02*
X72885000Y-10195000D01*
X72885000Y-19145000D02*
X72685000Y-19345000D01*
X67925000Y-20175000D02*
X69725000Y-20175000D01*
X56615000Y-6205000D02*
X70625000Y-6205000D01*
%TO.C,D2*%
X64936000Y-25050000D02*
X64936000Y-28950000D01*
X66936000Y-25050000D02*
X66936000Y-28950000D01*
X66936000Y-25050000D02*
X64936000Y-25050000D01*
%TO.C,R11*%
X59587779Y-28517400D02*
X59262221Y-28517400D01*
X59587779Y-29537400D02*
X59262221Y-29537400D01*
%TO.C,R1*%
X62496621Y-26791400D02*
X62822179Y-26791400D01*
X62496621Y-27811400D02*
X62822179Y-27811400D01*
%TO.C,R6*%
X53381779Y-6783500D02*
X53056221Y-6783500D01*
X53381779Y-7803500D02*
X53056221Y-7803500D01*
%TO.C,C8*%
X53056221Y-5033500D02*
X53381779Y-5033500D01*
X53056221Y-6053500D02*
X53381779Y-6053500D01*
%TO.C,J1*%
X8419000Y-14964000D02*
X8419000Y-6664000D01*
X119000Y-14964000D02*
X119000Y-6664000D01*
X119000Y-6664000D02*
X8419000Y-6664000D01*
X119000Y-14964000D02*
X8419000Y-14964000D01*
%TO.C,J2*%
X110000Y-24440000D02*
X8410000Y-24440000D01*
X110000Y-16140000D02*
X8410000Y-16140000D01*
X110000Y-24440000D02*
X110000Y-16140000D01*
X8410000Y-24440000D02*
X8410000Y-16140000D01*
%TO.C,R15*%
X12104742Y-37040500D02*
X12579258Y-37040500D01*
X12104742Y-38085500D02*
X12579258Y-38085500D01*
%TO.C,J4*%
X42463700Y-40551000D02*
X43793700Y-40551000D01*
X42463700Y-41881000D02*
X42463700Y-40551000D01*
X42463700Y-50831000D02*
X45123700Y-50831000D01*
X45123700Y-43151000D02*
X45123700Y-50831000D01*
X42463700Y-43151000D02*
X45123700Y-43151000D01*
X42463700Y-43151000D02*
X42463700Y-50831000D01*
%TD*%
M02*
